solid OpenSCAD_Model
  facet normal 0.707107 0 -0.707107
    outer loop
      vertex 37 -5 -5.71068
      vertex 7.21068 5 -35.5
      vertex 37 5 -5.71068
    endloop
  endfacet
  facet normal 0.707107 0 -0.707107
    outer loop
      vertex 7.21068 5 -35.5
      vertex 37 -5 -5.71068
      vertex 7.21068 -5 -35.5
    endloop
  endfacet
  facet normal -0.707107 0 -0.707107
    outer loop
      vertex -7.21068 -5 -35.5
      vertex -37 5 -5.71068
      vertex -7.21068 5 -35.5
    endloop
  endfacet
  facet normal -0.707107 -0 -0.707107
    outer loop
      vertex -37 5 -5.71068
      vertex -7.21068 -5 -35.5
      vertex -37 -5 -5.71068
    endloop
  endfacet
  facet normal 0 1 -0
    outer loop
      vertex 37 5 -5.71068
      vertex 34.7107 5 0
      vertex 37 5 0
    endloop
  endfacet
  facet normal 0 1 0
    outer loop
      vertex 7.21068 5 -35.5
      vertex 34.7107 5 0
      vertex 37 5 -5.71068
    endloop
  endfacet
  facet normal 0 1 0
    outer loop
      vertex 34.7107 5 0
      vertex 7.21068 5 -35.5
      vertex 0 5 -34.7107
    endloop
  endfacet
  facet normal 0 1 0
    outer loop
      vertex -34.7107 5 0
      vertex -37 5 -5.71068
      vertex -37 5 0
    endloop
  endfacet
  facet normal 0 1 -0
    outer loop
      vertex -7.21068 5 -35.5
      vertex -34.7107 5 0
      vertex 0 5 -34.7107
    endloop
  endfacet
  facet normal 0 1 0
    outer loop
      vertex -34.7107 5 0
      vertex -7.21068 5 -35.5
      vertex -37 5 -5.71068
    endloop
  endfacet
  facet normal 0 1 0
    outer loop
      vertex -7.21068 5 -35.5
      vertex 0 5 -34.7107
      vertex 7.21068 5 -35.5
    endloop
  endfacet
  facet normal 0 -1 0
    outer loop
      vertex -37 -5 -5.71068
      vertex -34.7107 -5 0
      vertex -37 -5 0
    endloop
  endfacet
  facet normal 0 -1 0
    outer loop
      vertex -7.21068 -5 -35.5
      vertex -34.7107 -5 0
      vertex -37 -5 -5.71068
    endloop
  endfacet
  facet normal 0 -1 0
    outer loop
      vertex -34.7107 -5 0
      vertex -7.21068 -5 -35.5
      vertex 0 -5 -34.7107
    endloop
  endfacet
  facet normal 0 -1 0
    outer loop
      vertex 34.7107 -5 0
      vertex 37 -5 -5.71068
      vertex 37 -5 0
    endloop
  endfacet
  facet normal 0 -1 0
    outer loop
      vertex 7.21068 -5 -35.5
      vertex 34.7107 -5 0
      vertex 0 -5 -34.7107
    endloop
  endfacet
  facet normal 0 -1 -0
    outer loop
      vertex 34.7107 -5 0
      vertex 7.21068 -5 -35.5
      vertex 37 -5 -5.71068
    endloop
  endfacet
  facet normal 0 -1 0
    outer loop
      vertex 7.21068 -5 -35.5
      vertex 0 -5 -34.7107
      vertex -7.21068 -5 -35.5
    endloop
  endfacet
  facet normal 1 -0 0
    outer loop
      vertex 10 -10 -35.5
      vertex 10 10 -37
      vertex 10 10 -35.5
    endloop
  endfacet
  facet normal 1 0 0
    outer loop
      vertex 10 10 -37
      vertex 10 -10 -35.5
      vertex 10 -10 -37
    endloop
  endfacet
  facet normal 0 0 1
    outer loop
      vertex 10 10 -35.5
      vertex 7.21068 5 -35.5
      vertex 10 -10 -35.5
    endloop
  endfacet
  facet normal 0 0 1
    outer loop
      vertex 10 10 -35.5
      vertex -7.21068 5 -35.5
      vertex 7.21068 5 -35.5
    endloop
  endfacet
  facet normal 0 0 1
    outer loop
      vertex -7.21068 5 -35.5
      vertex -10 10 -35.5
      vertex -7.21068 -5 -35.5
    endloop
  endfacet
  facet normal -0 0 1
    outer loop
      vertex -10 10 -35.5
      vertex -7.21068 5 -35.5
      vertex 10 10 -35.5
    endloop
  endfacet
  facet normal -0 0 1
    outer loop
      vertex 7.21068 -5 -35.5
      vertex 10 -10 -35.5
      vertex 7.21068 5 -35.5
    endloop
  endfacet
  facet normal -0 0 1
    outer loop
      vertex -7.21068 -5 -35.5
      vertex 10 -10 -35.5
      vertex 7.21068 -5 -35.5
    endloop
  endfacet
  facet normal 0 0 1
    outer loop
      vertex -7.21068 -5 -35.5
      vertex -10 -10 -35.5
      vertex 10 -10 -35.5
    endloop
  endfacet
  facet normal 0 0 1
    outer loop
      vertex -10 -10 -35.5
      vertex -7.21068 -5 -35.5
      vertex -10 10 -35.5
    endloop
  endfacet
  facet normal -1 0 0
    outer loop
      vertex -10 -10 -37
      vertex -10 10 -35.5
      vertex -10 10 -37
    endloop
  endfacet
  facet normal -1 -0 0
    outer loop
      vertex -10 10 -35.5
      vertex -10 -10 -37
      vertex -10 -10 -35.5
    endloop
  endfacet
  facet normal 0 1 -0
    outer loop
      vertex 10 10 -37
      vertex -10 10 -35.5
      vertex 10 10 -35.5
    endloop
  endfacet
  facet normal 0 1 0
    outer loop
      vertex -10 10 -35.5
      vertex 10 10 -37
      vertex -10 10 -37
    endloop
  endfacet
  facet normal 0 -1 0
    outer loop
      vertex -10 -10 -37
      vertex 10 -10 -35.5
      vertex -10 -10 -35.5
    endloop
  endfacet
  facet normal 0 -1 -0
    outer loop
      vertex 10 -10 -35.5
      vertex -10 -10 -37
      vertex 10 -10 -37
    endloop
  endfacet
  facet normal -0 0 1
    outer loop
      vertex -37 2 -2
      vertex -32.7107 -2 -2
      vertex -32.7107 2 -2
    endloop
  endfacet
  facet normal 0 0 1
    outer loop
      vertex -32.7107 -2 -2
      vertex -37 2 -2
      vertex -37 -2 -2
    endloop
  endfacet
  facet normal -0 0 1
    outer loop
      vertex 32.7107 2 -2
      vertex 37 -2 -2
      vertex 37 2 -2
    endloop
  endfacet
  facet normal 0 0 1
    outer loop
      vertex 37 -2 -2
      vertex 32.7107 2 -2
      vertex 32.7107 -2 -2
    endloop
  endfacet
  facet normal 0 -1 0
    outer loop
      vertex -37 2 -2
      vertex -34.7107 2 0
      vertex -37 2 0
    endloop
  endfacet
  facet normal 0 -1 -0
    outer loop
      vertex -34.7107 2 0
      vertex -37 2 -2
      vertex -32.7107 2 -2
    endloop
  endfacet
  facet normal 0 -1 0
    outer loop
      vertex 37 2 -2
      vertex 34.7107 2 0
      vertex 32.7107 2 -2
    endloop
  endfacet
  facet normal 0 -1 0
    outer loop
      vertex 34.7107 2 0
      vertex 37 2 -2
      vertex 37 2 0
    endloop
  endfacet
  facet normal 0 1 0
    outer loop
      vertex -37 -2 -2
      vertex -34.7107 -2 0
      vertex -32.7107 -2 -2
    endloop
  endfacet
  facet normal 0 1 0
    outer loop
      vertex -34.7107 -2 0
      vertex -37 -2 -2
      vertex -37 -2 0
    endloop
  endfacet
  facet normal 0 1 -0
    outer loop
      vertex 37 -2 -2
      vertex 34.7107 -2 0
      vertex 37 -2 0
    endloop
  endfacet
  facet normal 0 1 0
    outer loop
      vertex 34.7107 -2 0
      vertex 37 -2 -2
      vertex 32.7107 -2 -2
    endloop
  endfacet
  facet normal -1 0 0
    outer loop
      vertex -37 5 -5.71068
      vertex -37 2 -2
      vertex -37 5 0
    endloop
  endfacet
  facet normal -1 0 0
    outer loop
      vertex -37 5 -5.71068
      vertex -37 -2 -2
      vertex -37 2 -2
    endloop
  endfacet
  facet normal -1 0 0
    outer loop
      vertex -37 -5 -5.71068
      vertex -37 -2 -2
      vertex -37 5 -5.71068
    endloop
  endfacet
  facet normal -1 0 0
    outer loop
      vertex -37 -5 0
      vertex -37 -2 -2
      vertex -37 -5 -5.71068
    endloop
  endfacet
  facet normal -1 0 0
    outer loop
      vertex -37 -2 -2
      vertex -37 -5 0
      vertex -37 -2 0
    endloop
  endfacet
  facet normal -1 -0 0
    outer loop
      vertex -37 5 0
      vertex -37 2 -2
      vertex -37 2 0
    endloop
  endfacet
  facet normal 1 0 0
    outer loop
      vertex 37 -2 0
      vertex 37 -5 0
      vertex 37 -2 -2
    endloop
  endfacet
  facet normal 1 0 0
    outer loop
      vertex 37 2 -2
      vertex 37 5 0
      vertex 37 2 0
    endloop
  endfacet
  facet normal 1 0 0
    outer loop
      vertex 37 5 0
      vertex 37 2 -2
      vertex 37 5 -5.71068
    endloop
  endfacet
  facet normal 1 -0 0
    outer loop
      vertex 37 -2 -2
      vertex 37 5 -5.71068
      vertex 37 2 -2
    endloop
  endfacet
  facet normal 1 0 0
    outer loop
      vertex 37 -2 -2
      vertex 37 -5 -5.71068
      vertex 37 5 -5.71068
    endloop
  endfacet
  facet normal 1 0 0
    outer loop
      vertex 37 -5 -5.71068
      vertex 37 -2 -2
      vertex 37 -5 0
    endloop
  endfacet
  facet normal -0 0 1
    outer loop
      vertex -37 -2 0
      vertex -34.7107 -5 0
      vertex -34.7107 -2 0
    endloop
  endfacet
  facet normal 0 0 1
    outer loop
      vertex -34.7107 -5 0
      vertex -37 -2 0
      vertex -37 -5 0
    endloop
  endfacet
  facet normal -0 0 1
    outer loop
      vertex -37 5 0
      vertex -34.7107 2 0
      vertex -34.7107 5 0
    endloop
  endfacet
  facet normal 0 0 1
    outer loop
      vertex -34.7107 2 0
      vertex -37 5 0
      vertex -37 2 0
    endloop
  endfacet
  facet normal -0 0 1
    outer loop
      vertex 34.7107 5 0
      vertex 37 2 0
      vertex 37 5 0
    endloop
  endfacet
  facet normal 0 0 1
    outer loop
      vertex 37 2 0
      vertex 34.7107 5 0
      vertex 34.7107 2 0
    endloop
  endfacet
  facet normal -0 0 1
    outer loop
      vertex 34.7107 -2 0
      vertex 37 -5 0
      vertex 37 -2 0
    endloop
  endfacet
  facet normal 0 0 1
    outer loop
      vertex 37 -5 0
      vertex 34.7107 -2 0
      vertex 34.7107 -5 0
    endloop
  endfacet
  facet normal -0.707107 0 0.707107
    outer loop
      vertex 0 5 -34.7107
      vertex 32.7107 2 -2
      vertex 34.7107 5 0
    endloop
  endfacet
  facet normal -0.707107 0 0.707107
    outer loop
      vertex 0 5 -34.7107
      vertex 32.7107 -2 -2
      vertex 32.7107 2 -2
    endloop
  endfacet
  facet normal -0.707107 0 0.707107
    outer loop
      vertex 0 -5 -34.7107
      vertex 32.7107 -2 -2
      vertex 0 5 -34.7107
    endloop
  endfacet
  facet normal -0.707107 0 0.707107
    outer loop
      vertex 34.7107 -5 0
      vertex 32.7107 -2 -2
      vertex 0 -5 -34.7107
    endloop
  endfacet
  facet normal -0.707107 0 0.707107
    outer loop
      vertex 32.7107 -2 -2
      vertex 34.7107 -5 0
      vertex 34.7107 -2 0
    endloop
  endfacet
  facet normal -0.707107 0 0.707107
    outer loop
      vertex 34.7107 5 0
      vertex 32.7107 2 -2
      vertex 34.7107 2 0
    endloop
  endfacet
  facet normal 0.707107 0 0.707107
    outer loop
      vertex -34.7107 -2 0
      vertex -34.7107 -5 0
      vertex -32.7107 -2 -2
    endloop
  endfacet
  facet normal 0.707107 0 0.707107
    outer loop
      vertex -32.7107 2 -2
      vertex -34.7107 5 0
      vertex -34.7107 2 0
    endloop
  endfacet
  facet normal 0.707107 0 0.707107
    outer loop
      vertex -34.7107 5 0
      vertex -32.7107 2 -2
      vertex 0 5 -34.7107
    endloop
  endfacet
  facet normal 0.707107 -0 0.707107
    outer loop
      vertex -32.7107 -2 -2
      vertex 0 5 -34.7107
      vertex -32.7107 2 -2
    endloop
  endfacet
  facet normal 0.707107 0 0.707107
    outer loop
      vertex 0 -5 -34.7107
      vertex -32.7107 -2 -2
      vertex -34.7107 -5 0
    endloop
  endfacet
  facet normal 0.707107 0 0.707107
    outer loop
      vertex -32.7107 -2 -2
      vertex 0 -5 -34.7107
      vertex 0 5 -34.7107
    endloop
  endfacet
  facet normal 0 0 -1
    outer loop
      vertex -10 -10 -37
      vertex 10 10 -37
      vertex 10 -10 -37
    endloop
  endfacet
  facet normal -0 0 -1
    outer loop
      vertex 10 10 -37
      vertex -10 -10 -37
      vertex -10 10 -37
    endloop
  endfacet
endsolid OpenSCAD_Model
