solid OpenSCAD_Model
  facet normal 0.707107 0 -0.707107
    outer loop
      vertex 47 -5 4.28932
      vertex 7.21068 5 -35.5
      vertex 47 5 4.28932
    endloop
  endfacet
  facet normal 0.707107 0 -0.707107
    outer loop
      vertex 7.21068 5 -35.5
      vertex 47 -5 4.28932
      vertex 7.21068 -5 -35.5
    endloop
  endfacet
  facet normal -0.707107 0 -0.707107
    outer loop
      vertex -7.21068 -5 -35.5
      vertex -47 5 4.28932
      vertex -7.21068 5 -35.5
    endloop
  endfacet
  facet normal -0.707107 -0 -0.707107
    outer loop
      vertex -47 5 4.28932
      vertex -7.21068 -5 -35.5
      vertex -47 -5 4.28932
    endloop
  endfacet
  facet normal 0 1 -0
    outer loop
      vertex 47 5 4.28932
      vertex 45.7107 5 11
      vertex 47 5 11
    endloop
  endfacet
  facet normal 0 1 0
    outer loop
      vertex 7.21068 5 -35.5
      vertex 45.7107 5 11
      vertex 47 5 4.28932
    endloop
  endfacet
  facet normal 0 1 0
    outer loop
      vertex 45.7107 5 11
      vertex 7.21068 5 -35.5
      vertex 0 5 -34.7107
    endloop
  endfacet
  facet normal 0 1 0
    outer loop
      vertex -45.7107 5 11
      vertex -47 5 4.28932
      vertex -47 5 11
    endloop
  endfacet
  facet normal 0 1 -0
    outer loop
      vertex -7.21068 5 -35.5
      vertex -45.7107 5 11
      vertex 0 5 -34.7107
    endloop
  endfacet
  facet normal 0 1 0
    outer loop
      vertex -45.7107 5 11
      vertex -7.21068 5 -35.5
      vertex -47 5 4.28932
    endloop
  endfacet
  facet normal 0 1 0
    outer loop
      vertex -7.21068 5 -35.5
      vertex 0 5 -34.7107
      vertex 7.21068 5 -35.5
    endloop
  endfacet
  facet normal 0 -1 0
    outer loop
      vertex -47 -5 4.28932
      vertex -45.7107 -5 11
      vertex -47 -5 11
    endloop
  endfacet
  facet normal 0 -1 0
    outer loop
      vertex -7.21068 -5 -35.5
      vertex -45.7107 -5 11
      vertex -47 -5 4.28932
    endloop
  endfacet
  facet normal 0 -1 0
    outer loop
      vertex -45.7107 -5 11
      vertex -7.21068 -5 -35.5
      vertex 0 -5 -34.7107
    endloop
  endfacet
  facet normal 0 -1 0
    outer loop
      vertex 45.7107 -5 11
      vertex 47 -5 4.28932
      vertex 47 -5 11
    endloop
  endfacet
  facet normal 0 -1 0
    outer loop
      vertex 7.21068 -5 -35.5
      vertex 45.7107 -5 11
      vertex 0 -5 -34.7107
    endloop
  endfacet
  facet normal 0 -1 -0
    outer loop
      vertex 45.7107 -5 11
      vertex 7.21068 -5 -35.5
      vertex 47 -5 4.28932
    endloop
  endfacet
  facet normal 0 -1 0
    outer loop
      vertex 7.21068 -5 -35.5
      vertex 0 -5 -34.7107
      vertex -7.21068 -5 -35.5
    endloop
  endfacet
  facet normal 1 -0 0
    outer loop
      vertex 10 -10 -35.5
      vertex 10 10 -37
      vertex 10 10 -35.5
    endloop
  endfacet
  facet normal 1 0 0
    outer loop
      vertex 10 10 -37
      vertex 10 -10 -35.5
      vertex 10 -10 -37
    endloop
  endfacet
  facet normal 0 0 1
    outer loop
      vertex 10 10 -35.5
      vertex 7.21068 5 -35.5
      vertex 10 -10 -35.5
    endloop
  endfacet
  facet normal 0 0 1
    outer loop
      vertex 10 10 -35.5
      vertex -7.21068 5 -35.5
      vertex 7.21068 5 -35.5
    endloop
  endfacet
  facet normal 0 0 1
    outer loop
      vertex -7.21068 5 -35.5
      vertex -10 10 -35.5
      vertex -7.21068 -5 -35.5
    endloop
  endfacet
  facet normal -0 0 1
    outer loop
      vertex -10 10 -35.5
      vertex -7.21068 5 -35.5
      vertex 10 10 -35.5
    endloop
  endfacet
  facet normal -0 0 1
    outer loop
      vertex 7.21068 -5 -35.5
      vertex 10 -10 -35.5
      vertex 7.21068 5 -35.5
    endloop
  endfacet
  facet normal -0 0 1
    outer loop
      vertex -7.21068 -5 -35.5
      vertex 10 -10 -35.5
      vertex 7.21068 -5 -35.5
    endloop
  endfacet
  facet normal 0 0 1
    outer loop
      vertex -7.21068 -5 -35.5
      vertex -10 -10 -35.5
      vertex 10 -10 -35.5
    endloop
  endfacet
  facet normal 0 0 1
    outer loop
      vertex -10 -10 -35.5
      vertex -7.21068 -5 -35.5
      vertex -10 10 -35.5
    endloop
  endfacet
  facet normal -1 0 0
    outer loop
      vertex -10 -10 -37
      vertex -10 10 -35.5
      vertex -10 10 -37
    endloop
  endfacet
  facet normal -1 -0 0
    outer loop
      vertex -10 10 -35.5
      vertex -10 -10 -37
      vertex -10 -10 -35.5
    endloop
  endfacet
  facet normal 0 1 -0
    outer loop
      vertex 10 10 -37
      vertex -10 10 -35.5
      vertex 10 10 -35.5
    endloop
  endfacet
  facet normal 0 1 0
    outer loop
      vertex -10 10 -35.5
      vertex 10 10 -37
      vertex -10 10 -37
    endloop
  endfacet
  facet normal 0 -1 0
    outer loop
      vertex -10 -10 -37
      vertex 10 -10 -35.5
      vertex -10 -10 -35.5
    endloop
  endfacet
  facet normal 0 -1 -0
    outer loop
      vertex 10 -10 -35.5
      vertex -10 -10 -37
      vertex 10 -10 -37
    endloop
  endfacet
  facet normal -0 0 1
    outer loop
      vertex -47 2 7
      vertex -41.7107 -2 7
      vertex -41.7107 2 7
    endloop
  endfacet
  facet normal 0 0 1
    outer loop
      vertex -41.7107 -2 7
      vertex -47 2 7
      vertex -47 -2 7
    endloop
  endfacet
  facet normal -0 0 1
    outer loop
      vertex 41.7107 2 7
      vertex 47 -2 7
      vertex 47 2 7
    endloop
  endfacet
  facet normal 0 0 1
    outer loop
      vertex 47 -2 7
      vertex 41.7107 2 7
      vertex 41.7107 -2 7
    endloop
  endfacet
  facet normal 0 -1 0
    outer loop
      vertex -47 2 7
      vertex -45.7107 2 11
      vertex -47 2 11
    endloop
  endfacet
  facet normal 0 -1 -0
    outer loop
      vertex -45.7107 2 11
      vertex -47 2 7
      vertex -41.7107 2 7
    endloop
  endfacet
  facet normal 0 -1 0
    outer loop
      vertex 47 2 7
      vertex 45.7107 2 11
      vertex 41.7107 2 7
    endloop
  endfacet
  facet normal 0 -1 0
    outer loop
      vertex 45.7107 2 11
      vertex 47 2 7
      vertex 47 2 11
    endloop
  endfacet
  facet normal 0 1 0
    outer loop
      vertex -47 -2 7
      vertex -45.7107 -2 11
      vertex -41.7107 -2 7
    endloop
  endfacet
  facet normal 0 1 0
    outer loop
      vertex -45.7107 -2 11
      vertex -47 -2 7
      vertex -47 -2 11
    endloop
  endfacet
  facet normal 0 1 -0
    outer loop
      vertex 47 -2 7
      vertex 45.7107 -2 11
      vertex 47 -2 11
    endloop
  endfacet
  facet normal 0 1 0
    outer loop
      vertex 45.7107 -2 11
      vertex 47 -2 7
      vertex 41.7107 -2 7
    endloop
  endfacet
  facet normal -1 0 0
    outer loop
      vertex -47 5 4.28932
      vertex -47 2 7
      vertex -47 5 11
    endloop
  endfacet
  facet normal -1 0 0
    outer loop
      vertex -47 5 4.28932
      vertex -47 -2 7
      vertex -47 2 7
    endloop
  endfacet
  facet normal -1 0 0
    outer loop
      vertex -47 -5 4.28932
      vertex -47 -2 7
      vertex -47 5 4.28932
    endloop
  endfacet
  facet normal -1 0 0
    outer loop
      vertex -47 -5 11
      vertex -47 -2 7
      vertex -47 -5 4.28932
    endloop
  endfacet
  facet normal -1 0 0
    outer loop
      vertex -47 -2 7
      vertex -47 -5 11
      vertex -47 -2 11
    endloop
  endfacet
  facet normal -1 -0 0
    outer loop
      vertex -47 5 11
      vertex -47 2 7
      vertex -47 2 11
    endloop
  endfacet
  facet normal 1 0 0
    outer loop
      vertex 47 -2 11
      vertex 47 -5 11
      vertex 47 -2 7
    endloop
  endfacet
  facet normal 1 0 0
    outer loop
      vertex 47 2 7
      vertex 47 5 11
      vertex 47 2 11
    endloop
  endfacet
  facet normal 1 0 0
    outer loop
      vertex 47 5 11
      vertex 47 2 7
      vertex 47 5 4.28932
    endloop
  endfacet
  facet normal 1 -0 0
    outer loop
      vertex 47 -2 7
      vertex 47 5 4.28932
      vertex 47 2 7
    endloop
  endfacet
  facet normal 1 0 0
    outer loop
      vertex 47 -2 7
      vertex 47 -5 4.28932
      vertex 47 5 4.28932
    endloop
  endfacet
  facet normal 1 0 0
    outer loop
      vertex 47 -5 4.28932
      vertex 47 -2 7
      vertex 47 -5 11
    endloop
  endfacet
  facet normal -0 0 1
    outer loop
      vertex -47 5 11
      vertex -45.7107 2 11
      vertex -45.7107 5 11
    endloop
  endfacet
  facet normal 0 0 1
    outer loop
      vertex -45.7107 2 11
      vertex -47 5 11
      vertex -47 2 11
    endloop
  endfacet
  facet normal -0 0 1
    outer loop
      vertex -47 -2 11
      vertex -45.7107 -5 11
      vertex -45.7107 -2 11
    endloop
  endfacet
  facet normal 0 0 1
    outer loop
      vertex -45.7107 -5 11
      vertex -47 -2 11
      vertex -47 -5 11
    endloop
  endfacet
  facet normal -0 0 1
    outer loop
      vertex 45.7107 5 11
      vertex 47 2 11
      vertex 47 5 11
    endloop
  endfacet
  facet normal 0 0 1
    outer loop
      vertex 47 2 11
      vertex 45.7107 5 11
      vertex 45.7107 2 11
    endloop
  endfacet
  facet normal -0 0 1
    outer loop
      vertex 45.7107 -2 11
      vertex 47 -5 11
      vertex 47 -2 11
    endloop
  endfacet
  facet normal 0 0 1
    outer loop
      vertex 47 -5 11
      vertex 45.7107 -2 11
      vertex 45.7107 -5 11
    endloop
  endfacet
  facet normal -0.707107 0 0.707107
    outer loop
      vertex 0 5 -34.7107
      vertex 41.7107 2 7
      vertex 45.7107 5 11
    endloop
  endfacet
  facet normal -0.707107 0 0.707107
    outer loop
      vertex 0 5 -34.7107
      vertex 41.7107 -2 7
      vertex 41.7107 2 7
    endloop
  endfacet
  facet normal -0.707107 0 0.707107
    outer loop
      vertex 0 -5 -34.7107
      vertex 41.7107 -2 7
      vertex 0 5 -34.7107
    endloop
  endfacet
  facet normal -0.707107 0 0.707107
    outer loop
      vertex 45.7107 -5 11
      vertex 41.7107 -2 7
      vertex 0 -5 -34.7107
    endloop
  endfacet
  facet normal -0.707107 0 0.707107
    outer loop
      vertex 41.7107 -2 7
      vertex 45.7107 -5 11
      vertex 45.7107 -2 11
    endloop
  endfacet
  facet normal -0.707107 0 0.707107
    outer loop
      vertex 45.7107 5 11
      vertex 41.7107 2 7
      vertex 45.7107 2 11
    endloop
  endfacet
  facet normal 0.707107 0 0.707107
    outer loop
      vertex -45.7107 -2 11
      vertex -45.7107 -5 11
      vertex -41.7107 -2 7
    endloop
  endfacet
  facet normal 0.707107 0 0.707107
    outer loop
      vertex -41.7107 2 7
      vertex -45.7107 5 11
      vertex -45.7107 2 11
    endloop
  endfacet
  facet normal 0.707107 0 0.707107
    outer loop
      vertex -45.7107 5 11
      vertex -41.7107 2 7
      vertex 0 5 -34.7107
    endloop
  endfacet
  facet normal 0.707107 -0 0.707107
    outer loop
      vertex -41.7107 -2 7
      vertex 0 5 -34.7107
      vertex -41.7107 2 7
    endloop
  endfacet
  facet normal 0.707107 0 0.707107
    outer loop
      vertex 0 -5 -34.7107
      vertex -41.7107 -2 7
      vertex -45.7107 -5 11
    endloop
  endfacet
  facet normal 0.707107 0 0.707107
    outer loop
      vertex -41.7107 -2 7
      vertex 0 -5 -34.7107
      vertex 0 5 -34.7107
    endloop
  endfacet
  facet normal 0 0 -1
    outer loop
      vertex -10 -10 -37
      vertex 10 10 -37
      vertex 10 -10 -37
    endloop
  endfacet
  facet normal -0 0 -1
    outer loop
      vertex 10 10 -37
      vertex -10 -10 -37
      vertex -10 10 -37
    endloop
  endfacet
endsolid OpenSCAD_Model
