solid OpenSCAD_Model
  facet normal 1 -0 0
    outer loop
      vertex 5 -15 13.5
      vertex 5 15 6.5
      vertex 5 15 13.5
    endloop
  endfacet
  facet normal 1 0 0
    outer loop
      vertex 5 15 6.5
      vertex 5 -15 13.5
      vertex 5 -15 6.5
    endloop
  endfacet
  facet normal -0 0 1
    outer loop
      vertex -5 15 13.5
      vertex -3.5 -15 13.5
      vertex -3.5 15 13.5
    endloop
  endfacet
  facet normal 0 0 1
    outer loop
      vertex -3.5 -15 13.5
      vertex -5 15 13.5
      vertex -5 -15 13.5
    endloop
  endfacet
  facet normal -0 0 1
    outer loop
      vertex 3.5 15 13.5
      vertex 5 -15 13.5
      vertex 5 15 13.5
    endloop
  endfacet
  facet normal 0 0 1
    outer loop
      vertex 5 -15 13.5
      vertex 3.5 15 13.5
      vertex 3.5 -15 13.5
    endloop
  endfacet
  facet normal 0 0 -1
    outer loop
      vertex 5 -15 6.5
      vertex 1.5 0 6.5
      vertex 5 15 6.5
    endloop
  endfacet
  facet normal 0 0 -1
    outer loop
      vertex 5 -15 6.5
      vertex 1.49704 -0.0941849 6.5
      vertex 1.5 0 6.5
    endloop
  endfacet
  facet normal 0 0 -1
    outer loop
      vertex 5 -15 6.5
      vertex 1.48817 -0.188 6.5
      vertex 1.49704 -0.0941849 6.5
    endloop
  endfacet
  facet normal 0 0 -1
    outer loop
      vertex 5 -15 6.5
      vertex 1.47343 -0.281072 6.5
      vertex 1.48817 -0.188 6.5
    endloop
  endfacet
  facet normal 0 0 -1
    outer loop
      vertex 5 -15 6.5
      vertex 1.45287 -0.373034 6.5
      vertex 1.47343 -0.281072 6.5
    endloop
  endfacet
  facet normal 0 0 -1
    outer loop
      vertex 5 -15 6.5
      vertex 1.42658 -0.463525 6.5
      vertex 1.45287 -0.373034 6.5
    endloop
  endfacet
  facet normal 0 0 -1
    outer loop
      vertex 5 -15 6.5
      vertex 1.39466 -0.552186 6.5
      vertex 1.42658 -0.463525 6.5
    endloop
  endfacet
  facet normal 0 0 -1
    outer loop
      vertex 5 -15 6.5
      vertex 1.35724 -0.638668 6.5
      vertex 1.39466 -0.552186 6.5
    endloop
  endfacet
  facet normal 0 0 -1
    outer loop
      vertex 5 -15 6.5
      vertex 1.31446 -0.722631 6.5
      vertex 1.35724 -0.638668 6.5
    endloop
  endfacet
  facet normal 0 0 -1
    outer loop
      vertex 5 -15 6.5
      vertex 1.26649 -0.80374 6.5
      vertex 1.31446 -0.722631 6.5
    endloop
  endfacet
  facet normal 0 0 -1
    outer loop
      vertex 5 -15 6.5
      vertex 1.21352 -0.881678 6.5
      vertex 1.26649 -0.80374 6.5
    endloop
  endfacet
  facet normal 0 0 -1
    outer loop
      vertex 5 -15 6.5
      vertex 1.15577 -0.956136 6.5
      vertex 1.21352 -0.881678 6.5
    endloop
  endfacet
  facet normal 0 0 -1
    outer loop
      vertex 5 -15 6.5
      vertex 1.09345 -1.02682 6.5
      vertex 1.15577 -0.956136 6.5
    endloop
  endfacet
  facet normal 0 0 -1
    outer loop
      vertex 5 -15 6.5
      vertex 1.02682 -1.09345 6.5
      vertex 1.09345 -1.02682 6.5
    endloop
  endfacet
  facet normal 0 0 -1
    outer loop
      vertex 5 -15 6.5
      vertex 0.956136 -1.15577 6.5
      vertex 1.02682 -1.09345 6.5
    endloop
  endfacet
  facet normal 0 0 -1
    outer loop
      vertex 5 -15 6.5
      vertex 0.881678 -1.21352 6.5
      vertex 0.956136 -1.15577 6.5
    endloop
  endfacet
  facet normal 0 0 -1
    outer loop
      vertex 5 -15 6.5
      vertex 0.80374 -1.26649 6.5
      vertex 0.881678 -1.21352 6.5
    endloop
  endfacet
  facet normal 0 0 -1
    outer loop
      vertex 5 -15 6.5
      vertex 0.722631 -1.31446 6.5
      vertex 0.80374 -1.26649 6.5
    endloop
  endfacet
  facet normal 0 0 -1
    outer loop
      vertex 5 -15 6.5
      vertex 0.638668 -1.35724 6.5
      vertex 0.722631 -1.31446 6.5
    endloop
  endfacet
  facet normal 0 0 -1
    outer loop
      vertex 5 -15 6.5
      vertex 0.552186 -1.39466 6.5
      vertex 0.638668 -1.35724 6.5
    endloop
  endfacet
  facet normal 0 0 -1
    outer loop
      vertex 5 -15 6.5
      vertex 0.463525 -1.42658 6.5
      vertex 0.552186 -1.39466 6.5
    endloop
  endfacet
  facet normal 0 0 -1
    outer loop
      vertex 5 -15 6.5
      vertex 0.373034 -1.45287 6.5
      vertex 0.463525 -1.42658 6.5
    endloop
  endfacet
  facet normal 0 0 -1
    outer loop
      vertex 5 -15 6.5
      vertex 0.281072 -1.47343 6.5
      vertex 0.373034 -1.45287 6.5
    endloop
  endfacet
  facet normal 0 0 -1
    outer loop
      vertex 5 -15 6.5
      vertex 0.188 -1.48817 6.5
      vertex 0.281072 -1.47343 6.5
    endloop
  endfacet
  facet normal 0 0 -1
    outer loop
      vertex 5 -15 6.5
      vertex 0.0941849 -1.49704 6.5
      vertex 0.188 -1.48817 6.5
    endloop
  endfacet
  facet normal 0 0 -1
    outer loop
      vertex 5 -15 6.5
      vertex 0 -1.5 6.5
      vertex 0.0941849 -1.49704 6.5
    endloop
  endfacet
  facet normal 0 0 -1
    outer loop
      vertex -5 -15 6.5
      vertex 0 -1.5 6.5
      vertex 5 -15 6.5
    endloop
  endfacet
  facet normal -0 0 -1
    outer loop
      vertex 0 -1.5 6.5
      vertex -5 -15 6.5
      vertex -0.0941849 -1.49704 6.5
    endloop
  endfacet
  facet normal -0 0 -1
    outer loop
      vertex -0.0941849 -1.49704 6.5
      vertex -5 -15 6.5
      vertex -0.188 -1.48817 6.5
    endloop
  endfacet
  facet normal -0 0 -1
    outer loop
      vertex -0.188 -1.48817 6.5
      vertex -5 -15 6.5
      vertex -0.281072 -1.47343 6.5
    endloop
  endfacet
  facet normal -0 0 -1
    outer loop
      vertex -0.281072 -1.47343 6.5
      vertex -5 -15 6.5
      vertex -0.373034 -1.45287 6.5
    endloop
  endfacet
  facet normal -0 0 -1
    outer loop
      vertex -0.373034 -1.45287 6.5
      vertex -5 -15 6.5
      vertex -0.463525 -1.42658 6.5
    endloop
  endfacet
  facet normal -0 0 -1
    outer loop
      vertex -0.463525 -1.42658 6.5
      vertex -5 -15 6.5
      vertex -0.552186 -1.39466 6.5
    endloop
  endfacet
  facet normal -0 0 -1
    outer loop
      vertex -0.552186 -1.39466 6.5
      vertex -5 -15 6.5
      vertex -0.638668 -1.35724 6.5
    endloop
  endfacet
  facet normal -0 0 -1
    outer loop
      vertex -0.638668 -1.35724 6.5
      vertex -5 -15 6.5
      vertex -0.722631 -1.31446 6.5
    endloop
  endfacet
  facet normal -0 0 -1
    outer loop
      vertex -0.722631 -1.31446 6.5
      vertex -5 -15 6.5
      vertex -0.80374 -1.26649 6.5
    endloop
  endfacet
  facet normal -0 0 -1
    outer loop
      vertex -0.80374 -1.26649 6.5
      vertex -5 -15 6.5
      vertex -0.881678 -1.21352 6.5
    endloop
  endfacet
  facet normal -0 0 -1
    outer loop
      vertex -0.881678 -1.21352 6.5
      vertex -5 -15 6.5
      vertex -0.956136 -1.15577 6.5
    endloop
  endfacet
  facet normal -0 0 -1
    outer loop
      vertex -0.956136 -1.15577 6.5
      vertex -5 -15 6.5
      vertex -1.02682 -1.09345 6.5
    endloop
  endfacet
  facet normal -0 0 -1
    outer loop
      vertex -1.02682 -1.09345 6.5
      vertex -5 -15 6.5
      vertex -1.09345 -1.02682 6.5
    endloop
  endfacet
  facet normal -0 0 -1
    outer loop
      vertex -1.09345 -1.02682 6.5
      vertex -5 -15 6.5
      vertex -1.15577 -0.956136 6.5
    endloop
  endfacet
  facet normal -0 0 -1
    outer loop
      vertex -1.15577 -0.956136 6.5
      vertex -5 -15 6.5
      vertex -1.21352 -0.881678 6.5
    endloop
  endfacet
  facet normal -0 0 -1
    outer loop
      vertex -1.21352 -0.881678 6.5
      vertex -5 -15 6.5
      vertex -1.26649 -0.80374 6.5
    endloop
  endfacet
  facet normal -0 0 -1
    outer loop
      vertex -1.26649 -0.80374 6.5
      vertex -5 -15 6.5
      vertex -1.31446 -0.722631 6.5
    endloop
  endfacet
  facet normal -0 0 -1
    outer loop
      vertex -1.49704 -0.0941849 6.5
      vertex -5 -15 6.5
      vertex -1.5 0 6.5
    endloop
  endfacet
  facet normal -0 0 -1
    outer loop
      vertex -1.48817 -0.188 6.5
      vertex -5 -15 6.5
      vertex -1.49704 -0.0941849 6.5
    endloop
  endfacet
  facet normal -0 0 -1
    outer loop
      vertex -1.47343 -0.281072 6.5
      vertex -5 -15 6.5
      vertex -1.48817 -0.188 6.5
    endloop
  endfacet
  facet normal -0 0 -1
    outer loop
      vertex -1.45287 -0.373034 6.5
      vertex -5 -15 6.5
      vertex -1.47343 -0.281072 6.5
    endloop
  endfacet
  facet normal -0 0 -1
    outer loop
      vertex -1.42658 -0.463525 6.5
      vertex -5 -15 6.5
      vertex -1.45287 -0.373034 6.5
    endloop
  endfacet
  facet normal -0 0 -1
    outer loop
      vertex -1.39466 -0.552186 6.5
      vertex -5 -15 6.5
      vertex -1.42658 -0.463525 6.5
    endloop
  endfacet
  facet normal -0 0 -1
    outer loop
      vertex -1.35724 -0.638668 6.5
      vertex -5 -15 6.5
      vertex -1.39466 -0.552186 6.5
    endloop
  endfacet
  facet normal -0 0 -1
    outer loop
      vertex -1.31446 -0.722631 6.5
      vertex -5 -15 6.5
      vertex -1.35724 -0.638668 6.5
    endloop
  endfacet
  facet normal 0 0 -1
    outer loop
      vertex 1.49704 0.0941849 6.5
      vertex 5 15 6.5
      vertex 1.5 0 6.5
    endloop
  endfacet
  facet normal 0 0 -1
    outer loop
      vertex 1.48817 0.188 6.5
      vertex 5 15 6.5
      vertex 1.49704 0.0941849 6.5
    endloop
  endfacet
  facet normal 0 0 -1
    outer loop
      vertex 1.47343 0.281072 6.5
      vertex 5 15 6.5
      vertex 1.48817 0.188 6.5
    endloop
  endfacet
  facet normal 0 0 -1
    outer loop
      vertex 1.45287 0.373034 6.5
      vertex 5 15 6.5
      vertex 1.47343 0.281072 6.5
    endloop
  endfacet
  facet normal 0 0 -1
    outer loop
      vertex 1.42658 0.463525 6.5
      vertex 5 15 6.5
      vertex 1.45287 0.373034 6.5
    endloop
  endfacet
  facet normal 0 0 -1
    outer loop
      vertex 1.39466 0.552186 6.5
      vertex 5 15 6.5
      vertex 1.42658 0.463525 6.5
    endloop
  endfacet
  facet normal 0 0 -1
    outer loop
      vertex 1.35724 0.638668 6.5
      vertex 5 15 6.5
      vertex 1.39466 0.552186 6.5
    endloop
  endfacet
  facet normal 0 0 -1
    outer loop
      vertex 1.31446 0.722631 6.5
      vertex 5 15 6.5
      vertex 1.35724 0.638668 6.5
    endloop
  endfacet
  facet normal 0 0 -1
    outer loop
      vertex 1.26649 0.80374 6.5
      vertex 5 15 6.5
      vertex 1.31446 0.722631 6.5
    endloop
  endfacet
  facet normal 0 0 -1
    outer loop
      vertex 1.21352 0.881678 6.5
      vertex 5 15 6.5
      vertex 1.26649 0.80374 6.5
    endloop
  endfacet
  facet normal 0 0 -1
    outer loop
      vertex 1.15577 0.956136 6.5
      vertex 5 15 6.5
      vertex 1.21352 0.881678 6.5
    endloop
  endfacet
  facet normal 0 0 -1
    outer loop
      vertex 1.09345 1.02682 6.5
      vertex 5 15 6.5
      vertex 1.15577 0.956136 6.5
    endloop
  endfacet
  facet normal 0 0 -1
    outer loop
      vertex 1.02682 1.09345 6.5
      vertex 5 15 6.5
      vertex 1.09345 1.02682 6.5
    endloop
  endfacet
  facet normal 0 0 -1
    outer loop
      vertex 0.956136 1.15577 6.5
      vertex 5 15 6.5
      vertex 1.02682 1.09345 6.5
    endloop
  endfacet
  facet normal 0 0 -1
    outer loop
      vertex 0.881678 1.21352 6.5
      vertex 5 15 6.5
      vertex 0.956136 1.15577 6.5
    endloop
  endfacet
  facet normal 0 0 -1
    outer loop
      vertex 0.80374 1.26649 6.5
      vertex 5 15 6.5
      vertex 0.881678 1.21352 6.5
    endloop
  endfacet
  facet normal 0 0 -1
    outer loop
      vertex 0.722631 1.31446 6.5
      vertex 5 15 6.5
      vertex 0.80374 1.26649 6.5
    endloop
  endfacet
  facet normal 0 0 -1
    outer loop
      vertex 0.638668 1.35724 6.5
      vertex 5 15 6.5
      vertex 0.722631 1.31446 6.5
    endloop
  endfacet
  facet normal 0 0 -1
    outer loop
      vertex 0.552186 1.39466 6.5
      vertex 5 15 6.5
      vertex 0.638668 1.35724 6.5
    endloop
  endfacet
  facet normal 0 0 -1
    outer loop
      vertex 0.463525 1.42658 6.5
      vertex 5 15 6.5
      vertex 0.552186 1.39466 6.5
    endloop
  endfacet
  facet normal 0 0 -1
    outer loop
      vertex 0.373034 1.45287 6.5
      vertex 5 15 6.5
      vertex 0.463525 1.42658 6.5
    endloop
  endfacet
  facet normal 0 0 -1
    outer loop
      vertex 0.281072 1.47343 6.5
      vertex 5 15 6.5
      vertex 0.373034 1.45287 6.5
    endloop
  endfacet
  facet normal 0 0 -1
    outer loop
      vertex 0.188 1.48817 6.5
      vertex 5 15 6.5
      vertex 0.281072 1.47343 6.5
    endloop
  endfacet
  facet normal 0 0 -1
    outer loop
      vertex 0.0941849 1.49704 6.5
      vertex 5 15 6.5
      vertex 0.188 1.48817 6.5
    endloop
  endfacet
  facet normal 0 0 -1
    outer loop
      vertex 0 1.5 6.5
      vertex 5 15 6.5
      vertex 0.0941849 1.49704 6.5
    endloop
  endfacet
  facet normal 0 0 -1
    outer loop
      vertex -5 15 6.5
      vertex 0 1.5 6.5
      vertex -0.0941849 1.49704 6.5
    endloop
  endfacet
  facet normal 0 0 -1
    outer loop
      vertex -5 15 6.5
      vertex -0.0941849 1.49704 6.5
      vertex -0.188 1.48817 6.5
    endloop
  endfacet
  facet normal 0 0 -1
    outer loop
      vertex -5 15 6.5
      vertex -0.188 1.48817 6.5
      vertex -0.281072 1.47343 6.5
    endloop
  endfacet
  facet normal 0 0 -1
    outer loop
      vertex -5 15 6.5
      vertex -0.281072 1.47343 6.5
      vertex -0.373034 1.45287 6.5
    endloop
  endfacet
  facet normal 0 0 -1
    outer loop
      vertex -5 15 6.5
      vertex -0.373034 1.45287 6.5
      vertex -0.463525 1.42658 6.5
    endloop
  endfacet
  facet normal 0 0 -1
    outer loop
      vertex -5 15 6.5
      vertex -0.463525 1.42658 6.5
      vertex -0.552186 1.39466 6.5
    endloop
  endfacet
  facet normal 0 0 -1
    outer loop
      vertex -5 15 6.5
      vertex -0.552186 1.39466 6.5
      vertex -0.638668 1.35724 6.5
    endloop
  endfacet
  facet normal 0 0 -1
    outer loop
      vertex -5 15 6.5
      vertex -0.638668 1.35724 6.5
      vertex -0.722631 1.31446 6.5
    endloop
  endfacet
  facet normal 0 0 -1
    outer loop
      vertex -5 15 6.5
      vertex -0.722631 1.31446 6.5
      vertex -0.80374 1.26649 6.5
    endloop
  endfacet
  facet normal 0 0 -1
    outer loop
      vertex -5 15 6.5
      vertex -0.80374 1.26649 6.5
      vertex -0.881678 1.21352 6.5
    endloop
  endfacet
  facet normal 0 0 -1
    outer loop
      vertex -5 15 6.5
      vertex -0.881678 1.21352 6.5
      vertex -0.956136 1.15577 6.5
    endloop
  endfacet
  facet normal 0 0 -1
    outer loop
      vertex -5 15 6.5
      vertex -0.956136 1.15577 6.5
      vertex -1.02682 1.09345 6.5
    endloop
  endfacet
  facet normal 0 0 -1
    outer loop
      vertex -5 15 6.5
      vertex -1.02682 1.09345 6.5
      vertex -1.09345 1.02682 6.5
    endloop
  endfacet
  facet normal 0 0 -1
    outer loop
      vertex -5 15 6.5
      vertex -1.09345 1.02682 6.5
      vertex -1.15577 0.956136 6.5
    endloop
  endfacet
  facet normal 0 0 -1
    outer loop
      vertex -5 15 6.5
      vertex -1.15577 0.956136 6.5
      vertex -1.21352 0.881678 6.5
    endloop
  endfacet
  facet normal 0 0 -1
    outer loop
      vertex -5 15 6.5
      vertex -1.21352 0.881678 6.5
      vertex -1.26649 0.80374 6.5
    endloop
  endfacet
  facet normal 0 0 -1
    outer loop
      vertex -5 15 6.5
      vertex -1.26649 0.80374 6.5
      vertex -1.31446 0.722631 6.5
    endloop
  endfacet
  facet normal 0 0 -1
    outer loop
      vertex -5 15 6.5
      vertex -1.31446 0.722631 6.5
      vertex -1.35724 0.638668 6.5
    endloop
  endfacet
  facet normal 0 0 -1
    outer loop
      vertex -5 15 6.5
      vertex -1.5 0 6.5
      vertex -5 -15 6.5
    endloop
  endfacet
  facet normal 0 0 -1
    outer loop
      vertex -1.5 0 6.5
      vertex -5 15 6.5
      vertex -1.49704 0.0941849 6.5
    endloop
  endfacet
  facet normal 0 0 -1
    outer loop
      vertex -1.49704 0.0941849 6.5
      vertex -5 15 6.5
      vertex -1.48817 0.188 6.5
    endloop
  endfacet
  facet normal 0 0 -1
    outer loop
      vertex -1.48817 0.188 6.5
      vertex -5 15 6.5
      vertex -1.47343 0.281072 6.5
    endloop
  endfacet
  facet normal 0 0 -1
    outer loop
      vertex 0 1.5 6.5
      vertex -5 15 6.5
      vertex 5 15 6.5
    endloop
  endfacet
  facet normal 0 0 -1
    outer loop
      vertex -1.39466 0.552186 6.5
      vertex -5 15 6.5
      vertex -1.35724 0.638668 6.5
    endloop
  endfacet
  facet normal 0 0 -1
    outer loop
      vertex -1.42658 0.463525 6.5
      vertex -5 15 6.5
      vertex -1.39466 0.552186 6.5
    endloop
  endfacet
  facet normal 0 0 -1
    outer loop
      vertex -1.45287 0.373034 6.5
      vertex -5 15 6.5
      vertex -1.42658 0.463525 6.5
    endloop
  endfacet
  facet normal 0 0 -1
    outer loop
      vertex -1.47343 0.281072 6.5
      vertex -5 15 6.5
      vertex -1.45287 0.373034 6.5
    endloop
  endfacet
  facet normal -1 0 0
    outer loop
      vertex -5 -15 6.5
      vertex -5 15 13.5
      vertex -5 15 6.5
    endloop
  endfacet
  facet normal -1 -0 0
    outer loop
      vertex -5 15 13.5
      vertex -5 -15 6.5
      vertex -5 -15 13.5
    endloop
  endfacet
  facet normal 0 1 0
    outer loop
      vertex 5 15 13.5
      vertex 3.5 15 11.5
      vertex 3.5 15 13.5
    endloop
  endfacet
  facet normal 0 1 0
    outer loop
      vertex 3.5 15 11.5
      vertex 5 15 6.5
      vertex -3.5 15 11.5
    endloop
  endfacet
  facet normal 0 1 -0
    outer loop
      vertex 5 15 6.5
      vertex 3.5 15 11.5
      vertex 5 15 13.5
    endloop
  endfacet
  facet normal 0 1 -0
    outer loop
      vertex -3.5 15 11.5
      vertex -5 15 13.5
      vertex -3.5 15 13.5
    endloop
  endfacet
  facet normal 0 1 0
    outer loop
      vertex -3.5 15 11.5
      vertex -5 15 6.5
      vertex -5 15 13.5
    endloop
  endfacet
  facet normal 0 1 0
    outer loop
      vertex -5 15 6.5
      vertex -3.5 15 11.5
      vertex 5 15 6.5
    endloop
  endfacet
  facet normal 0 -1 0
    outer loop
      vertex -5 -15 13.5
      vertex -3.5 -15 11.5
      vertex -3.5 -15 13.5
    endloop
  endfacet
  facet normal 0 -1 -0
    outer loop
      vertex -3.5 -15 11.5
      vertex -5 -15 6.5
      vertex 3.5 -15 11.5
    endloop
  endfacet
  facet normal 0 -1 0
    outer loop
      vertex -5 -15 6.5
      vertex -3.5 -15 11.5
      vertex -5 -15 13.5
    endloop
  endfacet
  facet normal 0 -1 0
    outer loop
      vertex 3.5 -15 11.5
      vertex 5 -15 13.5
      vertex 3.5 -15 13.5
    endloop
  endfacet
  facet normal 0 -1 0
    outer loop
      vertex 3.5 -15 11.5
      vertex 5 -15 6.5
      vertex 5 -15 13.5
    endloop
  endfacet
  facet normal 0 -1 0
    outer loop
      vertex 5 -15 6.5
      vertex 3.5 -15 11.5
      vertex -5 -15 6.5
    endloop
  endfacet
  facet normal -1 0 0
    outer loop
      vertex 3.5 -15 11.5
      vertex 3.5 15 13.5
      vertex 3.5 15 11.5
    endloop
  endfacet
  facet normal -1 -0 0
    outer loop
      vertex 3.5 15 13.5
      vertex 3.5 -15 11.5
      vertex 3.5 -15 13.5
    endloop
  endfacet
  facet normal -0 0 1
    outer loop
      vertex -3.5 15 11.5
      vertex 3.5 -15 11.5
      vertex 3.5 15 11.5
    endloop
  endfacet
  facet normal 0 0 1
    outer loop
      vertex 3.5 -15 11.5
      vertex -3.5 15 11.5
      vertex -3.5 -15 11.5
    endloop
  endfacet
  facet normal 1 -0 0
    outer loop
      vertex -3.5 -15 13.5
      vertex -3.5 15 11.5
      vertex -3.5 15 13.5
    endloop
  endfacet
  facet normal 1 0 0
    outer loop
      vertex -3.5 15 11.5
      vertex -3.5 -15 13.5
      vertex -3.5 -15 11.5
    endloop
  endfacet
  facet normal -0.999507 -0.031412 0
    outer loop
      vertex 1.5 0 6.5
      vertex 1.49704 0.0941849 10
      vertex 1.49704 0.0941849 6.5
    endloop
  endfacet
  facet normal -0.999507 -0.031412 0
    outer loop
      vertex 1.49704 0.0941849 10
      vertex 1.5 0 6.5
      vertex 1.5 0 10
    endloop
  endfacet
  facet normal -0.91777 0.397111 0
    outer loop
      vertex 1.35724 -0.638668 6.5
      vertex 1.39466 -0.552186 10
      vertex 1.39466 -0.552186 6.5
    endloop
  endfacet
  facet normal -0.91777 0.397111 0
    outer loop
      vertex 1.39466 -0.552186 10
      vertex 1.35724 -0.638668 6.5
      vertex 1.35724 -0.638668 10
    endloop
  endfacet
  facet normal -0.827064 -0.562108 0
    outer loop
      vertex 1.26649 0.80374 6.5
      vertex 1.21352 0.881678 10
      vertex 1.21352 0.881678 6.5
    endloop
  endfacet
  facet normal -0.827064 -0.562108 0
    outer loop
      vertex 1.21352 0.881678 10
      vertex 1.26649 0.80374 6.5
      vertex 1.26649 0.80374 10
    endloop
  endfacet
  facet normal 0.509059 -0.860731 0
    outer loop
      vertex -0.80374 1.26649 6.5
      vertex -0.722631 1.31446 10
      vertex -0.80374 1.26649 10
    endloop
  endfacet
  facet normal 0.509059 -0.860731 0
    outer loop
      vertex -0.722631 1.31446 10
      vertex -0.80374 1.26649 6.5
      vertex -0.722631 1.31446 6.5
    endloop
  endfacet
  facet normal -0.218184 0.975908 0
    outer loop
      vertex 0.373034 -1.45287 6.5
      vertex 0.281072 -1.47343 10
      vertex 0.373034 -1.45287 10
    endloop
  endfacet
  facet normal -0.218184 0.975908 0
    outer loop
      vertex 0.281072 -1.47343 10
      vertex 0.373034 -1.45287 6.5
      vertex 0.281072 -1.47343 6.5
    endloop
  endfacet
  facet normal -0.562108 -0.827064 0
    outer loop
      vertex 0.80374 1.26649 6.5
      vertex 0.881678 1.21352 10
      vertex 0.80374 1.26649 10
    endloop
  endfacet
  facet normal -0.562108 -0.827064 -0
    outer loop
      vertex 0.881678 1.21352 10
      vertex 0.80374 1.26649 6.5
      vertex 0.881678 1.21352 6.5
    endloop
  endfacet
  facet normal -0.790184 0.61287 0
    outer loop
      vertex 1.15577 -0.956136 6.5
      vertex 1.21352 -0.881678 10
      vertex 1.21352 -0.881678 6.5
    endloop
  endfacet
  facet normal -0.790184 0.61287 0
    outer loop
      vertex 1.21352 -0.881678 10
      vertex 1.15577 -0.956136 6.5
      vertex 1.15577 -0.956136 10
    endloop
  endfacet
  facet normal 0.61287 0.790184 -0
    outer loop
      vertex -0.881678 -1.21352 6.5
      vertex -0.956136 -1.15577 10
      vertex -0.881678 -1.21352 10
    endloop
  endfacet
  facet normal 0.61287 0.790184 0
    outer loop
      vertex -0.956136 -1.15577 10
      vertex -0.881678 -1.21352 6.5
      vertex -0.956136 -1.15577 6.5
    endloop
  endfacet
  facet normal -0.860731 0.509059 0
    outer loop
      vertex 1.26649 -0.80374 6.5
      vertex 1.31446 -0.722631 10
      vertex 1.31446 -0.722631 6.5
    endloop
  endfacet
  facet normal -0.860731 0.509059 0
    outer loop
      vertex 1.31446 -0.722631 10
      vertex 1.26649 -0.80374 6.5
      vertex 1.26649 -0.80374 10
    endloop
  endfacet
  facet normal -0.397111 -0.91777 0
    outer loop
      vertex 0.552186 1.39466 6.5
      vertex 0.638668 1.35724 10
      vertex 0.552186 1.39466 10
    endloop
  endfacet
  facet normal -0.397111 -0.91777 -0
    outer loop
      vertex 0.638668 1.35724 10
      vertex 0.552186 1.39466 6.5
      vertex 0.638668 1.35724 6.5
    endloop
  endfacet
  facet normal -0.45398 0.891012 0
    outer loop
      vertex 0.722631 -1.31446 6.5
      vertex 0.638668 -1.35724 10
      vertex 0.722631 -1.31446 10
    endloop
  endfacet
  facet normal -0.45398 0.891012 0
    outer loop
      vertex 0.638668 -1.35724 10
      vertex 0.722631 -1.31446 6.5
      vertex 0.638668 -1.35724 6.5
    endloop
  endfacet
  facet normal -0.860731 -0.509059 0
    outer loop
      vertex 1.31446 0.722631 6.5
      vertex 1.26649 0.80374 10
      vertex 1.26649 0.80374 6.5
    endloop
  endfacet
  facet normal -0.860731 -0.509059 0
    outer loop
      vertex 1.26649 0.80374 10
      vertex 1.31446 0.722631 6.5
      vertex 1.31446 0.722631 10
    endloop
  endfacet
  facet normal -0.891012 -0.45398 0
    outer loop
      vertex 1.35724 0.638668 6.5
      vertex 1.31446 0.722631 10
      vertex 1.31446 0.722631 6.5
    endloop
  endfacet
  facet normal -0.891012 -0.45398 0
    outer loop
      vertex 1.31446 0.722631 10
      vertex 1.35724 0.638668 6.5
      vertex 1.35724 0.638668 10
    endloop
  endfacet
  facet normal 0.790184 0.61287 0
    outer loop
      vertex -1.15577 -0.956136 10
      vertex -1.21352 -0.881678 6.5
      vertex -1.21352 -0.881678 10
    endloop
  endfacet
  facet normal 0.790184 0.61287 0
    outer loop
      vertex -1.21352 -0.881678 6.5
      vertex -1.15577 -0.956136 10
      vertex -1.15577 -0.956136 6.5
    endloop
  endfacet
  facet normal -0.27899 0.960294 0
    outer loop
      vertex 0.463525 -1.42658 6.5
      vertex 0.373034 -1.45287 10
      vertex 0.463525 -1.42658 10
    endloop
  endfacet
  facet normal -0.27899 0.960294 0
    outer loop
      vertex 0.373034 -1.45287 10
      vertex 0.463525 -1.42658 6.5
      vertex 0.373034 -1.45287 6.5
    endloop
  endfacet
  facet normal -0.338739 -0.940881 0
    outer loop
      vertex 0.463525 1.42658 6.5
      vertex 0.552186 1.39466 10
      vertex 0.463525 1.42658 10
    endloop
  endfacet
  facet normal -0.338739 -0.940881 -0
    outer loop
      vertex 0.552186 1.39466 10
      vertex 0.463525 1.42658 6.5
      vertex 0.552186 1.39466 6.5
    endloop
  endfacet
  facet normal -0.509059 -0.860731 0
    outer loop
      vertex 0.722631 1.31446 6.5
      vertex 0.80374 1.26649 10
      vertex 0.722631 1.31446 10
    endloop
  endfacet
  facet normal -0.509059 -0.860731 -0
    outer loop
      vertex 0.80374 1.26649 10
      vertex 0.722631 1.31446 6.5
      vertex 0.80374 1.26649 6.5
    endloop
  endfacet
  facet normal 0.031412 0.999507 -0
    outer loop
      vertex 0 -1.5 6.5
      vertex -0.0941849 -1.49704 10
      vertex 0 -1.5 10
    endloop
  endfacet
  facet normal 0.031412 0.999507 0
    outer loop
      vertex -0.0941849 -1.49704 10
      vertex 0 -1.5 6.5
      vertex -0.0941849 -1.49704 6.5
    endloop
  endfacet
  facet normal -0.031412 -0.999507 0
    outer loop
      vertex 0 1.5 6.5
      vertex 0.0941849 1.49704 10
      vertex 0 1.5 10
    endloop
  endfacet
  facet normal -0.031412 -0.999507 -0
    outer loop
      vertex 0.0941849 1.49704 10
      vertex 0 1.5 6.5
      vertex 0.0941849 1.49704 6.5
    endloop
  endfacet
  facet normal 0.397111 0.91777 -0
    outer loop
      vertex -0.552186 -1.39466 6.5
      vertex -0.638668 -1.35724 10
      vertex -0.552186 -1.39466 10
    endloop
  endfacet
  facet normal 0.397111 0.91777 0
    outer loop
      vertex -0.638668 -1.35724 10
      vertex -0.552186 -1.39466 6.5
      vertex -0.638668 -1.35724 6.5
    endloop
  endfacet
  facet normal 0.707107 -0.707107 0
    outer loop
      vertex -1.09345 1.02682 10
      vertex -1.02682 1.09345 6.5
      vertex -1.02682 1.09345 10
    endloop
  endfacet
  facet normal 0.707107 -0.707107 0
    outer loop
      vertex -1.02682 1.09345 6.5
      vertex -1.09345 1.02682 10
      vertex -1.09345 1.02682 6.5
    endloop
  endfacet
  facet normal -0.975908 -0.218184 0
    outer loop
      vertex 1.47343 0.281072 6.5
      vertex 1.45287 0.373034 10
      vertex 1.45287 0.373034 6.5
    endloop
  endfacet
  facet normal -0.975908 -0.218184 0
    outer loop
      vertex 1.45287 0.373034 10
      vertex 1.47343 0.281072 6.5
      vertex 1.47343 0.281072 10
    endloop
  endfacet
  facet normal 0.45398 0.891012 -0
    outer loop
      vertex -0.638668 -1.35724 6.5
      vertex -0.722631 -1.31446 10
      vertex -0.638668 -1.35724 10
    endloop
  endfacet
  facet normal 0.45398 0.891012 0
    outer loop
      vertex -0.722631 -1.31446 10
      vertex -0.638668 -1.35724 6.5
      vertex -0.722631 -1.31446 6.5
    endloop
  endfacet
  facet normal -0.99556 0.0941279 0
    outer loop
      vertex 1.48817 -0.188 6.5
      vertex 1.49704 -0.0941849 10
      vertex 1.49704 -0.0941849 6.5
    endloop
  endfacet
  facet normal -0.99556 0.0941279 0
    outer loop
      vertex 1.49704 -0.0941849 10
      vertex 1.48817 -0.188 6.5
      vertex 1.48817 -0.188 10
    endloop
  endfacet
  facet normal 0.562108 -0.827064 0
    outer loop
      vertex -0.881678 1.21352 6.5
      vertex -0.80374 1.26649 10
      vertex -0.881678 1.21352 10
    endloop
  endfacet
  facet normal 0.562108 -0.827064 0
    outer loop
      vertex -0.80374 1.26649 10
      vertex -0.881678 1.21352 6.5
      vertex -0.80374 1.26649 6.5
    endloop
  endfacet
  facet normal 0.031412 -0.999507 0
    outer loop
      vertex -0.0941849 1.49704 6.5
      vertex 0 1.5 10
      vertex -0.0941849 1.49704 10
    endloop
  endfacet
  facet normal 0.031412 -0.999507 0
    outer loop
      vertex 0 1.5 10
      vertex -0.0941849 1.49704 6.5
      vertex 0 1.5 6.5
    endloop
  endfacet
  facet normal -0.750092 0.661334 0
    outer loop
      vertex 1.09345 -1.02682 6.5
      vertex 1.15577 -0.956136 10
      vertex 1.15577 -0.956136 6.5
    endloop
  endfacet
  facet normal -0.750092 0.661334 0
    outer loop
      vertex 1.15577 -0.956136 10
      vertex 1.09345 -1.02682 6.5
      vertex 1.09345 -1.02682 10
    endloop
  endfacet
  facet normal -0.707107 0.707107 0
    outer loop
      vertex 1.02682 -1.09345 6.5
      vertex 1.09345 -1.02682 10
      vertex 1.09345 -1.02682 6.5
    endloop
  endfacet
  facet normal -0.707107 0.707107 0
    outer loop
      vertex 1.09345 -1.02682 10
      vertex 1.02682 -1.09345 6.5
      vertex 1.02682 -1.09345 10
    endloop
  endfacet
  facet normal 0.960294 -0.27899 0
    outer loop
      vertex -1.45287 0.373034 10
      vertex -1.42658 0.463525 6.5
      vertex -1.42658 0.463525 10
    endloop
  endfacet
  facet normal 0.960294 -0.27899 0
    outer loop
      vertex -1.42658 0.463525 6.5
      vertex -1.45287 0.373034 10
      vertex -1.45287 0.373034 6.5
    endloop
  endfacet
  facet normal -0.750092 -0.661334 0
    outer loop
      vertex 1.15577 0.956136 6.5
      vertex 1.09345 1.02682 10
      vertex 1.09345 1.02682 6.5
    endloop
  endfacet
  facet normal -0.750092 -0.661334 0
    outer loop
      vertex 1.09345 1.02682 10
      vertex 1.15577 0.956136 6.5
      vertex 1.15577 0.956136 10
    endloop
  endfacet
  facet normal 0.827064 0.562108 0
    outer loop
      vertex -1.21352 -0.881678 10
      vertex -1.26649 -0.80374 6.5
      vertex -1.26649 -0.80374 10
    endloop
  endfacet
  facet normal 0.827064 0.562108 0
    outer loop
      vertex -1.26649 -0.80374 6.5
      vertex -1.21352 -0.881678 10
      vertex -1.21352 -0.881678 6.5
    endloop
  endfacet
  facet normal -0.338739 0.940881 0
    outer loop
      vertex 0.552186 -1.39466 6.5
      vertex 0.463525 -1.42658 10
      vertex 0.552186 -1.39466 10
    endloop
  endfacet
  facet normal -0.338739 0.940881 0
    outer loop
      vertex 0.463525 -1.42658 10
      vertex 0.552186 -1.39466 6.5
      vertex 0.463525 -1.42658 6.5
    endloop
  endfacet
  facet normal 0.707107 0.707107 0
    outer loop
      vertex -1.02682 -1.09345 10
      vertex -1.09345 -1.02682 6.5
      vertex -1.09345 -1.02682 10
    endloop
  endfacet
  facet normal 0.707107 0.707107 0
    outer loop
      vertex -1.09345 -1.02682 6.5
      vertex -1.02682 -1.09345 10
      vertex -1.02682 -1.09345 6.5
    endloop
  endfacet
  facet normal -0.509059 0.860731 0
    outer loop
      vertex 0.80374 -1.26649 6.5
      vertex 0.722631 -1.31446 10
      vertex 0.80374 -1.26649 10
    endloop
  endfacet
  facet normal -0.509059 0.860731 0
    outer loop
      vertex 0.722631 -1.31446 10
      vertex 0.80374 -1.26649 6.5
      vertex 0.722631 -1.31446 6.5
    endloop
  endfacet
  facet normal -0.960294 -0.27899 0
    outer loop
      vertex 1.45287 0.373034 6.5
      vertex 1.42658 0.463525 10
      vertex 1.42658 0.463525 6.5
    endloop
  endfacet
  facet normal -0.960294 -0.27899 0
    outer loop
      vertex 1.42658 0.463525 10
      vertex 1.45287 0.373034 6.5
      vertex 1.45287 0.373034 10
    endloop
  endfacet
  facet normal 0.218184 0.975908 -0
    outer loop
      vertex -0.281072 -1.47343 6.5
      vertex -0.373034 -1.45287 10
      vertex -0.281072 -1.47343 10
    endloop
  endfacet
  facet normal 0.218184 0.975908 0
    outer loop
      vertex -0.373034 -1.45287 10
      vertex -0.281072 -1.47343 6.5
      vertex -0.373034 -1.45287 6.5
    endloop
  endfacet
  facet normal 0.61287 -0.790184 0
    outer loop
      vertex -0.956136 1.15577 6.5
      vertex -0.881678 1.21352 10
      vertex -0.956136 1.15577 10
    endloop
  endfacet
  facet normal 0.61287 -0.790184 0
    outer loop
      vertex -0.881678 1.21352 10
      vertex -0.956136 1.15577 6.5
      vertex -0.881678 1.21352 6.5
    endloop
  endfacet
  facet normal -0.562108 0.827064 0
    outer loop
      vertex 0.881678 -1.21352 6.5
      vertex 0.80374 -1.26649 10
      vertex 0.881678 -1.21352 10
    endloop
  endfacet
  facet normal -0.562108 0.827064 0
    outer loop
      vertex 0.80374 -1.26649 10
      vertex 0.881678 -1.21352 6.5
      vertex 0.80374 -1.26649 6.5
    endloop
  endfacet
  facet normal 0.827064 -0.562108 0
    outer loop
      vertex -1.26649 0.80374 10
      vertex -1.21352 0.881678 6.5
      vertex -1.21352 0.881678 10
    endloop
  endfacet
  facet normal 0.827064 -0.562108 0
    outer loop
      vertex -1.21352 0.881678 6.5
      vertex -1.26649 0.80374 10
      vertex -1.26649 0.80374 6.5
    endloop
  endfacet
  facet normal 0.156422 0.98769 -0
    outer loop
      vertex -0.188 -1.48817 6.5
      vertex -0.281072 -1.47343 10
      vertex -0.188 -1.48817 10
    endloop
  endfacet
  facet normal 0.156422 0.98769 0
    outer loop
      vertex -0.281072 -1.47343 10
      vertex -0.188 -1.48817 6.5
      vertex -0.281072 -1.47343 6.5
    endloop
  endfacet
  facet normal 0.99556 0.0941279 0
    outer loop
      vertex -1.48817 -0.188 10
      vertex -1.49704 -0.0941849 6.5
      vertex -1.49704 -0.0941849 10
    endloop
  endfacet
  facet normal 0.99556 0.0941279 0
    outer loop
      vertex -1.49704 -0.0941849 6.5
      vertex -1.48817 -0.188 10
      vertex -1.48817 -0.188 6.5
    endloop
  endfacet
  facet normal 0.750092 -0.661334 0
    outer loop
      vertex -1.15577 0.956136 10
      vertex -1.09345 1.02682 6.5
      vertex -1.09345 1.02682 10
    endloop
  endfacet
  facet normal 0.750092 -0.661334 0
    outer loop
      vertex -1.09345 1.02682 6.5
      vertex -1.15577 0.956136 10
      vertex -1.15577 0.956136 6.5
    endloop
  endfacet
  facet normal -0.0941279 0.99556 0
    outer loop
      vertex 0.188 -1.48817 6.5
      vertex 0.0941849 -1.49704 10
      vertex 0.188 -1.48817 10
    endloop
  endfacet
  facet normal -0.0941279 0.99556 0
    outer loop
      vertex 0.0941849 -1.49704 10
      vertex 0.188 -1.48817 6.5
      vertex 0.0941849 -1.49704 6.5
    endloop
  endfacet
  facet normal -0.99556 -0.0941279 0
    outer loop
      vertex 1.49704 0.0941849 6.5
      vertex 1.48817 0.188 10
      vertex 1.48817 0.188 6.5
    endloop
  endfacet
  facet normal -0.99556 -0.0941279 0
    outer loop
      vertex 1.48817 0.188 10
      vertex 1.49704 0.0941849 6.5
      vertex 1.49704 0.0941849 10
    endloop
  endfacet
  facet normal -0.98769 -0.156422 0
    outer loop
      vertex 1.48817 0.188 6.5
      vertex 1.47343 0.281072 10
      vertex 1.47343 0.281072 6.5
    endloop
  endfacet
  facet normal -0.98769 -0.156422 0
    outer loop
      vertex 1.47343 0.281072 10
      vertex 1.48817 0.188 6.5
      vertex 1.48817 0.188 10
    endloop
  endfacet
  facet normal -0.156422 -0.98769 0
    outer loop
      vertex 0.188 1.48817 6.5
      vertex 0.281072 1.47343 10
      vertex 0.188 1.48817 10
    endloop
  endfacet
  facet normal -0.156422 -0.98769 -0
    outer loop
      vertex 0.281072 1.47343 10
      vertex 0.188 1.48817 6.5
      vertex 0.281072 1.47343 6.5
    endloop
  endfacet
  facet normal -0.397111 0.91777 0
    outer loop
      vertex 0.638668 -1.35724 6.5
      vertex 0.552186 -1.39466 10
      vertex 0.638668 -1.35724 10
    endloop
  endfacet
  facet normal -0.397111 0.91777 0
    outer loop
      vertex 0.552186 -1.39466 10
      vertex 0.638668 -1.35724 6.5
      vertex 0.552186 -1.39466 6.5
    endloop
  endfacet
  facet normal 0.975908 0.218184 0
    outer loop
      vertex -1.45287 -0.373034 10
      vertex -1.47343 -0.281072 6.5
      vertex -1.47343 -0.281072 10
    endloop
  endfacet
  facet normal 0.975908 0.218184 0
    outer loop
      vertex -1.47343 -0.281072 6.5
      vertex -1.45287 -0.373034 10
      vertex -1.45287 -0.373034 6.5
    endloop
  endfacet
  facet normal -0.790184 -0.61287 0
    outer loop
      vertex 1.21352 0.881678 6.5
      vertex 1.15577 0.956136 10
      vertex 1.15577 0.956136 6.5
    endloop
  endfacet
  facet normal -0.790184 -0.61287 0
    outer loop
      vertex 1.15577 0.956136 10
      vertex 1.21352 0.881678 6.5
      vertex 1.21352 0.881678 10
    endloop
  endfacet
  facet normal 0.99556 -0.0941279 0
    outer loop
      vertex -1.49704 0.0941849 10
      vertex -1.48817 0.188 6.5
      vertex -1.48817 0.188 10
    endloop
  endfacet
  facet normal 0.99556 -0.0941279 0
    outer loop
      vertex -1.48817 0.188 6.5
      vertex -1.49704 0.0941849 10
      vertex -1.49704 0.0941849 6.5
    endloop
  endfacet
  facet normal 0.891012 -0.45398 0
    outer loop
      vertex -1.35724 0.638668 10
      vertex -1.31446 0.722631 6.5
      vertex -1.31446 0.722631 10
    endloop
  endfacet
  facet normal 0.891012 -0.45398 0
    outer loop
      vertex -1.31446 0.722631 6.5
      vertex -1.35724 0.638668 10
      vertex -1.35724 0.638668 6.5
    endloop
  endfacet
  facet normal 0.999507 0.031412 0
    outer loop
      vertex -1.49704 -0.0941849 10
      vertex -1.5 0 6.5
      vertex -1.5 0 10
    endloop
  endfacet
  facet normal 0.999507 0.031412 0
    outer loop
      vertex -1.5 0 6.5
      vertex -1.49704 -0.0941849 10
      vertex -1.49704 -0.0941849 6.5
    endloop
  endfacet
  facet normal 0.45398 -0.891012 0
    outer loop
      vertex -0.722631 1.31446 6.5
      vertex -0.638668 1.35724 10
      vertex -0.722631 1.31446 10
    endloop
  endfacet
  facet normal 0.45398 -0.891012 0
    outer loop
      vertex -0.638668 1.35724 10
      vertex -0.722631 1.31446 6.5
      vertex -0.638668 1.35724 6.5
    endloop
  endfacet
  facet normal 0.397111 -0.91777 0
    outer loop
      vertex -0.638668 1.35724 6.5
      vertex -0.552186 1.39466 10
      vertex -0.638668 1.35724 10
    endloop
  endfacet
  facet normal 0.397111 -0.91777 0
    outer loop
      vertex -0.552186 1.39466 10
      vertex -0.638668 1.35724 6.5
      vertex -0.552186 1.39466 6.5
    endloop
  endfacet
  facet normal -0.940881 -0.338739 0
    outer loop
      vertex 1.42658 0.463525 6.5
      vertex 1.39466 0.552186 10
      vertex 1.39466 0.552186 6.5
    endloop
  endfacet
  facet normal -0.940881 -0.338739 0
    outer loop
      vertex 1.39466 0.552186 10
      vertex 1.42658 0.463525 6.5
      vertex 1.42658 0.463525 10
    endloop
  endfacet
  facet normal 0.940881 0.338739 0
    outer loop
      vertex -1.39466 -0.552186 10
      vertex -1.42658 -0.463525 6.5
      vertex -1.42658 -0.463525 10
    endloop
  endfacet
  facet normal 0.940881 0.338739 0
    outer loop
      vertex -1.42658 -0.463525 6.5
      vertex -1.39466 -0.552186 10
      vertex -1.39466 -0.552186 6.5
    endloop
  endfacet
  facet normal -0.891012 0.45398 0
    outer loop
      vertex 1.31446 -0.722631 6.5
      vertex 1.35724 -0.638668 10
      vertex 1.35724 -0.638668 6.5
    endloop
  endfacet
  facet normal -0.891012 0.45398 0
    outer loop
      vertex 1.35724 -0.638668 10
      vertex 1.31446 -0.722631 6.5
      vertex 1.31446 -0.722631 10
    endloop
  endfacet
  facet normal 0.999507 -0.031412 0
    outer loop
      vertex -1.5 0 10
      vertex -1.49704 0.0941849 6.5
      vertex -1.49704 0.0941849 10
    endloop
  endfacet
  facet normal 0.999507 -0.031412 0
    outer loop
      vertex -1.49704 0.0941849 6.5
      vertex -1.5 0 10
      vertex -1.5 0 6.5
    endloop
  endfacet
  facet normal 0.338739 -0.940881 0
    outer loop
      vertex -0.552186 1.39466 6.5
      vertex -0.463525 1.42658 10
      vertex -0.552186 1.39466 10
    endloop
  endfacet
  facet normal 0.338739 -0.940881 0
    outer loop
      vertex -0.463525 1.42658 10
      vertex -0.552186 1.39466 6.5
      vertex -0.463525 1.42658 6.5
    endloop
  endfacet
  facet normal 0.98769 0.156422 0
    outer loop
      vertex -1.47343 -0.281072 10
      vertex -1.48817 -0.188 6.5
      vertex -1.48817 -0.188 10
    endloop
  endfacet
  facet normal 0.98769 0.156422 0
    outer loop
      vertex -1.48817 -0.188 6.5
      vertex -1.47343 -0.281072 10
      vertex -1.47343 -0.281072 6.5
    endloop
  endfacet
  facet normal 0.860731 0.509059 0
    outer loop
      vertex -1.26649 -0.80374 10
      vertex -1.31446 -0.722631 6.5
      vertex -1.31446 -0.722631 10
    endloop
  endfacet
  facet normal 0.860731 0.509059 0
    outer loop
      vertex -1.31446 -0.722631 6.5
      vertex -1.26649 -0.80374 10
      vertex -1.26649 -0.80374 6.5
    endloop
  endfacet
  facet normal 0.975908 -0.218184 0
    outer loop
      vertex -1.47343 0.281072 10
      vertex -1.45287 0.373034 6.5
      vertex -1.45287 0.373034 10
    endloop
  endfacet
  facet normal 0.975908 -0.218184 0
    outer loop
      vertex -1.45287 0.373034 6.5
      vertex -1.47343 0.281072 10
      vertex -1.47343 0.281072 6.5
    endloop
  endfacet
  facet normal -0.45398 -0.891012 0
    outer loop
      vertex 0.638668 1.35724 6.5
      vertex 0.722631 1.31446 10
      vertex 0.638668 1.35724 10
    endloop
  endfacet
  facet normal -0.45398 -0.891012 -0
    outer loop
      vertex 0.722631 1.31446 10
      vertex 0.638668 1.35724 6.5
      vertex 0.722631 1.31446 6.5
    endloop
  endfacet
  facet normal 0.509059 0.860731 -0
    outer loop
      vertex -0.722631 -1.31446 6.5
      vertex -0.80374 -1.26649 10
      vertex -0.722631 -1.31446 10
    endloop
  endfacet
  facet normal 0.509059 0.860731 0
    outer loop
      vertex -0.80374 -1.26649 10
      vertex -0.722631 -1.31446 6.5
      vertex -0.80374 -1.26649 6.5
    endloop
  endfacet
  facet normal -0.156422 0.98769 0
    outer loop
      vertex 0.281072 -1.47343 6.5
      vertex 0.188 -1.48817 10
      vertex 0.281072 -1.47343 10
    endloop
  endfacet
  facet normal -0.156422 0.98769 0
    outer loop
      vertex 0.188 -1.48817 10
      vertex 0.281072 -1.47343 6.5
      vertex 0.188 -1.48817 6.5
    endloop
  endfacet
  facet normal -0.031412 0.999507 0
    outer loop
      vertex 0.0941849 -1.49704 6.5
      vertex 0 -1.5 10
      vertex 0.0941849 -1.49704 10
    endloop
  endfacet
  facet normal -0.031412 0.999507 0
    outer loop
      vertex 0 -1.5 10
      vertex 0.0941849 -1.49704 6.5
      vertex 0 -1.5 6.5
    endloop
  endfacet
  facet normal -0.940881 0.338739 0
    outer loop
      vertex 1.39466 -0.552186 6.5
      vertex 1.42658 -0.463525 10
      vertex 1.42658 -0.463525 6.5
    endloop
  endfacet
  facet normal -0.940881 0.338739 0
    outer loop
      vertex 1.42658 -0.463525 10
      vertex 1.39466 -0.552186 6.5
      vertex 1.39466 -0.552186 10
    endloop
  endfacet
  facet normal -0.98769 0.156422 0
    outer loop
      vertex 1.47343 -0.281072 6.5
      vertex 1.48817 -0.188 10
      vertex 1.48817 -0.188 6.5
    endloop
  endfacet
  facet normal -0.98769 0.156422 0
    outer loop
      vertex 1.48817 -0.188 10
      vertex 1.47343 -0.281072 6.5
      vertex 1.47343 -0.281072 10
    endloop
  endfacet
  facet normal 0.91777 -0.397111 0
    outer loop
      vertex -1.39466 0.552186 10
      vertex -1.35724 0.638668 6.5
      vertex -1.35724 0.638668 10
    endloop
  endfacet
  facet normal 0.91777 -0.397111 0
    outer loop
      vertex -1.35724 0.638668 6.5
      vertex -1.39466 0.552186 10
      vertex -1.39466 0.552186 6.5
    endloop
  endfacet
  facet normal -0.0941279 -0.99556 0
    outer loop
      vertex 0.0941849 1.49704 6.5
      vertex 0.188 1.48817 10
      vertex 0.0941849 1.49704 10
    endloop
  endfacet
  facet normal -0.0941279 -0.99556 -0
    outer loop
      vertex 0.188 1.48817 10
      vertex 0.0941849 1.49704 6.5
      vertex 0.188 1.48817 6.5
    endloop
  endfacet
  facet normal -0.661334 -0.750092 0
    outer loop
      vertex 0.956136 1.15577 6.5
      vertex 1.02682 1.09345 10
      vertex 0.956136 1.15577 10
    endloop
  endfacet
  facet normal -0.661334 -0.750092 -0
    outer loop
      vertex 1.02682 1.09345 10
      vertex 0.956136 1.15577 6.5
      vertex 1.02682 1.09345 6.5
    endloop
  endfacet
  facet normal -0.61287 0.790184 0
    outer loop
      vertex 0.956136 -1.15577 6.5
      vertex 0.881678 -1.21352 10
      vertex 0.956136 -1.15577 10
    endloop
  endfacet
  facet normal -0.61287 0.790184 0
    outer loop
      vertex 0.881678 -1.21352 10
      vertex 0.956136 -1.15577 6.5
      vertex 0.881678 -1.21352 6.5
    endloop
  endfacet
  facet normal -0.91777 -0.397111 0
    outer loop
      vertex 1.39466 0.552186 6.5
      vertex 1.35724 0.638668 10
      vertex 1.35724 0.638668 6.5
    endloop
  endfacet
  facet normal -0.91777 -0.397111 0
    outer loop
      vertex 1.35724 0.638668 10
      vertex 1.39466 0.552186 6.5
      vertex 1.39466 0.552186 10
    endloop
  endfacet
  facet normal 0.218184 -0.975908 0
    outer loop
      vertex -0.373034 1.45287 6.5
      vertex -0.281072 1.47343 10
      vertex -0.373034 1.45287 10
    endloop
  endfacet
  facet normal 0.218184 -0.975908 0
    outer loop
      vertex -0.281072 1.47343 10
      vertex -0.373034 1.45287 6.5
      vertex -0.281072 1.47343 6.5
    endloop
  endfacet
  facet normal -0.61287 -0.790184 0
    outer loop
      vertex 0.881678 1.21352 6.5
      vertex 0.956136 1.15577 10
      vertex 0.881678 1.21352 10
    endloop
  endfacet
  facet normal -0.61287 -0.790184 -0
    outer loop
      vertex 0.956136 1.15577 10
      vertex 0.881678 1.21352 6.5
      vertex 0.956136 1.15577 6.5
    endloop
  endfacet
  facet normal 0.661334 -0.750092 0
    outer loop
      vertex -1.02682 1.09345 6.5
      vertex -0.956136 1.15577 10
      vertex -1.02682 1.09345 10
    endloop
  endfacet
  facet normal 0.661334 -0.750092 0
    outer loop
      vertex -0.956136 1.15577 10
      vertex -1.02682 1.09345 6.5
      vertex -0.956136 1.15577 6.5
    endloop
  endfacet
  facet normal 0.156422 -0.98769 0
    outer loop
      vertex -0.281072 1.47343 6.5
      vertex -0.188 1.48817 10
      vertex -0.281072 1.47343 10
    endloop
  endfacet
  facet normal 0.156422 -0.98769 0
    outer loop
      vertex -0.188 1.48817 10
      vertex -0.281072 1.47343 6.5
      vertex -0.188 1.48817 6.5
    endloop
  endfacet
  facet normal 0.0941279 -0.99556 0
    outer loop
      vertex -0.188 1.48817 6.5
      vertex -0.0941849 1.49704 10
      vertex -0.188 1.48817 10
    endloop
  endfacet
  facet normal 0.0941279 -0.99556 0
    outer loop
      vertex -0.0941849 1.49704 10
      vertex -0.188 1.48817 6.5
      vertex -0.0941849 1.49704 6.5
    endloop
  endfacet
  facet normal 0.98769 -0.156422 0
    outer loop
      vertex -1.48817 0.188 10
      vertex -1.47343 0.281072 6.5
      vertex -1.47343 0.281072 10
    endloop
  endfacet
  facet normal 0.98769 -0.156422 0
    outer loop
      vertex -1.47343 0.281072 6.5
      vertex -1.48817 0.188 10
      vertex -1.48817 0.188 6.5
    endloop
  endfacet
  facet normal -0.999507 0.031412 0
    outer loop
      vertex 1.49704 -0.0941849 6.5
      vertex 1.5 0 10
      vertex 1.5 0 6.5
    endloop
  endfacet
  facet normal -0.999507 0.031412 0
    outer loop
      vertex 1.5 0 10
      vertex 1.49704 -0.0941849 6.5
      vertex 1.49704 -0.0941849 10
    endloop
  endfacet
  facet normal 0.562108 0.827064 -0
    outer loop
      vertex -0.80374 -1.26649 6.5
      vertex -0.881678 -1.21352 10
      vertex -0.80374 -1.26649 10
    endloop
  endfacet
  facet normal 0.562108 0.827064 0
    outer loop
      vertex -0.881678 -1.21352 10
      vertex -0.80374 -1.26649 6.5
      vertex -0.881678 -1.21352 6.5
    endloop
  endfacet
  facet normal 0.891012 0.45398 0
    outer loop
      vertex -1.31446 -0.722631 10
      vertex -1.35724 -0.638668 6.5
      vertex -1.35724 -0.638668 10
    endloop
  endfacet
  facet normal 0.891012 0.45398 0
    outer loop
      vertex -1.35724 -0.638668 6.5
      vertex -1.31446 -0.722631 10
      vertex -1.31446 -0.722631 6.5
    endloop
  endfacet
  facet normal 0.750092 0.661334 0
    outer loop
      vertex -1.09345 -1.02682 10
      vertex -1.15577 -0.956136 6.5
      vertex -1.15577 -0.956136 10
    endloop
  endfacet
  facet normal 0.750092 0.661334 0
    outer loop
      vertex -1.15577 -0.956136 6.5
      vertex -1.09345 -1.02682 10
      vertex -1.09345 -1.02682 6.5
    endloop
  endfacet
  facet normal 0.860731 -0.509059 0
    outer loop
      vertex -1.31446 0.722631 10
      vertex -1.26649 0.80374 6.5
      vertex -1.26649 0.80374 10
    endloop
  endfacet
  facet normal 0.860731 -0.509059 0
    outer loop
      vertex -1.26649 0.80374 6.5
      vertex -1.31446 0.722631 10
      vertex -1.31446 0.722631 6.5
    endloop
  endfacet
  facet normal -0.661334 0.750092 0
    outer loop
      vertex 1.02682 -1.09345 6.5
      vertex 0.956136 -1.15577 10
      vertex 1.02682 -1.09345 10
    endloop
  endfacet
  facet normal -0.661334 0.750092 0
    outer loop
      vertex 0.956136 -1.15577 10
      vertex 1.02682 -1.09345 6.5
      vertex 0.956136 -1.15577 6.5
    endloop
  endfacet
  facet normal 0.91777 0.397111 0
    outer loop
      vertex -1.35724 -0.638668 10
      vertex -1.39466 -0.552186 6.5
      vertex -1.39466 -0.552186 10
    endloop
  endfacet
  facet normal 0.91777 0.397111 0
    outer loop
      vertex -1.39466 -0.552186 6.5
      vertex -1.35724 -0.638668 10
      vertex -1.35724 -0.638668 6.5
    endloop
  endfacet
  facet normal -0.827064 0.562108 0
    outer loop
      vertex 1.21352 -0.881678 6.5
      vertex 1.26649 -0.80374 10
      vertex 1.26649 -0.80374 6.5
    endloop
  endfacet
  facet normal -0.827064 0.562108 0
    outer loop
      vertex 1.26649 -0.80374 10
      vertex 1.21352 -0.881678 6.5
      vertex 1.21352 -0.881678 10
    endloop
  endfacet
  facet normal -0.960294 0.27899 0
    outer loop
      vertex 1.42658 -0.463525 6.5
      vertex 1.45287 -0.373034 10
      vertex 1.45287 -0.373034 6.5
    endloop
  endfacet
  facet normal -0.960294 0.27899 0
    outer loop
      vertex 1.45287 -0.373034 10
      vertex 1.42658 -0.463525 6.5
      vertex 1.42658 -0.463525 10
    endloop
  endfacet
  facet normal -0.975908 0.218184 0
    outer loop
      vertex 1.45287 -0.373034 6.5
      vertex 1.47343 -0.281072 10
      vertex 1.47343 -0.281072 6.5
    endloop
  endfacet
  facet normal -0.975908 0.218184 0
    outer loop
      vertex 1.47343 -0.281072 10
      vertex 1.45287 -0.373034 6.5
      vertex 1.45287 -0.373034 10
    endloop
  endfacet
  facet normal 0.940881 -0.338739 0
    outer loop
      vertex -1.42658 0.463525 10
      vertex -1.39466 0.552186 6.5
      vertex -1.39466 0.552186 10
    endloop
  endfacet
  facet normal 0.940881 -0.338739 0
    outer loop
      vertex -1.39466 0.552186 6.5
      vertex -1.42658 0.463525 10
      vertex -1.42658 0.463525 6.5
    endloop
  endfacet
  facet normal 0.790184 -0.61287 0
    outer loop
      vertex -1.21352 0.881678 10
      vertex -1.15577 0.956136 6.5
      vertex -1.15577 0.956136 10
    endloop
  endfacet
  facet normal 0.790184 -0.61287 0
    outer loop
      vertex -1.15577 0.956136 6.5
      vertex -1.21352 0.881678 10
      vertex -1.21352 0.881678 6.5
    endloop
  endfacet
  facet normal 0.661334 0.750092 -0
    outer loop
      vertex -0.956136 -1.15577 6.5
      vertex -1.02682 -1.09345 10
      vertex -0.956136 -1.15577 10
    endloop
  endfacet
  facet normal 0.661334 0.750092 0
    outer loop
      vertex -1.02682 -1.09345 10
      vertex -0.956136 -1.15577 6.5
      vertex -1.02682 -1.09345 6.5
    endloop
  endfacet
  facet normal -0.707107 -0.707107 0
    outer loop
      vertex 1.09345 1.02682 6.5
      vertex 1.02682 1.09345 10
      vertex 1.02682 1.09345 6.5
    endloop
  endfacet
  facet normal -0.707107 -0.707107 0
    outer loop
      vertex 1.02682 1.09345 10
      vertex 1.09345 1.02682 6.5
      vertex 1.09345 1.02682 10
    endloop
  endfacet
  facet normal 0.338739 0.940881 -0
    outer loop
      vertex -0.463525 -1.42658 6.5
      vertex -0.552186 -1.39466 10
      vertex -0.463525 -1.42658 10
    endloop
  endfacet
  facet normal 0.338739 0.940881 0
    outer loop
      vertex -0.552186 -1.39466 10
      vertex -0.463525 -1.42658 6.5
      vertex -0.552186 -1.39466 6.5
    endloop
  endfacet
  facet normal -0.218184 -0.975908 0
    outer loop
      vertex 0.281072 1.47343 6.5
      vertex 0.373034 1.45287 10
      vertex 0.281072 1.47343 10
    endloop
  endfacet
  facet normal -0.218184 -0.975908 -0
    outer loop
      vertex 0.373034 1.45287 10
      vertex 0.281072 1.47343 6.5
      vertex 0.373034 1.45287 6.5
    endloop
  endfacet
  facet normal 0.0941279 0.99556 -0
    outer loop
      vertex -0.0941849 -1.49704 6.5
      vertex -0.188 -1.48817 10
      vertex -0.0941849 -1.49704 10
    endloop
  endfacet
  facet normal 0.0941279 0.99556 0
    outer loop
      vertex -0.188 -1.48817 10
      vertex -0.0941849 -1.49704 6.5
      vertex -0.188 -1.48817 6.5
    endloop
  endfacet
  facet normal 0.27899 0.960294 -0
    outer loop
      vertex -0.373034 -1.45287 6.5
      vertex -0.463525 -1.42658 10
      vertex -0.373034 -1.45287 10
    endloop
  endfacet
  facet normal 0.27899 0.960294 0
    outer loop
      vertex -0.463525 -1.42658 10
      vertex -0.373034 -1.45287 6.5
      vertex -0.463525 -1.42658 6.5
    endloop
  endfacet
  facet normal 0.27899 -0.960294 0
    outer loop
      vertex -0.463525 1.42658 6.5
      vertex -0.373034 1.45287 10
      vertex -0.463525 1.42658 10
    endloop
  endfacet
  facet normal 0.27899 -0.960294 0
    outer loop
      vertex -0.373034 1.45287 10
      vertex -0.463525 1.42658 6.5
      vertex -0.373034 1.45287 6.5
    endloop
  endfacet
  facet normal 0.960294 0.27899 0
    outer loop
      vertex -1.42658 -0.463525 10
      vertex -1.45287 -0.373034 6.5
      vertex -1.45287 -0.373034 10
    endloop
  endfacet
  facet normal 0.960294 0.27899 0
    outer loop
      vertex -1.45287 -0.373034 6.5
      vertex -1.42658 -0.463525 10
      vertex -1.42658 -0.463525 6.5
    endloop
  endfacet
  facet normal 0 0 -1
    outer loop
      vertex 1.49704 -0.0941849 10
      vertex 1.49704 0.0941849 10
      vertex 1.5 0 10
    endloop
  endfacet
  facet normal 0 0 -1
    outer loop
      vertex 1.48817 -0.188 10
      vertex 1.49704 0.0941849 10
      vertex 1.49704 -0.0941849 10
    endloop
  endfacet
  facet normal 0 0 -1
    outer loop
      vertex 1.48817 -0.188 10
      vertex 1.48817 0.188 10
      vertex 1.49704 0.0941849 10
    endloop
  endfacet
  facet normal 0 0 -1
    outer loop
      vertex 1.47343 -0.281072 10
      vertex 1.48817 0.188 10
      vertex 1.48817 -0.188 10
    endloop
  endfacet
  facet normal 0 0 -1
    outer loop
      vertex 1.47343 -0.281072 10
      vertex 1.47343 0.281072 10
      vertex 1.48817 0.188 10
    endloop
  endfacet
  facet normal 0 0 -1
    outer loop
      vertex 1.45287 -0.373034 10
      vertex 1.47343 0.281072 10
      vertex 1.47343 -0.281072 10
    endloop
  endfacet
  facet normal 0 0 -1
    outer loop
      vertex 1.45287 -0.373034 10
      vertex 1.45287 0.373034 10
      vertex 1.47343 0.281072 10
    endloop
  endfacet
  facet normal 0 0 -1
    outer loop
      vertex 1.42658 -0.463525 10
      vertex 1.45287 0.373034 10
      vertex 1.45287 -0.373034 10
    endloop
  endfacet
  facet normal 0 0 -1
    outer loop
      vertex 1.42658 -0.463525 10
      vertex 1.42658 0.463525 10
      vertex 1.45287 0.373034 10
    endloop
  endfacet
  facet normal 0 0 -1
    outer loop
      vertex 1.39466 -0.552186 10
      vertex 1.42658 0.463525 10
      vertex 1.42658 -0.463525 10
    endloop
  endfacet
  facet normal 0 0 -1
    outer loop
      vertex 1.39466 -0.552186 10
      vertex 1.39466 0.552186 10
      vertex 1.42658 0.463525 10
    endloop
  endfacet
  facet normal 0 0 -1
    outer loop
      vertex 1.35724 -0.638668 10
      vertex 1.39466 0.552186 10
      vertex 1.39466 -0.552186 10
    endloop
  endfacet
  facet normal 0 0 -1
    outer loop
      vertex 1.35724 -0.638668 10
      vertex 1.35724 0.638668 10
      vertex 1.39466 0.552186 10
    endloop
  endfacet
  facet normal 0 0 -1
    outer loop
      vertex 1.31446 -0.722631 10
      vertex 1.35724 0.638668 10
      vertex 1.35724 -0.638668 10
    endloop
  endfacet
  facet normal 0 0 -1
    outer loop
      vertex 1.31446 -0.722631 10
      vertex 1.31446 0.722631 10
      vertex 1.35724 0.638668 10
    endloop
  endfacet
  facet normal 0 0 -1
    outer loop
      vertex 1.26649 -0.80374 10
      vertex 1.31446 0.722631 10
      vertex 1.31446 -0.722631 10
    endloop
  endfacet
  facet normal 0 0 -1
    outer loop
      vertex 1.26649 -0.80374 10
      vertex 1.26649 0.80374 10
      vertex 1.31446 0.722631 10
    endloop
  endfacet
  facet normal 0 0 -1
    outer loop
      vertex 1.21352 -0.881678 10
      vertex 1.26649 0.80374 10
      vertex 1.26649 -0.80374 10
    endloop
  endfacet
  facet normal 0 0 -1
    outer loop
      vertex 1.21352 -0.881678 10
      vertex 1.21352 0.881678 10
      vertex 1.26649 0.80374 10
    endloop
  endfacet
  facet normal 0 0 -1
    outer loop
      vertex 1.15577 -0.956136 10
      vertex 1.21352 0.881678 10
      vertex 1.21352 -0.881678 10
    endloop
  endfacet
  facet normal 0 0 -1
    outer loop
      vertex 1.15577 -0.956136 10
      vertex 1.15577 0.956136 10
      vertex 1.21352 0.881678 10
    endloop
  endfacet
  facet normal 0 0 -1
    outer loop
      vertex 1.09345 -1.02682 10
      vertex 1.15577 0.956136 10
      vertex 1.15577 -0.956136 10
    endloop
  endfacet
  facet normal 0 0 -1
    outer loop
      vertex 1.09345 -1.02682 10
      vertex 1.09345 1.02682 10
      vertex 1.15577 0.956136 10
    endloop
  endfacet
  facet normal 0 0 -1
    outer loop
      vertex 1.02682 -1.09345 10
      vertex 1.09345 1.02682 10
      vertex 1.09345 -1.02682 10
    endloop
  endfacet
  facet normal 0 0 -1
    outer loop
      vertex 1.02682 -1.09345 10
      vertex 1.02682 1.09345 10
      vertex 1.09345 1.02682 10
    endloop
  endfacet
  facet normal 0 0 -1
    outer loop
      vertex 0.956136 -1.15577 10
      vertex 1.02682 1.09345 10
      vertex 1.02682 -1.09345 10
    endloop
  endfacet
  facet normal 0 0 -1
    outer loop
      vertex 0.956136 -1.15577 10
      vertex 0.956136 1.15577 10
      vertex 1.02682 1.09345 10
    endloop
  endfacet
  facet normal 0 0 -1
    outer loop
      vertex 0.881678 -1.21352 10
      vertex 0.956136 1.15577 10
      vertex 0.956136 -1.15577 10
    endloop
  endfacet
  facet normal 0 0 -1
    outer loop
      vertex 0.881678 -1.21352 10
      vertex 0.881678 1.21352 10
      vertex 0.956136 1.15577 10
    endloop
  endfacet
  facet normal 0 0 -1
    outer loop
      vertex 0.80374 -1.26649 10
      vertex 0.881678 1.21352 10
      vertex 0.881678 -1.21352 10
    endloop
  endfacet
  facet normal 0 0 -1
    outer loop
      vertex 0.80374 -1.26649 10
      vertex 0.80374 1.26649 10
      vertex 0.881678 1.21352 10
    endloop
  endfacet
  facet normal 0 0 -1
    outer loop
      vertex 0.722631 -1.31446 10
      vertex 0.80374 1.26649 10
      vertex 0.80374 -1.26649 10
    endloop
  endfacet
  facet normal 0 0 -1
    outer loop
      vertex 0.722631 -1.31446 10
      vertex 0.722631 1.31446 10
      vertex 0.80374 1.26649 10
    endloop
  endfacet
  facet normal 0 0 -1
    outer loop
      vertex 0.638668 -1.35724 10
      vertex 0.722631 1.31446 10
      vertex 0.722631 -1.31446 10
    endloop
  endfacet
  facet normal 0 0 -1
    outer loop
      vertex 0.638668 -1.35724 10
      vertex 0.638668 1.35724 10
      vertex 0.722631 1.31446 10
    endloop
  endfacet
  facet normal 0 0 -1
    outer loop
      vertex 0.552186 -1.39466 10
      vertex 0.638668 1.35724 10
      vertex 0.638668 -1.35724 10
    endloop
  endfacet
  facet normal 0 0 -1
    outer loop
      vertex 0.552186 -1.39466 10
      vertex 0.552186 1.39466 10
      vertex 0.638668 1.35724 10
    endloop
  endfacet
  facet normal 0 0 -1
    outer loop
      vertex 0.463525 -1.42658 10
      vertex 0.552186 1.39466 10
      vertex 0.552186 -1.39466 10
    endloop
  endfacet
  facet normal 0 0 -1
    outer loop
      vertex 0.463525 -1.42658 10
      vertex 0.463525 1.42658 10
      vertex 0.552186 1.39466 10
    endloop
  endfacet
  facet normal 0 0 -1
    outer loop
      vertex 0.373034 -1.45287 10
      vertex 0.463525 1.42658 10
      vertex 0.463525 -1.42658 10
    endloop
  endfacet
  facet normal 0 0 -1
    outer loop
      vertex 0.373034 -1.45287 10
      vertex 0.373034 1.45287 10
      vertex 0.463525 1.42658 10
    endloop
  endfacet
  facet normal 0 0 -1
    outer loop
      vertex 0.281072 -1.47343 10
      vertex 0.373034 1.45287 10
      vertex 0.373034 -1.45287 10
    endloop
  endfacet
  facet normal 0 0 -1
    outer loop
      vertex 0.281072 -1.47343 10
      vertex 0.281072 1.47343 10
      vertex 0.373034 1.45287 10
    endloop
  endfacet
  facet normal 0 0 -1
    outer loop
      vertex 0.188 -1.48817 10
      vertex 0.281072 1.47343 10
      vertex 0.281072 -1.47343 10
    endloop
  endfacet
  facet normal 0 0 -1
    outer loop
      vertex 0.188 -1.48817 10
      vertex 0.188 1.48817 10
      vertex 0.281072 1.47343 10
    endloop
  endfacet
  facet normal 0 0 -1
    outer loop
      vertex 0.0941849 -1.49704 10
      vertex 0.188 1.48817 10
      vertex 0.188 -1.48817 10
    endloop
  endfacet
  facet normal 0 0 -1
    outer loop
      vertex 0.0941849 -1.49704 10
      vertex 0.0941849 1.49704 10
      vertex 0.188 1.48817 10
    endloop
  endfacet
  facet normal 0 0 -1
    outer loop
      vertex 0 -1.5 10
      vertex 0.0941849 1.49704 10
      vertex 0.0941849 -1.49704 10
    endloop
  endfacet
  facet normal 0 0 -1
    outer loop
      vertex 0 -1.5 10
      vertex 0 1.5 10
      vertex 0.0941849 1.49704 10
    endloop
  endfacet
  facet normal 0 0 -1
    outer loop
      vertex -0.0941849 -1.49704 10
      vertex 0 1.5 10
      vertex 0 -1.5 10
    endloop
  endfacet
  facet normal 0 0 -1
    outer loop
      vertex -0.0941849 -1.49704 10
      vertex -0.0941849 1.49704 10
      vertex 0 1.5 10
    endloop
  endfacet
  facet normal 0 0 -1
    outer loop
      vertex -0.188 -1.48817 10
      vertex -0.0941849 1.49704 10
      vertex -0.0941849 -1.49704 10
    endloop
  endfacet
  facet normal 0 0 -1
    outer loop
      vertex -0.188 -1.48817 10
      vertex -0.188 1.48817 10
      vertex -0.0941849 1.49704 10
    endloop
  endfacet
  facet normal 0 0 -1
    outer loop
      vertex -0.281072 -1.47343 10
      vertex -0.188 1.48817 10
      vertex -0.188 -1.48817 10
    endloop
  endfacet
  facet normal 0 0 -1
    outer loop
      vertex -0.281072 -1.47343 10
      vertex -0.281072 1.47343 10
      vertex -0.188 1.48817 10
    endloop
  endfacet
  facet normal 0 0 -1
    outer loop
      vertex -0.373034 -1.45287 10
      vertex -0.281072 1.47343 10
      vertex -0.281072 -1.47343 10
    endloop
  endfacet
  facet normal 0 0 -1
    outer loop
      vertex -0.373034 -1.45287 10
      vertex -0.373034 1.45287 10
      vertex -0.281072 1.47343 10
    endloop
  endfacet
  facet normal 0 0 -1
    outer loop
      vertex -0.463525 -1.42658 10
      vertex -0.373034 1.45287 10
      vertex -0.373034 -1.45287 10
    endloop
  endfacet
  facet normal 0 0 -1
    outer loop
      vertex -0.463525 -1.42658 10
      vertex -0.463525 1.42658 10
      vertex -0.373034 1.45287 10
    endloop
  endfacet
  facet normal 0 0 -1
    outer loop
      vertex -0.552186 -1.39466 10
      vertex -0.463525 1.42658 10
      vertex -0.463525 -1.42658 10
    endloop
  endfacet
  facet normal 0 0 -1
    outer loop
      vertex -0.552186 -1.39466 10
      vertex -0.552186 1.39466 10
      vertex -0.463525 1.42658 10
    endloop
  endfacet
  facet normal 0 0 -1
    outer loop
      vertex -0.638668 -1.35724 10
      vertex -0.552186 1.39466 10
      vertex -0.552186 -1.39466 10
    endloop
  endfacet
  facet normal 0 0 -1
    outer loop
      vertex -0.638668 -1.35724 10
      vertex -0.638668 1.35724 10
      vertex -0.552186 1.39466 10
    endloop
  endfacet
  facet normal 0 0 -1
    outer loop
      vertex -0.722631 -1.31446 10
      vertex -0.638668 1.35724 10
      vertex -0.638668 -1.35724 10
    endloop
  endfacet
  facet normal 0 0 -1
    outer loop
      vertex -0.722631 -1.31446 10
      vertex -0.722631 1.31446 10
      vertex -0.638668 1.35724 10
    endloop
  endfacet
  facet normal 0 0 -1
    outer loop
      vertex -0.80374 -1.26649 10
      vertex -0.722631 1.31446 10
      vertex -0.722631 -1.31446 10
    endloop
  endfacet
  facet normal 0 0 -1
    outer loop
      vertex -0.80374 -1.26649 10
      vertex -0.80374 1.26649 10
      vertex -0.722631 1.31446 10
    endloop
  endfacet
  facet normal 0 0 -1
    outer loop
      vertex -0.881678 -1.21352 10
      vertex -0.80374 1.26649 10
      vertex -0.80374 -1.26649 10
    endloop
  endfacet
  facet normal 0 0 -1
    outer loop
      vertex -0.881678 -1.21352 10
      vertex -0.881678 1.21352 10
      vertex -0.80374 1.26649 10
    endloop
  endfacet
  facet normal 0 0 -1
    outer loop
      vertex -0.956136 -1.15577 10
      vertex -0.881678 1.21352 10
      vertex -0.881678 -1.21352 10
    endloop
  endfacet
  facet normal 0 0 -1
    outer loop
      vertex -0.956136 -1.15577 10
      vertex -0.956136 1.15577 10
      vertex -0.881678 1.21352 10
    endloop
  endfacet
  facet normal 0 0 -1
    outer loop
      vertex -1.02682 -1.09345 10
      vertex -0.956136 1.15577 10
      vertex -0.956136 -1.15577 10
    endloop
  endfacet
  facet normal 0 0 -1
    outer loop
      vertex -1.02682 -1.09345 10
      vertex -1.02682 1.09345 10
      vertex -0.956136 1.15577 10
    endloop
  endfacet
  facet normal 0 0 -1
    outer loop
      vertex -1.09345 -1.02682 10
      vertex -1.02682 1.09345 10
      vertex -1.02682 -1.09345 10
    endloop
  endfacet
  facet normal 0 0 -1
    outer loop
      vertex -1.09345 -1.02682 10
      vertex -1.09345 1.02682 10
      vertex -1.02682 1.09345 10
    endloop
  endfacet
  facet normal 0 0 -1
    outer loop
      vertex -1.15577 -0.956136 10
      vertex -1.09345 1.02682 10
      vertex -1.09345 -1.02682 10
    endloop
  endfacet
  facet normal 0 0 -1
    outer loop
      vertex -1.15577 -0.956136 10
      vertex -1.15577 0.956136 10
      vertex -1.09345 1.02682 10
    endloop
  endfacet
  facet normal 0 0 -1
    outer loop
      vertex -1.21352 -0.881678 10
      vertex -1.15577 0.956136 10
      vertex -1.15577 -0.956136 10
    endloop
  endfacet
  facet normal 0 0 -1
    outer loop
      vertex -1.21352 -0.881678 10
      vertex -1.21352 0.881678 10
      vertex -1.15577 0.956136 10
    endloop
  endfacet
  facet normal 0 0 -1
    outer loop
      vertex -1.26649 -0.80374 10
      vertex -1.21352 0.881678 10
      vertex -1.21352 -0.881678 10
    endloop
  endfacet
  facet normal 0 0 -1
    outer loop
      vertex -1.26649 -0.80374 10
      vertex -1.26649 0.80374 10
      vertex -1.21352 0.881678 10
    endloop
  endfacet
  facet normal 0 0 -1
    outer loop
      vertex -1.31446 -0.722631 10
      vertex -1.26649 0.80374 10
      vertex -1.26649 -0.80374 10
    endloop
  endfacet
  facet normal 0 0 -1
    outer loop
      vertex -1.31446 -0.722631 10
      vertex -1.31446 0.722631 10
      vertex -1.26649 0.80374 10
    endloop
  endfacet
  facet normal 0 0 -1
    outer loop
      vertex -1.35724 -0.638668 10
      vertex -1.31446 0.722631 10
      vertex -1.31446 -0.722631 10
    endloop
  endfacet
  facet normal 0 0 -1
    outer loop
      vertex -1.35724 -0.638668 10
      vertex -1.35724 0.638668 10
      vertex -1.31446 0.722631 10
    endloop
  endfacet
  facet normal 0 0 -1
    outer loop
      vertex -1.39466 -0.552186 10
      vertex -1.35724 0.638668 10
      vertex -1.35724 -0.638668 10
    endloop
  endfacet
  facet normal 0 0 -1
    outer loop
      vertex -1.39466 -0.552186 10
      vertex -1.39466 0.552186 10
      vertex -1.35724 0.638668 10
    endloop
  endfacet
  facet normal 0 0 -1
    outer loop
      vertex -1.42658 -0.463525 10
      vertex -1.39466 0.552186 10
      vertex -1.39466 -0.552186 10
    endloop
  endfacet
  facet normal 0 0 -1
    outer loop
      vertex -1.42658 -0.463525 10
      vertex -1.42658 0.463525 10
      vertex -1.39466 0.552186 10
    endloop
  endfacet
  facet normal 0 0 -1
    outer loop
      vertex -1.45287 -0.373034 10
      vertex -1.42658 0.463525 10
      vertex -1.42658 -0.463525 10
    endloop
  endfacet
  facet normal 0 0 -1
    outer loop
      vertex -1.45287 -0.373034 10
      vertex -1.45287 0.373034 10
      vertex -1.42658 0.463525 10
    endloop
  endfacet
  facet normal 0 0 -1
    outer loop
      vertex -1.47343 -0.281072 10
      vertex -1.45287 0.373034 10
      vertex -1.45287 -0.373034 10
    endloop
  endfacet
  facet normal 0 0 -1
    outer loop
      vertex -1.47343 -0.281072 10
      vertex -1.47343 0.281072 10
      vertex -1.45287 0.373034 10
    endloop
  endfacet
  facet normal 0 0 -1
    outer loop
      vertex -1.48817 -0.188 10
      vertex -1.47343 0.281072 10
      vertex -1.47343 -0.281072 10
    endloop
  endfacet
  facet normal 0 0 -1
    outer loop
      vertex -1.48817 -0.188 10
      vertex -1.48817 0.188 10
      vertex -1.47343 0.281072 10
    endloop
  endfacet
  facet normal 0 0 -1
    outer loop
      vertex -1.49704 -0.0941849 10
      vertex -1.48817 0.188 10
      vertex -1.48817 -0.188 10
    endloop
  endfacet
  facet normal 0 0 -1
    outer loop
      vertex -1.49704 -0.0941849 10
      vertex -1.49704 0.0941849 10
      vertex -1.48817 0.188 10
    endloop
  endfacet
  facet normal 0 -0 -1
    outer loop
      vertex -1.49704 0.0941849 10
      vertex -1.49704 -0.0941849 10
      vertex -1.5 0 10
    endloop
  endfacet
  facet normal -0.27899 -0.960294 0
    outer loop
      vertex 0.373034 1.45287 6.5
      vertex 0.463525 1.42658 10
      vertex 0.373034 1.45287 10
    endloop
  endfacet
  facet normal -0.27899 -0.960294 -0
    outer loop
      vertex 0.463525 1.42658 10
      vertex 0.373034 1.45287 6.5
      vertex 0.463525 1.42658 6.5
    endloop
  endfacet
endsolid OpenSCAD_Model
