solid OpenSCAD_Model
  facet normal 1 -0 0
    outer loop
      vertex 17.5 -7 10
      vertex 17.5 11 -5
      vertex 17.5 11 10
    endloop
  endfacet
  facet normal 1 0 0
    outer loop
      vertex 17.5 -7 -10
      vertex 17.5 11 -5
      vertex 17.5 -7 10
    endloop
  endfacet
  facet normal 1 0 0
    outer loop
      vertex 17.5 11 -5
      vertex 17.5 -7 -10
      vertex 17.5 11 -10
    endloop
  endfacet
  facet normal -0 0 1
    outer loop
      vertex -7.5 45 10
      vertex 7.5 41 10
      vertex 7.5 45 10
    endloop
  endfacet
  facet normal 0 0 1
    outer loop
      vertex 7.5 41 10
      vertex -7.5 45 10
      vertex -7.5 41 10
    endloop
  endfacet
  facet normal 0 0 1
    outer loop
      vertex 17.5 11 10
      vertex 15.75 8.75 10
      vertex 17.5 -7 10
    endloop
  endfacet
  facet normal 0 0 1
    outer loop
      vertex 17.5 11 10
      vertex -15.75 8.75 10
      vertex 15.75 8.75 10
    endloop
  endfacet
  facet normal -0 0 1
    outer loop
      vertex -17.5 11 10
      vertex -15.75 8.75 10
      vertex 17.5 11 10
    endloop
  endfacet
  facet normal 0 0 1
    outer loop
      vertex -17.5 -7 10
      vertex -15.75 8.75 10
      vertex -17.5 11 10
    endloop
  endfacet
  facet normal 0 0 1
    outer loop
      vertex -15.75 8.75 10
      vertex -17.5 -7 10
      vertex -15.75 -7 10
    endloop
  endfacet
  facet normal 0 0 1
    outer loop
      vertex 17.5 -7 10
      vertex 15.75 8.75 10
      vertex 15.75 -7 10
    endloop
  endfacet
  facet normal 0 0 -1
    outer loop
      vertex -15.75 -7 -10
      vertex -17.5 -7 -10
      vertex -15.75 8.75 -10
    endloop
  endfacet
  facet normal 0 0 -1
    outer loop
      vertex 15.75 8.75 -10
      vertex 17.5 -7 -10
      vertex 15.75 -7 -10
    endloop
  endfacet
  facet normal 0 0 -1
    outer loop
      vertex 17.5 -7 -10
      vertex 15.75 8.75 -10
      vertex 17.5 11 -10
    endloop
  endfacet
  facet normal 0 0 -1
    outer loop
      vertex 15.75 8.75 -10
      vertex 7.5 11 -10
      vertex 17.5 11 -10
    endloop
  endfacet
  facet normal 0 0 -1
    outer loop
      vertex 7.5 11 -10
      vertex -7.5 11 -10
      vertex 7.5 45 -10
    endloop
  endfacet
  facet normal 0 0 -1
    outer loop
      vertex 15.75 8.75 -10
      vertex -7.5 11 -10
      vertex 7.5 11 -10
    endloop
  endfacet
  facet normal 0 0 -1
    outer loop
      vertex -15.75 8.75 -10
      vertex -7.5 11 -10
      vertex 15.75 8.75 -10
    endloop
  endfacet
  facet normal 0 0 -1
    outer loop
      vertex -15.75 8.75 -10
      vertex -17.5 11 -10
      vertex -7.5 11 -10
    endloop
  endfacet
  facet normal 0 0 -1
    outer loop
      vertex -17.5 11 -10
      vertex -15.75 8.75 -10
      vertex -17.5 -7 -10
    endloop
  endfacet
  facet normal -0 0 -1
    outer loop
      vertex 7.5 45 -10
      vertex -7.5 11 -10
      vertex -7.5 45 -10
    endloop
  endfacet
  facet normal -1 0 0
    outer loop
      vertex -17.5 -7 -10
      vertex -17.5 11 -5
      vertex -17.5 11 -10
    endloop
  endfacet
  facet normal -1 0 0
    outer loop
      vertex -17.5 -7 10
      vertex -17.5 11 -5
      vertex -17.5 -7 -10
    endloop
  endfacet
  facet normal -1 0 0
    outer loop
      vertex -17.5 11 -5
      vertex -17.5 -7 10
      vertex -17.5 11 10
    endloop
  endfacet
  facet normal 0 1 0
    outer loop
      vertex 17.5 11 10
      vertex 7.5 11 3
      vertex -17.5 11 10
    endloop
  endfacet
  facet normal 0 1 -0
    outer loop
      vertex 17.5 11 -5
      vertex 7.5 11 3
      vertex 17.5 11 10
    endloop
  endfacet
  facet normal 0 1 0
    outer loop
      vertex 7.5 11 3
      vertex 17.5 11 -5
      vertex 7.5 11 -5
    endloop
  endfacet
  facet normal 0 1 -0
    outer loop
      vertex -7.5 11 3
      vertex -17.5 11 10
      vertex 7.5 11 3
    endloop
  endfacet
  facet normal 0 1 0
    outer loop
      vertex -17.5 11 -5
      vertex -7.5 11 3
      vertex -7.5 11 -5
    endloop
  endfacet
  facet normal 0 1 0
    outer loop
      vertex -7.5 11 3
      vertex -17.5 11 -5
      vertex -17.5 11 10
    endloop
  endfacet
  facet normal 0 1 -0
    outer loop
      vertex 17.5 11 -10
      vertex 7.5 11 -5
      vertex 17.5 11 -5
    endloop
  endfacet
  facet normal 0 1 0
    outer loop
      vertex 7.5 11 -5
      vertex 17.5 11 -10
      vertex 7.5 11 -10
    endloop
  endfacet
  facet normal 0 1 -0
    outer loop
      vertex -7.5 11 -10
      vertex -17.5 11 -5
      vertex -7.5 11 -5
    endloop
  endfacet
  facet normal 0 1 0
    outer loop
      vertex -17.5 11 -5
      vertex -7.5 11 -10
      vertex -17.5 11 -10
    endloop
  endfacet
  facet normal 0 -1 0
    outer loop
      vertex -17.5 -7 -10
      vertex -15.75 -7 10
      vertex -17.5 -7 10
    endloop
  endfacet
  facet normal 0 -1 -0
    outer loop
      vertex -15.75 -7 10
      vertex -17.5 -7 -10
      vertex -15.75 -7 -10
    endloop
  endfacet
  facet normal 0 -1 0
    outer loop
      vertex 15.75 -7 -10
      vertex 17.5 -7 10
      vertex 15.75 -7 10
    endloop
  endfacet
  facet normal 0 -1 -0
    outer loop
      vertex 17.5 -7 10
      vertex 15.75 -7 -10
      vertex 17.5 -7 -10
    endloop
  endfacet
  facet normal 1 0 0
    outer loop
      vertex 7.5 41 3
      vertex 7.5 45 10
      vertex 7.5 41 10
    endloop
  endfacet
  facet normal 1 0 0
    outer loop
      vertex 7.5 40.9316 1.95579
      vertex 7.5 45 10
      vertex 7.5 41 3
    endloop
  endfacet
  facet normal 1 0 0
    outer loop
      vertex 7.5 45 10
      vertex 7.5 40.9316 1.95579
      vertex 7.5 45 -10
    endloop
  endfacet
  facet normal 1 -0 0
    outer loop
      vertex 7.5 40.7274 0.929447
      vertex 7.5 45 -10
      vertex 7.5 40.9316 1.95579
    endloop
  endfacet
  facet normal 1 -0 0
    outer loop
      vertex 7.5 40.391 -0.0614672
      vertex 7.5 45 -10
      vertex 7.5 40.7274 0.929447
    endloop
  endfacet
  facet normal 1 -0 0
    outer loop
      vertex 7.5 39.9282 -1
      vertex 7.5 45 -10
      vertex 7.5 40.391 -0.0614672
    endloop
  endfacet
  facet normal 1 -0 0
    outer loop
      vertex 7.5 39.3468 -1.87009
      vertex 7.5 45 -10
      vertex 7.5 39.9282 -1
    endloop
  endfacet
  facet normal 1 -0 0
    outer loop
      vertex 7.5 38.6569 -2.65685
      vertex 7.5 45 -10
      vertex 7.5 39.3468 -1.87009
    endloop
  endfacet
  facet normal 1 -0 0
    outer loop
      vertex 7.5 37.8701 -3.34683
      vertex 7.5 45 -10
      vertex 7.5 38.6569 -2.65685
    endloop
  endfacet
  facet normal 1 -0 0
    outer loop
      vertex 7.5 37 -3.9282
      vertex 7.5 45 -10
      vertex 7.5 37.8701 -3.34683
    endloop
  endfacet
  facet normal 1 -0 0
    outer loop
      vertex 7.5 36.0615 -4.39104
      vertex 7.5 45 -10
      vertex 7.5 37 -3.9282
    endloop
  endfacet
  facet normal 1 -0 0
    outer loop
      vertex 7.5 35.0706 -4.72741
      vertex 7.5 45 -10
      vertex 7.5 36.0615 -4.39104
    endloop
  endfacet
  facet normal 1 -0 0
    outer loop
      vertex 7.5 34.0442 -4.93156
      vertex 7.5 45 -10
      vertex 7.5 35.0706 -4.72741
    endloop
  endfacet
  facet normal 1 -0 0
    outer loop
      vertex 7.5 33 -5
      vertex 7.5 45 -10
      vertex 7.5 34.0442 -4.93156
    endloop
  endfacet
  facet normal 1 0 0
    outer loop
      vertex 7.5 11 -10
      vertex 7.5 33 -5
      vertex 7.5 19 -5
    endloop
  endfacet
  facet normal 1 0 0
    outer loop
      vertex 7.5 11 -10
      vertex 7.5 19 -5
      vertex 7.5 17.9558 -4.93156
    endloop
  endfacet
  facet normal 1 0 0
    outer loop
      vertex 7.5 11 -5
      vertex 7.5 11.0684 1.95579
      vertex 7.5 11 3
    endloop
  endfacet
  facet normal 1 0 0
    outer loop
      vertex 7.5 11 -5
      vertex 7.5 11.2726 0.929447
      vertex 7.5 11.0684 1.95579
    endloop
  endfacet
  facet normal 1 0 0
    outer loop
      vertex 7.5 11 -5
      vertex 7.5 11.609 -0.0614672
      vertex 7.5 11.2726 0.929447
    endloop
  endfacet
  facet normal 1 0 0
    outer loop
      vertex 7.5 11 -5
      vertex 7.5 12.0718 -1
      vertex 7.5 11.609 -0.0614672
    endloop
  endfacet
  facet normal 1 0 0
    outer loop
      vertex 7.5 11 -5
      vertex 7.5 12.6532 -1.87009
      vertex 7.5 12.0718 -1
    endloop
  endfacet
  facet normal 1 0 0
    outer loop
      vertex 7.5 11 -5
      vertex 7.5 13.3431 -2.65685
      vertex 7.5 12.6532 -1.87009
    endloop
  endfacet
  facet normal 1 0 0
    outer loop
      vertex 7.5 11 -5
      vertex 7.5 14.1299 -3.34683
      vertex 7.5 13.3431 -2.65685
    endloop
  endfacet
  facet normal 1 0 0
    outer loop
      vertex 7.5 11 -5
      vertex 7.5 15 -3.9282
      vertex 7.5 14.1299 -3.34683
    endloop
  endfacet
  facet normal 1 0 0
    outer loop
      vertex 7.5 11 -5
      vertex 7.5 15.9385 -4.39104
      vertex 7.5 15 -3.9282
    endloop
  endfacet
  facet normal 1 0 0
    outer loop
      vertex 7.5 11 -10
      vertex 7.5 15.9385 -4.39104
      vertex 7.5 11 -5
    endloop
  endfacet
  facet normal 1 0 0
    outer loop
      vertex 7.5 15.9385 -4.39104
      vertex 7.5 11 -10
      vertex 7.5 16.9294 -4.72741
    endloop
  endfacet
  facet normal 1 0 0
    outer loop
      vertex 7.5 16.9294 -4.72741
      vertex 7.5 11 -10
      vertex 7.5 17.9558 -4.93156
    endloop
  endfacet
  facet normal 1 0 0
    outer loop
      vertex 7.5 33 -5
      vertex 7.5 11 -10
      vertex 7.5 45 -10
    endloop
  endfacet
  facet normal -1 0 0
    outer loop
      vertex -7.5 40.9316 1.95579
      vertex -7.5 45 10
      vertex -7.5 45 -10
    endloop
  endfacet
  facet normal -1 0 0
    outer loop
      vertex -7.5 45 10
      vertex -7.5 40.9316 1.95579
      vertex -7.5 41 3
    endloop
  endfacet
  facet normal -1 0 0
    outer loop
      vertex -7.5 45 -10
      vertex -7.5 40.7274 0.929447
      vertex -7.5 40.9316 1.95579
    endloop
  endfacet
  facet normal -1 0 0
    outer loop
      vertex -7.5 45 -10
      vertex -7.5 40.391 -0.0614672
      vertex -7.5 40.7274 0.929447
    endloop
  endfacet
  facet normal -1 0 0
    outer loop
      vertex -7.5 45 -10
      vertex -7.5 39.9282 -1
      vertex -7.5 40.391 -0.0614672
    endloop
  endfacet
  facet normal -1 0 0
    outer loop
      vertex -7.5 45 -10
      vertex -7.5 39.3468 -1.87009
      vertex -7.5 39.9282 -1
    endloop
  endfacet
  facet normal -1 0 0
    outer loop
      vertex -7.5 45 -10
      vertex -7.5 38.6569 -2.65685
      vertex -7.5 39.3468 -1.87009
    endloop
  endfacet
  facet normal -1 0 0
    outer loop
      vertex -7.5 45 -10
      vertex -7.5 37.8701 -3.34683
      vertex -7.5 38.6569 -2.65685
    endloop
  endfacet
  facet normal -1 0 0
    outer loop
      vertex -7.5 45 -10
      vertex -7.5 37 -3.9282
      vertex -7.5 37.8701 -3.34683
    endloop
  endfacet
  facet normal -1 0 0
    outer loop
      vertex -7.5 45 -10
      vertex -7.5 36.0615 -4.39104
      vertex -7.5 37 -3.9282
    endloop
  endfacet
  facet normal -1 0 0
    outer loop
      vertex -7.5 45 -10
      vertex -7.5 35.0706 -4.72741
      vertex -7.5 36.0615 -4.39104
    endloop
  endfacet
  facet normal -1 0 0
    outer loop
      vertex -7.5 45 -10
      vertex -7.5 34.0442 -4.93156
      vertex -7.5 35.0706 -4.72741
    endloop
  endfacet
  facet normal -1 0 0
    outer loop
      vertex -7.5 45 -10
      vertex -7.5 33 -5
      vertex -7.5 34.0442 -4.93156
    endloop
  endfacet
  facet normal -1 0 0
    outer loop
      vertex -7.5 11 -10
      vertex -7.5 33 -5
      vertex -7.5 45 -10
    endloop
  endfacet
  facet normal -1 -0 0
    outer loop
      vertex -7.5 33 -5
      vertex -7.5 11 -10
      vertex -7.5 19 -5
    endloop
  endfacet
  facet normal -1 -0 0
    outer loop
      vertex -7.5 19 -5
      vertex -7.5 11 -10
      vertex -7.5 17.9558 -4.93156
    endloop
  endfacet
  facet normal -1 0 0
    outer loop
      vertex -7.5 11 -10
      vertex -7.5 16.9294 -4.72741
      vertex -7.5 17.9558 -4.93156
    endloop
  endfacet
  facet normal -1 0 0
    outer loop
      vertex -7.5 11 -10
      vertex -7.5 15.9385 -4.39104
      vertex -7.5 16.9294 -4.72741
    endloop
  endfacet
  facet normal -1 0 0
    outer loop
      vertex -7.5 11 -10
      vertex -7.5 15 -3.9282
      vertex -7.5 15.9385 -4.39104
    endloop
  endfacet
  facet normal -1 0 0
    outer loop
      vertex -7.5 11 -5
      vertex -7.5 15 -3.9282
      vertex -7.5 11 -10
    endloop
  endfacet
  facet normal -1 -0 0
    outer loop
      vertex -7.5 15 -3.9282
      vertex -7.5 11 -5
      vertex -7.5 14.1299 -3.34683
    endloop
  endfacet
  facet normal -1 -0 0
    outer loop
      vertex -7.5 14.1299 -3.34683
      vertex -7.5 11 -5
      vertex -7.5 13.3431 -2.65685
    endloop
  endfacet
  facet normal -1 -0 0
    outer loop
      vertex -7.5 13.3431 -2.65685
      vertex -7.5 11 -5
      vertex -7.5 12.6532 -1.87009
    endloop
  endfacet
  facet normal -1 -0 0
    outer loop
      vertex -7.5 12.6532 -1.87009
      vertex -7.5 11 -5
      vertex -7.5 12.0718 -1
    endloop
  endfacet
  facet normal -1 -0 0
    outer loop
      vertex -7.5 12.0718 -1
      vertex -7.5 11 -5
      vertex -7.5 11.609 -0.0614672
    endloop
  endfacet
  facet normal -1 -0 0
    outer loop
      vertex -7.5 11.609 -0.0614672
      vertex -7.5 11 -5
      vertex -7.5 11.2726 0.929447
    endloop
  endfacet
  facet normal -1 -0 0
    outer loop
      vertex -7.5 11.2726 0.929447
      vertex -7.5 11 -5
      vertex -7.5 11.0684 1.95579
    endloop
  endfacet
  facet normal -1 -0 0
    outer loop
      vertex -7.5 11.0684 1.95579
      vertex -7.5 11 -5
      vertex -7.5 11 3
    endloop
  endfacet
  facet normal -1 -0 0
    outer loop
      vertex -7.5 45 10
      vertex -7.5 41 3
      vertex -7.5 41 10
    endloop
  endfacet
  facet normal 0 1 -0
    outer loop
      vertex 7.5 45 -10
      vertex -7.5 45 10
      vertex 7.5 45 10
    endloop
  endfacet
  facet normal 0 1 0
    outer loop
      vertex -7.5 45 10
      vertex 7.5 45 -10
      vertex -7.5 45 -10
    endloop
  endfacet
  facet normal -1 0 0
    outer loop
      vertex 15.75 -7 -10
      vertex 15.75 8.75 10
      vertex 15.75 8.75 -10
    endloop
  endfacet
  facet normal -1 -0 0
    outer loop
      vertex 15.75 8.75 10
      vertex 15.75 -7 -10
      vertex 15.75 -7 10
    endloop
  endfacet
  facet normal 1 -0 0
    outer loop
      vertex -15.75 -7 10
      vertex -15.75 8.75 -10
      vertex -15.75 8.75 10
    endloop
  endfacet
  facet normal 1 0 0
    outer loop
      vertex -15.75 8.75 -10
      vertex -15.75 -7 10
      vertex -15.75 -7 -10
    endloop
  endfacet
  facet normal 0 -1 0
    outer loop
      vertex -15.75 8.75 -10
      vertex 15.75 8.75 10
      vertex -15.75 8.75 10
    endloop
  endfacet
  facet normal 0 -1 -0
    outer loop
      vertex 15.75 8.75 10
      vertex -15.75 8.75 -10
      vertex 15.75 8.75 -10
    endloop
  endfacet
  facet normal -0 0 1
    outer loop
      vertex -7.5 33 -5
      vertex 7.5 19 -5
      vertex 7.5 33 -5
    endloop
  endfacet
  facet normal 0 0 1
    outer loop
      vertex 7.5 19 -5
      vertex -7.5 33 -5
      vertex -7.5 19 -5
    endloop
  endfacet
  facet normal 0 -1 0
    outer loop
      vertex -7.5 41 3
      vertex 7.5 41 10
      vertex -7.5 41 10
    endloop
  endfacet
  facet normal 0 -1 -0
    outer loop
      vertex 7.5 41 10
      vertex -7.5 41 3
      vertex 7.5 41 3
    endloop
  endfacet
  facet normal -0 0.0654027 0.997859
    outer loop
      vertex -7.5 19 -5
      vertex 7.5 17.9558 -4.93156
      vertex 7.5 19 -5
    endloop
  endfacet
  facet normal 0 0.0654027 0.997859
    outer loop
      vertex 7.5 17.9558 -4.93156
      vertex -7.5 19 -5
      vertex -7.5 17.9558 -4.93156
    endloop
  endfacet
  facet normal -0 0.195078 0.980788
    outer loop
      vertex -7.5 17.9558 -4.93156
      vertex 7.5 16.9294 -4.72741
      vertex 7.5 17.9558 -4.93156
    endloop
  endfacet
  facet normal 0 0.195078 0.980788
    outer loop
      vertex 7.5 16.9294 -4.72741
      vertex -7.5 17.9558 -4.93156
      vertex -7.5 16.9294 -4.72741
    endloop
  endfacet
  facet normal -0 0.321444 0.946929
    outer loop
      vertex -7.5 16.9294 -4.72741
      vertex 7.5 15.9385 -4.39104
      vertex 7.5 16.9294 -4.72741
    endloop
  endfacet
  facet normal 0 0.321444 0.946929
    outer loop
      vertex 7.5 15.9385 -4.39104
      vertex -7.5 16.9294 -4.72741
      vertex -7.5 15.9385 -4.39104
    endloop
  endfacet
  facet normal -0 0.442306 0.896864
    outer loop
      vertex -7.5 15.9385 -4.39104
      vertex 7.5 15 -3.9282
      vertex 7.5 15.9385 -4.39104
    endloop
  endfacet
  facet normal 0 0.442306 0.896864
    outer loop
      vertex 7.5 15 -3.9282
      vertex -7.5 15.9385 -4.39104
      vertex -7.5 15 -3.9282
    endloop
  endfacet
  facet normal -0 0.555562 0.831475
    outer loop
      vertex -7.5 15 -3.9282
      vertex 7.5 14.1299 -3.34683
      vertex 7.5 15 -3.9282
    endloop
  endfacet
  facet normal 0 0.555562 0.831475
    outer loop
      vertex 7.5 14.1299 -3.34683
      vertex -7.5 15 -3.9282
      vertex -7.5 14.1299 -3.34683
    endloop
  endfacet
  facet normal -0 0.659332 0.751852
    outer loop
      vertex -7.5 14.1299 -3.34683
      vertex 7.5 13.3431 -2.65685
      vertex 7.5 14.1299 -3.34683
    endloop
  endfacet
  facet normal 0 0.659332 0.751852
    outer loop
      vertex 7.5 13.3431 -2.65685
      vertex -7.5 14.1299 -3.34683
      vertex -7.5 13.3431 -2.65685
    endloop
  endfacet
  facet normal 0 0.751873 0.659308
    outer loop
      vertex 7.5 13.3431 -2.65685
      vertex -7.5 12.6532 -1.87009
      vertex 7.5 12.6532 -1.87009
    endloop
  endfacet
  facet normal 0 0.751873 0.659308
    outer loop
      vertex -7.5 12.6532 -1.87009
      vertex 7.5 13.3431 -2.65685
      vertex -7.5 13.3431 -2.65685
    endloop
  endfacet
  facet normal 0 0.831459 0.555586
    outer loop
      vertex 7.5 12.6532 -1.87009
      vertex -7.5 12.0718 -1
      vertex 7.5 12.0718 -1
    endloop
  endfacet
  facet normal 0 0.831459 0.555586
    outer loop
      vertex -7.5 12.0718 -1
      vertex 7.5 12.6532 -1.87009
      vertex -7.5 12.6532 -1.87009
    endloop
  endfacet
  facet normal 0 0.896885 0.442263
    outer loop
      vertex 7.5 12.0718 -1
      vertex -7.5 11.609 -0.0614672
      vertex 7.5 11.609 -0.0614672
    endloop
  endfacet
  facet normal 0 0.896885 0.442263
    outer loop
      vertex -7.5 11.609 -0.0614672
      vertex 7.5 12.0718 -1
      vertex -7.5 12.0718 -1
    endloop
  endfacet
  facet normal 0 0.946921 0.321465
    outer loop
      vertex 7.5 11.609 -0.0614672
      vertex -7.5 11.2726 0.929447
      vertex 7.5 11.2726 0.929447
    endloop
  endfacet
  facet normal 0 0.946921 0.321465
    outer loop
      vertex -7.5 11.2726 0.929447
      vertex 7.5 11.609 -0.0614672
      vertex -7.5 11.609 -0.0614672
    endloop
  endfacet
  facet normal 0 0.980777 0.195134
    outer loop
      vertex 7.5 11.2726 0.929447
      vertex -7.5 11.0684 1.95579
      vertex 7.5 11.0684 1.95579
    endloop
  endfacet
  facet normal 0 0.980777 0.195134
    outer loop
      vertex -7.5 11.0684 1.95579
      vertex 7.5 11.2726 0.929447
      vertex -7.5 11.2726 0.929447
    endloop
  endfacet
  facet normal 0 0.997861 0.065364
    outer loop
      vertex 7.5 11.0684 1.95579
      vertex -7.5 11 3
      vertex 7.5 11 3
    endloop
  endfacet
  facet normal 0 0.997861 0.065364
    outer loop
      vertex -7.5 11 3
      vertex 7.5 11.0684 1.95579
      vertex -7.5 11.0684 1.95579
    endloop
  endfacet
  facet normal 0 -0.0654027 0.997859
    outer loop
      vertex -7.5 34.0442 -4.93156
      vertex 7.5 33 -5
      vertex 7.5 34.0442 -4.93156
    endloop
  endfacet
  facet normal 0 -0.0654027 0.997859
    outer loop
      vertex 7.5 33 -5
      vertex -7.5 34.0442 -4.93156
      vertex -7.5 33 -5
    endloop
  endfacet
  facet normal 0 -0.195078 0.980788
    outer loop
      vertex -7.5 35.0706 -4.72741
      vertex 7.5 34.0442 -4.93156
      vertex 7.5 35.0706 -4.72741
    endloop
  endfacet
  facet normal 0 -0.195078 0.980788
    outer loop
      vertex 7.5 34.0442 -4.93156
      vertex -7.5 35.0706 -4.72741
      vertex -7.5 34.0442 -4.93156
    endloop
  endfacet
  facet normal 0 -0.321444 0.946929
    outer loop
      vertex -7.5 36.0615 -4.39104
      vertex 7.5 35.0706 -4.72741
      vertex 7.5 36.0615 -4.39104
    endloop
  endfacet
  facet normal 0 -0.321444 0.946929
    outer loop
      vertex 7.5 35.0706 -4.72741
      vertex -7.5 36.0615 -4.39104
      vertex -7.5 35.0706 -4.72741
    endloop
  endfacet
  facet normal 0 -0.442306 0.896864
    outer loop
      vertex -7.5 37 -3.9282
      vertex 7.5 36.0615 -4.39104
      vertex 7.5 37 -3.9282
    endloop
  endfacet
  facet normal 0 -0.442306 0.896864
    outer loop
      vertex 7.5 36.0615 -4.39104
      vertex -7.5 37 -3.9282
      vertex -7.5 36.0615 -4.39104
    endloop
  endfacet
  facet normal 0 -0.555562 0.831475
    outer loop
      vertex -7.5 37.8701 -3.34683
      vertex 7.5 37 -3.9282
      vertex 7.5 37.8701 -3.34683
    endloop
  endfacet
  facet normal 0 -0.555562 0.831475
    outer loop
      vertex 7.5 37 -3.9282
      vertex -7.5 37.8701 -3.34683
      vertex -7.5 37 -3.9282
    endloop
  endfacet
  facet normal 0 -0.659332 0.751852
    outer loop
      vertex -7.5 38.6569 -2.65685
      vertex 7.5 37.8701 -3.34683
      vertex 7.5 38.6569 -2.65685
    endloop
  endfacet
  facet normal 0 -0.659332 0.751852
    outer loop
      vertex 7.5 37.8701 -3.34683
      vertex -7.5 38.6569 -2.65685
      vertex -7.5 37.8701 -3.34683
    endloop
  endfacet
  facet normal 0 -0.751873 0.659308
    outer loop
      vertex -7.5 38.6569 -2.65685
      vertex 7.5 39.3468 -1.87009
      vertex -7.5 39.3468 -1.87009
    endloop
  endfacet
  facet normal 0 -0.751873 0.659308
    outer loop
      vertex 7.5 39.3468 -1.87009
      vertex -7.5 38.6569 -2.65685
      vertex 7.5 38.6569 -2.65685
    endloop
  endfacet
  facet normal 0 -0.831459 0.555586
    outer loop
      vertex -7.5 39.3468 -1.87009
      vertex 7.5 39.9282 -1
      vertex -7.5 39.9282 -1
    endloop
  endfacet
  facet normal 0 -0.831459 0.555586
    outer loop
      vertex 7.5 39.9282 -1
      vertex -7.5 39.3468 -1.87009
      vertex 7.5 39.3468 -1.87009
    endloop
  endfacet
  facet normal 0 -0.896885 0.442263
    outer loop
      vertex -7.5 39.9282 -1
      vertex 7.5 40.391 -0.0614672
      vertex -7.5 40.391 -0.0614672
    endloop
  endfacet
  facet normal 0 -0.896885 0.442263
    outer loop
      vertex 7.5 40.391 -0.0614672
      vertex -7.5 39.9282 -1
      vertex 7.5 39.9282 -1
    endloop
  endfacet
  facet normal 0 -0.946921 0.321465
    outer loop
      vertex -7.5 40.391 -0.0614672
      vertex 7.5 40.7274 0.929447
      vertex -7.5 40.7274 0.929447
    endloop
  endfacet
  facet normal 0 -0.946921 0.321465
    outer loop
      vertex 7.5 40.7274 0.929447
      vertex -7.5 40.391 -0.0614672
      vertex 7.5 40.391 -0.0614672
    endloop
  endfacet
  facet normal 0 -0.980777 0.195134
    outer loop
      vertex -7.5 40.7274 0.929447
      vertex 7.5 40.9316 1.95579
      vertex -7.5 40.9316 1.95579
    endloop
  endfacet
  facet normal 0 -0.980777 0.195134
    outer loop
      vertex 7.5 40.9316 1.95579
      vertex -7.5 40.7274 0.929447
      vertex 7.5 40.7274 0.929447
    endloop
  endfacet
  facet normal 0 -0.997861 0.065364
    outer loop
      vertex -7.5 40.9316 1.95579
      vertex 7.5 41 3
      vertex -7.5 41 3
    endloop
  endfacet
  facet normal 0 -0.997861 0.065364
    outer loop
      vertex 7.5 41 3
      vertex -7.5 40.9316 1.95579
      vertex 7.5 40.9316 1.95579
    endloop
  endfacet
endsolid OpenSCAD_Model
