solid OpenSCAD_Model
  facet normal 0.5 -0 0.866025
    outer loop
      vertex 23.8564 -16.7913 -8
      vertex 51.5692 -17.5 -24
      vertex 23.8564 16.7913 -8
    endloop
  endfacet
  facet normal 0.500001 1.70405e-05 0.866025
    outer loop
      vertex 51.5692 -17.5 -24
      vertex 23.8564 -16.7913 -8
      vertex 24.0867 -17.5 -8.13295
    endloop
  endfacet
  facet normal 0.500001 -1.70405e-05 0.866025
    outer loop
      vertex 23.8564 16.7913 -8
      vertex 51.5692 17.5 -24
      vertex 24.0867 17.5 -8.13295
    endloop
  endfacet
  facet normal 0 1 0
    outer loop
      vertex 23.8564 17.5 -8
      vertex 24.0867 17.5 -8.13295
      vertex 51.5692 17.5 -24
    endloop
  endfacet
  facet normal 0.499961 0 0.866048
    outer loop
      vertex 24.0867 17.5 -8.13295
      vertex 23.8564 17.5 -8
      vertex 23.8564 17.3327 -8
    endloop
  endfacet
  facet normal 0.5 0 0.866025
    outer loop
      vertex 51.5692 17.5 -24
      vertex 23.8564 16.7913 -8
      vertex 51.5692 -17.5 -24
    endloop
  endfacet
  facet normal -0 -1 -0
    outer loop
      vertex 24.0867 -17.5 -8.13295
      vertex 23.8564 -17.5 -8
      vertex 51.5692 -17.5 -24
    endloop
  endfacet
  facet normal 0.499961 -0 0.866048
    outer loop
      vertex 23.8564 -17.5 -8
      vertex 24.0867 -17.5 -8.13295
      vertex 23.8564 -17.3327 -8
    endloop
  endfacet
  facet normal -0.500002 -0 -0.866024
    outer loop
      vertex 18.6965 13.5838 -16.5679
      vertex 31.5692 17.5 -24
      vertex 18.6965 -13.5838 -16.5679
    endloop
  endfacet
  facet normal -0.499998 -1.84492e-05 -0.866027
    outer loop
      vertex 31.5692 17.5 -24
      vertex 18.6965 13.5838 -16.5679
      vertex 24.0867 17.5 -19.68
    endloop
  endfacet
  facet normal -0.499998 0 -0.866026
    outer loop
      vertex 14.8205 -10.7677 -14.3301
      vertex 18.6965 13.5838 -16.5679
      vertex 18.6965 -13.5838 -16.5679
    endloop
  endfacet
  facet normal -0.499998 0 -0.866026
    outer loop
      vertex 18.6965 13.5838 -16.5679
      vertex 14.8205 -10.7677 -14.3301
      vertex 14.8205 10.7677 -14.3301
    endloop
  endfacet
  facet normal -0.499998 1.84492e-05 -0.866027
    outer loop
      vertex 18.6965 -13.5838 -16.5679
      vertex 31.5692 -17.5 -24
      vertex 24.0867 -17.5 -19.68
    endloop
  endfacet
  facet normal -0.500002 0 -0.866024
    outer loop
      vertex 31.5692 -17.5 -24
      vertex 18.6965 -13.5838 -16.5679
      vertex 31.5692 17.5 -24
    endloop
  endfacet
  facet normal -0.866025 0 0.500002
    outer loop
      vertex 14.8205 -10.7677 -14.3301
      vertex 18.4752 13.423 -8
      vertex 14.8205 10.7677 -14.3301
    endloop
  endfacet
  facet normal -0.866025 0 0.500002
    outer loop
      vertex 18.4752 13.423 -8
      vertex 14.8205 -10.7677 -14.3301
      vertex 18.4752 -13.423 -8
    endloop
  endfacet
  facet normal 0 1 0
    outer loop
      vertex 23.8564 17.5 -8
      vertex 24.0867 17.5 -8.13295
      vertex 23.3415 17.5 -8
    endloop
  endfacet
  facet normal 0 -1 0
    outer loop
      vertex 51.5692 17.5 -24
      vertex 24.0867 17.5 -8.13295
      vertex 23.8564 17.5 -8
    endloop
  endfacet
  facet normal 0 1 -0
    outer loop
      vertex 31.5692 17.5 -24
      vertex 24.0867 17.5 -8.13295
      vertex 51.5692 17.5 -24
    endloop
  endfacet
  facet normal 0 1 0
    outer loop
      vertex 24.0867 17.5 -8.13295
      vertex 31.5692 17.5 -24
      vertex 24.0867 17.5 -19.68
    endloop
  endfacet
  facet normal 0 -1 0
    outer loop
      vertex 24.0867 -17.5 -8.13295
      vertex 23.8564 -17.5 -8
      vertex 23.3415 -17.5 -8
    endloop
  endfacet
  facet normal 0 -1 0
    outer loop
      vertex 31.5692 -17.5 -24
      vertex 24.0867 -17.5 -8.13295
      vertex 24.0867 -17.5 -19.68
    endloop
  endfacet
  facet normal 0 1 0
    outer loop
      vertex 24.0867 -17.5 -8.13295
      vertex 51.5692 -17.5 -24
      vertex 23.8564 -17.5 -8
    endloop
  endfacet
  facet normal 0 -1 0
    outer loop
      vertex 51.5692 -17.5 -24
      vertex 24.0867 -17.5 -8.13295
      vertex 31.5692 -17.5 -24
    endloop
  endfacet
  facet normal 0.154516 0.475526 0.866025
    outer loop
      vertex 29.8 44.5405 -24
      vertex 24.0867 17.5 -8.13295
      vertex 32.5793 43.6374 -24
    endloop
  endfacet
  facet normal 0.154506 0.475529 0.866026
    outer loop
      vertex 29.8 44.5405 -24
      vertex 23.3415 17.5 -8
      vertex 24.0867 17.5 -8.13295
    endloop
  endfacet
  facet normal 0.154508 0.475528 0.866026
    outer loop
      vertex 23.3415 17.5 -8
      vertex 29.8 44.5405 -24
      vertex -5.39331 26.8365 -8
    endloop
  endfacet
  facet normal 0.154519 0.475512 0.866032
    outer loop
      vertex 24.0867 17.5 -8.13295
      vertex 23.8564 17.3327 -8
      vertex 24.0155 17.281 -8
    endloop
  endfacet
  facet normal -0.154516 -0.475532 -0.866022
    outer loop
      vertex 10.3049 29.8456 -24
      vertex 24.0867 17.5 -19.68
      vertex 18.6965 13.5838 -16.5679
    endloop
  endfacet
  facet normal -0.154509 -0.475525 -0.866027
    outer loop
      vertex 24.0867 17.5 -19.68
      vertex 10.3049 29.8456 -24
      vertex 26.3989 24.6163 -24
    endloop
  endfacet
  facet normal -0.267617 -0.823638 0.500001
    outer loop
      vertex 13.3964 15.0732 -8
      vertex -7.0569 21.7189 -8
      vertex -5.99374 18.4468 -12.821
    endloop
  endfacet
  facet normal 0.154508 0.475529 0.866025
    outer loop
      vertex -0.707724 54.453 -24
      vertex -5.39331 26.8365 -8
      vertex 29.8 44.5405 -24
    endloop
  endfacet
  facet normal 0.15451 0.475528 0.866025
    outer loop
      vertex -9.20029 28.3156 -8.13295
      vertex -5.39331 26.8365 -8
      vertex -0.707724 54.453 -24
    endloop
  endfacet
  facet normal 0.154519 0.47555 0.866011
    outer loop
      vertex -5.39331 26.8365 -8
      vertex -9.20029 28.3156 -8.13295
      vertex -8.59742 27.8776 -8
    endloop
  endfacet
  facet normal 0.781173 0.118312 0.613002
    outer loop
      vertex -9.20029 28.3156 -8.13295
      vertex -0.707724 54.453 -24
      vertex -9.27145 28.0966 -8
    endloop
  endfacet
  facet normal 0.154517 0.475534 0.866021
    outer loop
      vertex -9.11234 28.0449 -8
      vertex -9.20029 28.3156 -8.13295
      vertex -9.27145 28.0966 -8
    endloop
  endfacet
  facet normal -0.951056 0.309017 0
    outer loop
      vertex -1.61783 51.652 -24
      vertex -9.20029 28.3156 -16.9808
      vertex -9.20029 28.3156 -9.79489
    endloop
  endfacet
  facet normal -0.951056 0.309017 0
    outer loop
      vertex -9.20029 28.3156 -8.13295
      vertex -1.61783 51.652 -24
      vertex -9.20029 28.3156 -9.79489
    endloop
  endfacet
  facet normal -0.951056 0.309019 2.72194e-06
    outer loop
      vertex -1.61783 51.652 -24
      vertex -9.20029 28.3156 -8.13295
      vertex -0.707724 54.453 -24
    endloop
  endfacet
  facet normal -0.951053 0.309029 3.33059e-06
    outer loop
      vertex -9.20029 28.3156 -8.13295
      vertex -9.43057 27.6069 -8
      vertex -9.27145 28.0966 -8
    endloop
  endfacet
  facet normal -0.781173 -0.118312 -0.613002
    outer loop
      vertex -9.20029 28.3156 -8.13295
      vertex -9.27145 28.0966 -8
      vertex -0.707724 54.453 -24
    endloop
  endfacet
  facet normal -0.951056 0.309017 0
    outer loop
      vertex -9.20029 28.3156 -16.9808
      vertex -6.88806 35.4319 -24
      vertex -9.20029 28.3156 -19.68
    endloop
  endfacet
  facet normal -0.951057 0.309017 -5.35238e-07
    outer loop
      vertex -6.88806 35.4319 -24
      vertex -9.20029 28.3156 -16.9808
      vertex -1.61783 51.652 -24
    endloop
  endfacet
  facet normal -0.267614 -0.823652 0.49998
    outer loop
      vertex -5.66093 17.4226 -14.3301
      vertex 13.3964 15.0732 -8
      vertex -5.99374 18.4468 -12.821
    endloop
  endfacet
  facet normal -0.267619 -0.823638 0.500001
    outer loop
      vertex 13.3964 15.0732 -8
      vertex -5.66093 17.4226 -14.3301
      vertex 14.8205 10.7677 -14.3301
    endloop
  endfacet
  facet normal -0.267616 -0.823638 0.500002
    outer loop
      vertex 13.3964 15.0732 -8
      vertex 14.8205 10.7677 -14.3301
      vertex 18.4752 13.423 -8
    endloop
  endfacet
  facet normal -0.154505 -0.475528 -0.866026
    outer loop
      vertex 14.8205 10.7677 -14.3301
      vertex 10.3049 29.8456 -24
      vertex 18.6965 13.5838 -16.5679
    endloop
  endfacet
  facet normal -0.15451 -0.475528 -0.866025
    outer loop
      vertex -5.66093 17.4226 -14.3301
      vertex 10.3049 29.8456 -24
      vertex 14.8205 10.7677 -14.3301
    endloop
  endfacet
  facet normal -0.15451 -0.475528 -0.866025
    outer loop
      vertex -7.14144 21.9791 -16.5679
      vertex 10.3049 29.8456 -24
      vertex -5.66093 17.4226 -14.3301
    endloop
  endfacet
  facet normal -0.154504 -0.475538 -0.866021
    outer loop
      vertex -9.20029 28.3156 -19.68
      vertex 10.3049 29.8456 -24
      vertex -7.14144 21.9791 -16.5679
    endloop
  endfacet
  facet normal -0.154507 -0.475526 -0.866027
    outer loop
      vertex 10.3049 29.8456 -24
      vertex -9.20029 28.3156 -19.68
      vertex -6.88806 35.4319 -24
    endloop
  endfacet
  facet normal 0.951055 -0.30902 -3.12944e-06
    outer loop
      vertex 24.0867 17.5 -8.13295
      vertex 26.3989 24.6163 -24
      vertex 32.5793 43.6374 -24
    endloop
  endfacet
  facet normal 0.951058 -0.309014 0
    outer loop
      vertex 26.3989 24.6163 -24
      vertex 24.0867 17.5 -8.13295
      vertex 24.0867 17.5 -19.68
    endloop
  endfacet
  facet normal 0.951064 -0.308994 0.000346794
    outer loop
      vertex 24.0155 17.281 -8
      vertex 23.8564 16.7913 -8
      vertex 24.0867 17.5 -8.13295
    endloop
  endfacet
  facet normal -0.404503 0.2939 0.866025
    outer loop
      vertex -33.1518 42.1053 -24
      vertex -9.43057 27.6069 -8
      vertex -9.20029 28.3156 -8.13295
    endloop
  endfacet
  facet normal -0.404502 0.293902 0.866025
    outer loop
      vertex -33.1518 42.1053 -24
      vertex -9.20029 28.3156 -8.13295
      vertex -31.4341 44.4694 -24
    endloop
  endfacet
  facet normal -0.404508 0.293893 0.866025
    outer loop
      vertex -9.43057 27.6069 -8
      vertex -33.1518 42.1053 -24
      vertex -27.1897 3.1636 -8
    endloop
  endfacet
  facet normal -0.404425 0.293948 0.866046
    outer loop
      vertex -9.014 28.1802 -8
      vertex -9.20029 28.3156 -8.13295
      vertex -9.11234 28.0449 -8
    endloop
  endfacet
  facet normal 0.587782 0.809019 0
    outer loop
      vertex -15.2538 32.7137 -24
      vertex -9.20029 28.3156 -16.9808
      vertex -9.20029 28.3156 -19.68
    endloop
  endfacet
  facet normal 0.587792 0.809012 -1.2909e-05
    outer loop
      vertex -21.0857 36.9509 -24
      vertex -9.20029 28.3156 -16.9808
      vertex -15.2538 32.7137 -24
    endloop
  endfacet
  facet normal 0.587787 0.809016 -0
    outer loop
      vertex -9.20029 28.3156 -16.9808
      vertex -21.0857 36.9509 -24
      vertex -9.20029 28.3156 -9.79489
    endloop
  endfacet
  facet normal -0.40442 0.29401 0.866027
    outer loop
      vertex -29.4881 0 -8
      vertex -29.7728 0 -8.13295
      vertex -29.5865 -0.135352 -8
    endloop
  endfacet
  facet normal -0.404466 0.293853 0.866059
    outer loop
      vertex -27.1897 3.1636 -8
      vertex -29.7728 0 -8.13295
      vertex -29.1699 0.438008 -8
    endloop
  endfacet
  facet normal -0.40451 0.293892 0.866025
    outer loop
      vertex -52.0066 16.1538 -24
      vertex -27.1897 3.1636 -8
      vertex -33.1518 42.1053 -24
    endloop
  endfacet
  facet normal -0.404511 0.293891 0.866025
    outer loop
      vertex -27.1897 3.1636 -8
      vertex -52.0066 16.1538 -24
      vertex -29.7728 0 -8.13295
    endloop
  endfacet
  facet normal 0.700629 -0.509037 0.5
    outer loop
      vertex -22.8366 0 -8
      vertex -5.99374 18.4468 -12.821
      vertex -7.0569 21.7189 -8
    endloop
  endfacet
  facet normal 0.700632 -0.509041 0.499992
    outer loop
      vertex -22.8366 0 -8
      vertex -5.66093 17.4226 -14.3301
      vertex -5.99374 18.4468 -12.821
    endloop
  endfacet
  facet normal 0.700631 -0.509038 0.499997
    outer loop
      vertex -5.66093 17.4226 -14.3301
      vertex -22.8366 0 -8
      vertex -18.3192 0 -14.3301
    endloop
  endfacet
  facet normal -0.587758 -0.809037 -4.13436e-05
    outer loop
      vertex -29.5865 -0.135352 -8
      vertex -29.7728 0 -8.13295
      vertex -29.1699 -0.438008 -8
    endloop
  endfacet
  facet normal -0.587778 -0.809022 -1.55802e-05
    outer loop
      vertex -49.6239 14.4227 -24
      vertex -29.7728 0 -8.13295
      vertex -52.0066 16.1538 -24
    endloop
  endfacet
  facet normal -0.587786 -0.809016 -0
    outer loop
      vertex -29.7728 0 -8.13295
      vertex -49.6239 14.4227 -24
      vertex -29.7728 0 -16.9808
    endloop
  endfacet
  facet normal 0.404509 -0.293893 -0.866025
    outer loop
      vertex -25.2005 19.0233 -24
      vertex -5.66093 17.4226 -14.3301
      vertex -18.3192 0 -14.3301
    endloop
  endfacet
  facet normal 0.40451 -0.29389 -0.866026
    outer loop
      vertex -5.66093 17.4226 -14.3301
      vertex -25.2005 19.0233 -24
      vertex -7.14144 21.9791 -16.5679
    endloop
  endfacet
  facet normal 0.404514 -0.293891 -0.866023
    outer loop
      vertex -29.7728 0 -19.68
      vertex -25.2005 19.0233 -24
      vertex -18.3192 0 -14.3301
    endloop
  endfacet
  facet normal 0.404506 -0.29389 -0.866028
    outer loop
      vertex -25.2005 19.0233 -24
      vertex -29.7728 0 -19.68
      vertex -35.8263 4.39812 -24
    endloop
  endfacet
  facet normal 0.587787 0.809016 0
    outer loop
      vertex -21.0857 36.9509 -24
      vertex -9.20029 28.3156 -8.13295
      vertex -9.20029 28.3156 -9.79489
    endloop
  endfacet
  facet normal 0.587783 0.809019 5.33817e-06
    outer loop
      vertex -9.20029 28.3156 -8.13295
      vertex -21.0857 36.9509 -24
      vertex -31.4341 44.4694 -24
    endloop
  endfacet
  facet normal 0.587705 0.809075 0.00049052
    outer loop
      vertex -8.59742 27.8776 -8
      vertex -9.20029 28.3156 -8.13295
      vertex -9.014 28.1802 -8
    endloop
  endfacet
  facet normal 0.40451 -0.293903 -0.866021
    outer loop
      vertex -25.2005 19.0233 -24
      vertex -9.20029 28.3156 -19.68
      vertex -7.14144 21.9791 -16.5679
    endloop
  endfacet
  facet normal 0.404505 -0.293891 -0.866027
    outer loop
      vertex -9.20029 28.3156 -19.68
      vertex -25.2005 19.0233 -24
      vertex -15.2538 32.7137 -24
    endloop
  endfacet
  facet normal -0.587787 -0.809016 2.46024e-06
    outer loop
      vertex -35.8263 4.39812 -24
      vertex -29.7728 0 -16.9808
      vertex -49.6239 14.4227 -24
    endloop
  endfacet
  facet normal -0.587785 -0.809017 -0
    outer loop
      vertex -29.7728 0 -16.9808
      vertex -35.8263 4.39812 -24
      vertex -29.7728 0 -19.68
    endloop
  endfacet
  facet normal -0.40442 -0.29401 0.866027
    outer loop
      vertex -29.5865 0.135352 -8
      vertex -29.7728 0 -8.13295
      vertex -29.4881 0 -8
    endloop
  endfacet
  facet normal -0.404466 -0.293853 0.866059
    outer loop
      vertex -29.7728 0 -8.13295
      vertex -27.1897 -3.1636 -8
      vertex -29.1699 -0.438008 -8
    endloop
  endfacet
  facet normal -0.404511 -0.293891 0.866025
    outer loop
      vertex -52.0066 -16.1538 -24
      vertex -27.1897 -3.1636 -8
      vertex -29.7728 0 -8.13295
    endloop
  endfacet
  facet normal -0.40451 -0.293892 0.866025
    outer loop
      vertex -27.1897 -3.1636 -8
      vertex -52.0066 -16.1538 -24
      vertex -33.1518 -42.1053 -24
    endloop
  endfacet
  facet normal 0.587787 -0.809016 0
    outer loop
      vertex -21.0857 -36.9509 -24
      vertex -9.20029 -28.3156 -16.9808
      vertex -9.20029 -28.3156 -9.79489
    endloop
  endfacet
  facet normal 0.587792 -0.809012 -1.2909e-05
    outer loop
      vertex -15.2538 -32.7137 -24
      vertex -9.20029 -28.3156 -16.9808
      vertex -21.0857 -36.9509 -24
    endloop
  endfacet
  facet normal 0.587782 -0.809019 0
    outer loop
      vertex -9.20029 -28.3156 -16.9808
      vertex -15.2538 -32.7137 -24
      vertex -9.20029 -28.3156 -19.68
    endloop
  endfacet
  facet normal -0.587785 0.809017 0
    outer loop
      vertex -35.8263 -4.39812 -24
      vertex -29.7728 0 -16.9808
      vertex -29.7728 0 -19.68
    endloop
  endfacet
  facet normal -0.587787 0.809016 2.46024e-06
    outer loop
      vertex -29.7728 0 -16.9808
      vertex -35.8263 -4.39812 -24
      vertex -49.6239 -14.4227 -24
    endloop
  endfacet
  facet normal -0.404508 -0.293893 0.866025
    outer loop
      vertex -33.1518 -42.1053 -24
      vertex -9.43057 -27.6069 -8
      vertex -27.1897 -3.1636 -8
    endloop
  endfacet
  facet normal -0.404503 -0.2939 0.866025
    outer loop
      vertex -9.43057 -27.6069 -8
      vertex -33.1518 -42.1053 -24
      vertex -9.20029 -28.3156 -8.13295
    endloop
  endfacet
  facet normal -0.404502 -0.293902 0.866025
    outer loop
      vertex -9.20029 -28.3156 -8.13295
      vertex -33.1518 -42.1053 -24
      vertex -31.4341 -44.4694 -24
    endloop
  endfacet
  facet normal -0.404425 -0.293948 0.866046
    outer loop
      vertex -9.11234 -28.0449 -8
      vertex -9.20029 -28.3156 -8.13295
      vertex -9.014 -28.1802 -8
    endloop
  endfacet
  facet normal 0.40451 0.29389 -0.866026
    outer loop
      vertex -25.2005 -19.0233 -24
      vertex -5.66093 -17.4226 -14.3301
      vertex -7.14144 -21.9791 -16.5679
    endloop
  endfacet
  facet normal 0.404509 0.293893 -0.866025
    outer loop
      vertex -5.66093 -17.4226 -14.3301
      vertex -25.2005 -19.0233 -24
      vertex -18.3192 0 -14.3301
    endloop
  endfacet
  facet normal 0.404514 0.293891 -0.866023
    outer loop
      vertex -25.2005 -19.0233 -24
      vertex -29.7728 0 -19.68
      vertex -18.3192 0 -14.3301
    endloop
  endfacet
  facet normal 0.404506 0.29389 -0.866028
    outer loop
      vertex -29.7728 0 -19.68
      vertex -25.2005 -19.0233 -24
      vertex -35.8263 -4.39812 -24
    endloop
  endfacet
  facet normal -0.587758 0.809037 -4.13436e-05
    outer loop
      vertex -29.1699 0.438008 -8
      vertex -29.7728 0 -8.13295
      vertex -29.5865 0.135352 -8
    endloop
  endfacet
  facet normal -0.587786 0.809016 0
    outer loop
      vertex -49.6239 -14.4227 -24
      vertex -29.7728 0 -8.13295
      vertex -29.7728 0 -16.9808
    endloop
  endfacet
  facet normal -0.587778 0.809022 -1.55802e-05
    outer loop
      vertex -29.7728 0 -8.13295
      vertex -49.6239 -14.4227 -24
      vertex -52.0066 -16.1538 -24
    endloop
  endfacet
  facet normal 0.587783 -0.809019 5.33817e-06
    outer loop
      vertex -21.0857 -36.9509 -24
      vertex -9.20029 -28.3156 -8.13295
      vertex -31.4341 -44.4694 -24
    endloop
  endfacet
  facet normal 0.587787 -0.809016 0
    outer loop
      vertex -9.20029 -28.3156 -8.13295
      vertex -21.0857 -36.9509 -24
      vertex -9.20029 -28.3156 -9.79489
    endloop
  endfacet
  facet normal 0.587705 -0.809075 0.00049052
    outer loop
      vertex -9.014 -28.1802 -8
      vertex -9.20029 -28.3156 -8.13295
      vertex -8.59742 -27.8776 -8
    endloop
  endfacet
  facet normal 0.404505 0.293891 -0.866027
    outer loop
      vertex -25.2005 -19.0233 -24
      vertex -9.20029 -28.3156 -19.68
      vertex -15.2538 -32.7137 -24
    endloop
  endfacet
  facet normal 0.40451 0.293903 -0.866021
    outer loop
      vertex -9.20029 -28.3156 -19.68
      vertex -25.2005 -19.0233 -24
      vertex -7.14144 -21.9791 -16.5679
    endloop
  endfacet
  facet normal 0.700631 0.509038 0.499997
    outer loop
      vertex -22.8366 0 -8
      vertex -5.66093 -17.4226 -14.3301
      vertex -18.3192 0 -14.3301
    endloop
  endfacet
  facet normal 0.700632 0.509041 0.499992
    outer loop
      vertex -22.8366 0 -8
      vertex -5.99374 -18.4468 -12.821
      vertex -5.66093 -17.4226 -14.3301
    endloop
  endfacet
  facet normal 0.700629 0.509037 0.5
    outer loop
      vertex -5.99374 -18.4468 -12.821
      vertex -22.8366 0 -8
      vertex -7.0569 -21.7189 -8
    endloop
  endfacet
  facet normal 0.154517 -0.475534 0.866021
    outer loop
      vertex -9.11234 -28.0449 -8
      vertex -9.27145 -28.0966 -8
      vertex -9.20029 -28.3156 -8.13295
    endloop
  endfacet
  facet normal 0.154508 -0.475529 0.866025
    outer loop
      vertex -5.39331 -26.8365 -8
      vertex -0.707724 -54.453 -24
      vertex 29.8 -44.5405 -24
    endloop
  endfacet
  facet normal 0.154519 -0.47555 0.866011
    outer loop
      vertex -9.20029 -28.3156 -8.13295
      vertex -5.39331 -26.8365 -8
      vertex -8.59742 -27.8776 -8
    endloop
  endfacet
  facet normal 0.15451 -0.475528 0.866025
    outer loop
      vertex -5.39331 -26.8365 -8
      vertex -9.20029 -28.3156 -8.13295
      vertex -0.707724 -54.453 -24
    endloop
  endfacet
  facet normal 0.781173 -0.118312 0.613002
    outer loop
      vertex -0.707724 -54.453 -24
      vertex -9.20029 -28.3156 -8.13295
      vertex -9.27145 -28.0966 -8
    endloop
  endfacet
  facet normal 0.951058 0.309014 0
    outer loop
      vertex 24.0867 -17.5 -8.13295
      vertex 26.3989 -24.6163 -24
      vertex 24.0867 -17.5 -19.68
    endloop
  endfacet
  facet normal 0.951055 0.30902 -3.12944e-06
    outer loop
      vertex 26.3989 -24.6163 -24
      vertex 24.0867 -17.5 -8.13295
      vertex 32.5793 -43.6374 -24
    endloop
  endfacet
  facet normal 0.951064 0.308994 0.000346794
    outer loop
      vertex 24.0867 -17.5 -8.13295
      vertex 23.8564 -16.7913 -8
      vertex 24.0155 -17.281 -8
    endloop
  endfacet
  facet normal -0.951056 -0.309017 0
    outer loop
      vertex -6.88806 -35.4319 -24
      vertex -9.20029 -28.3156 -16.9808
      vertex -9.20029 -28.3156 -19.68
    endloop
  endfacet
  facet normal -0.951057 -0.309017 -5.35238e-07
    outer loop
      vertex -9.20029 -28.3156 -16.9808
      vertex -6.88806 -35.4319 -24
      vertex -1.61783 -51.652 -24
    endloop
  endfacet
  facet normal 0.154516 -0.475526 0.866025
    outer loop
      vertex 24.0867 -17.5 -8.13295
      vertex 29.8 -44.5405 -24
      vertex 32.5793 -43.6374 -24
    endloop
  endfacet
  facet normal 0.154506 -0.475529 0.866026
    outer loop
      vertex 23.3415 -17.5 -8
      vertex 29.8 -44.5405 -24
      vertex 24.0867 -17.5 -8.13295
    endloop
  endfacet
  facet normal 0.154508 -0.475528 0.866026
    outer loop
      vertex 29.8 -44.5405 -24
      vertex 23.3415 -17.5 -8
      vertex -5.39331 -26.8365 -8
    endloop
  endfacet
  facet normal 0.154519 -0.475512 0.866032
    outer loop
      vertex 24.0155 -17.281 -8
      vertex 23.8564 -17.3327 -8
      vertex 24.0867 -17.5 -8.13295
    endloop
  endfacet
  facet normal -0.154505 0.475528 -0.866026
    outer loop
      vertex 10.3049 -29.8456 -24
      vertex 14.8205 -10.7677 -14.3301
      vertex 18.6965 -13.5838 -16.5679
    endloop
  endfacet
  facet normal -0.15451 0.475528 -0.866025
    outer loop
      vertex 10.3049 -29.8456 -24
      vertex -5.66093 -17.4226 -14.3301
      vertex 14.8205 -10.7677 -14.3301
    endloop
  endfacet
  facet normal -0.154507 0.475526 -0.866027
    outer loop
      vertex -9.20029 -28.3156 -19.68
      vertex 10.3049 -29.8456 -24
      vertex -6.88806 -35.4319 -24
    endloop
  endfacet
  facet normal -0.15451 0.475528 -0.866025
    outer loop
      vertex 10.3049 -29.8456 -24
      vertex -7.14144 -21.9791 -16.5679
      vertex -5.66093 -17.4226 -14.3301
    endloop
  endfacet
  facet normal -0.154504 0.475538 -0.866021
    outer loop
      vertex 10.3049 -29.8456 -24
      vertex -9.20029 -28.3156 -19.68
      vertex -7.14144 -21.9791 -16.5679
    endloop
  endfacet
  facet normal -0.951056 -0.309017 0
    outer loop
      vertex -1.61783 -51.652 -24
      vertex -9.20029 -28.3156 -9.79489
      vertex -9.20029 -28.3156 -16.9808
    endloop
  endfacet
  facet normal -0.951056 -0.309017 0
    outer loop
      vertex -1.61783 -51.652 -24
      vertex -9.20029 -28.3156 -8.13295
      vertex -9.20029 -28.3156 -9.79489
    endloop
  endfacet
  facet normal -0.951056 -0.309019 2.72194e-06
    outer loop
      vertex -9.20029 -28.3156 -8.13295
      vertex -1.61783 -51.652 -24
      vertex -0.707724 -54.453 -24
    endloop
  endfacet
  facet normal -0.951053 -0.309029 3.33059e-06
    outer loop
      vertex -9.43057 -27.6069 -8
      vertex -9.20029 -28.3156 -8.13295
      vertex -9.27145 -28.0966 -8
    endloop
  endfacet
  facet normal -0.781173 0.118312 -0.613002
    outer loop
      vertex -9.20029 -28.3156 -8.13295
      vertex -0.707724 -54.453 -24
      vertex -9.27145 -28.0966 -8
    endloop
  endfacet
  facet normal -0.154509 0.475525 -0.866027
    outer loop
      vertex 10.3049 -29.8456 -24
      vertex 24.0867 -17.5 -19.68
      vertex 26.3989 -24.6163 -24
    endloop
  endfacet
  facet normal -0.154516 0.475532 -0.866022
    outer loop
      vertex 24.0867 -17.5 -19.68
      vertex 10.3049 -29.8456 -24
      vertex 18.6965 -13.5838 -16.5679
    endloop
  endfacet
  facet normal -0.267616 0.823638 0.500002
    outer loop
      vertex 14.8205 -10.7677 -14.3301
      vertex 13.3964 -15.0732 -8
      vertex 18.4752 -13.423 -8
    endloop
  endfacet
  facet normal -0.267619 0.823638 0.500001
    outer loop
      vertex -5.66093 -17.4226 -14.3301
      vertex 13.3964 -15.0732 -8
      vertex 14.8205 -10.7677 -14.3301
    endloop
  endfacet
  facet normal -0.267614 0.823652 0.49998
    outer loop
      vertex 13.3964 -15.0732 -8
      vertex -5.66093 -17.4226 -14.3301
      vertex -5.99374 -18.4468 -12.821
    endloop
  endfacet
  facet normal -0.267617 0.823638 0.500001
    outer loop
      vertex -5.99374 -18.4468 -12.821
      vertex -7.0569 -21.7189 -8
      vertex 13.3964 -15.0732 -8
    endloop
  endfacet
  facet normal -0.5 0 -0.866025
    outer loop
      vertex 23.3506 -15.9 -9.55551
      vertex 48.3692 15.9 -24
      vertex 48.3692 -15.9 -24
    endloop
  endfacet
  facet normal -0.5 0 -0.866025
    outer loop
      vertex 48.3692 15.9 -24
      vertex 23.3506 -15.9 -9.55551
      vertex 23.3506 15.9 -9.55551
    endloop
  endfacet
  facet normal 0.500001 -2.46154e-05 0.866025
    outer loop
      vertex 19.9506 14.495 -15.4445
      vertex 34.7692 15.9 -24
      vertex 21.8845 15.9 -16.561
    endloop
  endfacet
  facet normal 0.499999 0 0.866026
    outer loop
      vertex 34.7692 15.9 -24
      vertex 19.9506 14.495 -15.4445
      vertex 34.7692 -15.9 -24
    endloop
  endfacet
  facet normal 0.499999 -0 0.866026
    outer loop
      vertex 19.9506 -14.495 -15.4445
      vertex 34.7692 -15.9 -24
      vertex 19.9506 14.495 -15.4445
    endloop
  endfacet
  facet normal 0.500001 2.46154e-05 0.866025
    outer loop
      vertex 34.7692 -15.9 -24
      vertex 19.9506 -14.495 -15.4445
      vertex 21.8845 -15.9 -16.561
    endloop
  endfacet
  facet normal 0.866037 -0.000124516 -0.499981
    outer loop
      vertex 23.3506 15.9 -9.55551
      vertex 20.09 14.5963 -15.203
      vertex 21.8845 15.9 -12.095
    endloop
  endfacet
  facet normal 0.866024 0 -0.500002
    outer loop
      vertex 20.09 -14.5963 -15.203
      vertex 20.09 14.5963 -15.203
      vertex 23.3506 15.9 -9.55551
    endloop
  endfacet
  facet normal 0.866072 0 -0.499919
    outer loop
      vertex 20.09 14.5963 -15.203
      vertex 20.09 -14.5963 -15.203
      vertex 19.9506 14.495 -15.4445
    endloop
  endfacet
  facet normal 0.866072 0 -0.499919
    outer loop
      vertex 19.9506 14.495 -15.4445
      vertex 20.09 -14.5963 -15.203
      vertex 19.9506 -14.495 -15.4445
    endloop
  endfacet
  facet normal 0.866024 0 -0.500002
    outer loop
      vertex 23.3506 -15.9 -9.55551
      vertex 20.09 -14.5963 -15.203
      vertex 23.3506 15.9 -9.55551
    endloop
  endfacet
  facet normal 0.866037 0.000124516 -0.499981
    outer loop
      vertex 20.09 -14.5963 -15.203
      vertex 23.3506 -15.9 -9.55551
      vertex 21.8845 -15.9 -12.095
    endloop
  endfacet
  facet normal 0 -1 0
    outer loop
      vertex 21.8845 15.9 -16.561
      vertex 23.3506 15.9 -9.55551
      vertex 21.8845 15.9 -12.095
    endloop
  endfacet
  facet normal 0 -1 0
    outer loop
      vertex 34.7692 15.9 -24
      vertex 23.3506 15.9 -9.55551
      vertex 21.8845 15.9 -16.561
    endloop
  endfacet
  facet normal 0 -1 0
    outer loop
      vertex 23.3506 15.9 -9.55551
      vertex 34.7692 15.9 -24
      vertex 48.3692 15.9 -24
    endloop
  endfacet
  facet normal 0 1 0
    outer loop
      vertex 23.3506 -15.9 -9.55551
      vertex 21.8845 -15.9 -16.561
      vertex 21.8845 -15.9 -12.095
    endloop
  endfacet
  facet normal 0 1 -0
    outer loop
      vertex 34.7692 -15.9 -24
      vertex 23.3506 -15.9 -9.55551
      vertex 48.3692 -15.9 -24
    endloop
  endfacet
  facet normal 0 1 0
    outer loop
      vertex 23.3506 -15.9 -9.55551
      vertex 34.7692 -15.9 -24
      vertex 21.8845 -15.9 -16.561
    endloop
  endfacet
  facet normal -0.154509 -0.475528 -0.866026
    outer loop
      vertex 22.3375 17.2944 -9.55551
      vertex 8.56218 48.0764 -24
      vertex 30.0687 41.0885 -24
    endloop
  endfacet
  facet normal -0.154508 -0.475528 -0.866026
    outer loop
      vertex 8.56218 48.0764 -24
      vertex 22.3375 17.2944 -9.55551
      vertex -7.90606 27.1211 -9.55551
    endloop
  endfacet
  facet normal -0.951054 0.309024 1.02999e-05
    outer loop
      vertex 30.0687 41.0885 -24
      vertex 28.9825 37.7456 -24
      vertex 22.3375 17.2944 -9.55551
    endloop
  endfacet
  facet normal -0.154506 -0.475529 -0.866025
    outer loop
      vertex -0.174888 50.9152 -24
      vertex 8.56218 48.0764 -24
      vertex -7.90606 27.1211 -9.55551
    endloop
  endfacet
  facet normal 0.951056 -0.309019 -2.78996e-06
    outer loop
      vertex -7.90606 27.1211 -9.55551
      vertex -4.37752 37.9809 -24
      vertex -0.174888 50.9152 -24
    endloop
  endfacet
  facet normal 0.951058 -0.309012 0
    outer loop
      vertex -8.35912 25.7267 -16.3923
      vertex -7.90606 27.1211 -9.55551
      vertex -8.35912 25.7267 -12.095
    endloop
  endfacet
  facet normal 0.951057 -0.309015 5.56079e-07
    outer loop
      vertex -7.90606 27.1211 -9.55551
      vertex -8.35912 25.7267 -16.3923
      vertex -4.37752 37.9809 -24
    endloop
  endfacet
  facet normal 0.951057 -0.309015 0
    outer loop
      vertex -4.37752 37.9809 -24
      vertex -8.35912 25.7267 -16.3923
      vertex -8.35912 25.7267 -16.561
    endloop
  endfacet
  facet normal 0.267578 0.823658 -0.49999
    outer loop
      vertex 20.09 14.5963 -15.203
      vertex 22.3375 17.2944 -9.55551
      vertex 21.8845 15.9 -12.095
    endloop
  endfacet
  facet normal 0.267616 0.823641 -0.499998
    outer loop
      vertex 22.3375 17.2944 -9.55551
      vertex 20.09 14.5963 -15.203
      vertex -7.90606 27.1211 -9.55551
    endloop
  endfacet
  facet normal 0.154506 0.475529 0.866025
    outer loop
      vertex 25.8661 28.1541 -24
      vertex 19.9506 14.495 -15.4445
      vertex 21.8845 15.9 -16.561
    endloop
  endfacet
  facet normal 0.154509 0.475528 0.866025
    outer loop
      vertex 0.797472 36.2994 -24
      vertex 19.9506 14.495 -15.4445
      vertex 25.8661 28.1541 -24
    endloop
  endfacet
  facet normal 0.154509 0.475528 0.866025
    outer loop
      vertex 0.797472 36.2994 -24
      vertex -7.62046 23.4534 -15.4445
      vertex 19.9506 14.495 -15.4445
    endloop
  endfacet
  facet normal 0.154534 0.475514 0.866029
    outer loop
      vertex -7.62046 23.4534 -15.4445
      vertex 0.797472 36.2994 -24
      vertex -8.11114 24.9635 -16.1861
    endloop
  endfacet
  facet normal 0.154511 0.475525 0.866027
    outer loop
      vertex -8.35912 25.7267 -16.561
      vertex 0.797472 36.2994 -24
      vertex -4.37752 37.9809 -24
    endloop
  endfacet
  facet normal 0.154432 0.475581 0.86601
    outer loop
      vertex 0.797472 36.2994 -24
      vertex -8.35912 25.7267 -16.561
      vertex -8.11114 24.9635 -16.1861
    endloop
  endfacet
  facet normal -0.951058 0.309011 -9.59555e-06
    outer loop
      vertex 25.8661 28.1541 -24
      vertex 22.3375 17.2944 -9.55551
      vertex 28.9825 37.7456 -24
    endloop
  endfacet
  facet normal -0.951058 0.309013 -8.26072e-06
    outer loop
      vertex 21.8845 15.9 -16.561
      vertex 22.3375 17.2944 -9.55551
      vertex 25.8661 28.1541 -24
    endloop
  endfacet
  facet normal -0.95107 0.308975 0
    outer loop
      vertex 22.3375 17.2944 -9.55551
      vertex 21.8845 15.9 -16.561
      vertex 21.8845 15.9 -12.095
    endloop
  endfacet
  facet normal 0.267627 0.823653 -0.499972
    outer loop
      vertex 19.9506 14.495 -15.4445
      vertex -7.90606 27.1211 -9.55551
      vertex 20.09 14.5963 -15.203
    endloop
  endfacet
  facet normal 0.267614 0.823638 -0.500004
    outer loop
      vertex -7.67371 23.6172 -15.203
      vertex -7.90606 27.1211 -9.55551
      vertex 19.9506 14.495 -15.4445
    endloop
  endfacet
  facet normal 0.267661 0.823628 -0.499995
    outer loop
      vertex -7.90606 27.1211 -9.55551
      vertex -7.67371 23.6172 -15.203
      vertex -8.35912 25.7267 -12.095
    endloop
  endfacet
  facet normal 0.267666 0.82379 -0.499725
    outer loop
      vertex -7.67371 23.6172 -15.203
      vertex 19.9506 14.495 -15.4445
      vertex -7.62046 23.4534 -15.4445
    endloop
  endfacet
  facet normal 0.404509 -0.293892 -0.866025
    outer loop
      vertex -43.0775 22.9995 -24
      vertex -9.54527 26.5885 -9.55551
      vertex -28.2368 0.861788 -9.55551
    endloop
  endfacet
  facet normal 0.404509 -0.293893 -0.866025
    outer loop
      vertex -9.54527 26.5885 -9.55551
      vertex -43.0775 22.9995 -24
      vertex -29.7857 41.2941 -24
    endloop
  endfacet
  facet normal -0.700647 0.509014 -0.499998
    outer loop
      vertex -7.67371 23.6172 -15.203
      vertex -9.54527 26.5885 -9.55551
      vertex -8.35912 25.7267 -12.095
    endloop
  endfacet
  facet normal -0.700628 0.509035 -0.500003
    outer loop
      vertex -9.54527 26.5885 -9.55551
      vertex -7.67371 23.6172 -15.203
      vertex -28.2368 0.861788 -9.55551
    endloop
  endfacet
  facet normal 0.404509 -0.293892 -0.866025
    outer loop
      vertex -43.0775 22.9995 -24
      vertex -28.2368 0.861788 -9.55551
      vertex -48.4773 15.5673 -24
    endloop
  endfacet
  facet normal -0.700686 0.509132 -0.499824
    outer loop
      vertex -7.62046 23.4534 -15.4445
      vertex -28.2368 0.861788 -9.55551
      vertex -7.67371 23.6172 -15.203
    endloop
  endfacet
  facet normal -0.700631 0.509036 -0.499999
    outer loop
      vertex -24.6603 0 -15.4445
      vertex -28.2368 0.861788 -9.55551
      vertex -7.62046 23.4534 -15.4445
    endloop
  endfacet
  facet normal -0.700596 0.509097 -0.499986
    outer loop
      vertex -28.2368 0.861788 -9.55551
      vertex -24.6603 0 -15.4445
      vertex -27.0507 0 -12.095
    endloop
  endfacet
  facet normal -0.5878 -0.809006 2.65099e-05
    outer loop
      vertex -18.7831 33.3002 -24
      vertex -8.35912 25.7267 -16.3923
      vertex -20.9171 34.8507 -24
    endloop
  endfacet
  facet normal -0.587787 -0.809016 -0
    outer loop
      vertex -8.35912 25.7267 -16.3923
      vertex -18.7831 33.3002 -24
      vertex -8.35912 25.7267 -16.561
    endloop
  endfacet
  facet normal -0.58779 -0.809013 0
    outer loop
      vertex -9.54527 26.5885 -9.55551
      vertex -8.35912 25.7267 -16.3923
      vertex -8.35912 25.7267 -12.095
    endloop
  endfacet
  facet normal -0.587784 -0.809018 -5.66806e-06
    outer loop
      vertex -20.9171 34.8507 -24
      vertex -9.54527 26.5885 -9.55551
      vertex -29.7857 41.2941 -24
    endloop
  endfacet
  facet normal -0.587789 -0.809014 2.94717e-07
    outer loop
      vertex -9.54527 26.5885 -9.55551
      vertex -20.9171 34.8507 -24
      vertex -8.35912 25.7267 -16.3923
    endloop
  endfacet
  facet normal 0.587786 0.809016 -5.49681e-06
    outer loop
      vertex -28.2368 0.861788 -9.55551
      vertex -45.6337 13.5013 -24
      vertex -48.4773 15.5673 -24
    endloop
  endfacet
  facet normal 0.587801 0.809005 -0
    outer loop
      vertex -27.0507 0 -16.561
      vertex -28.2368 0.861788 -9.55551
      vertex -27.0507 0 -12.095
    endloop
  endfacet
  facet normal 0.587787 0.809016 -3.80886e-06
    outer loop
      vertex -37.4747 7.57347 -24
      vertex -28.2368 0.861788 -9.55551
      vertex -27.0507 0 -16.561
    endloop
  endfacet
  facet normal 0.587783 0.809018 -5.99416e-07
    outer loop
      vertex -28.2368 0.861788 -9.55551
      vertex -37.4747 7.57347 -24
      vertex -45.6337 13.5013 -24
    endloop
  endfacet
  facet normal -0.404426 0.294004 0.866026
    outer loop
      vertex -18.7831 33.3002 -24
      vertex -8.11114 24.9635 -16.1861
      vertex -8.35912 25.7267 -16.561
    endloop
  endfacet
  facet normal -0.404545 0.293848 0.866023
    outer loop
      vertex -8.11114 24.9635 -16.1861
      vertex -18.7831 33.3002 -24
      vertex -7.62046 23.4534 -15.4445
    endloop
  endfacet
  facet normal -0.404509 0.293892 0.866025
    outer loop
      vertex -18.7831 33.3002 -24
      vertex -24.6603 0 -15.4445
      vertex -7.62046 23.4534 -15.4445
    endloop
  endfacet
  facet normal -0.404507 0.293892 0.866027
    outer loop
      vertex -37.4747 7.57347 -24
      vertex -24.6603 0 -15.4445
      vertex -18.7831 33.3002 -24
    endloop
  endfacet
  facet normal -0.404501 0.293902 0.866026
    outer loop
      vertex -24.6603 0 -15.4445
      vertex -37.4747 7.57347 -24
      vertex -27.0507 0 -16.561
    endloop
  endfacet
  facet normal 0.404509 0.293892 -0.866025
    outer loop
      vertex -28.2368 -0.861788 -9.55551
      vertex -43.0775 -22.9995 -24
      vertex -48.4773 -15.5673 -24
    endloop
  endfacet
  facet normal -0.700596 -0.509097 -0.499986
    outer loop
      vertex -24.6603 0 -15.4445
      vertex -28.2368 -0.861788 -9.55551
      vertex -27.0507 0 -12.095
    endloop
  endfacet
  facet normal -0.700631 -0.509036 -0.499999
    outer loop
      vertex -7.62046 -23.4534 -15.4445
      vertex -28.2368 -0.861788 -9.55551
      vertex -24.6603 0 -15.4445
    endloop
  endfacet
  facet normal -0.700686 -0.509132 -0.499824
    outer loop
      vertex -28.2368 -0.861788 -9.55551
      vertex -7.62046 -23.4534 -15.4445
      vertex -7.67371 -23.6172 -15.203
    endloop
  endfacet
  facet normal 0.404509 0.293893 -0.866025
    outer loop
      vertex -43.0775 -22.9995 -24
      vertex -9.54527 -26.5885 -9.55551
      vertex -29.7857 -41.2941 -24
    endloop
  endfacet
  facet normal 0.404509 0.293892 -0.866025
    outer loop
      vertex -9.54527 -26.5885 -9.55551
      vertex -43.0775 -22.9995 -24
      vertex -28.2368 -0.861788 -9.55551
    endloop
  endfacet
  facet normal 0.587786 -0.809016 -5.49681e-06
    outer loop
      vertex -45.6337 -13.5013 -24
      vertex -28.2368 -0.861788 -9.55551
      vertex -48.4773 -15.5673 -24
    endloop
  endfacet
  facet normal -0.58779 0.809013 0
    outer loop
      vertex -8.35912 -25.7267 -16.3923
      vertex -9.54527 -26.5885 -9.55551
      vertex -8.35912 -25.7267 -12.095
    endloop
  endfacet
  facet normal -0.587789 0.809014 2.94717e-07
    outer loop
      vertex -20.9171 -34.8507 -24
      vertex -9.54527 -26.5885 -9.55551
      vertex -8.35912 -25.7267 -16.3923
    endloop
  endfacet
  facet normal -0.587784 0.809018 -5.66806e-06
    outer loop
      vertex -9.54527 -26.5885 -9.55551
      vertex -20.9171 -34.8507 -24
      vertex -29.7857 -41.2941 -24
    endloop
  endfacet
  facet normal -0.700647 -0.509014 -0.499998
    outer loop
      vertex -9.54527 -26.5885 -9.55551
      vertex -7.67371 -23.6172 -15.203
      vertex -8.35912 -25.7267 -12.095
    endloop
  endfacet
  facet normal -0.700628 -0.509035 -0.500003
    outer loop
      vertex -7.67371 -23.6172 -15.203
      vertex -9.54527 -26.5885 -9.55551
      vertex -28.2368 -0.861788 -9.55551
    endloop
  endfacet
  facet normal -0.404545 -0.293848 0.866023
    outer loop
      vertex -18.7831 -33.3002 -24
      vertex -8.11114 -24.9635 -16.1861
      vertex -7.62046 -23.4534 -15.4445
    endloop
  endfacet
  facet normal -0.404426 -0.294004 0.866026
    outer loop
      vertex -8.11114 -24.9635 -16.1861
      vertex -18.7831 -33.3002 -24
      vertex -8.35912 -25.7267 -16.561
    endloop
  endfacet
  facet normal -0.404509 -0.293892 0.866025
    outer loop
      vertex -24.6603 0 -15.4445
      vertex -18.7831 -33.3002 -24
      vertex -7.62046 -23.4534 -15.4445
    endloop
  endfacet
  facet normal -0.404501 -0.293902 0.866026
    outer loop
      vertex -37.4747 -7.57347 -24
      vertex -24.6603 0 -15.4445
      vertex -27.0507 0 -16.561
    endloop
  endfacet
  facet normal -0.404507 -0.293892 0.866027
    outer loop
      vertex -24.6603 0 -15.4445
      vertex -37.4747 -7.57347 -24
      vertex -18.7831 -33.3002 -24
    endloop
  endfacet
  facet normal 0.587801 -0.809005 0
    outer loop
      vertex -28.2368 -0.861788 -9.55551
      vertex -27.0507 0 -16.561
      vertex -27.0507 0 -12.095
    endloop
  endfacet
  facet normal 0.587783 -0.809018 -5.99416e-07
    outer loop
      vertex -37.4747 -7.57347 -24
      vertex -28.2368 -0.861788 -9.55551
      vertex -45.6337 -13.5013 -24
    endloop
  endfacet
  facet normal 0.587787 -0.809016 -3.80886e-06
    outer loop
      vertex -28.2368 -0.861788 -9.55551
      vertex -37.4747 -7.57347 -24
      vertex -27.0507 0 -16.561
    endloop
  endfacet
  facet normal -0.587787 0.809016 0
    outer loop
      vertex -18.7831 -33.3002 -24
      vertex -8.35912 -25.7267 -16.3923
      vertex -8.35912 -25.7267 -16.561
    endloop
  endfacet
  facet normal -0.5878 0.809006 2.65099e-05
    outer loop
      vertex -8.35912 -25.7267 -16.3923
      vertex -18.7831 -33.3002 -24
      vertex -20.9171 -34.8507 -24
    endloop
  endfacet
  facet normal -0.154506 0.475529 -0.866025
    outer loop
      vertex 8.56218 -48.0764 -24
      vertex -0.174888 -50.9152 -24
      vertex -7.90606 -27.1211 -9.55551
    endloop
  endfacet
  facet normal 0.267616 -0.823641 -0.499998
    outer loop
      vertex 20.09 -14.5963 -15.203
      vertex 22.3375 -17.2944 -9.55551
      vertex -7.90606 -27.1211 -9.55551
    endloop
  endfacet
  facet normal 0.267578 -0.823658 -0.49999
    outer loop
      vertex 22.3375 -17.2944 -9.55551
      vertex 20.09 -14.5963 -15.203
      vertex 21.8845 -15.9 -12.095
    endloop
  endfacet
  facet normal -0.154509 0.475528 -0.866026
    outer loop
      vertex 8.56218 -48.0764 -24
      vertex 22.3375 -17.2944 -9.55551
      vertex 30.0687 -41.0885 -24
    endloop
  endfacet
  facet normal -0.154508 0.475528 -0.866026
    outer loop
      vertex 22.3375 -17.2944 -9.55551
      vertex 8.56218 -48.0764 -24
      vertex -7.90606 -27.1211 -9.55551
    endloop
  endfacet
  facet normal -0.95107 -0.308975 0
    outer loop
      vertex 21.8845 -15.9 -16.561
      vertex 22.3375 -17.2944 -9.55551
      vertex 21.8845 -15.9 -12.095
    endloop
  endfacet
  facet normal -0.951058 -0.309013 -8.26072e-06
    outer loop
      vertex 25.8661 -28.1541 -24
      vertex 22.3375 -17.2944 -9.55551
      vertex 21.8845 -15.9 -16.561
    endloop
  endfacet
  facet normal -0.951058 -0.309011 -9.59555e-06
    outer loop
      vertex 22.3375 -17.2944 -9.55551
      vertex 25.8661 -28.1541 -24
      vertex 28.9825 -37.7456 -24
    endloop
  endfacet
  facet normal -0.951054 -0.309024 1.02999e-05
    outer loop
      vertex 28.9825 -37.7456 -24
      vertex 30.0687 -41.0885 -24
      vertex 22.3375 -17.2944 -9.55551
    endloop
  endfacet
  facet normal 0.154432 -0.475581 0.86601
    outer loop
      vertex -8.35912 -25.7267 -16.561
      vertex 0.797472 -36.2994 -24
      vertex -8.11114 -24.9635 -16.1861
    endloop
  endfacet
  facet normal 0.154511 -0.475525 0.866027
    outer loop
      vertex 0.797472 -36.2994 -24
      vertex -8.35912 -25.7267 -16.561
      vertex -4.37752 -37.9809 -24
    endloop
  endfacet
  facet normal 0.951058 0.309012 0
    outer loop
      vertex -7.90606 -27.1211 -9.55551
      vertex -8.35912 -25.7267 -16.3923
      vertex -8.35912 -25.7267 -12.095
    endloop
  endfacet
  facet normal 0.951057 0.309015 5.56079e-07
    outer loop
      vertex -4.37752 -37.9809 -24
      vertex -8.35912 -25.7267 -16.3923
      vertex -7.90606 -27.1211 -9.55551
    endloop
  endfacet
  facet normal 0.951057 0.309015 0
    outer loop
      vertex -8.35912 -25.7267 -16.3923
      vertex -4.37752 -37.9809 -24
      vertex -8.35912 -25.7267 -16.561
    endloop
  endfacet
  facet normal 0.951056 0.309019 -2.78996e-06
    outer loop
      vertex -4.37752 -37.9809 -24
      vertex -7.90606 -27.1211 -9.55551
      vertex -0.174888 -50.9152 -24
    endloop
  endfacet
  facet normal 0.154506 -0.475529 0.866025
    outer loop
      vertex 19.9506 -14.495 -15.4445
      vertex 25.8661 -28.1541 -24
      vertex 21.8845 -15.9 -16.561
    endloop
  endfacet
  facet normal 0.154509 -0.475528 0.866025
    outer loop
      vertex 19.9506 -14.495 -15.4445
      vertex 0.797472 -36.2994 -24
      vertex 25.8661 -28.1541 -24
    endloop
  endfacet
  facet normal 0.154509 -0.475528 0.866025
    outer loop
      vertex -7.62046 -23.4534 -15.4445
      vertex 0.797472 -36.2994 -24
      vertex 19.9506 -14.495 -15.4445
    endloop
  endfacet
  facet normal 0.154534 -0.475514 0.866029
    outer loop
      vertex 0.797472 -36.2994 -24
      vertex -7.62046 -23.4534 -15.4445
      vertex -8.11114 -24.9635 -16.1861
    endloop
  endfacet
  facet normal 0.267661 -0.823628 -0.499995
    outer loop
      vertex -7.67371 -23.6172 -15.203
      vertex -7.90606 -27.1211 -9.55551
      vertex -8.35912 -25.7267 -12.095
    endloop
  endfacet
  facet normal 0.267614 -0.823638 -0.500004
    outer loop
      vertex 19.9506 -14.495 -15.4445
      vertex -7.90606 -27.1211 -9.55551
      vertex -7.67371 -23.6172 -15.203
    endloop
  endfacet
  facet normal 0.267666 -0.82379 -0.499725
    outer loop
      vertex 19.9506 -14.495 -15.4445
      vertex -7.67371 -23.6172 -15.203
      vertex -7.62046 -23.4534 -15.4445
    endloop
  endfacet
  facet normal 0.267627 -0.823653 -0.499972
    outer loop
      vertex -7.90606 -27.1211 -9.55551
      vertex 19.9506 -14.495 -15.4445
      vertex 20.09 -14.5963 -15.203
    endloop
  endfacet
  facet normal 0 0 1
    outer loop
      vertex -29.1699 -0.438008 -8
      vertex -29.4881 0 -8
      vertex -29.5865 -0.135352 -8
    endloop
  endfacet
  facet normal -0 0 1
    outer loop
      vertex 23.3415 17.5 -8
      vertex 23.8564 17.3327 -8
      vertex 23.8564 17.5 -8
    endloop
  endfacet
  facet normal 0 0 1
    outer loop
      vertex 23.8564 17.3327 -8
      vertex 23.3415 17.5 -8
      vertex 23.8564 16.7913 -8
    endloop
  endfacet
  facet normal 0 0 1
    outer loop
      vertex 23.8564 16.7913 -8
      vertex 18.4752 13.423 -8
      vertex 23.8564 -16.7913 -8
    endloop
  endfacet
  facet normal -0 0 1
    outer loop
      vertex 18.4752 -13.423 -8
      vertex 23.8564 -16.7913 -8
      vertex 18.4752 13.423 -8
    endloop
  endfacet
  facet normal 0 0 1
    outer loop
      vertex 23.8564 16.7913 -8
      vertex 23.3415 17.5 -8
      vertex 18.4752 13.423 -8
    endloop
  endfacet
  facet normal 0 -0 1
    outer loop
      vertex 23.3415 -17.5 -8
      vertex 23.8564 -16.7913 -8
      vertex 18.4752 -13.423 -8
    endloop
  endfacet
  facet normal 0 0 1
    outer loop
      vertex 23.8564 -16.7913 -8
      vertex 23.3415 -17.5 -8
      vertex 23.8564 -17.3327 -8
    endloop
  endfacet
  facet normal 0 0 1
    outer loop
      vertex 23.3415 17.5 -8
      vertex 13.3964 15.0732 -8
      vertex 18.4752 13.423 -8
    endloop
  endfacet
  facet normal 0 0 1
    outer loop
      vertex -5.39331 26.8365 -8
      vertex 13.3964 15.0732 -8
      vertex 23.3415 17.5 -8
    endloop
  endfacet
  facet normal 0 0 1
    outer loop
      vertex -5.39331 26.8365 -8
      vertex -7.0569 21.7189 -8
      vertex 13.3964 15.0732 -8
    endloop
  endfacet
  facet normal 0 0 1
    outer loop
      vertex -8.59742 27.8776 -8
      vertex -7.0569 21.7189 -8
      vertex -5.39331 26.8365 -8
    endloop
  endfacet
  facet normal -0 0 1
    outer loop
      vertex -9.11234 28.0449 -8
      vertex -8.59742 27.8776 -8
      vertex -9.014 28.1802 -8
    endloop
  endfacet
  facet normal 0 0 1
    outer loop
      vertex -9.43057 27.6069 -8
      vertex -8.59742 27.8776 -8
      vertex -9.11234 28.0449 -8
    endloop
  endfacet
  facet normal 0 0 1
    outer loop
      vertex -9.43057 27.6069 -8
      vertex -9.11234 28.0449 -8
      vertex -9.27145 28.0966 -8
    endloop
  endfacet
  facet normal 0 0 1
    outer loop
      vertex -8.59742 27.8776 -8
      vertex -9.43057 27.6069 -8
      vertex -7.0569 21.7189 -8
    endloop
  endfacet
  facet normal 0 0 1
    outer loop
      vertex -27.1897 3.1636 -8
      vertex -7.0569 21.7189 -8
      vertex -9.43057 27.6069 -8
    endloop
  endfacet
  facet normal 0 0 1
    outer loop
      vertex -7.0569 21.7189 -8
      vertex -27.1897 3.1636 -8
      vertex -22.8366 0 -8
    endloop
  endfacet
  facet normal 0 0 1
    outer loop
      vertex 24.0155 17.281 -8
      vertex 23.8564 17.3327 -8
      vertex 23.8564 16.7913 -8
    endloop
  endfacet
  facet normal 0 0 1
    outer loop
      vertex 24.0155 -17.281 -8
      vertex 23.8564 -16.7913 -8
      vertex 23.8564 -17.3327 -8
    endloop
  endfacet
  facet normal 0 0 1
    outer loop
      vertex 23.8564 -17.3327 -8
      vertex 23.3415 -17.5 -8
      vertex 23.8564 -17.5 -8
    endloop
  endfacet
  facet normal -0 0 1
    outer loop
      vertex 13.3964 -15.0732 -8
      vertex 23.3415 -17.5 -8
      vertex 18.4752 -13.423 -8
    endloop
  endfacet
  facet normal 0 0 1
    outer loop
      vertex 13.3964 -15.0732 -8
      vertex -5.39331 -26.8365 -8
      vertex 23.3415 -17.5 -8
    endloop
  endfacet
  facet normal -0 0 1
    outer loop
      vertex -7.0569 -21.7189 -8
      vertex -5.39331 -26.8365 -8
      vertex 13.3964 -15.0732 -8
    endloop
  endfacet
  facet normal 0 0 1
    outer loop
      vertex -7.0569 -21.7189 -8
      vertex -8.59742 -27.8776 -8
      vertex -5.39331 -26.8365 -8
    endloop
  endfacet
  facet normal -0 0 1
    outer loop
      vertex -9.43057 -27.6069 -8
      vertex -8.59742 -27.8776 -8
      vertex -7.0569 -21.7189 -8
    endloop
  endfacet
  facet normal 0 0 1
    outer loop
      vertex -8.59742 -27.8776 -8
      vertex -9.11234 -28.0449 -8
      vertex -9.014 -28.1802 -8
    endloop
  endfacet
  facet normal 0 0 1
    outer loop
      vertex -8.59742 -27.8776 -8
      vertex -9.43057 -27.6069 -8
      vertex -9.11234 -28.0449 -8
    endloop
  endfacet
  facet normal 0 0 1
    outer loop
      vertex -9.11234 -28.0449 -8
      vertex -9.43057 -27.6069 -8
      vertex -9.27145 -28.0966 -8
    endloop
  endfacet
  facet normal -0 0 1
    outer loop
      vertex -27.1897 -3.1636 -8
      vertex -7.0569 -21.7189 -8
      vertex -22.8366 0 -8
    endloop
  endfacet
  facet normal -0 0 1
    outer loop
      vertex -29.1699 0.438008 -8
      vertex -22.8366 0 -8
      vertex -27.1897 3.1636 -8
    endloop
  endfacet
  facet normal 0 0 1
    outer loop
      vertex -7.0569 -21.7189 -8
      vertex -27.1897 -3.1636 -8
      vertex -9.43057 -27.6069 -8
    endloop
  endfacet
  facet normal 0 0 1
    outer loop
      vertex -29.1699 -0.438008 -8
      vertex -22.8366 0 -8
      vertex -29.1699 0.438008 -8
    endloop
  endfacet
  facet normal 0 0 1
    outer loop
      vertex -22.8366 0 -8
      vertex -29.1699 -0.438008 -8
      vertex -27.1897 -3.1636 -8
    endloop
  endfacet
  facet normal 0 0 1
    outer loop
      vertex -29.1699 0.438008 -8
      vertex -29.4881 0 -8
      vertex -29.1699 -0.438008 -8
    endloop
  endfacet
  facet normal 0 -0 1
    outer loop
      vertex -29.4881 0 -8
      vertex -29.1699 0.438008 -8
      vertex -29.5865 0.135352 -8
    endloop
  endfacet
  facet normal 0 0 -1
    outer loop
      vertex -21.0857 -36.9509 -24
      vertex -18.7831 -33.3002 -24
      vertex -15.2538 -32.7137 -24
    endloop
  endfacet
  facet normal 0 0 -1
    outer loop
      vertex -18.7831 -33.3002 -24
      vertex -21.0857 -36.9509 -24
      vertex -20.9171 -34.8507 -24
    endloop
  endfacet
  facet normal -0 0 -1
    outer loop
      vertex -21.0857 -36.9509 -24
      vertex -29.7857 -41.2941 -24
      vertex -20.9171 -34.8507 -24
    endloop
  endfacet
  facet normal 0 0 -1
    outer loop
      vertex -31.4341 -44.4694 -24
      vertex -29.7857 -41.2941 -24
      vertex -21.0857 -36.9509 -24
    endloop
  endfacet
  facet normal 0 0 -1
    outer loop
      vertex -33.1518 -42.1053 -24
      vertex -29.7857 -41.2941 -24
      vertex -31.4341 -44.4694 -24
    endloop
  endfacet
  facet normal 0 0 -1
    outer loop
      vertex -33.1518 -42.1053 -24
      vertex -43.0775 -22.9995 -24
      vertex -29.7857 -41.2941 -24
    endloop
  endfacet
  facet normal 0 0 -1
    outer loop
      vertex -52.0066 -16.1538 -24
      vertex -43.0775 -22.9995 -24
      vertex -33.1518 -42.1053 -24
    endloop
  endfacet
  facet normal 0 0 -1
    outer loop
      vertex -43.0775 -22.9995 -24
      vertex -52.0066 -16.1538 -24
      vertex -48.4773 -15.5673 -24
    endloop
  endfacet
  facet normal -0 0 -1
    outer loop
      vertex -48.4773 -15.5673 -24
      vertex -52.0066 -16.1538 -24
      vertex -49.6239 -14.4227 -24
    endloop
  endfacet
  facet normal 0 0 -1
    outer loop
      vertex -18.7831 -33.3002 -24
      vertex -25.2005 -19.0233 -24
      vertex -15.2538 -32.7137 -24
    endloop
  endfacet
  facet normal 0 0 -1
    outer loop
      vertex -37.4747 -7.57347 -24
      vertex -25.2005 -19.0233 -24
      vertex -18.7831 -33.3002 -24
    endloop
  endfacet
  facet normal 0 0 -1
    outer loop
      vertex -25.2005 -19.0233 -24
      vertex -37.4747 -7.57347 -24
      vertex -35.8263 -4.39812 -24
    endloop
  endfacet
  facet normal 0 0 -1
    outer loop
      vertex -45.6337 -13.5013 -24
      vertex -35.8263 -4.39812 -24
      vertex -37.4747 -7.57347 -24
    endloop
  endfacet
  facet normal 0 0 -1
    outer loop
      vertex -49.6239 -14.4227 -24
      vertex -45.6337 -13.5013 -24
      vertex -48.4773 -15.5673 -24
    endloop
  endfacet
  facet normal -0 0 -1
    outer loop
      vertex -45.6337 -13.5013 -24
      vertex -49.6239 -14.4227 -24
      vertex -35.8263 -4.39812 -24
    endloop
  endfacet
  facet normal 0 0 -1
    outer loop
      vertex -25.2005 19.0233 -24
      vertex -18.7831 33.3002 -24
      vertex -15.2538 32.7137 -24
    endloop
  endfacet
  facet normal 0 0 -1
    outer loop
      vertex -37.4747 7.57347 -24
      vertex -25.2005 19.0233 -24
      vertex -35.8263 4.39812 -24
    endloop
  endfacet
  facet normal -0 0 -1
    outer loop
      vertex -25.2005 19.0233 -24
      vertex -37.4747 7.57347 -24
      vertex -18.7831 33.3002 -24
    endloop
  endfacet
  facet normal 0 0 -1
    outer loop
      vertex -35.8263 4.39812 -24
      vertex -45.6337 13.5013 -24
      vertex -37.4747 7.57347 -24
    endloop
  endfacet
  facet normal 0 0 -1
    outer loop
      vertex -49.6239 14.4227 -24
      vertex -45.6337 13.5013 -24
      vertex -35.8263 4.39812 -24
    endloop
  endfacet
  facet normal 0 0 -1
    outer loop
      vertex -45.6337 13.5013 -24
      vertex -49.6239 14.4227 -24
      vertex -48.4773 15.5673 -24
    endloop
  endfacet
  facet normal 0 0 -1
    outer loop
      vertex -21.0857 36.9509 -24
      vertex -18.7831 33.3002 -24
      vertex -20.9171 34.8507 -24
    endloop
  endfacet
  facet normal 0 0 -1
    outer loop
      vertex -18.7831 33.3002 -24
      vertex -21.0857 36.9509 -24
      vertex -15.2538 32.7137 -24
    endloop
  endfacet
  facet normal 0 0 -1
    outer loop
      vertex -29.7857 41.2941 -24
      vertex -21.0857 36.9509 -24
      vertex -20.9171 34.8507 -24
    endloop
  endfacet
  facet normal 0 0 -1
    outer loop
      vertex -29.7857 41.2941 -24
      vertex -31.4341 44.4694 -24
      vertex -21.0857 36.9509 -24
    endloop
  endfacet
  facet normal 0 0 -1
    outer loop
      vertex -29.7857 41.2941 -24
      vertex -33.1518 42.1053 -24
      vertex -31.4341 44.4694 -24
    endloop
  endfacet
  facet normal 0 0 -1
    outer loop
      vertex -43.0775 22.9995 -24
      vertex -33.1518 42.1053 -24
      vertex -29.7857 41.2941 -24
    endloop
  endfacet
  facet normal 0 0 -1
    outer loop
      vertex -52.0066 16.1538 -24
      vertex -43.0775 22.9995 -24
      vertex -48.4773 15.5673 -24
    endloop
  endfacet
  facet normal 0 0 -1
    outer loop
      vertex -52.0066 16.1538 -24
      vertex -48.4773 15.5673 -24
      vertex -49.6239 14.4227 -24
    endloop
  endfacet
  facet normal -0 0 -1
    outer loop
      vertex -43.0775 22.9995 -24
      vertex -52.0066 16.1538 -24
      vertex -33.1518 42.1053 -24
    endloop
  endfacet
  facet normal 0 0 -1
    outer loop
      vertex 29.8 -44.5405 -24
      vertex 30.0687 -41.0885 -24
      vertex 32.5793 -43.6374 -24
    endloop
  endfacet
  facet normal -0 0 -1
    outer loop
      vertex 29.8 -44.5405 -24
      vertex 8.56218 -48.0764 -24
      vertex 30.0687 -41.0885 -24
    endloop
  endfacet
  facet normal 0 0 -1
    outer loop
      vertex -0.707724 -54.453 -24
      vertex 8.56218 -48.0764 -24
      vertex 29.8 -44.5405 -24
    endloop
  endfacet
  facet normal 0 0 -1
    outer loop
      vertex 8.56218 -48.0764 -24
      vertex -0.707724 -54.453 -24
      vertex -0.174888 -50.9152 -24
    endloop
  endfacet
  facet normal 0 0 -1
    outer loop
      vertex -1.61783 -51.652 -24
      vertex -0.174888 -50.9152 -24
      vertex -0.707724 -54.453 -24
    endloop
  endfacet
  facet normal 0 0 -1
    outer loop
      vertex -1.61783 -51.652 -24
      vertex -4.37752 -37.9809 -24
      vertex -0.174888 -50.9152 -24
    endloop
  endfacet
  facet normal -0 -0 -1
    outer loop
      vertex -4.37752 -37.9809 -24
      vertex -1.61783 -51.652 -24
      vertex -6.88806 -35.4319 -24
    endloop
  endfacet
  facet normal 0 0 -1
    outer loop
      vertex 28.9825 -37.7456 -24
      vertex 32.5793 -43.6374 -24
      vertex 30.0687 -41.0885 -24
    endloop
  endfacet
  facet normal 0 0 -1
    outer loop
      vertex 28.9825 -37.7456 -24
      vertex 26.3989 -24.6163 -24
      vertex 32.5793 -43.6374 -24
    endloop
  endfacet
  facet normal 0 0 -1
    outer loop
      vertex 25.8661 -28.1541 -24
      vertex 26.3989 -24.6163 -24
      vertex 28.9825 -37.7456 -24
    endloop
  endfacet
  facet normal -0 0 -1
    outer loop
      vertex 25.8661 -28.1541 -24
      vertex 10.3049 -29.8456 -24
      vertex 26.3989 -24.6163 -24
    endloop
  endfacet
  facet normal 0 0 -1
    outer loop
      vertex 0.797472 -36.2994 -24
      vertex 10.3049 -29.8456 -24
      vertex 25.8661 -28.1541 -24
    endloop
  endfacet
  facet normal 0 0 -1
    outer loop
      vertex -6.88806 -35.4319 -24
      vertex 0.797472 -36.2994 -24
      vertex -4.37752 -37.9809 -24
    endloop
  endfacet
  facet normal 0 0 -1
    outer loop
      vertex 0.797472 -36.2994 -24
      vertex -6.88806 -35.4319 -24
      vertex 10.3049 -29.8456 -24
    endloop
  endfacet
  facet normal 0 0 -1
    outer loop
      vertex 32.5793 43.6374 -24
      vertex 28.9825 37.7456 -24
      vertex 30.0687 41.0885 -24
    endloop
  endfacet
  facet normal 0 0 -1
    outer loop
      vertex 26.3989 24.6163 -24
      vertex 28.9825 37.7456 -24
      vertex 32.5793 43.6374 -24
    endloop
  endfacet
  facet normal 0 0 -1
    outer loop
      vertex 26.3989 24.6163 -24
      vertex 25.8661 28.1541 -24
      vertex 28.9825 37.7456 -24
    endloop
  endfacet
  facet normal 0 0 -1
    outer loop
      vertex 10.3049 29.8456 -24
      vertex 25.8661 28.1541 -24
      vertex 26.3989 24.6163 -24
    endloop
  endfacet
  facet normal 0 0 -1
    outer loop
      vertex 10.3049 29.8456 -24
      vertex 0.797472 36.2994 -24
      vertex 25.8661 28.1541 -24
    endloop
  endfacet
  facet normal 0 0 -1
    outer loop
      vertex -6.88806 35.4319 -24
      vertex 0.797472 36.2994 -24
      vertex 10.3049 29.8456 -24
    endloop
  endfacet
  facet normal -0 0 -1
    outer loop
      vertex 0.797472 36.2994 -24
      vertex -6.88806 35.4319 -24
      vertex -4.37752 37.9809 -24
    endloop
  endfacet
  facet normal 0 0 -1
    outer loop
      vertex 30.0687 41.0885 -24
      vertex 29.8 44.5405 -24
      vertex 32.5793 43.6374 -24
    endloop
  endfacet
  facet normal 0 0 -1
    outer loop
      vertex 8.56218 48.0764 -24
      vertex 29.8 44.5405 -24
      vertex 30.0687 41.0885 -24
    endloop
  endfacet
  facet normal 0 0 -1
    outer loop
      vertex -0.707724 54.453 -24
      vertex 8.56218 48.0764 -24
      vertex -0.174888 50.9152 -24
    endloop
  endfacet
  facet normal 0 0 -1
    outer loop
      vertex 8.56218 48.0764 -24
      vertex -0.707724 54.453 -24
      vertex 29.8 44.5405 -24
    endloop
  endfacet
  facet normal 0 0 -1
    outer loop
      vertex -0.174888 50.9152 -24
      vertex -1.61783 51.652 -24
      vertex -0.707724 54.453 -24
    endloop
  endfacet
  facet normal 0 0 -1
    outer loop
      vertex -4.37752 37.9809 -24
      vertex -1.61783 51.652 -24
      vertex -0.174888 50.9152 -24
    endloop
  endfacet
  facet normal 0 0 -1
    outer loop
      vertex -1.61783 51.652 -24
      vertex -4.37752 37.9809 -24
      vertex -6.88806 35.4319 -24
    endloop
  endfacet
  facet normal 0 0 -1
    outer loop
      vertex 51.5692 -17.5 -24
      vertex 48.3692 -15.9 -24
      vertex 51.5692 17.5 -24
    endloop
  endfacet
  facet normal 0 0 -1
    outer loop
      vertex 51.5692 -17.5 -24
      vertex 34.7692 -15.9 -24
      vertex 48.3692 -15.9 -24
    endloop
  endfacet
  facet normal -0 0 -1
    outer loop
      vertex 34.7692 -15.9 -24
      vertex 31.5692 -17.5 -24
      vertex 34.7692 15.9 -24
    endloop
  endfacet
  facet normal 0 0 -1
    outer loop
      vertex 31.5692 -17.5 -24
      vertex 34.7692 -15.9 -24
      vertex 51.5692 -17.5 -24
    endloop
  endfacet
  facet normal 0 0 -1
    outer loop
      vertex 48.3692 15.9 -24
      vertex 51.5692 17.5 -24
      vertex 48.3692 -15.9 -24
    endloop
  endfacet
  facet normal 0 0 -1
    outer loop
      vertex 34.7692 15.9 -24
      vertex 51.5692 17.5 -24
      vertex 48.3692 15.9 -24
    endloop
  endfacet
  facet normal 0 0 -1
    outer loop
      vertex 34.7692 15.9 -24
      vertex 31.5692 17.5 -24
      vertex 51.5692 17.5 -24
    endloop
  endfacet
  facet normal 0 0 -1
    outer loop
      vertex 31.5692 17.5 -24
      vertex 34.7692 15.9 -24
      vertex 31.5692 -17.5 -24
    endloop
  endfacet
endsolid OpenSCAD_Model
