solid OpenSCAD_Model
  facet normal -0.5 0 -0.866026
    outer loop
      vertex 23.3756 -15.95 -9.51221
      vertex 48.4692 15.95 -24
      vertex 48.4692 -15.95 -24
    endloop
  endfacet
  facet normal -0.5 0 -0.866026
    outer loop
      vertex 48.4692 15.95 -24
      vertex 23.3756 -15.95 -9.51221
      vertex 23.3756 15.95 -9.51221
    endloop
  endfacet
  facet normal 0.499999 5.79517e-05 0.866026
    outer loop
      vertex 21.2711 15.4544 -16.2646
      vertex 34.6692 15.95 -24
      vertex 21.9533 15.95 -16.6585
    endloop
  endfacet
  facet normal 0.500001 -2.34509e-05 0.866025
    outer loop
      vertex 19.9256 14.4768 -15.4878
      vertex 34.6692 15.95 -24
      vertex 21.2711 15.4544 -16.2646
    endloop
  endfacet
  facet normal 0.499999 0 0.866026
    outer loop
      vertex 34.6692 15.95 -24
      vertex 19.9256 14.4768 -15.4878
      vertex 34.6692 -15.95 -24
    endloop
  endfacet
  facet normal 0.499999 -5.79517e-05 0.866026
    outer loop
      vertex 34.6692 -15.95 -24
      vertex 21.2711 -15.4544 -16.2646
      vertex 21.9533 -15.95 -16.6585
    endloop
  endfacet
  facet normal 0.499999 -0 0.866026
    outer loop
      vertex 19.9256 -14.4768 -15.4878
      vertex 34.6692 -15.95 -24
      vertex 19.9256 14.4768 -15.4878
    endloop
  endfacet
  facet normal 0.500001 2.34509e-05 0.866025
    outer loop
      vertex 34.6692 -15.95 -24
      vertex 19.9256 -14.4768 -15.4878
      vertex 21.2711 -15.4544 -16.2646
    endloop
  endfacet
  facet normal 0.866034 -7.25026e-05 -0.499986
    outer loop
      vertex 23.3756 15.95 -9.51221
      vertex 19.9256 14.4768 -15.4878
      vertex 21.9533 15.95 -11.9758
    endloop
  endfacet
  facet normal 0.866026 0 -0.499999
    outer loop
      vertex 23.3756 15.95 -9.51221
      vertex 19.9256 -14.4768 -15.4878
      vertex 19.9256 14.4768 -15.4878
    endloop
  endfacet
  facet normal 0.866026 0 -0.499999
    outer loop
      vertex 23.3756 -15.95 -9.51221
      vertex 19.9256 -14.4768 -15.4878
      vertex 23.3756 15.95 -9.51221
    endloop
  endfacet
  facet normal 0.866034 7.25026e-05 -0.499986
    outer loop
      vertex 19.9256 -14.4768 -15.4878
      vertex 23.3756 -15.95 -9.51221
      vertex 21.9533 -15.95 -11.9758
    endloop
  endfacet
  facet normal 0 -1 0
    outer loop
      vertex 21.9533 15.95 -16.6585
      vertex 23.3756 15.95 -9.51221
      vertex 21.9533 15.95 -11.9758
    endloop
  endfacet
  facet normal 0 -1 0
    outer loop
      vertex 34.6692 15.95 -24
      vertex 23.3756 15.95 -9.51221
      vertex 21.9533 15.95 -16.6585
    endloop
  endfacet
  facet normal 0 -1 0
    outer loop
      vertex 23.3756 15.95 -9.51221
      vertex 34.6692 15.95 -24
      vertex 48.4692 15.95 -24
    endloop
  endfacet
  facet normal 0 1 0
    outer loop
      vertex 23.3756 -15.95 -9.51221
      vertex 21.9533 -15.95 -16.6585
      vertex 21.9533 -15.95 -11.9758
    endloop
  endfacet
  facet normal 0 1 -0
    outer loop
      vertex 34.6692 -15.95 -24
      vertex 23.3756 -15.95 -9.51221
      vertex 48.4692 -15.95 -24
    endloop
  endfacet
  facet normal 0 1 0
    outer loop
      vertex 23.3756 -15.95 -9.51221
      vertex 34.6692 -15.95 -24
      vertex 21.9533 -15.95 -16.6585
    endloop
  endfacet
  facet normal -0.15451 -0.475528 -0.866025
    outer loop
      vertex 22.3928 17.3027 -9.51221
      vertex 8.59928 48.1695 -24
      vertex 30.1472 41.1681 -24
    endloop
  endfacet
  facet normal -0.154509 -0.475528 -0.866025
    outer loop
      vertex 8.59928 48.1695 -24
      vertex 22.3928 17.3027 -9.51221
      vertex -7.94588 27.1604 -9.51221
    endloop
  endfacet
  facet normal 0.154507 0.475526 0.866027
    outer loop
      vertex 20.7177 29.7218 -24
      vertex 21.9533 15.95 -16.6585
      vertex 25.8827 28.0436 -24
    endloop
  endfacet
  facet normal 0.154577 0.475526 0.866015
    outer loop
      vertex 21.9533 15.95 -16.6585
      vertex 20.7177 29.7218 -24
      vertex 21.2711 15.4544 -16.2646
    endloop
  endfacet
  facet normal 0.154481 0.47553 0.86603
    outer loop
      vertex 20.7177 29.7218 -24
      vertex 19.9256 14.4768 -15.4878
      vertex 21.2711 15.4544 -16.2646
    endloop
  endfacet
  facet normal 0.154508 0.475528 0.866025
    outer loop
      vertex -7.61091 23.424 -15.4878
      vertex 20.7177 29.7218 -24
      vertex -4.45597 37.9012 -24
    endloop
  endfacet
  facet normal 0.154509 0.475527 0.866026
    outer loop
      vertex 20.7177 29.7218 -24
      vertex -7.61091 23.424 -15.4878
      vertex 19.9256 14.4768 -15.4878
    endloop
  endfacet
  facet normal 0.154516 0.475526 0.866025
    outer loop
      vertex -4.45597 37.9012 -24
      vertex -8.12485 25.0057 -16.2646
      vertex -7.61091 23.424 -15.4878
    endloop
  endfacet
  facet normal 0.154387 0.475564 0.866027
    outer loop
      vertex -4.45597 37.9012 -24
      vertex -8.38541 25.8076 -16.6585
      vertex -8.12485 25.0057 -16.2646
    endloop
  endfacet
  facet normal -0.154508 -0.475529 -0.866025
    outer loop
      vertex -0.191539 51.0258 -24
      vertex 8.59928 48.1695 -24
      vertex -7.94588 27.1604 -9.51221
    endloop
  endfacet
  facet normal 0.951058 -0.309012 9.94383e-06
    outer loop
      vertex -1.29527 47.6288 -24
      vertex -0.191539 51.0258 -24
      vertex -7.94588 27.1604 -9.51221
    endloop
  endfacet
  facet normal 0.951056 -0.309018 1.31998e-08
    outer loop
      vertex -7.94588 27.1604 -9.51221
      vertex -4.45597 37.9012 -24
      vertex -1.29527 47.6288 -24
    endloop
  endfacet
  facet normal 0.951061 -0.309003 0
    outer loop
      vertex -8.38541 25.8076 -16.6585
      vertex -7.94588 27.1604 -9.51221
      vertex -8.38541 25.8076 -11.9758
    endloop
  endfacet
  facet normal 0.951057 -0.309015 2.43227e-06
    outer loop
      vertex -7.94588 27.1604 -9.51221
      vertex -8.38541 25.8076 -16.6585
      vertex -4.45597 37.9012 -24
    endloop
  endfacet
  facet normal 0.267561 0.823665 -0.499988
    outer loop
      vertex 19.9256 14.4768 -15.4878
      vertex 22.3928 17.3027 -9.51221
      vertex 21.9533 15.95 -11.9758
    endloop
  endfacet
  facet normal 0.267618 0.823639 -0.499999
    outer loop
      vertex 22.3928 17.3027 -9.51221
      vertex 19.9256 14.4768 -15.4878
      vertex -7.94588 27.1604 -9.51221
    endloop
  endfacet
  facet normal 0.267614 0.823634 -0.50001
    outer loop
      vertex -7.66734 23.5976 -15.2319
      vertex -7.94588 27.1604 -9.51221
      vertex 19.9256 14.4768 -15.4878
    endloop
  endfacet
  facet normal 0.267586 0.82364 -0.500015
    outer loop
      vertex -7.94588 27.1604 -9.51221
      vertex -7.66734 23.5976 -15.2319
      vertex -8.38541 25.8076 -11.9758
    endloop
  endfacet
  facet normal 0.267653 0.823748 -0.499801
    outer loop
      vertex -7.66734 23.5976 -15.2319
      vertex 19.9256 14.4768 -15.4878
      vertex -7.61091 23.424 -15.4878
    endloop
  endfacet
  facet normal -0.951055 0.309023 6.87988e-06
    outer loop
      vertex 25.8827 28.0436 -24
      vertex 22.3928 17.3027 -9.51221
      vertex 30.1472 41.1681 -24
    endloop
  endfacet
  facet normal -0.951058 0.309013 -1.60077e-06
    outer loop
      vertex 21.9533 15.95 -16.6585
      vertex 22.3928 17.3027 -9.51221
      vertex 25.8827 28.0436 -24
    endloop
  endfacet
  facet normal -0.95106 0.309005 0
    outer loop
      vertex 22.3928 17.3027 -9.51221
      vertex 21.9533 15.95 -16.6585
      vertex 21.9533 15.95 -11.9758
    endloop
  endfacet
  facet normal 0.5878 0.809006 -2.93502e-05
    outer loop
      vertex -28.2865 0.836032 -9.51221
      vertex -45.698 13.4862 -24
      vertex -48.5876 15.5857 -24
    endloop
  endfacet
  facet normal -0.404503 0.293895 0.866027
    outer loop
      vertex -21.865 28.8883 -24
      vertex -8.38541 25.8076 -16.6585
      vertex -18.6728 33.2819 -24
    endloop
  endfacet
  facet normal -0.40448 0.293966 0.866014
    outer loop
      vertex -8.38541 25.8076 -16.6585
      vertex -21.865 28.8883 -24
      vertex -8.12485 25.0057 -16.2646
    endloop
  endfacet
  facet normal 0.404509 -0.293893 -0.866025
    outer loop
      vertex -28.2865 0.836032 -9.51221
      vertex -29.8372 41.3933 -24
      vertex -9.53611 26.6437 -9.51221
    endloop
  endfacet
  facet normal 0.404508 -0.293894 -0.866025
    outer loop
      vertex -29.8372 41.3933 -24
      vertex -28.2865 0.836032 -9.51221
      vertex -48.5876 15.5857 -24
    endloop
  endfacet
  facet normal -0.700621 0.509041 -0.500008
    outer loop
      vertex -7.66734 23.5976 -15.2319
      vertex -9.53611 26.6437 -9.51221
      vertex -8.38541 25.8076 -11.9758
    endloop
  endfacet
  facet normal -0.700626 0.509035 -0.500006
    outer loop
      vertex -9.53611 26.6437 -9.51221
      vertex -7.66734 23.5976 -15.2319
      vertex -28.2865 0.836032 -9.51221
    endloop
  endfacet
  facet normal -0.404511 0.293884 0.866027
    outer loop
      vertex -21.865 28.8883 -24
      vertex -7.61091 23.424 -15.4878
      vertex -8.12485 25.0057 -16.2646
    endloop
  endfacet
  facet normal -0.404507 0.293891 0.866027
    outer loop
      vertex -21.865 28.8883 -24
      vertex -24.6294 0 -15.4878
      vertex -7.61091 23.424 -15.4878
    endloop
  endfacet
  facet normal -0.404507 0.293891 0.866027
    outer loop
      vertex -37.4232 7.47424 -24
      vertex -24.6294 0 -15.4878
      vertex -21.865 28.8883 -24
    endloop
  endfacet
  facet normal -0.404507 0.29389 0.866027
    outer loop
      vertex -24.6294 0 -15.4878
      vertex -37.4232 7.47424 -24
      vertex -27.1358 0 -16.6585
    endloop
  endfacet
  facet normal -0.587816 -0.808994 0
    outer loop
      vertex -9.53611 26.6437 -9.51221
      vertex -8.38541 25.8076 -16.6585
      vertex -8.38541 25.8076 -11.9758
    endloop
  endfacet
  facet normal -0.587785 -0.809017 -8.64369e-07
    outer loop
      vertex -18.6728 33.2819 -24
      vertex -9.53611 26.6437 -9.51221
      vertex -29.8372 41.3933 -24
    endloop
  endfacet
  facet normal -0.587792 -0.809012 6.01859e-06
    outer loop
      vertex -9.53611 26.6437 -9.51221
      vertex -18.6728 33.2819 -24
      vertex -8.38541 25.8076 -16.6585
    endloop
  endfacet
  facet normal -0.700667 0.509104 -0.499879
    outer loop
      vertex -7.61091 23.424 -15.4878
      vertex -28.2865 0.836032 -9.51221
      vertex -7.66734 23.5976 -15.2319
    endloop
  endfacet
  facet normal -0.700627 0.509034 -0.500006
    outer loop
      vertex -24.6294 0 -15.4878
      vertex -28.2865 0.836032 -9.51221
      vertex -7.61091 23.424 -15.4878
    endloop
  endfacet
  facet normal -0.700602 0.509077 -0.499997
    outer loop
      vertex -28.2865 0.836032 -9.51221
      vertex -24.6294 0 -15.4878
      vertex -27.1358 0 -11.9758
    endloop
  endfacet
  facet normal 0.587785 0.809017 -0
    outer loop
      vertex -27.1358 0 -16.6585
      vertex -28.2865 0.836032 -9.51221
      vertex -27.1358 0 -11.9758
    endloop
  endfacet
  facet normal 0.587786 0.809017 1.22108e-07
    outer loop
      vertex -37.4232 7.47424 -24
      vertex -28.2865 0.836032 -9.51221
      vertex -27.1358 0 -16.6585
    endloop
  endfacet
  facet normal 0.587783 0.809019 2.48763e-06
    outer loop
      vertex -28.2865 0.836032 -9.51221
      vertex -37.4232 7.47424 -24
      vertex -45.698 13.4862 -24
    endloop
  endfacet
  facet normal -0.700602 -0.509077 -0.499997
    outer loop
      vertex -24.6294 0 -15.4878
      vertex -28.2865 -0.836032 -9.51221
      vertex -27.1358 0 -11.9758
    endloop
  endfacet
  facet normal -0.700627 -0.509034 -0.500006
    outer loop
      vertex -7.61091 -23.424 -15.4878
      vertex -28.2865 -0.836032 -9.51221
      vertex -24.6294 0 -15.4878
    endloop
  endfacet
  facet normal -0.700667 -0.509104 -0.499879
    outer loop
      vertex -28.2865 -0.836032 -9.51221
      vertex -7.61091 -23.424 -15.4878
      vertex -7.66734 -23.5976 -15.2319
    endloop
  endfacet
  facet normal 0.404509 0.293893 -0.866025
    outer loop
      vertex -29.8372 -41.3933 -24
      vertex -28.2865 -0.836032 -9.51221
      vertex -9.53611 -26.6437 -9.51221
    endloop
  endfacet
  facet normal 0.404508 0.293894 -0.866025
    outer loop
      vertex -28.2865 -0.836032 -9.51221
      vertex -29.8372 -41.3933 -24
      vertex -48.5876 -15.5857 -24
    endloop
  endfacet
  facet normal 0.5878 -0.809006 -2.93502e-05
    outer loop
      vertex -45.698 -13.4862 -24
      vertex -28.2865 -0.836032 -9.51221
      vertex -48.5876 -15.5857 -24
    endloop
  endfacet
  facet normal -0.40448 -0.293966 0.866014
    outer loop
      vertex -21.865 -28.8883 -24
      vertex -8.38541 -25.8076 -16.6585
      vertex -8.12485 -25.0057 -16.2646
    endloop
  endfacet
  facet normal -0.404503 -0.293895 0.866027
    outer loop
      vertex -8.38541 -25.8076 -16.6585
      vertex -21.865 -28.8883 -24
      vertex -18.6728 -33.2819 -24
    endloop
  endfacet
  facet normal -0.700621 -0.509041 -0.500008
    outer loop
      vertex -9.53611 -26.6437 -9.51221
      vertex -7.66734 -23.5976 -15.2319
      vertex -8.38541 -25.8076 -11.9758
    endloop
  endfacet
  facet normal -0.700626 -0.509035 -0.500006
    outer loop
      vertex -7.66734 -23.5976 -15.2319
      vertex -9.53611 -26.6437 -9.51221
      vertex -28.2865 -0.836032 -9.51221
    endloop
  endfacet
  facet normal -0.404511 -0.293884 0.866027
    outer loop
      vertex -7.61091 -23.424 -15.4878
      vertex -21.865 -28.8883 -24
      vertex -8.12485 -25.0057 -16.2646
    endloop
  endfacet
  facet normal -0.404507 -0.293891 0.866027
    outer loop
      vertex -24.6294 0 -15.4878
      vertex -21.865 -28.8883 -24
      vertex -7.61091 -23.424 -15.4878
    endloop
  endfacet
  facet normal -0.404507 -0.29389 0.866027
    outer loop
      vertex -37.4232 -7.47424 -24
      vertex -24.6294 0 -15.4878
      vertex -27.1358 0 -16.6585
    endloop
  endfacet
  facet normal -0.404507 -0.293891 0.866027
    outer loop
      vertex -24.6294 0 -15.4878
      vertex -37.4232 -7.47424 -24
      vertex -21.865 -28.8883 -24
    endloop
  endfacet
  facet normal 0.587785 -0.809017 0
    outer loop
      vertex -28.2865 -0.836032 -9.51221
      vertex -27.1358 0 -16.6585
      vertex -27.1358 0 -11.9758
    endloop
  endfacet
  facet normal 0.587783 -0.809019 2.48763e-06
    outer loop
      vertex -37.4232 -7.47424 -24
      vertex -28.2865 -0.836032 -9.51221
      vertex -45.698 -13.4862 -24
    endloop
  endfacet
  facet normal 0.587786 -0.809017 1.22108e-07
    outer loop
      vertex -28.2865 -0.836032 -9.51221
      vertex -37.4232 -7.47424 -24
      vertex -27.1358 0 -16.6585
    endloop
  endfacet
  facet normal -0.587816 0.808994 0
    outer loop
      vertex -8.38541 -25.8076 -16.6585
      vertex -9.53611 -26.6437 -9.51221
      vertex -8.38541 -25.8076 -11.9758
    endloop
  endfacet
  facet normal -0.587792 0.809012 6.01859e-06
    outer loop
      vertex -18.6728 -33.2819 -24
      vertex -9.53611 -26.6437 -9.51221
      vertex -8.38541 -25.8076 -16.6585
    endloop
  endfacet
  facet normal -0.587785 0.809017 -8.64369e-07
    outer loop
      vertex -9.53611 -26.6437 -9.51221
      vertex -18.6728 -33.2819 -24
      vertex -29.8372 -41.3933 -24
    endloop
  endfacet
  facet normal -0.154508 0.475529 -0.866025
    outer loop
      vertex 8.59928 -48.1695 -24
      vertex -0.191539 -51.0258 -24
      vertex -7.94588 -27.1604 -9.51221
    endloop
  endfacet
  facet normal -0.95106 -0.309005 0
    outer loop
      vertex 21.9533 -15.95 -16.6585
      vertex 22.3928 -17.3027 -9.51221
      vertex 21.9533 -15.95 -11.9758
    endloop
  endfacet
  facet normal -0.951058 -0.309013 -1.60077e-06
    outer loop
      vertex 25.8827 -28.0436 -24
      vertex 22.3928 -17.3027 -9.51221
      vertex 21.9533 -15.95 -16.6585
    endloop
  endfacet
  facet normal -0.951055 -0.309023 6.87988e-06
    outer loop
      vertex 22.3928 -17.3027 -9.51221
      vertex 25.8827 -28.0436 -24
      vertex 30.1472 -41.1681 -24
    endloop
  endfacet
  facet normal 0.951061 0.309003 0
    outer loop
      vertex -7.94588 -27.1604 -9.51221
      vertex -8.38541 -25.8076 -16.6585
      vertex -8.38541 -25.8076 -11.9758
    endloop
  endfacet
  facet normal 0.951057 0.309015 2.43227e-06
    outer loop
      vertex -7.94588 -27.1604 -9.51221
      vertex -4.45597 -37.9012 -24
      vertex -8.38541 -25.8076 -16.6585
    endloop
  endfacet
  facet normal 0.951056 0.309018 1.31998e-08
    outer loop
      vertex -4.45597 -37.9012 -24
      vertex -7.94588 -27.1604 -9.51221
      vertex -1.29527 -47.6288 -24
    endloop
  endfacet
  facet normal -0.15451 0.475528 -0.866025
    outer loop
      vertex 8.59928 -48.1695 -24
      vertex 22.3928 -17.3027 -9.51221
      vertex 30.1472 -41.1681 -24
    endloop
  endfacet
  facet normal -0.154509 0.475528 -0.866025
    outer loop
      vertex 22.3928 -17.3027 -9.51221
      vertex 8.59928 -48.1695 -24
      vertex -7.94588 -27.1604 -9.51221
    endloop
  endfacet
  facet normal 0.154481 -0.47553 0.86603
    outer loop
      vertex 19.9256 -14.4768 -15.4878
      vertex 20.7177 -29.7218 -24
      vertex 21.2711 -15.4544 -16.2646
    endloop
  endfacet
  facet normal 0.154509 -0.475527 0.866026
    outer loop
      vertex -7.61091 -23.424 -15.4878
      vertex 20.7177 -29.7218 -24
      vertex 19.9256 -14.4768 -15.4878
    endloop
  endfacet
  facet normal 0.154508 -0.475528 0.866025
    outer loop
      vertex 20.7177 -29.7218 -24
      vertex -7.61091 -23.424 -15.4878
      vertex -4.45597 -37.9012 -24
    endloop
  endfacet
  facet normal 0.154516 -0.475526 0.866025
    outer loop
      vertex -8.12485 -25.0057 -16.2646
      vertex -4.45597 -37.9012 -24
      vertex -7.61091 -23.424 -15.4878
    endloop
  endfacet
  facet normal 0.154387 -0.475564 0.866027
    outer loop
      vertex -8.38541 -25.8076 -16.6585
      vertex -4.45597 -37.9012 -24
      vertex -8.12485 -25.0057 -16.2646
    endloop
  endfacet
  facet normal 0.154577 -0.475526 0.866015
    outer loop
      vertex 20.7177 -29.7218 -24
      vertex 21.9533 -15.95 -16.6585
      vertex 21.2711 -15.4544 -16.2646
    endloop
  endfacet
  facet normal 0.154507 -0.475526 0.866027
    outer loop
      vertex 21.9533 -15.95 -16.6585
      vertex 20.7177 -29.7218 -24
      vertex 25.8827 -28.0436 -24
    endloop
  endfacet
  facet normal 0.267586 -0.82364 -0.500015
    outer loop
      vertex -7.66734 -23.5976 -15.2319
      vertex -7.94588 -27.1604 -9.51221
      vertex -8.38541 -25.8076 -11.9758
    endloop
  endfacet
  facet normal 0.267618 -0.823639 -0.499999
    outer loop
      vertex -7.94588 -27.1604 -9.51221
      vertex 19.9256 -14.4768 -15.4878
      vertex 22.3928 -17.3027 -9.51221
    endloop
  endfacet
  facet normal 0.267614 -0.823634 -0.50001
    outer loop
      vertex -7.94588 -27.1604 -9.51221
      vertex -7.66734 -23.5976 -15.2319
      vertex 19.9256 -14.4768 -15.4878
    endloop
  endfacet
  facet normal 0.267653 -0.823748 -0.499801
    outer loop
      vertex 19.9256 -14.4768 -15.4878
      vertex -7.66734 -23.5976 -15.2319
      vertex -7.61091 -23.424 -15.4878
    endloop
  endfacet
  facet normal 0.267561 -0.823665 -0.499988
    outer loop
      vertex 22.3928 -17.3027 -9.51221
      vertex 19.9256 -14.4768 -15.4878
      vertex 21.9533 -15.95 -11.9758
    endloop
  endfacet
  facet normal 0.951058 0.309012 9.94383e-06
    outer loop
      vertex -0.191539 -51.0258 -24
      vertex -1.29527 -47.6288 -24
      vertex -7.94588 -27.1604 -9.51221
    endloop
  endfacet
  facet normal 0.5 -0 0.866025
    outer loop
      vertex 23.8564 -16.7913 -8
      vertex 51.5692 -17.5 -24
      vertex 23.8564 16.7913 -8
    endloop
  endfacet
  facet normal 0.500001 1.70405e-05 0.866025
    outer loop
      vertex 51.5692 -17.5 -24
      vertex 23.8564 -16.7913 -8
      vertex 24.0867 -17.5 -8.13295
    endloop
  endfacet
  facet normal 0.500001 -1.70405e-05 0.866025
    outer loop
      vertex 23.8564 16.7913 -8
      vertex 51.5692 17.5 -24
      vertex 24.0867 17.5 -8.13295
    endloop
  endfacet
  facet normal 0 1 0
    outer loop
      vertex 23.8564 17.5 -8
      vertex 24.0867 17.5 -8.13295
      vertex 51.5692 17.5 -24
    endloop
  endfacet
  facet normal 0.499961 0 0.866048
    outer loop
      vertex 24.0867 17.5 -8.13295
      vertex 23.8564 17.5 -8
      vertex 23.8564 17.3327 -8
    endloop
  endfacet
  facet normal 0.5 0 0.866025
    outer loop
      vertex 51.5692 17.5 -24
      vertex 23.8564 16.7913 -8
      vertex 51.5692 -17.5 -24
    endloop
  endfacet
  facet normal -0 -1 -0
    outer loop
      vertex 24.0867 -17.5 -8.13295
      vertex 23.8564 -17.5 -8
      vertex 51.5692 -17.5 -24
    endloop
  endfacet
  facet normal 0.499961 -0 0.866048
    outer loop
      vertex 23.8564 -17.5 -8
      vertex 24.0867 -17.5 -8.13295
      vertex 23.8564 -17.3327 -8
    endloop
  endfacet
  facet normal -0.500002 -0 -0.866024
    outer loop
      vertex 18.6965 13.5838 -16.5679
      vertex 31.5692 17.5 -24
      vertex 18.6965 -13.5838 -16.5679
    endloop
  endfacet
  facet normal -0.499998 -1.84492e-05 -0.866027
    outer loop
      vertex 31.5692 17.5 -24
      vertex 18.6965 13.5838 -16.5679
      vertex 24.0867 17.5 -19.68
    endloop
  endfacet
  facet normal -0.499998 0 -0.866026
    outer loop
      vertex 14.8205 -10.7677 -14.3301
      vertex 18.6965 13.5838 -16.5679
      vertex 18.6965 -13.5838 -16.5679
    endloop
  endfacet
  facet normal -0.499998 0 -0.866026
    outer loop
      vertex 18.6965 13.5838 -16.5679
      vertex 14.8205 -10.7677 -14.3301
      vertex 14.8205 10.7677 -14.3301
    endloop
  endfacet
  facet normal -0.499998 1.84492e-05 -0.866027
    outer loop
      vertex 18.6965 -13.5838 -16.5679
      vertex 31.5692 -17.5 -24
      vertex 24.0867 -17.5 -19.68
    endloop
  endfacet
  facet normal -0.500002 0 -0.866024
    outer loop
      vertex 31.5692 -17.5 -24
      vertex 18.6965 -13.5838 -16.5679
      vertex 31.5692 17.5 -24
    endloop
  endfacet
  facet normal -0.866025 0 0.500002
    outer loop
      vertex 14.8205 -10.7677 -14.3301
      vertex 18.4752 13.423 -8
      vertex 14.8205 10.7677 -14.3301
    endloop
  endfacet
  facet normal -0.866025 0 0.500002
    outer loop
      vertex 18.4752 13.423 -8
      vertex 14.8205 -10.7677 -14.3301
      vertex 18.4752 -13.423 -8
    endloop
  endfacet
  facet normal 0 1 0
    outer loop
      vertex 23.8564 17.5 -8
      vertex 24.0867 17.5 -8.13295
      vertex 23.3415 17.5 -8
    endloop
  endfacet
  facet normal 0 -1 0
    outer loop
      vertex 51.5692 17.5 -24
      vertex 24.0867 17.5 -8.13295
      vertex 23.8564 17.5 -8
    endloop
  endfacet
  facet normal 0 1 -0
    outer loop
      vertex 31.5692 17.5 -24
      vertex 24.0867 17.5 -8.13295
      vertex 51.5692 17.5 -24
    endloop
  endfacet
  facet normal 0 1 0
    outer loop
      vertex 24.0867 17.5 -8.13295
      vertex 31.5692 17.5 -24
      vertex 24.0867 17.5 -19.68
    endloop
  endfacet
  facet normal 0 -1 0
    outer loop
      vertex 24.0867 -17.5 -8.13295
      vertex 23.8564 -17.5 -8
      vertex 23.3415 -17.5 -8
    endloop
  endfacet
  facet normal 0 -1 0
    outer loop
      vertex 31.5692 -17.5 -24
      vertex 24.0867 -17.5 -8.13295
      vertex 24.0867 -17.5 -19.68
    endloop
  endfacet
  facet normal 0 1 0
    outer loop
      vertex 24.0867 -17.5 -8.13295
      vertex 51.5692 -17.5 -24
      vertex 23.8564 -17.5 -8
    endloop
  endfacet
  facet normal 0 -1 0
    outer loop
      vertex 51.5692 -17.5 -24
      vertex 24.0867 -17.5 -8.13295
      vertex 31.5692 -17.5 -24
    endloop
  endfacet
  facet normal 0.154516 0.475526 0.866025
    outer loop
      vertex 29.8 44.5405 -24
      vertex 24.0867 17.5 -8.13295
      vertex 32.5793 43.6374 -24
    endloop
  endfacet
  facet normal 0.154506 0.475529 0.866026
    outer loop
      vertex 29.8 44.5405 -24
      vertex 23.3415 17.5 -8
      vertex 24.0867 17.5 -8.13295
    endloop
  endfacet
  facet normal 0.154508 0.475528 0.866026
    outer loop
      vertex 23.3415 17.5 -8
      vertex 29.8 44.5405 -24
      vertex -5.39331 26.8365 -8
    endloop
  endfacet
  facet normal 0.154519 0.475512 0.866032
    outer loop
      vertex 24.0867 17.5 -8.13295
      vertex 23.8564 17.3327 -8
      vertex 24.0155 17.281 -8
    endloop
  endfacet
  facet normal -0.154516 -0.475532 -0.866022
    outer loop
      vertex 10.3049 29.8456 -24
      vertex 24.0867 17.5 -19.68
      vertex 18.6965 13.5838 -16.5679
    endloop
  endfacet
  facet normal -0.154509 -0.475525 -0.866027
    outer loop
      vertex 24.0867 17.5 -19.68
      vertex 10.3049 29.8456 -24
      vertex 26.3989 24.6163 -24
    endloop
  endfacet
  facet normal -0.267617 -0.823638 0.500001
    outer loop
      vertex 13.3964 15.0732 -8
      vertex -7.0569 21.7189 -8
      vertex -5.99374 18.4468 -12.821
    endloop
  endfacet
  facet normal 0.154508 0.475529 0.866025
    outer loop
      vertex -0.707724 54.453 -24
      vertex -5.39331 26.8365 -8
      vertex 29.8 44.5405 -24
    endloop
  endfacet
  facet normal 0.15451 0.475528 0.866025
    outer loop
      vertex -9.20029 28.3156 -8.13295
      vertex -5.39331 26.8365 -8
      vertex -0.707724 54.453 -24
    endloop
  endfacet
  facet normal 0.154519 0.47555 0.866011
    outer loop
      vertex -5.39331 26.8365 -8
      vertex -9.20029 28.3156 -8.13295
      vertex -8.59742 27.8776 -8
    endloop
  endfacet
  facet normal 0.781173 0.118312 0.613002
    outer loop
      vertex -9.20029 28.3156 -8.13295
      vertex -0.707724 54.453 -24
      vertex -9.27145 28.0966 -8
    endloop
  endfacet
  facet normal 0.154517 0.475534 0.866021
    outer loop
      vertex -9.11234 28.0449 -8
      vertex -9.20029 28.3156 -8.13295
      vertex -9.27145 28.0966 -8
    endloop
  endfacet
  facet normal -0.951056 0.309017 0
    outer loop
      vertex -1.61783 51.652 -24
      vertex -9.20029 28.3156 -16.9808
      vertex -9.20029 28.3156 -9.79489
    endloop
  endfacet
  facet normal -0.951056 0.309017 0
    outer loop
      vertex -9.20029 28.3156 -8.13295
      vertex -1.61783 51.652 -24
      vertex -9.20029 28.3156 -9.79489
    endloop
  endfacet
  facet normal -0.951056 0.309019 2.72194e-06
    outer loop
      vertex -1.61783 51.652 -24
      vertex -9.20029 28.3156 -8.13295
      vertex -0.707724 54.453 -24
    endloop
  endfacet
  facet normal -0.951053 0.309029 3.33059e-06
    outer loop
      vertex -9.20029 28.3156 -8.13295
      vertex -9.43057 27.6069 -8
      vertex -9.27145 28.0966 -8
    endloop
  endfacet
  facet normal -0.781173 -0.118312 -0.613002
    outer loop
      vertex -9.20029 28.3156 -8.13295
      vertex -9.27145 28.0966 -8
      vertex -0.707724 54.453 -24
    endloop
  endfacet
  facet normal -0.951056 0.309017 0
    outer loop
      vertex -9.20029 28.3156 -16.9808
      vertex -6.88806 35.4319 -24
      vertex -9.20029 28.3156 -19.68
    endloop
  endfacet
  facet normal -0.951057 0.309017 -5.35238e-07
    outer loop
      vertex -6.88806 35.4319 -24
      vertex -9.20029 28.3156 -16.9808
      vertex -1.61783 51.652 -24
    endloop
  endfacet
  facet normal -0.267614 -0.823652 0.49998
    outer loop
      vertex -5.66093 17.4226 -14.3301
      vertex 13.3964 15.0732 -8
      vertex -5.99374 18.4468 -12.821
    endloop
  endfacet
  facet normal -0.267619 -0.823638 0.500001
    outer loop
      vertex 13.3964 15.0732 -8
      vertex -5.66093 17.4226 -14.3301
      vertex 14.8205 10.7677 -14.3301
    endloop
  endfacet
  facet normal -0.267616 -0.823638 0.500002
    outer loop
      vertex 13.3964 15.0732 -8
      vertex 14.8205 10.7677 -14.3301
      vertex 18.4752 13.423 -8
    endloop
  endfacet
  facet normal -0.154505 -0.475528 -0.866026
    outer loop
      vertex 14.8205 10.7677 -14.3301
      vertex 10.3049 29.8456 -24
      vertex 18.6965 13.5838 -16.5679
    endloop
  endfacet
  facet normal -0.15451 -0.475528 -0.866025
    outer loop
      vertex -5.66093 17.4226 -14.3301
      vertex 10.3049 29.8456 -24
      vertex 14.8205 10.7677 -14.3301
    endloop
  endfacet
  facet normal -0.15451 -0.475528 -0.866025
    outer loop
      vertex -7.14144 21.9791 -16.5679
      vertex 10.3049 29.8456 -24
      vertex -5.66093 17.4226 -14.3301
    endloop
  endfacet
  facet normal -0.154504 -0.475538 -0.866021
    outer loop
      vertex -9.20029 28.3156 -19.68
      vertex 10.3049 29.8456 -24
      vertex -7.14144 21.9791 -16.5679
    endloop
  endfacet
  facet normal -0.154507 -0.475526 -0.866027
    outer loop
      vertex 10.3049 29.8456 -24
      vertex -9.20029 28.3156 -19.68
      vertex -6.88806 35.4319 -24
    endloop
  endfacet
  facet normal 0.951055 -0.30902 -3.12944e-06
    outer loop
      vertex 24.0867 17.5 -8.13295
      vertex 26.3989 24.6163 -24
      vertex 32.5793 43.6374 -24
    endloop
  endfacet
  facet normal 0.951058 -0.309014 0
    outer loop
      vertex 26.3989 24.6163 -24
      vertex 24.0867 17.5 -8.13295
      vertex 24.0867 17.5 -19.68
    endloop
  endfacet
  facet normal 0.951064 -0.308994 0.000346794
    outer loop
      vertex 24.0155 17.281 -8
      vertex 23.8564 16.7913 -8
      vertex 24.0867 17.5 -8.13295
    endloop
  endfacet
  facet normal -0.404503 0.2939 0.866025
    outer loop
      vertex -33.1518 42.1053 -24
      vertex -9.43057 27.6069 -8
      vertex -9.20029 28.3156 -8.13295
    endloop
  endfacet
  facet normal -0.404502 0.293902 0.866025
    outer loop
      vertex -33.1518 42.1053 -24
      vertex -9.20029 28.3156 -8.13295
      vertex -31.4341 44.4694 -24
    endloop
  endfacet
  facet normal -0.404508 0.293893 0.866025
    outer loop
      vertex -9.43057 27.6069 -8
      vertex -33.1518 42.1053 -24
      vertex -27.1897 3.1636 -8
    endloop
  endfacet
  facet normal -0.404425 0.293948 0.866046
    outer loop
      vertex -9.014 28.1802 -8
      vertex -9.20029 28.3156 -8.13295
      vertex -9.11234 28.0449 -8
    endloop
  endfacet
  facet normal 0.587782 0.809019 0
    outer loop
      vertex -15.2538 32.7137 -24
      vertex -9.20029 28.3156 -16.9808
      vertex -9.20029 28.3156 -19.68
    endloop
  endfacet
  facet normal 0.587792 0.809012 -1.2909e-05
    outer loop
      vertex -21.0857 36.9509 -24
      vertex -9.20029 28.3156 -16.9808
      vertex -15.2538 32.7137 -24
    endloop
  endfacet
  facet normal 0.587787 0.809016 -0
    outer loop
      vertex -9.20029 28.3156 -16.9808
      vertex -21.0857 36.9509 -24
      vertex -9.20029 28.3156 -9.79489
    endloop
  endfacet
  facet normal -0.40442 0.29401 0.866027
    outer loop
      vertex -29.4881 0 -8
      vertex -29.7728 0 -8.13295
      vertex -29.5865 -0.135352 -8
    endloop
  endfacet
  facet normal -0.404466 0.293853 0.866059
    outer loop
      vertex -27.1897 3.1636 -8
      vertex -29.7728 0 -8.13295
      vertex -29.1699 0.438008 -8
    endloop
  endfacet
  facet normal -0.40451 0.293892 0.866025
    outer loop
      vertex -52.0066 16.1538 -24
      vertex -27.1897 3.1636 -8
      vertex -33.1518 42.1053 -24
    endloop
  endfacet
  facet normal -0.404511 0.293891 0.866025
    outer loop
      vertex -27.1897 3.1636 -8
      vertex -52.0066 16.1538 -24
      vertex -29.7728 0 -8.13295
    endloop
  endfacet
  facet normal 0.700629 -0.509037 0.5
    outer loop
      vertex -22.8366 0 -8
      vertex -5.99374 18.4468 -12.821
      vertex -7.0569 21.7189 -8
    endloop
  endfacet
  facet normal 0.700632 -0.509041 0.499992
    outer loop
      vertex -22.8366 0 -8
      vertex -5.66093 17.4226 -14.3301
      vertex -5.99374 18.4468 -12.821
    endloop
  endfacet
  facet normal 0.700631 -0.509038 0.499997
    outer loop
      vertex -5.66093 17.4226 -14.3301
      vertex -22.8366 0 -8
      vertex -18.3192 0 -14.3301
    endloop
  endfacet
  facet normal -0.587758 -0.809037 -4.13436e-05
    outer loop
      vertex -29.5865 -0.135352 -8
      vertex -29.7728 0 -8.13295
      vertex -29.1699 -0.438008 -8
    endloop
  endfacet
  facet normal -0.587778 -0.809022 -1.55802e-05
    outer loop
      vertex -49.6239 14.4227 -24
      vertex -29.7728 0 -8.13295
      vertex -52.0066 16.1538 -24
    endloop
  endfacet
  facet normal -0.587786 -0.809016 -0
    outer loop
      vertex -29.7728 0 -8.13295
      vertex -49.6239 14.4227 -24
      vertex -29.7728 0 -16.9808
    endloop
  endfacet
  facet normal 0.404509 -0.293893 -0.866025
    outer loop
      vertex -25.2005 19.0233 -24
      vertex -5.66093 17.4226 -14.3301
      vertex -18.3192 0 -14.3301
    endloop
  endfacet
  facet normal 0.40451 -0.29389 -0.866026
    outer loop
      vertex -5.66093 17.4226 -14.3301
      vertex -25.2005 19.0233 -24
      vertex -7.14144 21.9791 -16.5679
    endloop
  endfacet
  facet normal 0.404514 -0.293891 -0.866023
    outer loop
      vertex -29.7728 0 -19.68
      vertex -25.2005 19.0233 -24
      vertex -18.3192 0 -14.3301
    endloop
  endfacet
  facet normal 0.404506 -0.29389 -0.866028
    outer loop
      vertex -25.2005 19.0233 -24
      vertex -29.7728 0 -19.68
      vertex -35.8263 4.39812 -24
    endloop
  endfacet
  facet normal 0.587787 0.809016 0
    outer loop
      vertex -21.0857 36.9509 -24
      vertex -9.20029 28.3156 -8.13295
      vertex -9.20029 28.3156 -9.79489
    endloop
  endfacet
  facet normal 0.587783 0.809019 5.33817e-06
    outer loop
      vertex -9.20029 28.3156 -8.13295
      vertex -21.0857 36.9509 -24
      vertex -31.4341 44.4694 -24
    endloop
  endfacet
  facet normal 0.587705 0.809075 0.00049052
    outer loop
      vertex -8.59742 27.8776 -8
      vertex -9.20029 28.3156 -8.13295
      vertex -9.014 28.1802 -8
    endloop
  endfacet
  facet normal 0.40451 -0.293903 -0.866021
    outer loop
      vertex -25.2005 19.0233 -24
      vertex -9.20029 28.3156 -19.68
      vertex -7.14144 21.9791 -16.5679
    endloop
  endfacet
  facet normal 0.404505 -0.293891 -0.866027
    outer loop
      vertex -9.20029 28.3156 -19.68
      vertex -25.2005 19.0233 -24
      vertex -15.2538 32.7137 -24
    endloop
  endfacet
  facet normal -0.587787 -0.809016 2.46024e-06
    outer loop
      vertex -35.8263 4.39812 -24
      vertex -29.7728 0 -16.9808
      vertex -49.6239 14.4227 -24
    endloop
  endfacet
  facet normal -0.587785 -0.809017 -0
    outer loop
      vertex -29.7728 0 -16.9808
      vertex -35.8263 4.39812 -24
      vertex -29.7728 0 -19.68
    endloop
  endfacet
  facet normal -0.40442 -0.29401 0.866027
    outer loop
      vertex -29.5865 0.135352 -8
      vertex -29.7728 0 -8.13295
      vertex -29.4881 0 -8
    endloop
  endfacet
  facet normal -0.404466 -0.293853 0.866059
    outer loop
      vertex -29.7728 0 -8.13295
      vertex -27.1897 -3.1636 -8
      vertex -29.1699 -0.438008 -8
    endloop
  endfacet
  facet normal -0.404511 -0.293891 0.866025
    outer loop
      vertex -52.0066 -16.1538 -24
      vertex -27.1897 -3.1636 -8
      vertex -29.7728 0 -8.13295
    endloop
  endfacet
  facet normal -0.40451 -0.293892 0.866025
    outer loop
      vertex -27.1897 -3.1636 -8
      vertex -52.0066 -16.1538 -24
      vertex -33.1518 -42.1053 -24
    endloop
  endfacet
  facet normal 0.587787 -0.809016 0
    outer loop
      vertex -21.0857 -36.9509 -24
      vertex -9.20029 -28.3156 -16.9808
      vertex -9.20029 -28.3156 -9.79489
    endloop
  endfacet
  facet normal 0.587792 -0.809012 -1.2909e-05
    outer loop
      vertex -15.2538 -32.7137 -24
      vertex -9.20029 -28.3156 -16.9808
      vertex -21.0857 -36.9509 -24
    endloop
  endfacet
  facet normal 0.587782 -0.809019 0
    outer loop
      vertex -9.20029 -28.3156 -16.9808
      vertex -15.2538 -32.7137 -24
      vertex -9.20029 -28.3156 -19.68
    endloop
  endfacet
  facet normal -0.587785 0.809017 0
    outer loop
      vertex -35.8263 -4.39812 -24
      vertex -29.7728 0 -16.9808
      vertex -29.7728 0 -19.68
    endloop
  endfacet
  facet normal -0.587787 0.809016 2.46024e-06
    outer loop
      vertex -29.7728 0 -16.9808
      vertex -35.8263 -4.39812 -24
      vertex -49.6239 -14.4227 -24
    endloop
  endfacet
  facet normal -0.404508 -0.293893 0.866025
    outer loop
      vertex -33.1518 -42.1053 -24
      vertex -9.43057 -27.6069 -8
      vertex -27.1897 -3.1636 -8
    endloop
  endfacet
  facet normal -0.404503 -0.2939 0.866025
    outer loop
      vertex -9.43057 -27.6069 -8
      vertex -33.1518 -42.1053 -24
      vertex -9.20029 -28.3156 -8.13295
    endloop
  endfacet
  facet normal -0.404502 -0.293902 0.866025
    outer loop
      vertex -9.20029 -28.3156 -8.13295
      vertex -33.1518 -42.1053 -24
      vertex -31.4341 -44.4694 -24
    endloop
  endfacet
  facet normal -0.404425 -0.293948 0.866046
    outer loop
      vertex -9.11234 -28.0449 -8
      vertex -9.20029 -28.3156 -8.13295
      vertex -9.014 -28.1802 -8
    endloop
  endfacet
  facet normal 0.40451 0.29389 -0.866026
    outer loop
      vertex -25.2005 -19.0233 -24
      vertex -5.66093 -17.4226 -14.3301
      vertex -7.14144 -21.9791 -16.5679
    endloop
  endfacet
  facet normal 0.404509 0.293893 -0.866025
    outer loop
      vertex -5.66093 -17.4226 -14.3301
      vertex -25.2005 -19.0233 -24
      vertex -18.3192 0 -14.3301
    endloop
  endfacet
  facet normal 0.404514 0.293891 -0.866023
    outer loop
      vertex -25.2005 -19.0233 -24
      vertex -29.7728 0 -19.68
      vertex -18.3192 0 -14.3301
    endloop
  endfacet
  facet normal 0.404506 0.29389 -0.866028
    outer loop
      vertex -29.7728 0 -19.68
      vertex -25.2005 -19.0233 -24
      vertex -35.8263 -4.39812 -24
    endloop
  endfacet
  facet normal -0.587758 0.809037 -4.13436e-05
    outer loop
      vertex -29.1699 0.438008 -8
      vertex -29.7728 0 -8.13295
      vertex -29.5865 0.135352 -8
    endloop
  endfacet
  facet normal -0.587786 0.809016 0
    outer loop
      vertex -49.6239 -14.4227 -24
      vertex -29.7728 0 -8.13295
      vertex -29.7728 0 -16.9808
    endloop
  endfacet
  facet normal -0.587778 0.809022 -1.55802e-05
    outer loop
      vertex -29.7728 0 -8.13295
      vertex -49.6239 -14.4227 -24
      vertex -52.0066 -16.1538 -24
    endloop
  endfacet
  facet normal 0.587783 -0.809019 5.33817e-06
    outer loop
      vertex -21.0857 -36.9509 -24
      vertex -9.20029 -28.3156 -8.13295
      vertex -31.4341 -44.4694 -24
    endloop
  endfacet
  facet normal 0.587787 -0.809016 0
    outer loop
      vertex -9.20029 -28.3156 -8.13295
      vertex -21.0857 -36.9509 -24
      vertex -9.20029 -28.3156 -9.79489
    endloop
  endfacet
  facet normal 0.587705 -0.809075 0.00049052
    outer loop
      vertex -9.014 -28.1802 -8
      vertex -9.20029 -28.3156 -8.13295
      vertex -8.59742 -27.8776 -8
    endloop
  endfacet
  facet normal 0.404505 0.293891 -0.866027
    outer loop
      vertex -25.2005 -19.0233 -24
      vertex -9.20029 -28.3156 -19.68
      vertex -15.2538 -32.7137 -24
    endloop
  endfacet
  facet normal 0.40451 0.293903 -0.866021
    outer loop
      vertex -9.20029 -28.3156 -19.68
      vertex -25.2005 -19.0233 -24
      vertex -7.14144 -21.9791 -16.5679
    endloop
  endfacet
  facet normal 0.700631 0.509038 0.499997
    outer loop
      vertex -22.8366 0 -8
      vertex -5.66093 -17.4226 -14.3301
      vertex -18.3192 0 -14.3301
    endloop
  endfacet
  facet normal 0.700632 0.509041 0.499992
    outer loop
      vertex -22.8366 0 -8
      vertex -5.99374 -18.4468 -12.821
      vertex -5.66093 -17.4226 -14.3301
    endloop
  endfacet
  facet normal 0.700629 0.509037 0.5
    outer loop
      vertex -5.99374 -18.4468 -12.821
      vertex -22.8366 0 -8
      vertex -7.0569 -21.7189 -8
    endloop
  endfacet
  facet normal 0.154517 -0.475534 0.866021
    outer loop
      vertex -9.11234 -28.0449 -8
      vertex -9.27145 -28.0966 -8
      vertex -9.20029 -28.3156 -8.13295
    endloop
  endfacet
  facet normal 0.154508 -0.475529 0.866025
    outer loop
      vertex -5.39331 -26.8365 -8
      vertex -0.707724 -54.453 -24
      vertex 29.8 -44.5405 -24
    endloop
  endfacet
  facet normal 0.154519 -0.47555 0.866011
    outer loop
      vertex -9.20029 -28.3156 -8.13295
      vertex -5.39331 -26.8365 -8
      vertex -8.59742 -27.8776 -8
    endloop
  endfacet
  facet normal 0.15451 -0.475528 0.866025
    outer loop
      vertex -5.39331 -26.8365 -8
      vertex -9.20029 -28.3156 -8.13295
      vertex -0.707724 -54.453 -24
    endloop
  endfacet
  facet normal 0.781173 -0.118312 0.613002
    outer loop
      vertex -0.707724 -54.453 -24
      vertex -9.20029 -28.3156 -8.13295
      vertex -9.27145 -28.0966 -8
    endloop
  endfacet
  facet normal 0.951058 0.309014 0
    outer loop
      vertex 24.0867 -17.5 -8.13295
      vertex 26.3989 -24.6163 -24
      vertex 24.0867 -17.5 -19.68
    endloop
  endfacet
  facet normal 0.951055 0.30902 -3.12944e-06
    outer loop
      vertex 26.3989 -24.6163 -24
      vertex 24.0867 -17.5 -8.13295
      vertex 32.5793 -43.6374 -24
    endloop
  endfacet
  facet normal 0.951064 0.308994 0.000346794
    outer loop
      vertex 24.0867 -17.5 -8.13295
      vertex 23.8564 -16.7913 -8
      vertex 24.0155 -17.281 -8
    endloop
  endfacet
  facet normal -0.951056 -0.309017 0
    outer loop
      vertex -6.88806 -35.4319 -24
      vertex -9.20029 -28.3156 -16.9808
      vertex -9.20029 -28.3156 -19.68
    endloop
  endfacet
  facet normal -0.951057 -0.309017 -5.35238e-07
    outer loop
      vertex -9.20029 -28.3156 -16.9808
      vertex -6.88806 -35.4319 -24
      vertex -1.61783 -51.652 -24
    endloop
  endfacet
  facet normal 0.154516 -0.475526 0.866025
    outer loop
      vertex 24.0867 -17.5 -8.13295
      vertex 29.8 -44.5405 -24
      vertex 32.5793 -43.6374 -24
    endloop
  endfacet
  facet normal 0.154506 -0.475529 0.866026
    outer loop
      vertex 23.3415 -17.5 -8
      vertex 29.8 -44.5405 -24
      vertex 24.0867 -17.5 -8.13295
    endloop
  endfacet
  facet normal 0.154508 -0.475528 0.866026
    outer loop
      vertex 29.8 -44.5405 -24
      vertex 23.3415 -17.5 -8
      vertex -5.39331 -26.8365 -8
    endloop
  endfacet
  facet normal 0.154519 -0.475512 0.866032
    outer loop
      vertex 24.0155 -17.281 -8
      vertex 23.8564 -17.3327 -8
      vertex 24.0867 -17.5 -8.13295
    endloop
  endfacet
  facet normal -0.154505 0.475528 -0.866026
    outer loop
      vertex 10.3049 -29.8456 -24
      vertex 14.8205 -10.7677 -14.3301
      vertex 18.6965 -13.5838 -16.5679
    endloop
  endfacet
  facet normal -0.15451 0.475528 -0.866025
    outer loop
      vertex 10.3049 -29.8456 -24
      vertex -5.66093 -17.4226 -14.3301
      vertex 14.8205 -10.7677 -14.3301
    endloop
  endfacet
  facet normal -0.154507 0.475526 -0.866027
    outer loop
      vertex -9.20029 -28.3156 -19.68
      vertex 10.3049 -29.8456 -24
      vertex -6.88806 -35.4319 -24
    endloop
  endfacet
  facet normal -0.15451 0.475528 -0.866025
    outer loop
      vertex 10.3049 -29.8456 -24
      vertex -7.14144 -21.9791 -16.5679
      vertex -5.66093 -17.4226 -14.3301
    endloop
  endfacet
  facet normal -0.154504 0.475538 -0.866021
    outer loop
      vertex 10.3049 -29.8456 -24
      vertex -9.20029 -28.3156 -19.68
      vertex -7.14144 -21.9791 -16.5679
    endloop
  endfacet
  facet normal -0.951056 -0.309017 0
    outer loop
      vertex -1.61783 -51.652 -24
      vertex -9.20029 -28.3156 -9.79489
      vertex -9.20029 -28.3156 -16.9808
    endloop
  endfacet
  facet normal -0.951056 -0.309017 0
    outer loop
      vertex -1.61783 -51.652 -24
      vertex -9.20029 -28.3156 -8.13295
      vertex -9.20029 -28.3156 -9.79489
    endloop
  endfacet
  facet normal -0.951056 -0.309019 2.72194e-06
    outer loop
      vertex -9.20029 -28.3156 -8.13295
      vertex -1.61783 -51.652 -24
      vertex -0.707724 -54.453 -24
    endloop
  endfacet
  facet normal -0.951053 -0.309029 3.33059e-06
    outer loop
      vertex -9.43057 -27.6069 -8
      vertex -9.20029 -28.3156 -8.13295
      vertex -9.27145 -28.0966 -8
    endloop
  endfacet
  facet normal -0.781173 0.118312 -0.613002
    outer loop
      vertex -9.20029 -28.3156 -8.13295
      vertex -0.707724 -54.453 -24
      vertex -9.27145 -28.0966 -8
    endloop
  endfacet
  facet normal -0.154509 0.475525 -0.866027
    outer loop
      vertex 10.3049 -29.8456 -24
      vertex 24.0867 -17.5 -19.68
      vertex 26.3989 -24.6163 -24
    endloop
  endfacet
  facet normal -0.154516 0.475532 -0.866022
    outer loop
      vertex 24.0867 -17.5 -19.68
      vertex 10.3049 -29.8456 -24
      vertex 18.6965 -13.5838 -16.5679
    endloop
  endfacet
  facet normal -0.267616 0.823638 0.500002
    outer loop
      vertex 14.8205 -10.7677 -14.3301
      vertex 13.3964 -15.0732 -8
      vertex 18.4752 -13.423 -8
    endloop
  endfacet
  facet normal -0.267619 0.823638 0.500001
    outer loop
      vertex -5.66093 -17.4226 -14.3301
      vertex 13.3964 -15.0732 -8
      vertex 14.8205 -10.7677 -14.3301
    endloop
  endfacet
  facet normal -0.267614 0.823652 0.49998
    outer loop
      vertex 13.3964 -15.0732 -8
      vertex -5.66093 -17.4226 -14.3301
      vertex -5.99374 -18.4468 -12.821
    endloop
  endfacet
  facet normal -0.267617 0.823638 0.500001
    outer loop
      vertex -5.99374 -18.4468 -12.821
      vertex -7.0569 -21.7189 -8
      vertex 13.3964 -15.0732 -8
    endloop
  endfacet
  facet normal 0 0 1
    outer loop
      vertex -29.1699 -0.438008 -8
      vertex -29.4881 0 -8
      vertex -29.5865 -0.135352 -8
    endloop
  endfacet
  facet normal -0 0 1
    outer loop
      vertex 23.3415 17.5 -8
      vertex 23.8564 17.3327 -8
      vertex 23.8564 17.5 -8
    endloop
  endfacet
  facet normal 0 0 1
    outer loop
      vertex 23.8564 17.3327 -8
      vertex 23.3415 17.5 -8
      vertex 23.8564 16.7913 -8
    endloop
  endfacet
  facet normal 0 0 1
    outer loop
      vertex 23.8564 16.7913 -8
      vertex 18.4752 13.423 -8
      vertex 23.8564 -16.7913 -8
    endloop
  endfacet
  facet normal -0 0 1
    outer loop
      vertex 18.4752 -13.423 -8
      vertex 23.8564 -16.7913 -8
      vertex 18.4752 13.423 -8
    endloop
  endfacet
  facet normal 0 0 1
    outer loop
      vertex 23.8564 16.7913 -8
      vertex 23.3415 17.5 -8
      vertex 18.4752 13.423 -8
    endloop
  endfacet
  facet normal 0 -0 1
    outer loop
      vertex 23.3415 -17.5 -8
      vertex 23.8564 -16.7913 -8
      vertex 18.4752 -13.423 -8
    endloop
  endfacet
  facet normal 0 0 1
    outer loop
      vertex 23.8564 -16.7913 -8
      vertex 23.3415 -17.5 -8
      vertex 23.8564 -17.3327 -8
    endloop
  endfacet
  facet normal 0 0 1
    outer loop
      vertex 23.3415 17.5 -8
      vertex 13.3964 15.0732 -8
      vertex 18.4752 13.423 -8
    endloop
  endfacet
  facet normal 0 0 1
    outer loop
      vertex -5.39331 26.8365 -8
      vertex 13.3964 15.0732 -8
      vertex 23.3415 17.5 -8
    endloop
  endfacet
  facet normal 0 0 1
    outer loop
      vertex -5.39331 26.8365 -8
      vertex -7.0569 21.7189 -8
      vertex 13.3964 15.0732 -8
    endloop
  endfacet
  facet normal 0 0 1
    outer loop
      vertex -8.59742 27.8776 -8
      vertex -7.0569 21.7189 -8
      vertex -5.39331 26.8365 -8
    endloop
  endfacet
  facet normal -0 0 1
    outer loop
      vertex -9.11234 28.0449 -8
      vertex -8.59742 27.8776 -8
      vertex -9.014 28.1802 -8
    endloop
  endfacet
  facet normal 0 0 1
    outer loop
      vertex -9.43057 27.6069 -8
      vertex -8.59742 27.8776 -8
      vertex -9.11234 28.0449 -8
    endloop
  endfacet
  facet normal 0 0 1
    outer loop
      vertex -9.43057 27.6069 -8
      vertex -9.11234 28.0449 -8
      vertex -9.27145 28.0966 -8
    endloop
  endfacet
  facet normal 0 0 1
    outer loop
      vertex -8.59742 27.8776 -8
      vertex -9.43057 27.6069 -8
      vertex -7.0569 21.7189 -8
    endloop
  endfacet
  facet normal 0 0 1
    outer loop
      vertex -27.1897 3.1636 -8
      vertex -7.0569 21.7189 -8
      vertex -9.43057 27.6069 -8
    endloop
  endfacet
  facet normal 0 0 1
    outer loop
      vertex -7.0569 21.7189 -8
      vertex -27.1897 3.1636 -8
      vertex -22.8366 0 -8
    endloop
  endfacet
  facet normal 0 0 1
    outer loop
      vertex 24.0155 17.281 -8
      vertex 23.8564 17.3327 -8
      vertex 23.8564 16.7913 -8
    endloop
  endfacet
  facet normal 0 0 1
    outer loop
      vertex 24.0155 -17.281 -8
      vertex 23.8564 -16.7913 -8
      vertex 23.8564 -17.3327 -8
    endloop
  endfacet
  facet normal 0 0 1
    outer loop
      vertex 23.8564 -17.3327 -8
      vertex 23.3415 -17.5 -8
      vertex 23.8564 -17.5 -8
    endloop
  endfacet
  facet normal -0 0 1
    outer loop
      vertex 13.3964 -15.0732 -8
      vertex 23.3415 -17.5 -8
      vertex 18.4752 -13.423 -8
    endloop
  endfacet
  facet normal 0 0 1
    outer loop
      vertex 13.3964 -15.0732 -8
      vertex -5.39331 -26.8365 -8
      vertex 23.3415 -17.5 -8
    endloop
  endfacet
  facet normal -0 0 1
    outer loop
      vertex -7.0569 -21.7189 -8
      vertex -5.39331 -26.8365 -8
      vertex 13.3964 -15.0732 -8
    endloop
  endfacet
  facet normal 0 0 1
    outer loop
      vertex -7.0569 -21.7189 -8
      vertex -8.59742 -27.8776 -8
      vertex -5.39331 -26.8365 -8
    endloop
  endfacet
  facet normal -0 0 1
    outer loop
      vertex -9.43057 -27.6069 -8
      vertex -8.59742 -27.8776 -8
      vertex -7.0569 -21.7189 -8
    endloop
  endfacet
  facet normal 0 0 1
    outer loop
      vertex -8.59742 -27.8776 -8
      vertex -9.11234 -28.0449 -8
      vertex -9.014 -28.1802 -8
    endloop
  endfacet
  facet normal 0 0 1
    outer loop
      vertex -8.59742 -27.8776 -8
      vertex -9.43057 -27.6069 -8
      vertex -9.11234 -28.0449 -8
    endloop
  endfacet
  facet normal 0 0 1
    outer loop
      vertex -9.11234 -28.0449 -8
      vertex -9.43057 -27.6069 -8
      vertex -9.27145 -28.0966 -8
    endloop
  endfacet
  facet normal -0 0 1
    outer loop
      vertex -27.1897 -3.1636 -8
      vertex -7.0569 -21.7189 -8
      vertex -22.8366 0 -8
    endloop
  endfacet
  facet normal -0 0 1
    outer loop
      vertex -29.1699 0.438008 -8
      vertex -22.8366 0 -8
      vertex -27.1897 3.1636 -8
    endloop
  endfacet
  facet normal 0 0 1
    outer loop
      vertex -7.0569 -21.7189 -8
      vertex -27.1897 -3.1636 -8
      vertex -9.43057 -27.6069 -8
    endloop
  endfacet
  facet normal 0 0 1
    outer loop
      vertex -29.1699 -0.438008 -8
      vertex -22.8366 0 -8
      vertex -29.1699 0.438008 -8
    endloop
  endfacet
  facet normal 0 0 1
    outer loop
      vertex -22.8366 0 -8
      vertex -29.1699 -0.438008 -8
      vertex -27.1897 -3.1636 -8
    endloop
  endfacet
  facet normal 0 0 1
    outer loop
      vertex -29.1699 0.438008 -8
      vertex -29.4881 0 -8
      vertex -29.1699 -0.438008 -8
    endloop
  endfacet
  facet normal 0 -0 1
    outer loop
      vertex -29.4881 0 -8
      vertex -29.1699 0.438008 -8
      vertex -29.5865 0.135352 -8
    endloop
  endfacet
  facet normal -0 0 -1
    outer loop
      vertex -15.2538 32.7137 -24
      vertex -21.865 28.8883 -24
      vertex -18.6728 33.2819 -24
    endloop
  endfacet
  facet normal 0 0 -1
    outer loop
      vertex -25.2005 19.0233 -24
      vertex -21.865 28.8883 -24
      vertex -15.2538 32.7137 -24
    endloop
  endfacet
  facet normal 0 0 -1
    outer loop
      vertex -37.4232 7.47424 -24
      vertex -25.2005 19.0233 -24
      vertex -35.8263 4.39812 -24
    endloop
  endfacet
  facet normal -0 0 -1
    outer loop
      vertex -25.2005 19.0233 -24
      vertex -37.4232 7.47424 -24
      vertex -21.865 28.8883 -24
    endloop
  endfacet
  facet normal 0 0 -1
    outer loop
      vertex -35.8263 4.39812 -24
      vertex -45.698 13.4862 -24
      vertex -37.4232 7.47424 -24
    endloop
  endfacet
  facet normal 0 0 -1
    outer loop
      vertex -49.6239 14.4227 -24
      vertex -45.698 13.4862 -24
      vertex -35.8263 4.39812 -24
    endloop
  endfacet
  facet normal 0 0 -1
    outer loop
      vertex -45.698 13.4862 -24
      vertex -49.6239 14.4227 -24
      vertex -48.5876 15.5857 -24
    endloop
  endfacet
  facet normal 0 0 -1
    outer loop
      vertex -18.6728 33.2819 -24
      vertex -21.0857 36.9509 -24
      vertex -15.2538 32.7137 -24
    endloop
  endfacet
  facet normal 0 0 -1
    outer loop
      vertex -29.8372 41.3933 -24
      vertex -21.0857 36.9509 -24
      vertex -18.6728 33.2819 -24
    endloop
  endfacet
  facet normal 0 0 -1
    outer loop
      vertex -29.8372 41.3933 -24
      vertex -31.4341 44.4694 -24
      vertex -21.0857 36.9509 -24
    endloop
  endfacet
  facet normal 0 0 -1
    outer loop
      vertex -29.8372 41.3933 -24
      vertex -33.1518 42.1053 -24
      vertex -31.4341 44.4694 -24
    endloop
  endfacet
  facet normal 0 0 -1
    outer loop
      vertex -48.5876 15.5857 -24
      vertex -33.1518 42.1053 -24
      vertex -29.8372 41.3933 -24
    endloop
  endfacet
  facet normal 0 0 -1
    outer loop
      vertex -52.0066 16.1538 -24
      vertex -48.5876 15.5857 -24
      vertex -49.6239 14.4227 -24
    endloop
  endfacet
  facet normal 0 0 -1
    outer loop
      vertex -48.5876 15.5857 -24
      vertex -52.0066 16.1538 -24
      vertex -33.1518 42.1053 -24
    endloop
  endfacet
  facet normal 0 0 -1
    outer loop
      vertex -21.0857 -36.9509 -24
      vertex -18.6728 -33.2819 -24
      vertex -15.2538 -32.7137 -24
    endloop
  endfacet
  facet normal -0 0 -1
    outer loop
      vertex -21.0857 -36.9509 -24
      vertex -29.8372 -41.3933 -24
      vertex -18.6728 -33.2819 -24
    endloop
  endfacet
  facet normal 0 0 -1
    outer loop
      vertex -31.4341 -44.4694 -24
      vertex -29.8372 -41.3933 -24
      vertex -21.0857 -36.9509 -24
    endloop
  endfacet
  facet normal 0 0 -1
    outer loop
      vertex -33.1518 -42.1053 -24
      vertex -29.8372 -41.3933 -24
      vertex -31.4341 -44.4694 -24
    endloop
  endfacet
  facet normal 0 0 -1
    outer loop
      vertex -33.1518 -42.1053 -24
      vertex -48.5876 -15.5857 -24
      vertex -29.8372 -41.3933 -24
    endloop
  endfacet
  facet normal 0 0 -1
    outer loop
      vertex -52.0066 -16.1538 -24
      vertex -48.5876 -15.5857 -24
      vertex -33.1518 -42.1053 -24
    endloop
  endfacet
  facet normal -0 0 -1
    outer loop
      vertex -48.5876 -15.5857 -24
      vertex -52.0066 -16.1538 -24
      vertex -49.6239 -14.4227 -24
    endloop
  endfacet
  facet normal 0 0 -1
    outer loop
      vertex -21.865 -28.8883 -24
      vertex -15.2538 -32.7137 -24
      vertex -18.6728 -33.2819 -24
    endloop
  endfacet
  facet normal 0 0 -1
    outer loop
      vertex -21.865 -28.8883 -24
      vertex -25.2005 -19.0233 -24
      vertex -15.2538 -32.7137 -24
    endloop
  endfacet
  facet normal 0 0 -1
    outer loop
      vertex -37.4232 -7.47424 -24
      vertex -25.2005 -19.0233 -24
      vertex -21.865 -28.8883 -24
    endloop
  endfacet
  facet normal 0 0 -1
    outer loop
      vertex -25.2005 -19.0233 -24
      vertex -37.4232 -7.47424 -24
      vertex -35.8263 -4.39812 -24
    endloop
  endfacet
  facet normal 0 0 -1
    outer loop
      vertex -45.698 -13.4862 -24
      vertex -35.8263 -4.39812 -24
      vertex -37.4232 -7.47424 -24
    endloop
  endfacet
  facet normal 0 0 -1
    outer loop
      vertex -49.6239 -14.4227 -24
      vertex -45.698 -13.4862 -24
      vertex -48.5876 -15.5857 -24
    endloop
  endfacet
  facet normal -0 0 -1
    outer loop
      vertex -45.698 -13.4862 -24
      vertex -49.6239 -14.4227 -24
      vertex -35.8263 -4.39812 -24
    endloop
  endfacet
  facet normal 0 0 -1
    outer loop
      vertex 29.8 -44.5405 -24
      vertex 30.1472 -41.1681 -24
      vertex 32.5793 -43.6374 -24
    endloop
  endfacet
  facet normal -0 0 -1
    outer loop
      vertex 29.8 -44.5405 -24
      vertex 8.59928 -48.1695 -24
      vertex 30.1472 -41.1681 -24
    endloop
  endfacet
  facet normal 0 0 -1
    outer loop
      vertex -0.707724 -54.453 -24
      vertex 8.59928 -48.1695 -24
      vertex 29.8 -44.5405 -24
    endloop
  endfacet
  facet normal 0 0 -1
    outer loop
      vertex 8.59928 -48.1695 -24
      vertex -0.707724 -54.453 -24
      vertex -0.191539 -51.0258 -24
    endloop
  endfacet
  facet normal 0 0 -1
    outer loop
      vertex -1.61783 -51.652 -24
      vertex -0.191539 -51.0258 -24
      vertex -0.707724 -54.453 -24
    endloop
  endfacet
  facet normal -0 0 -1
    outer loop
      vertex -0.191539 -51.0258 -24
      vertex -1.61783 -51.652 -24
      vertex -1.29527 -47.6288 -24
    endloop
  endfacet
  facet normal 0 0 -1
    outer loop
      vertex -6.88806 -35.4319 -24
      vertex -1.29527 -47.6288 -24
      vertex -1.61783 -51.652 -24
    endloop
  endfacet
  facet normal 0 0 -1
    outer loop
      vertex -1.29527 -47.6288 -24
      vertex -6.88806 -35.4319 -24
      vertex -4.45597 -37.9012 -24
    endloop
  endfacet
  facet normal 0 0 -1
    outer loop
      vertex 30.1472 -41.1681 -24
      vertex 26.3989 -24.6163 -24
      vertex 32.5793 -43.6374 -24
    endloop
  endfacet
  facet normal 0 0 -1
    outer loop
      vertex 25.8827 -28.0436 -24
      vertex 26.3989 -24.6163 -24
      vertex 30.1472 -41.1681 -24
    endloop
  endfacet
  facet normal 0 0 -1
    outer loop
      vertex 20.7177 -29.7218 -24
      vertex 26.3989 -24.6163 -24
      vertex 25.8827 -28.0436 -24
    endloop
  endfacet
  facet normal -0 0 -1
    outer loop
      vertex 20.7177 -29.7218 -24
      vertex 10.3049 -29.8456 -24
      vertex 26.3989 -24.6163 -24
    endloop
  endfacet
  facet normal 0 0 -1
    outer loop
      vertex -4.45597 -37.9012 -24
      vertex 10.3049 -29.8456 -24
      vertex 20.7177 -29.7218 -24
    endloop
  endfacet
  facet normal 0 0 -1
    outer loop
      vertex 10.3049 -29.8456 -24
      vertex -4.45597 -37.9012 -24
      vertex -6.88806 -35.4319 -24
    endloop
  endfacet
  facet normal 0 0 -1
    outer loop
      vertex 26.3989 24.6163 -24
      vertex 30.1472 41.1681 -24
      vertex 32.5793 43.6374 -24
    endloop
  endfacet
  facet normal 0 0 -1
    outer loop
      vertex 26.3989 24.6163 -24
      vertex 25.8827 28.0436 -24
      vertex 30.1472 41.1681 -24
    endloop
  endfacet
  facet normal 0 0 -1
    outer loop
      vertex 26.3989 24.6163 -24
      vertex 20.7177 29.7218 -24
      vertex 25.8827 28.0436 -24
    endloop
  endfacet
  facet normal 0 0 -1
    outer loop
      vertex 10.3049 29.8456 -24
      vertex 20.7177 29.7218 -24
      vertex 26.3989 24.6163 -24
    endloop
  endfacet
  facet normal 0 0 -1
    outer loop
      vertex 10.3049 29.8456 -24
      vertex -4.45597 37.9012 -24
      vertex 20.7177 29.7218 -24
    endloop
  endfacet
  facet normal 0 -0 -1
    outer loop
      vertex -4.45597 37.9012 -24
      vertex 10.3049 29.8456 -24
      vertex -6.88806 35.4319 -24
    endloop
  endfacet
  facet normal 0 0 -1
    outer loop
      vertex 30.1472 41.1681 -24
      vertex 29.8 44.5405 -24
      vertex 32.5793 43.6374 -24
    endloop
  endfacet
  facet normal 0 0 -1
    outer loop
      vertex 8.59928 48.1695 -24
      vertex 29.8 44.5405 -24
      vertex 30.1472 41.1681 -24
    endloop
  endfacet
  facet normal 0 0 -1
    outer loop
      vertex -0.707724 54.453 -24
      vertex 8.59928 48.1695 -24
      vertex -0.191539 51.0258 -24
    endloop
  endfacet
  facet normal 0 0 -1
    outer loop
      vertex 8.59928 48.1695 -24
      vertex -0.707724 54.453 -24
      vertex 29.8 44.5405 -24
    endloop
  endfacet
  facet normal 0 0 -1
    outer loop
      vertex -1.61783 51.652 -24
      vertex -0.191539 51.0258 -24
      vertex -1.29527 47.6288 -24
    endloop
  endfacet
  facet normal 0 0 -1
    outer loop
      vertex -0.191539 51.0258 -24
      vertex -1.61783 51.652 -24
      vertex -0.707724 54.453 -24
    endloop
  endfacet
  facet normal 0 0 -1
    outer loop
      vertex -6.88806 35.4319 -24
      vertex -1.29527 47.6288 -24
      vertex -4.45597 37.9012 -24
    endloop
  endfacet
  facet normal -0 0 -1
    outer loop
      vertex -1.29527 47.6288 -24
      vertex -6.88806 35.4319 -24
      vertex -1.61783 51.652 -24
    endloop
  endfacet
  facet normal 0 0 -1
    outer loop
      vertex 51.5692 -17.5 -24
      vertex 48.4692 -15.95 -24
      vertex 51.5692 17.5 -24
    endloop
  endfacet
  facet normal 0 0 -1
    outer loop
      vertex 51.5692 -17.5 -24
      vertex 34.6692 -15.95 -24
      vertex 48.4692 -15.95 -24
    endloop
  endfacet
  facet normal -0 0 -1
    outer loop
      vertex 34.6692 -15.95 -24
      vertex 31.5692 -17.5 -24
      vertex 34.6692 15.95 -24
    endloop
  endfacet
  facet normal 0 0 -1
    outer loop
      vertex 31.5692 -17.5 -24
      vertex 34.6692 -15.95 -24
      vertex 51.5692 -17.5 -24
    endloop
  endfacet
  facet normal 0 0 -1
    outer loop
      vertex 48.4692 15.95 -24
      vertex 51.5692 17.5 -24
      vertex 48.4692 -15.95 -24
    endloop
  endfacet
  facet normal 0 0 -1
    outer loop
      vertex 34.6692 15.95 -24
      vertex 51.5692 17.5 -24
      vertex 48.4692 15.95 -24
    endloop
  endfacet
  facet normal 0 0 -1
    outer loop
      vertex 34.6692 15.95 -24
      vertex 31.5692 17.5 -24
      vertex 51.5692 17.5 -24
    endloop
  endfacet
  facet normal 0 0 -1
    outer loop
      vertex 31.5692 17.5 -24
      vertex 34.6692 15.95 -24
      vertex 31.5692 -17.5 -24
    endloop
  endfacet
endsolid OpenSCAD_Model
