solid OpenSCAD_Model
  facet normal 0 0 -1
    outer loop
      vertex 0.000999451 2.75 1.5
      vertex 28.5 4.1 1.5
      vertex 28.5 2.75 1.5
    endloop
  endfacet
  facet normal -0 0 -1
    outer loop
      vertex 28.5 4.1 1.5
      vertex 0.000999451 2.75 1.5
      vertex 0.000999451 4.1 1.5
    endloop
  endfacet
  facet normal 0 1 -0
    outer loop
      vertex 28.5 2.75 0
      vertex 0.000999451 2.75 1.5
      vertex 28.5 2.75 1.5
    endloop
  endfacet
  facet normal 0 1 0
    outer loop
      vertex 0.000999451 2.75 1.5
      vertex 28.5 2.75 0
      vertex 0.000999451 2.75 0
    endloop
  endfacet
  facet normal -0 -0.866027 -0.499998
    outer loop
      vertex 27.1141 4.96602 0
      vertex 0.000999451 4.1 1.5
      vertex 0.000999451 4.96602 0
    endloop
  endfacet
  facet normal 0 -0.866027 -0.499998
    outer loop
      vertex 0.000999451 4.1 1.5
      vertex 27.1141 4.96602 0
      vertex 28.5 4.1 1.5
    endloop
  endfacet
  facet normal 0 0.866028 0.499996
    outer loop
      vertex 27.3798 4.8 1.2
      vertex 0.000999451 4.28039 2.1
      vertex 28.2113 4.28039 2.1
    endloop
  endfacet
  facet normal 0 0.866028 0.499996
    outer loop
      vertex 0.000999451 4.28039 2.1
      vertex 27.3798 4.8 1.2
      vertex 0.000999451 4.8 1.2
    endloop
  endfacet
  facet normal 0 0 1
    outer loop
      vertex 19 6.55 1.2
      vertex 22.3387 7.95 1.2
      vertex 21 7.95 1.2
    endloop
  endfacet
  facet normal 0 0 1
    outer loop
      vertex 19 6.55 1.2
      vertex 21 7.95 1.2
      vertex 20.7 8.25 1.2
    endloop
  endfacet
  facet normal 0 0 1
    outer loop
      vertex 22.3387 7.95 1.2
      vertex 19 6.55 1.2
      vertex 27.3798 4.8 1.2
    endloop
  endfacet
  facet normal -0 0 1
    outer loop
      vertex 17 6.55 1.2
      vertex 27.3798 4.8 1.2
      vertex 19 6.55 1.2
    endloop
  endfacet
  facet normal -0 0 1
    outer loop
      vertex 15 7.95 1.2
      vertex 17 6.55 1.2
      vertex 15.3 8.25 1.2
    endloop
  endfacet
  facet normal -0 0 1
    outer loop
      vertex 13 7.95 1.2
      vertex 17 6.55 1.2
      vertex 15 7.95 1.2
    endloop
  endfacet
  facet normal -0 0 1
    outer loop
      vertex 12.05 8.3 1.2
      vertex 13 7.95 1.2
      vertex 12.65 8.3 1.2
    endloop
  endfacet
  facet normal 0 0 1
    outer loop
      vertex 11 7.25 1.2
      vertex 13 7.95 1.2
      vertex 12.05 8.3 1.2
    endloop
  endfacet
  facet normal -0 0 1
    outer loop
      vertex 11 7.25 1.2
      vertex 17 6.55 1.2
      vertex 13 7.95 1.2
    endloop
  endfacet
  facet normal 0 0 1
    outer loop
      vertex 0.000999451 4.8 1.2
      vertex 17 6.55 1.2
      vertex 11 7.25 1.2
    endloop
  endfacet
  facet normal 0 0 1
    outer loop
      vertex 0.000999451 4.8 1.2
      vertex 11 7.25 1.2
      vertex 9 7.25 1.2
    endloop
  endfacet
  facet normal 0 0 1
    outer loop
      vertex 7 7.95 1.2
      vertex 7.95 8.3 1.2
      vertex 7.35 8.3 1.2
    endloop
  endfacet
  facet normal 0 0 1
    outer loop
      vertex 7.95 8.3 1.2
      vertex 7 7.95 1.2
      vertex 9 7.25 1.2
    endloop
  endfacet
  facet normal -0 0 1
    outer loop
      vertex 5 7.95 1.2
      vertex 9 7.25 1.2
      vertex 7 7.95 1.2
    endloop
  endfacet
  facet normal 0 0 1
    outer loop
      vertex 0.000999451 4.8 1.2
      vertex 4.65 8.3 1.2
      vertex 0.000999451 8.3 1.2
    endloop
  endfacet
  facet normal 0 0 1
    outer loop
      vertex 4.65 8.3 1.2
      vertex 0.000999451 4.8 1.2
      vertex 5 7.95 1.2
    endloop
  endfacet
  facet normal 0 0 1
    outer loop
      vertex 5 7.95 1.2
      vertex 0.000999451 4.8 1.2
      vertex 9 7.25 1.2
    endloop
  endfacet
  facet normal 0 0 1
    outer loop
      vertex 17 6.55 1.2
      vertex 0.000999451 4.8 1.2
      vertex 27.3798 4.8 1.2
    endloop
  endfacet
  facet normal -0 0 1
    outer loop
      vertex 0.000999451 2.25 0.9
      vertex 26.35 0.599999 0.9
      vertex 28 2.25 0.9
    endloop
  endfacet
  facet normal 0 0 1
    outer loop
      vertex 26.35 0.599999 0.9
      vertex 0.000999451 2.25 0.9
      vertex 0.000999451 0.599999 0.9
    endloop
  endfacet
  facet normal 0 -1 0
    outer loop
      vertex 0.000999451 2.25 0.9
      vertex 28 2.25 2.1
      vertex 0.000999451 2.25 2.1
    endloop
  endfacet
  facet normal 0 -1 -0
    outer loop
      vertex 28 2.25 2.1
      vertex 0.000999451 2.25 0.9
      vertex 28 2.25 0.9
    endloop
  endfacet
  facet normal 0 1 -0
    outer loop
      vertex 26.35 0.599999 0.9
      vertex 0.000999451 0.599999 2.1
      vertex 26.35 0.599999 2.1
    endloop
  endfacet
  facet normal 0 1 0
    outer loop
      vertex 0.000999451 0.599999 2.1
      vertex 26.35 0.599999 0.9
      vertex 0.000999451 0.599999 0.9
    endloop
  endfacet
  facet normal 0.529899 0.848061 -0
    outer loop
      vertex 28.5 4.1 1.5
      vertex 28.2113 4.28039 2.1
      vertex 28.5 4.1 2.1
    endloop
  endfacet
  facet normal 0.529927 0.848043 1.91375e-05
    outer loop
      vertex 28.5 4.1 1.5
      vertex 27.3798 4.8 1.2
      vertex 28.2113 4.28039 2.1
    endloop
  endfacet
  facet normal 0.529933 0.84804 -9.65448e-06
    outer loop
      vertex 27.1141 4.96602 0
      vertex 27.3798 4.8 1.2
      vertex 28.5 4.1 1.5
    endloop
  endfacet
  facet normal 0.529916 0.84805 -4.4269e-06
    outer loop
      vertex 27.1141 4.96602 0
      vertex 22.3387 7.95 1.2
      vertex 27.3798 4.8 1.2
    endloop
  endfacet
  facet normal 0.529917 0.84805 0
    outer loop
      vertex 22.3387 7.95 1.2
      vertex 27.1141 4.96602 0
      vertex 22.3387 7.95 0
    endloop
  endfacet
  facet normal 0.707106 -0.707107 0
    outer loop
      vertex 26.35 0.599999 2.1
      vertex 25.75 0 2.1
      vertex 26.35 0.599999 0.9
    endloop
  endfacet
  facet normal 0.707107 -0.707107 0
    outer loop
      vertex 28 2.25 2.1
      vertex 28.5 2.75 1.5
      vertex 28.5 2.75 2.1
    endloop
  endfacet
  facet normal 0.707107 -0.707107 0
    outer loop
      vertex 28.5 2.75 1.5
      vertex 28 2.25 2.1
      vertex 28 2.25 0.9
    endloop
  endfacet
  facet normal 0.707107 -0.707107 0
    outer loop
      vertex 28.5 2.75 1.5
      vertex 28 2.25 0.9
      vertex 28.5 2.75 0
    endloop
  endfacet
  facet normal 0.707107 -0.707107 2.38083e-07
    outer loop
      vertex 26.35 0.599999 0.9
      vertex 28.5 2.75 0
      vertex 28 2.25 0.9
    endloop
  endfacet
  facet normal 0.707107 -0.707107 -7.85674e-07
    outer loop
      vertex 26.35 0.599999 0.9
      vertex 25.75 0 0
      vertex 28.5 2.75 0
    endloop
  endfacet
  facet normal 0.707106 -0.707107 0
    outer loop
      vertex 25.75 0 0
      vertex 26.35 0.599999 0.9
      vertex 25.75 0 2.1
    endloop
  endfacet
  facet normal 0 1 -0
    outer loop
      vertex 7 7.95 0
      vertex 5 7.95 1.2
      vertex 7 7.95 1.2
    endloop
  endfacet
  facet normal 0 1 0
    outer loop
      vertex 5 7.95 1.2
      vertex 7 7.95 0
      vertex 5 7.95 0
    endloop
  endfacet
  facet normal 0.707107 0.707107 0
    outer loop
      vertex 5 7.95 1.2
      vertex 4.65 8.3 0
      vertex 4.65 8.3 1.2
    endloop
  endfacet
  facet normal 0.707107 0.707107 0
    outer loop
      vertex 4.65 8.3 0
      vertex 5 7.95 1.2
      vertex 5 7.95 0
    endloop
  endfacet
  facet normal -0.707107 0.707107 0
    outer loop
      vertex 7 7.95 0
      vertex 7.35 8.3 1.2
      vertex 7.35 8.3 0
    endloop
  endfacet
  facet normal -0.707107 0.707107 0
    outer loop
      vertex 7.35 8.3 1.2
      vertex 7 7.95 0
      vertex 7 7.95 1.2
    endloop
  endfacet
  facet normal 0 1 -0
    outer loop
      vertex 11 7.25 0
      vertex 9 7.25 1.2
      vertex 11 7.25 1.2
    endloop
  endfacet
  facet normal 0 1 0
    outer loop
      vertex 9 7.25 1.2
      vertex 11 7.25 0
      vertex 9 7.25 0
    endloop
  endfacet
  facet normal 0.707107 0.707107 0
    outer loop
      vertex 9 7.25 1.2
      vertex 7.95 8.3 0
      vertex 7.95 8.3 1.2
    endloop
  endfacet
  facet normal 0.707107 0.707107 0
    outer loop
      vertex 7.95 8.3 0
      vertex 9 7.25 1.2
      vertex 9 7.25 0
    endloop
  endfacet
  facet normal -0.707107 0.707107 0
    outer loop
      vertex 11 7.25 0
      vertex 12.05 8.3 1.2
      vertex 12.05 8.3 0
    endloop
  endfacet
  facet normal -0.707107 0.707107 0
    outer loop
      vertex 12.05 8.3 1.2
      vertex 11 7.25 0
      vertex 11 7.25 1.2
    endloop
  endfacet
  facet normal 0 1 -0
    outer loop
      vertex 15 7.95 0
      vertex 13 7.95 1.2
      vertex 15 7.95 1.2
    endloop
  endfacet
  facet normal 0 1 0
    outer loop
      vertex 13 7.95 1.2
      vertex 15 7.95 0
      vertex 13 7.95 0
    endloop
  endfacet
  facet normal 0.707107 0.707107 -0
    outer loop
      vertex 13 7.95 0
      vertex 12.65 8.3 1.2
      vertex 13 7.95 1.2
    endloop
  endfacet
  facet normal 0.707107 0.707107 0
    outer loop
      vertex 12.65 8.3 1.2
      vertex 13 7.95 0
      vertex 12.65 8.3 0
    endloop
  endfacet
  facet normal -0.707107 0.707107 0
    outer loop
      vertex 15.3 8.25 0
      vertex 15 7.95 1.2
      vertex 15.3 8.25 1.2
    endloop
  endfacet
  facet normal -0.707107 0.707107 0
    outer loop
      vertex 15 7.95 1.2
      vertex 15.3 8.25 0
      vertex 15 7.95 0
    endloop
  endfacet
  facet normal 0 1 -0
    outer loop
      vertex 19 6.55 0
      vertex 17 6.55 1.2
      vertex 19 6.55 1.2
    endloop
  endfacet
  facet normal 0 1 0
    outer loop
      vertex 17 6.55 1.2
      vertex 19 6.55 0
      vertex 17 6.55 0
    endloop
  endfacet
  facet normal 0.707107 0.707107 0
    outer loop
      vertex 17 6.55 1.2
      vertex 15.3 8.25 0
      vertex 15.3 8.25 1.2
    endloop
  endfacet
  facet normal 0.707107 0.707107 0
    outer loop
      vertex 15.3 8.25 0
      vertex 17 6.55 1.2
      vertex 17 6.55 0
    endloop
  endfacet
  facet normal -0.707107 0.707107 0
    outer loop
      vertex 20.7 8.25 0
      vertex 19 6.55 1.2
      vertex 20.7 8.25 1.2
    endloop
  endfacet
  facet normal -0.707107 0.707107 0
    outer loop
      vertex 19 6.55 1.2
      vertex 20.7 8.25 0
      vertex 19 6.55 0
    endloop
  endfacet
  facet normal 0 1 -0
    outer loop
      vertex 22.3387 7.95 0
      vertex 21 7.95 1.2
      vertex 22.3387 7.95 1.2
    endloop
  endfacet
  facet normal 0 1 0
    outer loop
      vertex 21 7.95 1.2
      vertex 22.3387 7.95 0
      vertex 21 7.95 0
    endloop
  endfacet
  facet normal 0.707107 0.707107 0
    outer loop
      vertex 21 7.95 1.2
      vertex 20.7 8.25 0
      vertex 20.7 8.25 1.2
    endloop
  endfacet
  facet normal 0.707107 0.707107 0
    outer loop
      vertex 20.7 8.25 0
      vertex 21 7.95 1.2
      vertex 21 7.95 0
    endloop
  endfacet
  facet normal 1 -0 0
    outer loop
      vertex 28.5 2.75 2.1
      vertex 28.5 4.1 1.5
      vertex 28.5 4.1 2.1
    endloop
  endfacet
  facet normal 1 0 0
    outer loop
      vertex 28.5 4.1 1.5
      vertex 28.5 2.75 2.1
      vertex 28.5 2.75 1.5
    endloop
  endfacet
  facet normal -0 0 1
    outer loop
      vertex -4.52173 10.375 2.1
      vertex 0.000999451 4.28039 2.1
      vertex 0.000999451 10.375 2.1
    endloop
  endfacet
  facet normal 0 0 1
    outer loop
      vertex -4.52173 -2.075 2.1
      vertex 0.000999451 4.28039 2.1
      vertex -4.52173 10.375 2.1
    endloop
  endfacet
  facet normal 0 0 1
    outer loop
      vertex 0.000999451 4.28039 2.1
      vertex -4.52173 -2.075 2.1
      vertex 0.000999451 2.25 2.1
    endloop
  endfacet
  facet normal 0 0 1
    outer loop
      vertex 0.000999451 2.25 2.1
      vertex -4.52173 -2.075 2.1
      vertex 0.000999451 0.599999 2.1
    endloop
  endfacet
  facet normal 0 0 1
    outer loop
      vertex 0.000999451 0 2.1
      vertex -4.52173 -2.075 2.1
      vertex 0.000999451 -2.075 2.1
    endloop
  endfacet
  facet normal 0 0 1
    outer loop
      vertex 0.000999451 0.599999 2.1
      vertex -4.52173 -2.075 2.1
      vertex 0.000999451 0 2.1
    endloop
  endfacet
  facet normal 0 0 1
    outer loop
      vertex -16.6094 8.42975 2.1
      vertex -4.52173 10.375 2.1
      vertex -8.63629 16.0382 2.1
    endloop
  endfacet
  facet normal 0 0 1
    outer loop
      vertex -4.52173 10.375 2.1
      vertex -13.5 4.15 2.1
      vertex -4.52173 -2.075 2.1
    endloop
  endfacet
  facet normal -0 0 1
    outer loop
      vertex -16.6094 -0.129754 2.1
      vertex -4.52173 -2.075 2.1
      vertex -13.5 4.15 2.1
    endloop
  endfacet
  facet normal 0 0 1
    outer loop
      vertex -4.52173 10.375 2.1
      vertex -16.6094 8.42975 2.1
      vertex -13.5 4.15 2.1
    endloop
  endfacet
  facet normal -0 0 1
    outer loop
      vertex -22.6117 11.4973 2.1
      vertex -16.6094 8.42975 2.1
      vertex -8.63629 16.0382 2.1
    endloop
  endfacet
  facet normal 0 0 1
    outer loop
      vertex -21.6406 6.79503 2.1
      vertex -22.6117 11.4973 2.1
      vertex -21.6406 1.50497 2.1
    endloop
  endfacet
  facet normal 0 0 1
    outer loop
      vertex -16.6094 8.42975 2.1
      vertex -22.6117 11.4973 2.1
      vertex -21.6406 6.79503 2.1
    endloop
  endfacet
  facet normal 0 0 1
    outer loop
      vertex 28.2113 4.28039 2.1
      vertex 28.5 2.75 2.1
      vertex 28.5 4.1 2.1
    endloop
  endfacet
  facet normal 0 0 1
    outer loop
      vertex 28.2113 4.28039 2.1
      vertex 28 2.25 2.1
      vertex 28.5 2.75 2.1
    endloop
  endfacet
  facet normal -0 0 1
    outer loop
      vertex 0.000999451 4.28039 2.1
      vertex 28 2.25 2.1
      vertex 28.2113 4.28039 2.1
    endloop
  endfacet
  facet normal 0 0 1
    outer loop
      vertex 28 2.25 2.1
      vertex 0.000999451 4.28039 2.1
      vertex 0.000999451 2.25 2.1
    endloop
  endfacet
  facet normal -0 0 1
    outer loop
      vertex 0.000999451 0.599999 2.1
      vertex 25.75 0 2.1
      vertex 26.35 0.599999 2.1
    endloop
  endfacet
  facet normal 0 0 1
    outer loop
      vertex 25.75 0 2.1
      vertex 0.000999451 0.599999 2.1
      vertex 0.000999451 0 2.1
    endloop
  endfacet
  facet normal 0 0 1
    outer loop
      vertex -4.52173 -2.075 2.1
      vertex -16.6094 -0.129754 2.1
      vertex -8.63629 -7.73821 2.1
    endloop
  endfacet
  facet normal 0 0 1
    outer loop
      vertex -22.6117 -3.19732 2.1
      vertex -16.6094 -0.129754 2.1
      vertex -21.6406 1.50497 2.1
    endloop
  endfacet
  facet normal 0 0 1
    outer loop
      vertex -16.6094 -0.129754 2.1
      vertex -22.6117 -3.19732 2.1
      vertex -8.63629 -7.73821 2.1
    endloop
  endfacet
  facet normal 0 0 1
    outer loop
      vertex -22.6117 -3.19732 2.1
      vertex -21.6406 1.50497 2.1
      vertex -22.6117 11.4973 2.1
    endloop
  endfacet
  facet normal 0 0 -1
    outer loop
      vertex -4.52173 -2.075 0
      vertex 0.000999451 0 0
      vertex 0.000999451 -2.075 0
    endloop
  endfacet
  facet normal -0 0 -1
    outer loop
      vertex 0.000999451 0 0
      vertex -4.52173 -2.075 0
      vertex 0.000999451 2.75 0
    endloop
  endfacet
  facet normal -0 0 -1
    outer loop
      vertex 0.000999451 2.75 0
      vertex -4.52173 -2.075 0
      vertex 0.000999451 4.96602 0
    endloop
  endfacet
  facet normal 0 0 -1
    outer loop
      vertex -4.52173 10.375 0
      vertex 0.000999451 4.96602 0
      vertex -4.52173 -2.075 0
    endloop
  endfacet
  facet normal 0 0 -1
    outer loop
      vertex 0.000999451 4.96602 0
      vertex -4.52173 10.375 0
      vertex 0.000999451 8.3 0
    endloop
  endfacet
  facet normal 0 0 -1
    outer loop
      vertex 0.000999451 8.3 0
      vertex -4.52173 10.375 0
      vertex 0.000999451 10.375 0
    endloop
  endfacet
  facet normal 0 0 -1
    outer loop
      vertex -16.6094 -0.129754 0
      vertex -4.52173 -2.075 0
      vertex -8.63629 -7.73821 0
    endloop
  endfacet
  facet normal 0 0 -1
    outer loop
      vertex -4.52173 -2.075 0
      vertex -13.5 4.15 0
      vertex -4.52173 10.375 0
    endloop
  endfacet
  facet normal 0 0 -1
    outer loop
      vertex -16.6094 8.42975 0
      vertex -4.52173 10.375 0
      vertex -13.5 4.15 0
    endloop
  endfacet
  facet normal 0 0 -1
    outer loop
      vertex -4.52173 -2.075 0
      vertex -16.6094 -0.129754 0
      vertex -13.5 4.15 0
    endloop
  endfacet
  facet normal 0 0 -1
    outer loop
      vertex -22.6117 -3.19732 0
      vertex -16.6094 -0.129754 0
      vertex -8.63629 -7.73821 0
    endloop
  endfacet
  facet normal -0 0 -1
    outer loop
      vertex -21.6406 1.50497 0
      vertex -22.6117 -3.19732 0
      vertex -21.6406 6.79503 0
    endloop
  endfacet
  facet normal -0 0 -1
    outer loop
      vertex -16.6094 -0.129754 0
      vertex -22.6117 -3.19732 0
      vertex -21.6406 1.50497 0
    endloop
  endfacet
  facet normal 0 0 -1
    outer loop
      vertex 0.000999451 2.75 0
      vertex 25.75 0 0
      vertex 0.000999451 0 0
    endloop
  endfacet
  facet normal 0 0 -1
    outer loop
      vertex 25.75 0 0
      vertex 0.000999451 2.75 0
      vertex 28.5 2.75 0
    endloop
  endfacet
  facet normal 0 0 -1
    outer loop
      vertex 19 6.55 0
      vertex 22.3387 7.95 0
      vertex 27.1141 4.96602 0
    endloop
  endfacet
  facet normal -0 0 -1
    outer loop
      vertex 21 7.95 0
      vertex 19 6.55 0
      vertex 20.7 8.25 0
    endloop
  endfacet
  facet normal -0 0 -1
    outer loop
      vertex 22.3387 7.95 0
      vertex 19 6.55 0
      vertex 21 7.95 0
    endloop
  endfacet
  facet normal 0 0 -1
    outer loop
      vertex 27.1141 4.96602 0
      vertex 17 6.55 0
      vertex 19 6.55 0
    endloop
  endfacet
  facet normal 0 0 -1
    outer loop
      vertex 17 6.55 0
      vertex 15 7.95 0
      vertex 15.3 8.25 0
    endloop
  endfacet
  facet normal 0 0 -1
    outer loop
      vertex 17 6.55 0
      vertex 13 7.95 0
      vertex 15 7.95 0
    endloop
  endfacet
  facet normal 0 0 -1
    outer loop
      vertex 13 7.95 0
      vertex 12.05 8.3 0
      vertex 12.65 8.3 0
    endloop
  endfacet
  facet normal -0 0 -1
    outer loop
      vertex 13 7.95 0
      vertex 11 7.25 0
      vertex 12.05 8.3 0
    endloop
  endfacet
  facet normal 0 0 -1
    outer loop
      vertex 17 6.55 0
      vertex 11 7.25 0
      vertex 13 7.95 0
    endloop
  endfacet
  facet normal 0 0 -1
    outer loop
      vertex 0.000999451 4.96602 0
      vertex 17 6.55 0
      vertex 27.1141 4.96602 0
    endloop
  endfacet
  facet normal -0 0 -1
    outer loop
      vertex 17 6.55 0
      vertex 0.000999451 4.96602 0
      vertex 11 7.25 0
    endloop
  endfacet
  facet normal 0 0 -1
    outer loop
      vertex 7 7.95 0
      vertex 7.95 8.3 0
      vertex 9 7.25 0
    endloop
  endfacet
  facet normal -0 0 -1
    outer loop
      vertex 7.95 8.3 0
      vertex 7 7.95 0
      vertex 7.35 8.3 0
    endloop
  endfacet
  facet normal 0 0 -1
    outer loop
      vertex 9 7.25 0
      vertex 5 7.95 0
      vertex 7 7.95 0
    endloop
  endfacet
  facet normal -0 0 -1
    outer loop
      vertex 11 7.25 0
      vertex 0.000999451 4.96602 0
      vertex 9 7.25 0
    endloop
  endfacet
  facet normal 0 0 -1
    outer loop
      vertex 0.000999451 4.96602 0
      vertex 5 7.95 0
      vertex 9 7.25 0
    endloop
  endfacet
  facet normal 0 0 -1
    outer loop
      vertex 0.000999451 4.96602 0
      vertex 4.65 8.3 0
      vertex 5 7.95 0
    endloop
  endfacet
  facet normal -0 0 -1
    outer loop
      vertex 4.65 8.3 0
      vertex 0.000999451 4.96602 0
      vertex 0.000999451 8.3 0
    endloop
  endfacet
  facet normal -0 0 -1
    outer loop
      vertex -4.52173 10.375 0
      vertex -16.6094 8.42975 0
      vertex -8.63629 16.0382 0
    endloop
  endfacet
  facet normal 0 0 -1
    outer loop
      vertex -22.6117 11.4973 0
      vertex -16.6094 8.42975 0
      vertex -21.6406 6.79503 0
    endloop
  endfacet
  facet normal 0 0 -1
    outer loop
      vertex -16.6094 8.42975 0
      vertex -22.6117 11.4973 0
      vertex -8.63629 16.0382 0
    endloop
  endfacet
  facet normal 0 0 -1
    outer loop
      vertex -22.6117 11.4973 0
      vertex -21.6406 6.79503 0
      vertex -22.6117 -3.19732 0
    endloop
  endfacet
  facet normal 0 1 -0
    outer loop
      vertex 4.65 8.3 0
      vertex 0.000999451 8.3 1.2
      vertex 4.65 8.3 1.2
    endloop
  endfacet
  facet normal 0 1 0
    outer loop
      vertex 0.000999451 8.3 1.2
      vertex 4.65 8.3 0
      vertex 0.000999451 8.3 0
    endloop
  endfacet
  facet normal 0 1 -0
    outer loop
      vertex 7.95 8.3 0
      vertex 7.35 8.3 1.2
      vertex 7.95 8.3 1.2
    endloop
  endfacet
  facet normal 0 1 0
    outer loop
      vertex 7.35 8.3 1.2
      vertex 7.95 8.3 0
      vertex 7.35 8.3 0
    endloop
  endfacet
  facet normal 0 1 -0
    outer loop
      vertex 12.65 8.3 0
      vertex 12.05 8.3 1.2
      vertex 12.65 8.3 1.2
    endloop
  endfacet
  facet normal 0 1 0
    outer loop
      vertex 12.05 8.3 1.2
      vertex 12.65 8.3 0
      vertex 12.05 8.3 0
    endloop
  endfacet
  facet normal 0 -1 0
    outer loop
      vertex 0.000999451 0 0
      vertex 25.75 0 2.1
      vertex 0.000999451 0 2.1
    endloop
  endfacet
  facet normal 0 -1 -0
    outer loop
      vertex 25.75 0 2.1
      vertex 0.000999451 0 0
      vertex 25.75 0 0
    endloop
  endfacet
  facet normal 1 0 0
    outer loop
      vertex 0.000999451 10.375 2.1
      vertex 0.000999451 8.3 1.2
      vertex 0.000999451 10.375 0
    endloop
  endfacet
  facet normal 1 -0 0
    outer loop
      vertex 0.000999451 4.28039 2.1
      vertex 0.000999451 8.3 1.2
      vertex 0.000999451 10.375 2.1
    endloop
  endfacet
  facet normal 1 0 0
    outer loop
      vertex 0.000999451 8.3 1.2
      vertex 0.000999451 4.28039 2.1
      vertex 0.000999451 4.8 1.2
    endloop
  endfacet
  facet normal 1 0 0
    outer loop
      vertex 0.000999451 10.375 0
      vertex 0.000999451 8.3 1.2
      vertex 0.000999451 8.3 0
    endloop
  endfacet
  facet normal 1 -0 0
    outer loop
      vertex 0.000999451 -2.075 2.1
      vertex 0.000999451 0 0
      vertex 0.000999451 0 2.1
    endloop
  endfacet
  facet normal 1 0 0
    outer loop
      vertex 0.000999451 0 0
      vertex 0.000999451 -2.075 2.1
      vertex 0.000999451 -2.075 0
    endloop
  endfacet
  facet normal 1 0 0
    outer loop
      vertex 0.000999451 2.75 0
      vertex 0.000999451 4.1 1.5
      vertex 0.000999451 2.75 1.5
    endloop
  endfacet
  facet normal 1 0 0
    outer loop
      vertex 0.000999451 4.1 1.5
      vertex 0.000999451 2.75 0
      vertex 0.000999451 4.96602 0
    endloop
  endfacet
  facet normal 1 -0 0
    outer loop
      vertex 0.000999451 0.599999 2.1
      vertex 0.000999451 2.25 0.9
      vertex 0.000999451 2.25 2.1
    endloop
  endfacet
  facet normal 1 0 0
    outer loop
      vertex 0.000999451 2.25 0.9
      vertex 0.000999451 0.599999 2.1
      vertex 0.000999451 0.599999 0.9
    endloop
  endfacet
  facet normal 0 1 -0
    outer loop
      vertex 0.000999451 10.375 0
      vertex -4.52173 10.375 2.1
      vertex 0.000999451 10.375 2.1
    endloop
  endfacet
  facet normal 0 1 0
    outer loop
      vertex -4.52173 10.375 2.1
      vertex 0.000999451 10.375 0
      vertex -4.52173 10.375 0
    endloop
  endfacet
  facet normal 0 -1 0
    outer loop
      vertex -4.52173 -2.075 0
      vertex 0.000999451 -2.075 2.1
      vertex -4.52173 -2.075 2.1
    endloop
  endfacet
  facet normal 0 -1 -0
    outer loop
      vertex 0.000999451 -2.075 2.1
      vertex -4.52173 -2.075 0
      vertex 0.000999451 -2.075 0
    endloop
  endfacet
  facet normal -0.309017 -0.951056 0
    outer loop
      vertex -22.6117 -3.19732 0
      vertex -8.63629 -7.73821 2.1
      vertex -22.6117 -3.19732 2.1
    endloop
  endfacet
  facet normal -0.309017 -0.951056 -0
    outer loop
      vertex -8.63629 -7.73821 2.1
      vertex -22.6117 -3.19732 0
      vertex -8.63629 -7.73821 0
    endloop
  endfacet
  facet normal -0.309018 0.951056 0
    outer loop
      vertex -8.63629 16.0382 0
      vertex -22.6117 11.4973 2.1
      vertex -8.63629 16.0382 2.1
    endloop
  endfacet
  facet normal -0.309018 0.951056 0
    outer loop
      vertex -22.6117 11.4973 2.1
      vertex -8.63629 16.0382 0
      vertex -22.6117 11.4973 0
    endloop
  endfacet
  facet normal 0.809017 0.587786 0
    outer loop
      vertex -4.52173 10.375 2.1
      vertex -8.63629 16.0382 0
      vertex -8.63629 16.0382 2.1
    endloop
  endfacet
  facet normal 0.809017 0.587786 0
    outer loop
      vertex -8.63629 16.0382 0
      vertex -4.52173 10.375 2.1
      vertex -4.52173 10.375 0
    endloop
  endfacet
  facet normal -1 0 0
    outer loop
      vertex -22.6117 -3.19732 0
      vertex -22.6117 11.4973 2.1
      vertex -22.6117 11.4973 0
    endloop
  endfacet
  facet normal -1 -0 0
    outer loop
      vertex -22.6117 11.4973 2.1
      vertex -22.6117 -3.19732 0
      vertex -22.6117 -3.19732 2.1
    endloop
  endfacet
  facet normal 0.809017 -0.587785 0
    outer loop
      vertex -8.63629 -7.73821 2.1
      vertex -4.52173 -2.075 0
      vertex -4.52173 -2.075 2.1
    endloop
  endfacet
  facet normal 0.809017 -0.587785 0
    outer loop
      vertex -4.52173 -2.075 0
      vertex -8.63629 -7.73821 2.1
      vertex -8.63629 -7.73821 0
    endloop
  endfacet
  facet normal 0.309015 0.951057 -0
    outer loop
      vertex -16.6094 -0.129754 0
      vertex -21.6406 1.50497 2.1
      vertex -16.6094 -0.129754 2.1
    endloop
  endfacet
  facet normal 0.309015 0.951057 0
    outer loop
      vertex -21.6406 1.50497 2.1
      vertex -16.6094 -0.129754 0
      vertex -21.6406 1.50497 0
    endloop
  endfacet
  facet normal 0.309014 -0.951057 0
    outer loop
      vertex -21.6406 6.79503 0
      vertex -16.6094 8.42975 2.1
      vertex -21.6406 6.79503 2.1
    endloop
  endfacet
  facet normal 0.309014 -0.951057 0
    outer loop
      vertex -16.6094 8.42975 2.1
      vertex -21.6406 6.79503 0
      vertex -16.6094 8.42975 0
    endloop
  endfacet
  facet normal -0.809019 -0.587783 0
    outer loop
      vertex -13.5 4.15 0
      vertex -16.6094 8.42975 2.1
      vertex -16.6094 8.42975 0
    endloop
  endfacet
  facet normal -0.809019 -0.587783 0
    outer loop
      vertex -16.6094 8.42975 2.1
      vertex -13.5 4.15 0
      vertex -13.5 4.15 2.1
    endloop
  endfacet
  facet normal 1 -0 0
    outer loop
      vertex -21.6406 1.50497 2.1
      vertex -21.6406 6.79503 0
      vertex -21.6406 6.79503 2.1
    endloop
  endfacet
  facet normal 1 0 0
    outer loop
      vertex -21.6406 6.79503 0
      vertex -21.6406 1.50497 2.1
      vertex -21.6406 1.50497 0
    endloop
  endfacet
  facet normal -0.809019 0.587782 0
    outer loop
      vertex -16.6094 -0.129754 0
      vertex -13.5 4.15 2.1
      vertex -13.5 4.15 0
    endloop
  endfacet
  facet normal -0.809019 0.587782 0
    outer loop
      vertex -13.5 4.15 2.1
      vertex -16.6094 -0.129754 0
      vertex -16.6094 -0.129754 2.1
    endloop
  endfacet
endsolid OpenSCAD_Model
