solid OpenSCAD_Model
  facet normal 1 -0 0
    outer loop
      vertex 10 19 10
      vertex 10 21 -10
      vertex 10 21 10
    endloop
  endfacet
  facet normal 1 0 0
    outer loop
      vertex 10 21 -10
      vertex 10 19 10
      vertex 10 19 -10
    endloop
  endfacet
  facet normal -0 0 1
    outer loop
      vertex -10 21 10
      vertex 10 19 10
      vertex 10 21 10
    endloop
  endfacet
  facet normal 0 0 1
    outer loop
      vertex 10 19 10
      vertex -10 21 10
      vertex -10 19 10
    endloop
  endfacet
  facet normal 0 0 -1
    outer loop
      vertex -10 19 -10
      vertex 10 21 -10
      vertex 10 19 -10
    endloop
  endfacet
  facet normal -0 0 -1
    outer loop
      vertex 10 21 -10
      vertex -10 19 -10
      vertex -10 21 -10
    endloop
  endfacet
  facet normal -1 0 0
    outer loop
      vertex -10 19 -10
      vertex -10 21 10
      vertex -10 21 -10
    endloop
  endfacet
  facet normal -1 -0 0
    outer loop
      vertex -10 21 10
      vertex -10 19 -10
      vertex -10 19 10
    endloop
  endfacet
  facet normal 0 1 -0
    outer loop
      vertex 10 21 -10
      vertex -10 21 10
      vertex 10 21 10
    endloop
  endfacet
  facet normal 0 1 0
    outer loop
      vertex -10 21 10
      vertex 10 21 -10
      vertex -10 21 -10
    endloop
  endfacet
  facet normal 0 -1 0
    outer loop
      vertex -10 19 10
      vertex -8.75 19 8.75
      vertex 10 19 10
    endloop
  endfacet
  facet normal 0 -1 0
    outer loop
      vertex -10 19 10
      vertex -8.75 19 -8.75
      vertex -8.75 19 8.75
    endloop
  endfacet
  facet normal 0 -1 -0
    outer loop
      vertex -8.75 19 -8.75
      vertex -10 19 -10
      vertex 8.75 19 -8.75
    endloop
  endfacet
  facet normal 0 -1 0
    outer loop
      vertex -10 19 -10
      vertex -8.75 19 -8.75
      vertex -10 19 10
    endloop
  endfacet
  facet normal 0 -1 0
    outer loop
      vertex 8.75 19 8.75
      vertex 10 19 10
      vertex -8.75 19 8.75
    endloop
  endfacet
  facet normal 0 -1 0
    outer loop
      vertex 8.75 19 -8.75
      vertex 10 19 10
      vertex 8.75 19 8.75
    endloop
  endfacet
  facet normal 0 -1 0
    outer loop
      vertex 8.75 19 -8.75
      vertex 10 19 -10
      vertex 10 19 10
    endloop
  endfacet
  facet normal 0 -1 0
    outer loop
      vertex 10 19 -10
      vertex 8.75 19 -8.75
      vertex -10 19 -10
    endloop
  endfacet
  facet normal 1 -0 0
    outer loop
      vertex 8.75 16.5 8.75
      vertex 8.75 19 -8.75
      vertex 8.75 19 8.75
    endloop
  endfacet
  facet normal 1 0 0
    outer loop
      vertex 8.75 19 -8.75
      vertex 8.75 16.5 8.75
      vertex 8.75 16.5 -8.75
    endloop
  endfacet
  facet normal -0 0 1
    outer loop
      vertex -8.75 19 8.75
      vertex 8.75 16.5 8.75
      vertex 8.75 19 8.75
    endloop
  endfacet
  facet normal 0 0 1
    outer loop
      vertex 8.75 16.5 8.75
      vertex -8.75 19 8.75
      vertex -8.75 16.5 8.75
    endloop
  endfacet
  facet normal 0 0 -1
    outer loop
      vertex -8.75 16.5 -8.75
      vertex 8.75 19 -8.75
      vertex 8.75 16.5 -8.75
    endloop
  endfacet
  facet normal -0 0 -1
    outer loop
      vertex 8.75 19 -8.75
      vertex -8.75 16.5 -8.75
      vertex -8.75 19 -8.75
    endloop
  endfacet
  facet normal -1 0 0
    outer loop
      vertex -8.75 16.5 -8.75
      vertex -8.75 19 8.75
      vertex -8.75 19 -8.75
    endloop
  endfacet
  facet normal -1 -0 0
    outer loop
      vertex -8.75 19 8.75
      vertex -8.75 16.5 -8.75
      vertex -8.75 16.5 8.75
    endloop
  endfacet
  facet normal 0 -1 0
    outer loop
      vertex -8.75 16.5 -8.75
      vertex 8.75 16.5 8.75
      vertex -8.75 16.5 8.75
    endloop
  endfacet
  facet normal 0 -1 -0
    outer loop
      vertex 8.75 16.5 8.75
      vertex -8.75 16.5 -8.75
      vertex 8.75 16.5 -8.75
    endloop
  endfacet
endsolid OpenSCAD_Model
