solid OpenSCAD_Model
  facet normal 0 0 -1
    outer loop
      vertex 2.41742 0.857124 -5
      vertex 12 2.9 -5
      vertex 11.9763 2.14651 -5
    endloop
  endfacet
  facet normal 0 0 -1
    outer loop
      vertex 2.47275 0.703444 -5
      vertex 11.9763 2.14651 -5
      vertex 11.9054 1.396 -5
    endloop
  endfacet
  facet normal 0 0 -1
    outer loop
      vertex 2.35255 1.00703 -5
      vertex 12 2.9 -5
      vertex 2.41742 0.857124 -5
    endloop
  endfacet
  facet normal 0 0 -1
    outer loop
      vertex 2.51832 0.546593 -5
      vertex 11.9054 1.396 -5
      vertex 11.7874 0.651425 -5
    endloop
  endfacet
  facet normal -0 0 -1
    outer loop
      vertex 12 2.9 -5
      vertex 2.35255 1.00703 -5
      vertex 11.9763 3.65349 -5
    endloop
  endfacet
  facet normal 0 0 -1
    outer loop
      vertex 2.55395 0.387191 -5
      vertex 11.7874 0.651425 -5
      vertex 11.623 -0.0842777 -5
    endloop
  endfacet
  facet normal 0 0 -1
    outer loop
      vertex 2.2784 1.15256 -5
      vertex 11.9763 3.65349 -5
      vertex 2.35255 1.00703 -5
    endloop
  endfacet
  facet normal 0 0 -1
    outer loop
      vertex 2.5795 0.225866 -5
      vertex 11.623 -0.0842777 -5
      vertex 11.4127 -0.808203 -5
    endloop
  endfacet
  facet normal -0 0 -1
    outer loop
      vertex 11.9763 3.65349 -5
      vertex 2.2784 1.15256 -5
      vertex 11.9054 4.404 -5
    endloop
  endfacet
  facet normal 0 0 -1
    outer loop
      vertex 2.59487 0.0632547 -5
      vertex 11.4127 -0.808203 -5
      vertex 11.1573 -1.51749 -5
    endloop
  endfacet
  facet normal 0 0 -1
    outer loop
      vertex 2.19525 1.29315 -5
      vertex 11.9054 4.404 -5
      vertex 2.2784 1.15256 -5
    endloop
  endfacet
  facet normal 0 0 -1
    outer loop
      vertex 2.6 -0.1 -5
      vertex 11.1573 -1.51749 -5
      vertex 10.8579 -2.20935 -5
    endloop
  endfacet
  facet normal 0 0 -1
    outer loop
      vertex 11.9763 2.14651 -5
      vertex 2.47275 0.703444 -5
      vertex 2.41742 0.857124 -5
    endloop
  endfacet
  facet normal 0 0 -1
    outer loop
      vertex 2.59487 -0.263255 -5
      vertex 10.8579 -2.20935 -5
      vertex 10.5157 -2.88104 -5
    endloop
  endfacet
  facet normal -0 0 -1
    outer loop
      vertex 11.9054 4.404 -5
      vertex 2.19525 1.29315 -5
      vertex 11.7874 5.14858 -5
    endloop
  endfacet
  facet normal 0 0 -1
    outer loop
      vertex 2.5795 -0.425866 -5
      vertex 10.5157 -2.88104 -5
      vertex 10.1319 -3.52992 -5
    endloop
  endfacet
  facet normal -0 0 -1
    outer loop
      vertex 11.7874 5.14858 -5
      vertex 2.19525 1.29315 -5
      vertex 11.623 5.88428 -5
    endloop
  endfacet
  facet normal 0 0 -1
    outer loop
      vertex 2.55395 -0.587191 -5
      vertex 10.1319 -3.52992 -5
      vertex 9.7082 -4.15342 -5
    endloop
  endfacet
  facet normal 0 0 -1
    outer loop
      vertex 2.10344 1.42824 -5
      vertex 11.623 5.88428 -5
      vertex 2.19525 1.29315 -5
    endloop
  endfacet
  facet normal 0 0 -1
    outer loop
      vertex 2.47275 -0.903444 -5
      vertex 9.7082 -4.15342 -5
      vertex 9.24616 -4.74909 -5
    endloop
  endfacet
  facet normal 0 0 -1
    outer loop
      vertex 11.9054 1.396 -5
      vertex 2.51832 0.546593 -5
      vertex 2.47275 0.703444 -5
    endloop
  endfacet
  facet normal 0 0 -1
    outer loop
      vertex 2.41742 -1.05712 -5
      vertex 9.24616 -4.74909 -5
      vertex 8.74762 -5.31456 -5
    endloop
  endfacet
  facet normal -0 0 -1
    outer loop
      vertex 11.623 5.88428 -5
      vertex 2.10344 1.42824 -5
      vertex 11.4127 6.6082 -5
    endloop
  endfacet
  facet normal 0 0 -1
    outer loop
      vertex 2.35255 -1.20703 -5
      vertex 8.74762 -5.31456 -5
      vertex 8.21456 -5.84762 -5
    endloop
  endfacet
  facet normal 0 0 -1
    outer loop
      vertex 2.04778 1.5 -5
      vertex 11.4127 6.6082 -5
      vertex 2.10344 1.42824 -5
    endloop
  endfacet
  facet normal 0 0 -1
    outer loop
      vertex 2.2784 -1.35256 -5
      vertex 8.21456 -5.84762 -5
      vertex 7.64909 -6.34616 -5
    endloop
  endfacet
  facet normal 0 0 -1
    outer loop
      vertex 11.7874 0.651425 -5
      vertex 2.55395 0.387191 -5
      vertex 2.51832 0.546593 -5
    endloop
  endfacet
  facet normal 0 0 -1
    outer loop
      vertex 2.10344 -1.62824 -5
      vertex 7.64909 -6.34616 -5
      vertex 7.05342 -6.8082 -5
    endloop
  endfacet
  facet normal -0 0 -1
    outer loop
      vertex 11.4127 6.6082 -5
      vertex 2.04778 1.5 -5
      vertex 11.1573 7.31749 -5
    endloop
  endfacet
  facet normal 0 0 -1
    outer loop
      vertex 2.04778 -1.7 -5
      vertex 7.05342 -6.8082 -5
      vertex 6.42992 -7.23193 -5
    endloop
  endfacet
  facet normal -0 0 -1
    outer loop
      vertex 11.1573 7.31749 -5
      vertex 2.04778 1.5 -5
      vertex 10.8579 8.00935 -5
    endloop
  endfacet
  facet normal 0 0 -1
    outer loop
      vertex 2.04778 -1.7 -5
      vertex 6.42992 -7.23193 -5
      vertex 5.78104 -7.61568 -5
    endloop
  endfacet
  facet normal 0 0 -1
    outer loop
      vertex 11.623 -0.0842777 -5
      vertex 2.5795 0.225866 -5
      vertex 2.55395 0.387191 -5
    endloop
  endfacet
  facet normal 0 0 -1
    outer loop
      vertex 2.04778 -1.7 -5
      vertex 5.78104 -7.61568 -5
      vertex 5.10935 -7.95792 -5
    endloop
  endfacet
  facet normal -0 0 -1
    outer loop
      vertex 10.8579 8.00935 -5
      vertex 2.04778 1.5 -5
      vertex 10.5157 8.68104 -5
    endloop
  endfacet
  facet normal 0 0 -1
    outer loop
      vertex 2.04778 -1.7 -5
      vertex 5.10935 -7.95792 -5
      vertex 4.41749 -8.25732 -5
    endloop
  endfacet
  facet normal 0 0 -1
    outer loop
      vertex 11.4127 -0.808203 -5
      vertex 2.59487 0.0632547 -5
      vertex 2.5795 0.225866 -5
    endloop
  endfacet
  facet normal 0 0 -1
    outer loop
      vertex 2.04778 -1.7 -5
      vertex 4.41749 -8.25732 -5
      vertex 3.7082 -8.51268 -5
    endloop
  endfacet
  facet normal -0 0 -1
    outer loop
      vertex 10.5157 8.68104 -5
      vertex 2.04778 1.5 -5
      vertex 10.1319 9.32992 -5
    endloop
  endfacet
  facet normal 0 0 -1
    outer loop
      vertex 2.04778 -1.7 -5
      vertex 3.7082 -8.51268 -5
      vertex 2.98428 -8.723 -5
    endloop
  endfacet
  facet normal 0 0 -1
    outer loop
      vertex 11.1573 -1.51749 -5
      vertex 2.6 -0.1 -5
      vertex 2.59487 0.0632547 -5
    endloop
  endfacet
  facet normal -0 0 -1
    outer loop
      vertex 10.1319 9.32992 -5
      vertex 2.04778 1.5 -5
      vertex 9.7082 9.95342 -5
    endloop
  endfacet
  facet normal 0 0 -1
    outer loop
      vertex 10.8579 -2.20935 -5
      vertex 2.59487 -0.263255 -5
      vertex 2.6 -0.1 -5
    endloop
  endfacet
  facet normal 0 0 -1
    outer loop
      vertex 10.5157 -2.88104 -5
      vertex 2.5795 -0.425866 -5
      vertex 2.59487 -0.263255 -5
    endloop
  endfacet
  facet normal 0 0 -1
    outer loop
      vertex 10.1319 -3.52992 -5
      vertex 2.55395 -0.587191 -5
      vertex 2.5795 -0.425866 -5
    endloop
  endfacet
  facet normal 0 0 -1
    outer loop
      vertex 9.7082 -4.15342 -5
      vertex 2.51832 -0.746593 -5
      vertex 2.55395 -0.587191 -5
    endloop
  endfacet
  facet normal 0 0 -1
    outer loop
      vertex 9.7082 -4.15342 -5
      vertex 2.47275 -0.903444 -5
      vertex 2.51832 -0.746593 -5
    endloop
  endfacet
  facet normal 0 0 -1
    outer loop
      vertex 9.24616 -4.74909 -5
      vertex 2.41742 -1.05712 -5
      vertex 2.47275 -0.903444 -5
    endloop
  endfacet
  facet normal 0 0 -1
    outer loop
      vertex 8.74762 -5.31456 -5
      vertex 2.35255 -1.20703 -5
      vertex 2.41742 -1.05712 -5
    endloop
  endfacet
  facet normal 0 0 -1
    outer loop
      vertex 8.21456 -5.84762 -5
      vertex 2.2784 -1.35256 -5
      vertex 2.35255 -1.20703 -5
    endloop
  endfacet
  facet normal 0 0 -1
    outer loop
      vertex 2.04778 -1.7 -5
      vertex 2.98428 -8.723 -5
      vertex 2.24858 -8.88745 -5
    endloop
  endfacet
  facet normal 0 0 -1
    outer loop
      vertex 7.64909 -6.34616 -5
      vertex 2.19525 -1.49315 -5
      vertex 2.2784 -1.35256 -5
    endloop
  endfacet
  facet normal 0 0 -1
    outer loop
      vertex 7.64909 -6.34616 -5
      vertex 2.10344 -1.62824 -5
      vertex 2.19525 -1.49315 -5
    endloop
  endfacet
  facet normal 0 0 -1
    outer loop
      vertex 7.05342 -6.8082 -5
      vertex 2.04778 -1.7 -5
      vertex 2.10344 -1.62824 -5
    endloop
  endfacet
  facet normal 0 0 -1
    outer loop
      vertex 1.504 -9.00538 -5
      vertex 2.04778 -1.7 -5
      vertex 2.24858 -8.88745 -5
    endloop
  endfacet
  facet normal 0 0 -1
    outer loop
      vertex 0.753486 -9.07632 -5
      vertex 2.04778 -1.7 -5
      vertex 1.504 -9.00538 -5
    endloop
  endfacet
  facet normal 0 0 -1
    outer loop
      vertex 0 -9.1 -5
      vertex 2.04778 -1.7 -5
      vertex 0.753486 -9.07632 -5
    endloop
  endfacet
  facet normal 0 0 -1
    outer loop
      vertex -2.04778 -1.7 -5
      vertex 0 -9.1 -5
      vertex -0.753486 -9.07632 -5
    endloop
  endfacet
  facet normal 0 0 -1
    outer loop
      vertex -2.04778 -1.7 -5
      vertex -0.753486 -9.07632 -5
      vertex -1.504 -9.00538 -5
    endloop
  endfacet
  facet normal 0 0 -1
    outer loop
      vertex 0 -9.1 -5
      vertex -2.04778 -1.7 -5
      vertex 2.04778 -1.7 -5
    endloop
  endfacet
  facet normal 0 0 -1
    outer loop
      vertex -2.24858 -8.88745 -5
      vertex -2.04778 -1.7 -5
      vertex -1.504 -9.00538 -5
    endloop
  endfacet
  facet normal 0 0 -1
    outer loop
      vertex -2.98428 -8.723 -5
      vertex -2.04778 -1.7 -5
      vertex -2.24858 -8.88745 -5
    endloop
  endfacet
  facet normal 0 0 -1
    outer loop
      vertex -3.7082 -8.51268 -5
      vertex -2.04778 -1.7 -5
      vertex -2.98428 -8.723 -5
    endloop
  endfacet
  facet normal 0 0 -1
    outer loop
      vertex -4.41749 -8.25732 -5
      vertex -2.04778 -1.7 -5
      vertex -3.7082 -8.51268 -5
    endloop
  endfacet
  facet normal 0 0 -1
    outer loop
      vertex -5.10935 -7.95792 -5
      vertex -2.04778 -1.7 -5
      vertex -4.41749 -8.25732 -5
    endloop
  endfacet
  facet normal 0 0 -1
    outer loop
      vertex -5.78104 -7.61568 -5
      vertex -2.04778 -1.7 -5
      vertex -5.10935 -7.95792 -5
    endloop
  endfacet
  facet normal 0 0 -1
    outer loop
      vertex -6.42992 -7.23193 -5
      vertex -2.04778 -1.7 -5
      vertex -5.78104 -7.61568 -5
    endloop
  endfacet
  facet normal 0 0 -1
    outer loop
      vertex -7.05342 -6.8082 -5
      vertex -2.04778 -1.7 -5
      vertex -6.42992 -7.23193 -5
    endloop
  endfacet
  facet normal -0 0 -1
    outer loop
      vertex -2.04778 -1.7 -5
      vertex -7.05342 -6.8082 -5
      vertex -2.10344 -1.62824 -5
    endloop
  endfacet
  facet normal 0 0 -1
    outer loop
      vertex -7.64909 -6.34616 -5
      vertex -2.10344 -1.62824 -5
      vertex -7.05342 -6.8082 -5
    endloop
  endfacet
  facet normal -0 0 -1
    outer loop
      vertex -2.10344 -1.62824 -5
      vertex -7.64909 -6.34616 -5
      vertex -2.19525 -1.49315 -5
    endloop
  endfacet
  facet normal 0 0 -1
    outer loop
      vertex -8.21456 -5.84762 -5
      vertex -2.2784 -1.35256 -5
      vertex -7.64909 -6.34616 -5
    endloop
  endfacet
  facet normal -0 0 -1
    outer loop
      vertex -2.19525 -1.49315 -5
      vertex -7.64909 -6.34616 -5
      vertex -2.2784 -1.35256 -5
    endloop
  endfacet
  facet normal -0 0 -1
    outer loop
      vertex 9.7082 9.95342 -5
      vertex 2.04778 1.5 -5
      vertex 9.24616 10.5491 -5
    endloop
  endfacet
  facet normal -0 0 -1
    outer loop
      vertex 9.24616 10.5491 -5
      vertex 2.04778 1.5 -5
      vertex 8.74762 11.1146 -5
    endloop
  endfacet
  facet normal -0 0 -1
    outer loop
      vertex 8.74762 11.1146 -5
      vertex 2.04778 1.5 -5
      vertex 8.21456 11.6476 -5
    endloop
  endfacet
  facet normal -0 0 -1
    outer loop
      vertex 8.21456 11.6476 -5
      vertex 2.04778 1.5 -5
      vertex 7.64909 12.1462 -5
    endloop
  endfacet
  facet normal -0 0 -1
    outer loop
      vertex 7.64909 12.1462 -5
      vertex 2.04778 1.5 -5
      vertex 7.05342 12.6082 -5
    endloop
  endfacet
  facet normal -0 0 -1
    outer loop
      vertex 7.05342 12.6082 -5
      vertex 2.04778 1.5 -5
      vertex 6.42992 13.0319 -5
    endloop
  endfacet
  facet normal -0 0 -1
    outer loop
      vertex 6.42992 13.0319 -5
      vertex 2.04778 1.5 -5
      vertex 5.78104 13.4157 -5
    endloop
  endfacet
  facet normal -0 0 -1
    outer loop
      vertex 5.78104 13.4157 -5
      vertex 2.04778 1.5 -5
      vertex 5.10935 13.7579 -5
    endloop
  endfacet
  facet normal -0 0 -1
    outer loop
      vertex 5.10935 13.7579 -5
      vertex 2.04778 1.5 -5
      vertex 4.41749 14.0573 -5
    endloop
  endfacet
  facet normal -0 0 -1
    outer loop
      vertex 4.41749 14.0573 -5
      vertex 2.04778 1.5 -5
      vertex 3.7082 14.3127 -5
    endloop
  endfacet
  facet normal -0 0 -1
    outer loop
      vertex 3.7082 14.3127 -5
      vertex 2.04778 1.5 -5
      vertex 2.98428 14.523 -5
    endloop
  endfacet
  facet normal -0 0 -1
    outer loop
      vertex 2.98428 14.523 -5
      vertex 2.04778 1.5 -5
      vertex 2.24858 14.6874 -5
    endloop
  endfacet
  facet normal 0 0 -1
    outer loop
      vertex 2.04778 1.5 -5
      vertex 1.504 14.8054 -5
      vertex 2.24858 14.6874 -5
    endloop
  endfacet
  facet normal 0 0 -1
    outer loop
      vertex 2.04778 1.5 -5
      vertex 0.753486 14.8763 -5
      vertex 1.504 14.8054 -5
    endloop
  endfacet
  facet normal 0 0 -1
    outer loop
      vertex 2.04778 1.5 -5
      vertex 0 14.9 -5
      vertex 0.753486 14.8763 -5
    endloop
  endfacet
  facet normal 0 0 -1
    outer loop
      vertex -2.04778 1.5 -5
      vertex 0 14.9 -5
      vertex 2.04778 1.5 -5
    endloop
  endfacet
  facet normal 0 0 -1
    outer loop
      vertex 0 14.9 -5
      vertex -2.04778 1.5 -5
      vertex -0.753486 14.8763 -5
    endloop
  endfacet
  facet normal 0 0 -1
    outer loop
      vertex -0.753486 14.8763 -5
      vertex -2.04778 1.5 -5
      vertex -1.504 14.8054 -5
    endloop
  endfacet
  facet normal 0 0 -1
    outer loop
      vertex -11.4127 6.6082 -5
      vertex -2.04778 1.5 -5
      vertex -2.10344 1.42824 -5
    endloop
  endfacet
  facet normal 0 0 -1
    outer loop
      vertex -11.623 5.88428 -5
      vertex -2.10344 1.42824 -5
      vertex -2.19525 1.29315 -5
    endloop
  endfacet
  facet normal 0 0 -1
    outer loop
      vertex -2.04778 1.5 -5
      vertex -2.24858 14.6874 -5
      vertex -1.504 14.8054 -5
    endloop
  endfacet
  facet normal 0 0 -1
    outer loop
      vertex -11.9054 4.404 -5
      vertex -2.19525 1.29315 -5
      vertex -2.2784 1.15256 -5
    endloop
  endfacet
  facet normal 0 0 -1
    outer loop
      vertex -11.9763 3.65349 -5
      vertex -2.2784 1.15256 -5
      vertex -2.35255 1.00703 -5
    endloop
  endfacet
  facet normal 0 0 -1
    outer loop
      vertex -12 2.9 -5
      vertex -2.35255 1.00703 -5
      vertex -2.41742 0.857124 -5
    endloop
  endfacet
  facet normal 0 0 -1
    outer loop
      vertex -11.9763 2.14651 -5
      vertex -2.41742 0.857124 -5
      vertex -2.47275 0.703444 -5
    endloop
  endfacet
  facet normal 0 0 -1
    outer loop
      vertex -11.9054 1.396 -5
      vertex -2.47275 0.703444 -5
      vertex -2.51832 0.546593 -5
    endloop
  endfacet
  facet normal 0 0 -1
    outer loop
      vertex -11.7874 0.651425 -5
      vertex -2.51832 0.546593 -5
      vertex -2.55395 0.387191 -5
    endloop
  endfacet
  facet normal 0 0 -1
    outer loop
      vertex -11.623 -0.0842777 -5
      vertex -2.55395 0.387191 -5
      vertex -2.5795 0.225866 -5
    endloop
  endfacet
  facet normal 0 0 -1
    outer loop
      vertex -11.4127 -0.808203 -5
      vertex -2.5795 0.225866 -5
      vertex -2.59487 0.0632547 -5
    endloop
  endfacet
  facet normal 0 0 -1
    outer loop
      vertex -11.1573 -1.51749 -5
      vertex -2.59487 0.0632547 -5
      vertex -2.6 -0.1 -5
    endloop
  endfacet
  facet normal -0 0 -1
    outer loop
      vertex -2.2784 -1.35256 -5
      vertex -8.21456 -5.84762 -5
      vertex -2.35255 -1.20703 -5
    endloop
  endfacet
  facet normal 0 0 -1
    outer loop
      vertex -2.04778 1.5 -5
      vertex -2.98428 14.523 -5
      vertex -2.24858 14.6874 -5
    endloop
  endfacet
  facet normal 0 0 -1
    outer loop
      vertex -8.74762 -5.31456 -5
      vertex -2.35255 -1.20703 -5
      vertex -8.21456 -5.84762 -5
    endloop
  endfacet
  facet normal 0 0 -1
    outer loop
      vertex -2.04778 1.5 -5
      vertex -3.7082 14.3127 -5
      vertex -2.98428 14.523 -5
    endloop
  endfacet
  facet normal -0 0 -1
    outer loop
      vertex -2.35255 -1.20703 -5
      vertex -8.74762 -5.31456 -5
      vertex -2.41742 -1.05712 -5
    endloop
  endfacet
  facet normal 0 0 -1
    outer loop
      vertex -2.04778 1.5 -5
      vertex -4.41749 14.0573 -5
      vertex -3.7082 14.3127 -5
    endloop
  endfacet
  facet normal 0 0 -1
    outer loop
      vertex -9.24616 -4.74909 -5
      vertex -2.41742 -1.05712 -5
      vertex -8.74762 -5.31456 -5
    endloop
  endfacet
  facet normal 0 0 -1
    outer loop
      vertex -2.04778 1.5 -5
      vertex -5.10935 13.7579 -5
      vertex -4.41749 14.0573 -5
    endloop
  endfacet
  facet normal -0 0 -1
    outer loop
      vertex -2.41742 -1.05712 -5
      vertex -9.24616 -4.74909 -5
      vertex -2.47275 -0.903444 -5
    endloop
  endfacet
  facet normal 0 0 -1
    outer loop
      vertex -2.04778 1.5 -5
      vertex -5.78104 13.4157 -5
      vertex -5.10935 13.7579 -5
    endloop
  endfacet
  facet normal 0 0 -1
    outer loop
      vertex -9.7082 -4.15342 -5
      vertex -2.47275 -0.903444 -5
      vertex -9.24616 -4.74909 -5
    endloop
  endfacet
  facet normal 0 0 -1
    outer loop
      vertex -2.04778 1.5 -5
      vertex -6.42992 13.0319 -5
      vertex -5.78104 13.4157 -5
    endloop
  endfacet
  facet normal -0 0 -1
    outer loop
      vertex -2.47275 -0.903444 -5
      vertex -9.7082 -4.15342 -5
      vertex -2.51832 -0.746593 -5
    endloop
  endfacet
  facet normal 0 0 -1
    outer loop
      vertex -2.04778 1.5 -5
      vertex -7.05342 12.6082 -5
      vertex -6.42992 13.0319 -5
    endloop
  endfacet
  facet normal -0 0 -1
    outer loop
      vertex -2.51832 -0.746593 -5
      vertex -9.7082 -4.15342 -5
      vertex -2.55395 -0.587191 -5
    endloop
  endfacet
  facet normal 0 0 -1
    outer loop
      vertex -2.04778 1.5 -5
      vertex -7.64909 12.1462 -5
      vertex -7.05342 12.6082 -5
    endloop
  endfacet
  facet normal 0 0 -1
    outer loop
      vertex -10.1319 -3.52992 -5
      vertex -2.55395 -0.587191 -5
      vertex -9.7082 -4.15342 -5
    endloop
  endfacet
  facet normal 0 0 -1
    outer loop
      vertex -2.04778 1.5 -5
      vertex -8.21456 11.6476 -5
      vertex -7.64909 12.1462 -5
    endloop
  endfacet
  facet normal -0 0 -1
    outer loop
      vertex -2.55395 -0.587191 -5
      vertex -10.1319 -3.52992 -5
      vertex -2.5795 -0.425866 -5
    endloop
  endfacet
  facet normal 0 0 -1
    outer loop
      vertex -2.04778 1.5 -5
      vertex -8.74762 11.1146 -5
      vertex -8.21456 11.6476 -5
    endloop
  endfacet
  facet normal 0 0 -1
    outer loop
      vertex -10.5157 -2.88104 -5
      vertex -2.5795 -0.425866 -5
      vertex -10.1319 -3.52992 -5
    endloop
  endfacet
  facet normal 0 0 -1
    outer loop
      vertex -2.04778 1.5 -5
      vertex -9.24616 10.5491 -5
      vertex -8.74762 11.1146 -5
    endloop
  endfacet
  facet normal -0 0 -1
    outer loop
      vertex -2.5795 -0.425866 -5
      vertex -10.5157 -2.88104 -5
      vertex -2.59487 -0.263255 -5
    endloop
  endfacet
  facet normal 0 0 -1
    outer loop
      vertex -2.04778 1.5 -5
      vertex -9.7082 9.95342 -5
      vertex -9.24616 10.5491 -5
    endloop
  endfacet
  facet normal 0 0 -1
    outer loop
      vertex -10.8579 -2.20935 -5
      vertex -2.59487 -0.263255 -5
      vertex -10.5157 -2.88104 -5
    endloop
  endfacet
  facet normal 0 0 -1
    outer loop
      vertex -2.04778 1.5 -5
      vertex -10.1319 9.32992 -5
      vertex -9.7082 9.95342 -5
    endloop
  endfacet
  facet normal -0 0 -1
    outer loop
      vertex -2.59487 -0.263255 -5
      vertex -10.8579 -2.20935 -5
      vertex -2.6 -0.1 -5
    endloop
  endfacet
  facet normal 0 0 -1
    outer loop
      vertex -2.04778 1.5 -5
      vertex -10.5157 8.68104 -5
      vertex -10.1319 9.32992 -5
    endloop
  endfacet
  facet normal 0 0 -1
    outer loop
      vertex -11.1573 -1.51749 -5
      vertex -2.6 -0.1 -5
      vertex -10.8579 -2.20935 -5
    endloop
  endfacet
  facet normal 0 0 -1
    outer loop
      vertex -2.04778 1.5 -5
      vertex -10.8579 8.00935 -5
      vertex -10.5157 8.68104 -5
    endloop
  endfacet
  facet normal 0 0 -1
    outer loop
      vertex -2.59487 0.0632547 -5
      vertex -11.1573 -1.51749 -5
      vertex -11.4127 -0.808203 -5
    endloop
  endfacet
  facet normal 0 0 -1
    outer loop
      vertex -2.04778 1.5 -5
      vertex -11.1573 7.31749 -5
      vertex -10.8579 8.00935 -5
    endloop
  endfacet
  facet normal 0 0 -1
    outer loop
      vertex -2.5795 0.225866 -5
      vertex -11.4127 -0.808203 -5
      vertex -11.623 -0.0842777 -5
    endloop
  endfacet
  facet normal 0 0 -1
    outer loop
      vertex -2.04778 1.5 -5
      vertex -11.4127 6.6082 -5
      vertex -11.1573 7.31749 -5
    endloop
  endfacet
  facet normal -0 0 -1
    outer loop
      vertex -2.55395 0.387191 -5
      vertex -11.623 -0.0842777 -5
      vertex -11.7874 0.651425 -5
    endloop
  endfacet
  facet normal 0 0 -1
    outer loop
      vertex -2.10344 1.42824 -5
      vertex -11.623 5.88428 -5
      vertex -11.4127 6.6082 -5
    endloop
  endfacet
  facet normal 0 0 -1
    outer loop
      vertex -2.51832 0.546593 -5
      vertex -11.7874 0.651425 -5
      vertex -11.9054 1.396 -5
    endloop
  endfacet
  facet normal 0 0 -1
    outer loop
      vertex -2.19525 1.29315 -5
      vertex -11.7874 5.14858 -5
      vertex -11.623 5.88428 -5
    endloop
  endfacet
  facet normal 0 0 -1
    outer loop
      vertex -2.47275 0.703444 -5
      vertex -11.9054 1.396 -5
      vertex -11.9763 2.14651 -5
    endloop
  endfacet
  facet normal 0 0 -1
    outer loop
      vertex -2.19525 1.29315 -5
      vertex -11.9054 4.404 -5
      vertex -11.7874 5.14858 -5
    endloop
  endfacet
  facet normal 0 0 -1
    outer loop
      vertex -2.41742 0.857124 -5
      vertex -11.9763 2.14651 -5
      vertex -12 2.9 -5
    endloop
  endfacet
  facet normal 0 0 -1
    outer loop
      vertex -2.2784 1.15256 -5
      vertex -11.9763 3.65349 -5
      vertex -11.9054 4.404 -5
    endloop
  endfacet
  facet normal 0 0 -1
    outer loop
      vertex -2.35255 1.00703 -5
      vertex -12 2.9 -5
      vertex -11.9763 3.65349 -5
    endloop
  endfacet
  facet normal 0 -1 0
    outer loop
      vertex -2.04778 1.5 -5
      vertex 2.04778 1.5 5
      vertex -2.04778 1.5 5
    endloop
  endfacet
  facet normal 0 -1 -0
    outer loop
      vertex 2.04778 1.5 5
      vertex -2.04778 1.5 -5
      vertex 2.04778 1.5 -5
    endloop
  endfacet
  facet normal 0 1 -0
    outer loop
      vertex 2.04778 -1.7 -5
      vertex -2.04778 -1.7 5
      vertex 2.04778 -1.7 5
    endloop
  endfacet
  facet normal 0 1 0
    outer loop
      vertex -2.04778 -1.7 5
      vertex 2.04778 -1.7 -5
      vertex -2.04778 -1.7 -5
    endloop
  endfacet
  facet normal -0.999507 -0.0314078 0
    outer loop
      vertex 2.6 -0.1 -5
      vertex 2.59487 0.0632547 5
      vertex 2.59487 0.0632547 -5
    endloop
  endfacet
  facet normal -0.999507 -0.0314078 0
    outer loop
      vertex 2.59487 0.0632547 5
      vertex 2.6 -0.1 -5
      vertex 2.6 -0.1 5
    endloop
  endfacet
  facet normal 0.860728 0.509065 0
    outer loop
      vertex -2.19525 -1.49315 5
      vertex -2.2784 -1.35256 -5
      vertex -2.2784 -1.35256 5
    endloop
  endfacet
  facet normal 0.860728 0.509065 0
    outer loop
      vertex -2.2784 -1.35256 -5
      vertex -2.19525 -1.49315 5
      vertex -2.19525 -1.49315 -5
    endloop
  endfacet
  facet normal -0.89101 0.453984 0
    outer loop
      vertex 2.2784 -1.35256 -5
      vertex 2.35255 -1.20703 5
      vertex 2.35255 -1.20703 -5
    endloop
  endfacet
  facet normal -0.89101 0.453984 0
    outer loop
      vertex 2.35255 -1.20703 5
      vertex 2.2784 -1.35256 -5
      vertex 2.2784 -1.35256 5
    endloop
  endfacet
  facet normal -0.975918 0.21814 0
    outer loop
      vertex 2.51832 -0.746593 -5
      vertex 2.55395 -0.587191 5
      vertex 2.55395 -0.587191 -5
    endloop
  endfacet
  facet normal -0.975918 0.21814 0
    outer loop
      vertex 2.55395 -0.587191 5
      vertex 2.51832 -0.746593 -5
      vertex 2.51832 -0.746593 5
    endloop
  endfacet
  facet normal -0.917759 0.397138 0
    outer loop
      vertex 2.35255 -1.20703 -5
      vertex 2.41742 -1.05712 5
      vertex 2.41742 -1.05712 -5
    endloop
  endfacet
  facet normal -0.917759 0.397138 0
    outer loop
      vertex 2.41742 -1.05712 5
      vertex 2.35255 -1.20703 -5
      vertex 2.35255 -1.20703 5
    endloop
  endfacet
  facet normal -0.995563 0.0941006 0
    outer loop
      vertex 2.5795 -0.425866 -5
      vertex 2.59487 -0.263255 5
      vertex 2.59487 -0.263255 -5
    endloop
  endfacet
  facet normal -0.995563 0.0941006 0
    outer loop
      vertex 2.59487 -0.263255 5
      vertex 2.5795 -0.425866 -5
      vertex 2.5795 -0.425866 5
    endloop
  endfacet
  facet normal -0.960293 0.278994 0
    outer loop
      vertex 2.47275 -0.903444 -5
      vertex 2.51832 -0.746593 5
      vertex 2.51832 -0.746593 -5
    endloop
  endfacet
  facet normal -0.960293 0.278994 0
    outer loop
      vertex 2.51832 -0.746593 5
      vertex 2.47275 -0.903444 -5
      vertex 2.47275 -0.903444 5
    endloop
  endfacet
  facet normal 0.917755 -0.397147 0
    outer loop
      vertex -2.41742 0.857124 5
      vertex -2.35255 1.00703 -5
      vertex -2.35255 1.00703 5
    endloop
  endfacet
  facet normal 0.917755 -0.397147 0
    outer loop
      vertex -2.35255 1.00703 -5
      vertex -2.41742 0.857124 5
      vertex -2.41742 0.857124 -5
    endloop
  endfacet
  facet normal -0.940877 -0.338748 0
    outer loop
      vertex 2.47275 0.703444 -5
      vertex 2.41742 0.857124 5
      vertex 2.41742 0.857124 -5
    endloop
  endfacet
  facet normal -0.940877 -0.338748 0
    outer loop
      vertex 2.41742 0.857124 5
      vertex 2.47275 0.703444 -5
      vertex 2.47275 0.703444 5
    endloop
  endfacet
  facet normal 0.827072 0.562096 0
    outer loop
      vertex -2.10344 -1.62824 5
      vertex -2.19525 -1.49315 -5
      vertex -2.19525 -1.49315 5
    endloop
  endfacet
  facet normal 0.827072 0.562096 0
    outer loop
      vertex -2.19525 -1.49315 -5
      vertex -2.10344 -1.62824 5
      vertex -2.10344 -1.62824 -5
    endloop
  endfacet
  facet normal 0.79017 0.612888 0
    outer loop
      vertex -2.04778 -1.7 5
      vertex -2.10344 -1.62824 -5
      vertex -2.10344 -1.62824 5
    endloop
  endfacet
  facet normal 0.79017 0.612888 0
    outer loop
      vertex -2.10344 -1.62824 -5
      vertex -2.04778 -1.7 5
      vertex -2.04778 -1.7 -5
    endloop
  endfacet
  facet normal 0.995563 0.0941006 0
    outer loop
      vertex -2.5795 -0.425866 5
      vertex -2.59487 -0.263255 -5
      vertex -2.59487 -0.263255 5
    endloop
  endfacet
  facet normal 0.995563 0.0941006 0
    outer loop
      vertex -2.59487 -0.263255 -5
      vertex -2.5795 -0.425866 5
      vertex -2.5795 -0.425866 -5
    endloop
  endfacet
  facet normal -0.79017 -0.612888 0
    outer loop
      vertex 2.10344 1.42824 -5
      vertex 2.04778 1.5 5
      vertex 2.04778 1.5 -5
    endloop
  endfacet
  facet normal -0.79017 -0.612888 0
    outer loop
      vertex 2.04778 1.5 5
      vertex 2.10344 1.42824 -5
      vertex 2.10344 1.42824 5
    endloop
  endfacet
  facet normal -0.860728 0.509065 0
    outer loop
      vertex 2.19525 -1.49315 -5
      vertex 2.2784 -1.35256 5
      vertex 2.2784 -1.35256 -5
    endloop
  endfacet
  facet normal -0.860728 0.509065 0
    outer loop
      vertex 2.2784 -1.35256 5
      vertex 2.19525 -1.49315 -5
      vertex 2.19525 -1.49315 5
    endloop
  endfacet
  facet normal -0.89101 -0.453984 0
    outer loop
      vertex 2.35255 1.00703 -5
      vertex 2.2784 1.15256 5
      vertex 2.2784 1.15256 -5
    endloop
  endfacet
  facet normal -0.89101 -0.453984 0
    outer loop
      vertex 2.2784 1.15256 5
      vertex 2.35255 1.00703 -5
      vertex 2.35255 1.00703 5
    endloop
  endfacet
  facet normal 0.827072 -0.562096 0
    outer loop
      vertex -2.19525 1.29315 5
      vertex -2.10344 1.42824 -5
      vertex -2.10344 1.42824 5
    endloop
  endfacet
  facet normal 0.827072 -0.562096 0
    outer loop
      vertex -2.10344 1.42824 -5
      vertex -2.19525 1.29315 5
      vertex -2.19525 1.29315 -5
    endloop
  endfacet
  facet normal -0.975918 -0.21814 0
    outer loop
      vertex 2.55395 0.387191 -5
      vertex 2.51832 0.546593 5
      vertex 2.51832 0.546593 -5
    endloop
  endfacet
  facet normal -0.975918 -0.21814 0
    outer loop
      vertex 2.51832 0.546593 5
      vertex 2.55395 0.387191 -5
      vertex 2.55395 0.387191 5
    endloop
  endfacet
  facet normal -0.860728 -0.509065 0
    outer loop
      vertex 2.2784 1.15256 -5
      vertex 2.19525 1.29315 5
      vertex 2.19525 1.29315 -5
    endloop
  endfacet
  facet normal -0.860728 -0.509065 0
    outer loop
      vertex 2.19525 1.29315 5
      vertex 2.2784 1.15256 -5
      vertex 2.2784 1.15256 5
    endloop
  endfacet
  facet normal -0.999507 0.0314077 0
    outer loop
      vertex 2.59487 -0.263255 -5
      vertex 2.6 -0.1 5
      vertex 2.6 -0.1 -5
    endloop
  endfacet
  facet normal -0.999507 0.0314077 0
    outer loop
      vertex 2.6 -0.1 5
      vertex 2.59487 -0.263255 -5
      vertex 2.59487 -0.263255 5
    endloop
  endfacet
  facet normal 0.995563 -0.0941005 0
    outer loop
      vertex -2.59487 0.0632547 5
      vertex -2.5795 0.225866 -5
      vertex -2.5795 0.225866 5
    endloop
  endfacet
  facet normal 0.995563 -0.0941005 0
    outer loop
      vertex -2.5795 0.225866 -5
      vertex -2.59487 0.0632547 5
      vertex -2.59487 0.0632547 -5
    endloop
  endfacet
  facet normal -0.960293 -0.278994 0
    outer loop
      vertex 2.51832 0.546593 -5
      vertex 2.47275 0.703444 5
      vertex 2.47275 0.703444 -5
    endloop
  endfacet
  facet normal -0.960293 -0.278994 0
    outer loop
      vertex 2.47275 0.703444 5
      vertex 2.51832 0.546593 -5
      vertex 2.51832 0.546593 5
    endloop
  endfacet
  facet normal 0.98769 -0.156426 0
    outer loop
      vertex -2.5795 0.225866 5
      vertex -2.55395 0.387191 -5
      vertex -2.55395 0.387191 5
    endloop
  endfacet
  facet normal 0.98769 -0.156426 0
    outer loop
      vertex -2.55395 0.387191 -5
      vertex -2.5795 0.225866 5
      vertex -2.5795 0.225866 -5
    endloop
  endfacet
  facet normal -0.917755 -0.397147 0
    outer loop
      vertex 2.41742 0.857124 -5
      vertex 2.35255 1.00703 5
      vertex 2.35255 1.00703 -5
    endloop
  endfacet
  facet normal -0.917755 -0.397147 0
    outer loop
      vertex 2.35255 1.00703 5
      vertex 2.41742 0.857124 -5
      vertex 2.41742 0.857124 5
    endloop
  endfacet
  facet normal 0.940874 0.338755 0
    outer loop
      vertex -2.41742 -1.05712 5
      vertex -2.47275 -0.903444 -5
      vertex -2.47275 -0.903444 5
    endloop
  endfacet
  facet normal 0.940874 0.338755 0
    outer loop
      vertex -2.47275 -0.903444 -5
      vertex -2.41742 -1.05712 5
      vertex -2.41742 -1.05712 -5
    endloop
  endfacet
  facet normal 0.79017 -0.612888 0
    outer loop
      vertex -2.10344 1.42824 5
      vertex -2.04778 1.5 -5
      vertex -2.04778 1.5 5
    endloop
  endfacet
  facet normal 0.79017 -0.612888 0
    outer loop
      vertex -2.04778 1.5 -5
      vertex -2.10344 1.42824 5
      vertex -2.10344 1.42824 -5
    endloop
  endfacet
  facet normal 0.960293 0.278994 0
    outer loop
      vertex -2.47275 -0.903444 5
      vertex -2.51832 -0.746593 -5
      vertex -2.51832 -0.746593 5
    endloop
  endfacet
  facet normal 0.960293 0.278994 0
    outer loop
      vertex -2.51832 -0.746593 -5
      vertex -2.47275 -0.903444 5
      vertex -2.47275 -0.903444 -5
    endloop
  endfacet
  facet normal 0.999507 0.0314077 0
    outer loop
      vertex -2.59487 -0.263255 5
      vertex -2.6 -0.1 -5
      vertex -2.6 -0.1 5
    endloop
  endfacet
  facet normal 0.999507 0.0314077 0
    outer loop
      vertex -2.6 -0.1 -5
      vertex -2.59487 -0.263255 5
      vertex -2.59487 -0.263255 -5
    endloop
  endfacet
  facet normal 0.940877 -0.338748 0
    outer loop
      vertex -2.47275 0.703444 5
      vertex -2.41742 0.857124 -5
      vertex -2.41742 0.857124 5
    endloop
  endfacet
  facet normal 0.940877 -0.338748 0
    outer loop
      vertex -2.41742 0.857124 -5
      vertex -2.47275 0.703444 5
      vertex -2.47275 0.703444 -5
    endloop
  endfacet
  facet normal 0.960293 -0.278994 0
    outer loop
      vertex -2.51832 0.546593 5
      vertex -2.47275 0.703444 -5
      vertex -2.47275 0.703444 5
    endloop
  endfacet
  facet normal 0.960293 -0.278994 0
    outer loop
      vertex -2.47275 0.703444 -5
      vertex -2.51832 0.546593 5
      vertex -2.51832 0.546593 -5
    endloop
  endfacet
  facet normal 0.917759 0.397138 0
    outer loop
      vertex -2.35255 -1.20703 5
      vertex -2.41742 -1.05712 -5
      vertex -2.41742 -1.05712 5
    endloop
  endfacet
  facet normal 0.917759 0.397138 0
    outer loop
      vertex -2.41742 -1.05712 -5
      vertex -2.35255 -1.20703 5
      vertex -2.35255 -1.20703 -5
    endloop
  endfacet
  facet normal 0.999507 -0.0314078 0
    outer loop
      vertex -2.6 -0.1 5
      vertex -2.59487 0.0632547 -5
      vertex -2.59487 0.0632547 5
    endloop
  endfacet
  facet normal 0.999507 -0.0314078 0
    outer loop
      vertex -2.59487 0.0632547 -5
      vertex -2.6 -0.1 5
      vertex -2.6 -0.1 -5
    endloop
  endfacet
  facet normal -0.98769 0.156426 0
    outer loop
      vertex 2.55395 -0.587191 -5
      vertex 2.5795 -0.425866 5
      vertex 2.5795 -0.425866 -5
    endloop
  endfacet
  facet normal -0.98769 0.156426 0
    outer loop
      vertex 2.5795 -0.425866 5
      vertex 2.55395 -0.587191 -5
      vertex 2.55395 -0.587191 5
    endloop
  endfacet
  facet normal 0.89101 0.453984 0
    outer loop
      vertex -2.2784 -1.35256 5
      vertex -2.35255 -1.20703 -5
      vertex -2.35255 -1.20703 5
    endloop
  endfacet
  facet normal 0.89101 0.453984 0
    outer loop
      vertex -2.35255 -1.20703 -5
      vertex -2.2784 -1.35256 5
      vertex -2.2784 -1.35256 -5
    endloop
  endfacet
  facet normal -0.995563 -0.0941005 0
    outer loop
      vertex 2.59487 0.0632547 -5
      vertex 2.5795 0.225866 5
      vertex 2.5795 0.225866 -5
    endloop
  endfacet
  facet normal -0.995563 -0.0941005 0
    outer loop
      vertex 2.5795 0.225866 5
      vertex 2.59487 0.0632547 -5
      vertex 2.59487 0.0632547 5
    endloop
  endfacet
  facet normal 0.89101 -0.453984 0
    outer loop
      vertex -2.35255 1.00703 5
      vertex -2.2784 1.15256 -5
      vertex -2.2784 1.15256 5
    endloop
  endfacet
  facet normal 0.89101 -0.453984 0
    outer loop
      vertex -2.2784 1.15256 -5
      vertex -2.35255 1.00703 5
      vertex -2.35255 1.00703 -5
    endloop
  endfacet
  facet normal 0.975918 -0.21814 0
    outer loop
      vertex -2.55395 0.387191 5
      vertex -2.51832 0.546593 -5
      vertex -2.51832 0.546593 5
    endloop
  endfacet
  facet normal 0.975918 -0.21814 0
    outer loop
      vertex -2.51832 0.546593 -5
      vertex -2.55395 0.387191 5
      vertex -2.55395 0.387191 -5
    endloop
  endfacet
  facet normal -0.98769 -0.156426 0
    outer loop
      vertex 2.5795 0.225866 -5
      vertex 2.55395 0.387191 5
      vertex 2.55395 0.387191 -5
    endloop
  endfacet
  facet normal -0.98769 -0.156426 0
    outer loop
      vertex 2.55395 0.387191 5
      vertex 2.5795 0.225866 -5
      vertex 2.5795 0.225866 5
    endloop
  endfacet
  facet normal 0.98769 0.156426 0
    outer loop
      vertex -2.55395 -0.587191 5
      vertex -2.5795 -0.425866 -5
      vertex -2.5795 -0.425866 5
    endloop
  endfacet
  facet normal 0.98769 0.156426 0
    outer loop
      vertex -2.5795 -0.425866 -5
      vertex -2.55395 -0.587191 5
      vertex -2.55395 -0.587191 -5
    endloop
  endfacet
  facet normal 0.860728 -0.509065 0
    outer loop
      vertex -2.2784 1.15256 5
      vertex -2.19525 1.29315 -5
      vertex -2.19525 1.29315 5
    endloop
  endfacet
  facet normal 0.860728 -0.509065 0
    outer loop
      vertex -2.19525 1.29315 -5
      vertex -2.2784 1.15256 5
      vertex -2.2784 1.15256 -5
    endloop
  endfacet
  facet normal -0.940874 0.338755 0
    outer loop
      vertex 2.41742 -1.05712 -5
      vertex 2.47275 -0.903444 5
      vertex 2.47275 -0.903444 -5
    endloop
  endfacet
  facet normal -0.940874 0.338755 0
    outer loop
      vertex 2.47275 -0.903444 5
      vertex 2.41742 -1.05712 -5
      vertex 2.41742 -1.05712 5
    endloop
  endfacet
  facet normal -0.827072 0.562096 0
    outer loop
      vertex 2.10344 -1.62824 -5
      vertex 2.19525 -1.49315 5
      vertex 2.19525 -1.49315 -5
    endloop
  endfacet
  facet normal -0.827072 0.562096 0
    outer loop
      vertex 2.19525 -1.49315 5
      vertex 2.10344 -1.62824 -5
      vertex 2.10344 -1.62824 5
    endloop
  endfacet
  facet normal -0.827072 -0.562096 0
    outer loop
      vertex 2.19525 1.29315 -5
      vertex 2.10344 1.42824 5
      vertex 2.10344 1.42824 -5
    endloop
  endfacet
  facet normal -0.827072 -0.562096 0
    outer loop
      vertex 2.10344 1.42824 5
      vertex 2.19525 1.29315 -5
      vertex 2.19525 1.29315 5
    endloop
  endfacet
  facet normal -0.79017 0.612888 0
    outer loop
      vertex 2.04778 -1.7 -5
      vertex 2.10344 -1.62824 5
      vertex 2.10344 -1.62824 -5
    endloop
  endfacet
  facet normal -0.79017 0.612888 0
    outer loop
      vertex 2.10344 -1.62824 5
      vertex 2.04778 -1.7 -5
      vertex 2.04778 -1.7 5
    endloop
  endfacet
  facet normal 0.975918 0.21814 0
    outer loop
      vertex -2.51832 -0.746593 5
      vertex -2.55395 -0.587191 -5
      vertex -2.55395 -0.587191 5
    endloop
  endfacet
  facet normal 0.975918 0.21814 0
    outer loop
      vertex -2.55395 -0.587191 -5
      vertex -2.51832 -0.746593 5
      vertex -2.51832 -0.746593 -5
    endloop
  endfacet
  facet normal 0.995567 -0.0940504 0
    outer loop
      vertex 11.9054 1.396 5
      vertex 11.9763 2.14651 -5
      vertex 11.9763 2.14651 5
    endloop
  endfacet
  facet normal 0.995567 -0.0940504 0
    outer loop
      vertex 11.9763 2.14651 -5
      vertex 11.9054 1.396 5
      vertex 11.9054 1.396 -5
    endloop
  endfacet
  facet normal -0.218145 -0.975916 0
    outer loop
      vertex -2.98428 -8.723 -5
      vertex -2.24858 -8.88745 5
      vertex -2.98428 -8.723 5
    endloop
  endfacet
  facet normal -0.218145 -0.975916 -0
    outer loop
      vertex -2.24858 -8.88745 5
      vertex -2.98428 -8.723 -5
      vertex -2.24858 -8.88745 -5
    endloop
  endfacet
  facet normal -0.790161 -0.6129 0
    outer loop
      vertex -9.24616 -4.74909 -5
      vertex -9.7082 -4.15342 5
      vertex -9.7082 -4.15342 -5
    endloop
  endfacet
  facet normal -0.790161 -0.6129 0
    outer loop
      vertex -9.7082 -4.15342 5
      vertex -9.24616 -4.74909 -5
      vertex -9.24616 -4.74909 5
    endloop
  endfacet
  facet normal -0.790166 0.612893 0
    outer loop
      vertex -9.7082 9.95342 -5
      vertex -9.24616 10.5491 5
      vertex -9.24616 10.5491 -5
    endloop
  endfacet
  facet normal -0.790166 0.612893 0
    outer loop
      vertex -9.24616 10.5491 5
      vertex -9.7082 9.95342 -5
      vertex -9.7082 9.95342 5
    endloop
  endfacet
  facet normal 0.661365 0.750064 -0
    outer loop
      vertex 8.21456 11.6476 -5
      vertex 7.64909 12.1462 5
      vertex 8.21456 11.6476 5
    endloop
  endfacet
  facet normal 0.661365 0.750064 0
    outer loop
      vertex 7.64909 12.1462 5
      vertex 8.21456 11.6476 -5
      vertex 7.64909 12.1462 -5
    endloop
  endfacet
  facet normal -0.999506 0.0314381 0
    outer loop
      vertex -12 2.9 -5
      vertex -11.9763 3.65349 5
      vertex -11.9763 3.65349 -5
    endloop
  endfacet
  facet normal -0.999506 0.0314381 0
    outer loop
      vertex -11.9763 3.65349 5
      vertex -12 2.9 -5
      vertex -12 2.9 5
    endloop
  endfacet
  facet normal 0.999506 -0.0314381 0
    outer loop
      vertex 11.9763 2.14651 5
      vertex 12 2.9 -5
      vertex 12 2.9 5
    endloop
  endfacet
  facet normal 0.999506 -0.0314381 0
    outer loop
      vertex 12 2.9 -5
      vertex 11.9763 2.14651 5
      vertex 11.9763 2.14651 -5
    endloop
  endfacet
  facet normal -0.917752 -0.397154 0
    outer loop
      vertex -10.8579 -2.20935 -5
      vertex -11.1573 -1.51749 5
      vertex -11.1573 -1.51749 -5
    endloop
  endfacet
  facet normal -0.917752 -0.397154 0
    outer loop
      vertex -11.1573 -1.51749 5
      vertex -10.8579 -2.20935 -5
      vertex -10.8579 -2.20935 5
    endloop
  endfacet
  facet normal 0.218145 -0.975916 0
    outer loop
      vertex 2.24858 -8.88745 -5
      vertex 2.98428 -8.723 5
      vertex 2.24858 -8.88745 5
    endloop
  endfacet
  facet normal 0.218145 -0.975916 0
    outer loop
      vertex 2.98428 -8.723 5
      vertex 2.24858 -8.88745 -5
      vertex 2.98428 -8.723 -5
    endloop
  endfacet
  facet normal -0.0941024 -0.995563 0
    outer loop
      vertex -1.504 -9.00538 -5
      vertex -0.753486 -9.07632 5
      vertex -1.504 -9.00538 5
    endloop
  endfacet
  facet normal -0.0941024 -0.995563 -0
    outer loop
      vertex -0.753486 -9.07632 5
      vertex -1.504 -9.00538 -5
      vertex -0.753486 -9.07632 -5
    endloop
  endfacet
  facet normal 0.453945 0.89103 -0
    outer loop
      vertex 5.78104 13.4157 -5
      vertex 5.10935 13.7579 5
      vertex 5.78104 13.4157 5
    endloop
  endfacet
  facet normal 0.453945 0.89103 0
    outer loop
      vertex 5.10935 13.7579 5
      vertex 5.78104 13.4157 -5
      vertex 5.10935 13.7579 -5
    endloop
  endfacet
  facet normal 0.940863 -0.338786 0
    outer loop
      vertex 11.1573 -1.51749 5
      vertex 11.4127 -0.808203 -5
      vertex 11.4127 -0.808203 5
    endloop
  endfacet
  facet normal 0.940863 -0.338786 0
    outer loop
      vertex 11.4127 -0.808203 -5
      vertex 11.1573 -1.51749 5
      vertex 11.1573 -1.51749 -5
    endloop
  endfacet
  facet normal -0.827099 -0.562056 0
    outer loop
      vertex -9.7082 -4.15342 -5
      vertex -10.1319 -3.52992 5
      vertex -10.1319 -3.52992 -5
    endloop
  endfacet
  facet normal -0.827099 -0.562056 0
    outer loop
      vertex -10.1319 -3.52992 5
      vertex -9.7082 -4.15342 -5
      vertex -9.7082 -4.15342 5
    endloop
  endfacet
  facet normal 0.397154 0.917752 -0
    outer loop
      vertex 5.10935 13.7579 -5
      vertex 4.41749 14.0573 5
      vertex 5.10935 13.7579 5
    endloop
  endfacet
  facet normal 0.397154 0.917752 0
    outer loop
      vertex 4.41749 14.0573 5
      vertex 5.10935 13.7579 -5
      vertex 4.41749 14.0573 -5
    endloop
  endfacet
  facet normal 0.960301 -0.278967 0
    outer loop
      vertex 11.4127 -0.808203 5
      vertex 11.623 -0.0842777 -5
      vertex 11.623 -0.0842777 5
    endloop
  endfacet
  facet normal 0.960301 -0.278967 0
    outer loop
      vertex 11.623 -0.0842777 -5
      vertex 11.4127 -0.808203 5
      vertex 11.4127 -0.808203 -5
    endloop
  endfacet
  facet normal -0.278969 0.9603 0
    outer loop
      vertex -2.98428 14.523 -5
      vertex -3.7082 14.3127 5
      vertex -2.98428 14.523 5
    endloop
  endfacet
  facet normal -0.278969 0.9603 0
    outer loop
      vertex -3.7082 14.3127 5
      vertex -2.98428 14.523 -5
      vertex -3.7082 14.3127 -5
    endloop
  endfacet
  facet normal 0.0940499 0.995567 -0
    outer loop
      vertex 1.504 14.8054 -5
      vertex 0.753486 14.8763 5
      vertex 1.504 14.8054 5
    endloop
  endfacet
  facet normal 0.0940499 0.995567 0
    outer loop
      vertex 0.753486 14.8763 5
      vertex 1.504 14.8054 -5
      vertex 0.753486 14.8763 -5
    endloop
  endfacet
  facet normal 0.999506 0.0314381 0
    outer loop
      vertex 12 2.9 5
      vertex 11.9763 3.65349 -5
      vertex 11.9763 3.65349 5
    endloop
  endfacet
  facet normal 0.999506 0.0314381 0
    outer loop
      vertex 11.9763 3.65349 -5
      vertex 12 2.9 5
      vertex 12 2.9 -5
    endloop
  endfacet
  facet normal -0.562056 0.827099 0
    outer loop
      vertex -6.42992 13.0319 -5
      vertex -7.05342 12.6082 5
      vertex -6.42992 13.0319 5
    endloop
  endfacet
  facet normal -0.562056 0.827099 0
    outer loop
      vertex -7.05342 12.6082 5
      vertex -6.42992 13.0319 -5
      vertex -7.05342 12.6082 -5
    endloop
  endfacet
  facet normal 0.97593 0.218082 0
    outer loop
      vertex 11.7874 5.14858 5
      vertex 11.623 5.88428 -5
      vertex 11.623 5.88428 5
    endloop
  endfacet
  facet normal 0.97593 0.218082 0
    outer loop
      vertex 11.623 5.88428 -5
      vertex 11.7874 5.14858 5
      vertex 11.7874 5.14858 -5
    endloop
  endfacet
  facet normal -0.940863 -0.338786 0
    outer loop
      vertex -11.1573 -1.51749 -5
      vertex -11.4127 -0.808203 5
      vertex -11.4127 -0.808203 -5
    endloop
  endfacet
  facet normal -0.940863 -0.338786 0
    outer loop
      vertex -11.4127 -0.808203 5
      vertex -11.1573 -1.51749 -5
      vertex -11.1573 -1.51749 5
    endloop
  endfacet
  facet normal 0.987674 -0.156526 0
    outer loop
      vertex 11.7874 0.651425 5
      vertex 11.9054 1.396 -5
      vertex 11.9054 1.396 5
    endloop
  endfacet
  facet normal 0.987674 -0.156526 0
    outer loop
      vertex 11.9054 1.396 -5
      vertex 11.7874 0.651425 5
      vertex 11.7874 0.651425 -5
    endloop
  endfacet
  facet normal -0.338785 0.940864 0
    outer loop
      vertex -3.7082 14.3127 -5
      vertex -4.41749 14.0573 5
      vertex -3.7082 14.3127 5
    endloop
  endfacet
  facet normal -0.338785 0.940864 0
    outer loop
      vertex -4.41749 14.0573 5
      vertex -3.7082 14.3127 -5
      vertex -4.41749 14.0573 -5
    endloop
  endfacet
  facet normal -0.827099 0.562056 0
    outer loop
      vertex -10.1319 9.32992 -5
      vertex -9.7082 9.95342 5
      vertex -9.7082 9.95342 -5
    endloop
  endfacet
  facet normal -0.827099 0.562056 0
    outer loop
      vertex -9.7082 9.95342 5
      vertex -10.1319 9.32992 -5
      vertex -10.1319 9.32992 5
    endloop
  endfacet
  facet normal -0.338738 -0.940881 0
    outer loop
      vertex -4.41749 -8.25732 -5
      vertex -3.7082 -8.51268 5
      vertex -4.41749 -8.25732 5
    endloop
  endfacet
  facet normal -0.338738 -0.940881 -0
    outer loop
      vertex -3.7082 -8.51268 5
      vertex -4.41749 -8.25732 -5
      vertex -3.7082 -8.51268 -5
    endloop
  endfacet
  facet normal 0.917752 -0.397154 0
    outer loop
      vertex 10.8579 -2.20935 5
      vertex 11.1573 -1.51749 -5
      vertex 11.1573 -1.51749 5
    endloop
  endfacet
  facet normal 0.917752 -0.397154 0
    outer loop
      vertex 11.1573 -1.51749 -5
      vertex 10.8579 -2.20935 5
      vertex 10.8579 -2.20935 -5
    endloop
  endfacet
  facet normal 0.509094 0.860711 -0
    outer loop
      vertex 6.42992 13.0319 -5
      vertex 5.78104 13.4157 5
      vertex 6.42992 13.0319 5
    endloop
  endfacet
  facet normal 0.509094 0.860711 0
    outer loop
      vertex 5.78104 13.4157 5
      vertex 6.42992 13.0319 -5
      vertex 5.78104 13.4157 -5
    endloop
  endfacet
  facet normal -0.6129 -0.790161 0
    outer loop
      vertex -7.64909 -6.34616 -5
      vertex -7.05342 -6.8082 5
      vertex -7.64909 -6.34616 5
    endloop
  endfacet
  facet normal -0.6129 -0.790161 -0
    outer loop
      vertex -7.05342 -6.8082 5
      vertex -7.64909 -6.34616 -5
      vertex -7.05342 -6.8082 -5
    endloop
  endfacet
  facet normal 0.860711 0.509094 0
    outer loop
      vertex 10.5157 8.68104 5
      vertex 10.1319 9.32992 -5
      vertex 10.1319 9.32992 5
    endloop
  endfacet
  facet normal 0.860711 0.509094 0
    outer loop
      vertex 10.1319 9.32992 -5
      vertex 10.5157 8.68104 5
      vertex 10.5157 8.68104 -5
    endloop
  endfacet
  facet normal 0.827099 0.562056 0
    outer loop
      vertex 10.1319 9.32992 5
      vertex 9.7082 9.95342 -5
      vertex 9.7082 9.95342 5
    endloop
  endfacet
  facet normal 0.827099 0.562056 0
    outer loop
      vertex 9.7082 9.95342 -5
      vertex 10.1319 9.32992 5
      vertex 10.1319 9.32992 -5
    endloop
  endfacet
  facet normal 0.156435 -0.987688 0
    outer loop
      vertex 1.504 -9.00538 -5
      vertex 2.24858 -8.88745 5
      vertex 1.504 -9.00538 5
    endloop
  endfacet
  facet normal 0.156435 -0.987688 0
    outer loop
      vertex 2.24858 -8.88745 5
      vertex 1.504 -9.00538 -5
      vertex 2.24858 -8.88745 -5
    endloop
  endfacet
  facet normal 0.0314118 -0.999507 0
    outer loop
      vertex 0 -9.1 -5
      vertex 0.753486 -9.07632 5
      vertex 0 -9.1 5
    endloop
  endfacet
  facet normal 0.0314118 -0.999507 0
    outer loop
      vertex 0.753486 -9.07632 5
      vertex 0 -9.1 -5
      vertex 0.753486 -9.07632 -5
    endloop
  endfacet
  facet normal 0.987674 0.156525 0
    outer loop
      vertex 11.9054 4.404 5
      vertex 11.7874 5.14858 -5
      vertex 11.7874 5.14858 5
    endloop
  endfacet
  facet normal 0.987674 0.156525 0
    outer loop
      vertex 11.7874 5.14858 -5
      vertex 11.9054 4.404 5
      vertex 11.9054 4.404 -5
    endloop
  endfacet
  facet normal 0.9603 0.278969 0
    outer loop
      vertex 11.623 5.88428 5
      vertex 11.4127 6.6082 -5
      vertex 11.4127 6.6082 5
    endloop
  endfacet
  facet normal 0.9603 0.278969 0
    outer loop
      vertex 11.4127 6.6082 -5
      vertex 11.623 5.88428 5
      vertex 11.623 5.88428 -5
    endloop
  endfacet
  facet normal 0.750121 0.6613 0
    outer loop
      vertex 9.24616 10.5491 5
      vertex 8.74762 11.1146 -5
      vertex 8.74762 11.1146 5
    endloop
  endfacet
  facet normal 0.750121 0.6613 0
    outer loop
      vertex 8.74762 11.1146 -5
      vertex 9.24616 10.5491 5
      vertex 9.24616 10.5491 -5
    endloop
  endfacet
  facet normal -0.661365 0.750064 0
    outer loop
      vertex -7.64909 12.1462 -5
      vertex -8.21456 11.6476 5
      vertex -7.64909 12.1462 5
    endloop
  endfacet
  facet normal -0.661365 0.750064 0
    outer loop
      vertex -8.21456 11.6476 5
      vertex -7.64909 12.1462 -5
      vertex -8.21456 11.6476 -5
    endloop
  endfacet
  facet normal 0.995567 0.0940504 0
    outer loop
      vertex 11.9763 3.65349 5
      vertex 11.9054 4.404 -5
      vertex 11.9054 4.404 5
    endloop
  endfacet
  facet normal 0.995567 0.0940504 0
    outer loop
      vertex 11.9054 4.404 -5
      vertex 11.9763 3.65349 5
      vertex 11.9763 3.65349 -5
    endloop
  endfacet
  facet normal -0.9603 0.278969 0
    outer loop
      vertex -11.623 5.88428 -5
      vertex -11.4127 6.6082 5
      vertex -11.4127 6.6082 -5
    endloop
  endfacet
  facet normal -0.9603 0.278969 0
    outer loop
      vertex -11.4127 6.6082 5
      vertex -11.623 5.88428 -5
      vertex -11.623 5.88428 5
    endloop
  endfacet
  facet normal 0.338785 0.940864 -0
    outer loop
      vertex 4.41749 14.0573 -5
      vertex 3.7082 14.3127 5
      vertex 4.41749 14.0573 5
    endloop
  endfacet
  facet normal 0.338785 0.940864 0
    outer loop
      vertex 3.7082 14.3127 5
      vertex 4.41749 14.0573 -5
      vertex 3.7082 14.3127 -5
    endloop
  endfacet
  facet normal 0.89103 0.453945 0
    outer loop
      vertex 10.8579 8.00935 5
      vertex 10.5157 8.68104 -5
      vertex 10.5157 8.68104 5
    endloop
  endfacet
  facet normal 0.89103 0.453945 0
    outer loop
      vertex 10.5157 8.68104 -5
      vertex 10.8579 8.00935 5
      vertex 10.8579 8.00935 -5
    endloop
  endfacet
  facet normal 0.0314383 0.999506 -0
    outer loop
      vertex 0.753486 14.8763 -5
      vertex 0 14.9 5
      vertex 0.753486 14.8763 5
    endloop
  endfacet
  facet normal 0.0314383 0.999506 0
    outer loop
      vertex 0 14.9 5
      vertex 0.753486 14.8763 -5
      vertex 0 14.9 -5
    endloop
  endfacet
  facet normal 0.707107 -0.707107 0
    outer loop
      vertex 8.21456 -5.84762 5
      vertex 8.74762 -5.31456 -5
      vertex 8.74762 -5.31456 5
    endloop
  endfacet
  facet normal 0.707107 -0.707107 0
    outer loop
      vertex 8.74762 -5.31456 -5
      vertex 8.21456 -5.84762 5
      vertex 8.21456 -5.84762 -5
    endloop
  endfacet
  facet normal 0.278993 -0.960293 0
    outer loop
      vertex 2.98428 -8.723 -5
      vertex 3.7082 -8.51268 5
      vertex 2.98428 -8.723 5
    endloop
  endfacet
  facet normal 0.278993 -0.960293 0
    outer loop
      vertex 3.7082 -8.51268 5
      vertex 2.98428 -8.723 -5
      vertex 3.7082 -8.51268 -5
    endloop
  endfacet
  facet normal -0.750104 -0.66132 0
    outer loop
      vertex -8.74762 -5.31456 -5
      vertex -9.24616 -4.74909 5
      vertex -9.24616 -4.74909 -5
    endloop
  endfacet
  facet normal -0.750104 -0.66132 0
    outer loop
      vertex -9.24616 -4.74909 5
      vertex -8.74762 -5.31456 -5
      vertex -8.74762 -5.31456 5
    endloop
  endfacet
  facet normal 0.562056 0.827099 -0
    outer loop
      vertex 7.05342 12.6082 -5
      vertex 6.42992 13.0319 5
      vertex 7.05342 12.6082 5
    endloop
  endfacet
  facet normal 0.562056 0.827099 0
    outer loop
      vertex 6.42992 13.0319 5
      vertex 7.05342 12.6082 -5
      vertex 6.42992 13.0319 -5
    endloop
  endfacet
  facet normal -0.940864 0.338785 0
    outer loop
      vertex -11.4127 6.6082 -5
      vertex -11.1573 7.31749 5
      vertex -11.1573 7.31749 -5
    endloop
  endfacet
  facet normal -0.940864 0.338785 0
    outer loop
      vertex -11.1573 7.31749 5
      vertex -11.4127 6.6082 -5
      vertex -11.4127 6.6082 5
    endloop
  endfacet
  facet normal 0.707067 0.707147 0
    outer loop
      vertex 8.74762 11.1146 5
      vertex 8.21456 11.6476 -5
      vertex 8.21456 11.6476 5
    endloop
  endfacet
  facet normal 0.707067 0.707147 0
    outer loop
      vertex 8.21456 11.6476 -5
      vertex 8.74762 11.1146 5
      vertex 8.74762 11.1146 -5
    endloop
  endfacet
  facet normal -0.0314383 0.999506 0
    outer loop
      vertex 0 14.9 -5
      vertex -0.753486 14.8763 5
      vertex 0 14.9 5
    endloop
  endfacet
  facet normal -0.0314383 0.999506 0
    outer loop
      vertex -0.753486 14.8763 5
      vertex 0 14.9 -5
      vertex -0.753486 14.8763 -5
    endloop
  endfacet
  facet normal -0.987674 -0.156526 0
    outer loop
      vertex -11.7874 0.651425 -5
      vertex -11.9054 1.396 5
      vertex -11.9054 1.396 -5
    endloop
  endfacet
  facet normal -0.987674 -0.156526 0
    outer loop
      vertex -11.9054 1.396 5
      vertex -11.7874 0.651425 -5
      vertex -11.7874 0.651425 5
    endloop
  endfacet
  facet normal -0.960301 -0.278967 0
    outer loop
      vertex -11.4127 -0.808203 -5
      vertex -11.623 -0.0842777 5
      vertex -11.623 -0.0842777 -5
    endloop
  endfacet
  facet normal -0.960301 -0.278967 0
    outer loop
      vertex -11.623 -0.0842777 5
      vertex -11.4127 -0.808203 -5
      vertex -11.4127 -0.808203 5
    endloop
  endfacet
  facet normal 0.612866 0.790186 -0
    outer loop
      vertex 7.64909 12.1462 -5
      vertex 7.05342 12.6082 5
      vertex 7.64909 12.1462 5
    endloop
  endfacet
  facet normal 0.612866 0.790186 0
    outer loop
      vertex 7.05342 12.6082 5
      vertex 7.64909 12.1462 -5
      vertex 7.05342 12.6082 -5
    endloop
  endfacet
  facet normal -0.975931 -0.218081 0
    outer loop
      vertex -11.623 -0.0842777 -5
      vertex -11.7874 0.651425 5
      vertex -11.7874 0.651425 -5
    endloop
  endfacet
  facet normal -0.975931 -0.218081 0
    outer loop
      vertex -11.7874 0.651425 5
      vertex -11.623 -0.0842777 -5
      vertex -11.623 -0.0842777 5
    endloop
  endfacet
  facet normal -0.0314118 -0.999507 0
    outer loop
      vertex -0.753486 -9.07632 -5
      vertex 0 -9.1 5
      vertex -0.753486 -9.07632 5
    endloop
  endfacet
  facet normal -0.0314118 -0.999507 -0
    outer loop
      vertex 0 -9.1 5
      vertex -0.753486 -9.07632 -5
      vertex 0 -9.1 -5
    endloop
  endfacet
  facet normal -0.0940499 0.995567 0
    outer loop
      vertex -0.753486 14.8763 -5
      vertex -1.504 14.8054 5
      vertex -0.753486 14.8763 5
    endloop
  endfacet
  facet normal -0.0940499 0.995567 0
    outer loop
      vertex -1.504 14.8054 5
      vertex -0.753486 14.8763 -5
      vertex -1.504 14.8054 -5
    endloop
  endfacet
  facet normal 0.156525 0.987674 -0
    outer loop
      vertex 2.24858 14.6874 -5
      vertex 1.504 14.8054 5
      vertex 2.24858 14.6874 5
    endloop
  endfacet
  facet normal 0.156525 0.987674 0
    outer loop
      vertex 1.504 14.8054 5
      vertex 2.24858 14.6874 -5
      vertex 1.504 14.8054 -5
    endloop
  endfacet
  facet normal 0.509045 -0.86074 0
    outer loop
      vertex 5.78104 -7.61568 -5
      vertex 6.42992 -7.23193 5
      vertex 5.78104 -7.61568 5
    endloop
  endfacet
  facet normal 0.509045 -0.86074 0
    outer loop
      vertex 6.42992 -7.23193 5
      vertex 5.78104 -7.61568 -5
      vertex 6.42992 -7.23193 -5
    endloop
  endfacet
  facet normal -0.156525 0.987674 0
    outer loop
      vertex -1.504 14.8054 -5
      vertex -2.24858 14.6874 5
      vertex -1.504 14.8054 5
    endloop
  endfacet
  facet normal -0.156525 0.987674 0
    outer loop
      vertex -2.24858 14.6874 5
      vertex -1.504 14.8054 -5
      vertex -2.24858 14.6874 -5
    endloop
  endfacet
  facet normal 0.6129 -0.790161 0
    outer loop
      vertex 7.05342 -6.8082 -5
      vertex 7.64909 -6.34616 5
      vertex 7.05342 -6.8082 5
    endloop
  endfacet
  facet normal 0.6129 -0.790161 0
    outer loop
      vertex 7.64909 -6.34616 5
      vertex 7.05342 -6.8082 -5
      vertex 7.64909 -6.34616 -5
    endloop
  endfacet
  facet normal -0.999506 -0.0314381 0
    outer loop
      vertex -11.9763 2.14651 -5
      vertex -12 2.9 5
      vertex -12 2.9 -5
    endloop
  endfacet
  facet normal -0.999506 -0.0314381 0
    outer loop
      vertex -12 2.9 5
      vertex -11.9763 2.14651 -5
      vertex -11.9763 2.14651 5
    endloop
  endfacet
  facet normal -0.860711 0.509094 0
    outer loop
      vertex -10.5157 8.68104 -5
      vertex -10.1319 9.32992 5
      vertex -10.1319 9.32992 -5
    endloop
  endfacet
  facet normal -0.860711 0.509094 0
    outer loop
      vertex -10.1319 9.32992 5
      vertex -10.5157 8.68104 -5
      vertex -10.5157 8.68104 5
    endloop
  endfacet
  facet normal 0.975931 -0.218081 0
    outer loop
      vertex 11.623 -0.0842777 5
      vertex 11.7874 0.651425 -5
      vertex 11.7874 0.651425 5
    endloop
  endfacet
  facet normal 0.975931 -0.218081 0
    outer loop
      vertex 11.7874 0.651425 -5
      vertex 11.623 -0.0842777 5
      vertex 11.623 -0.0842777 -5
    endloop
  endfacet
  facet normal 0.453987 -0.891008 0
    outer loop
      vertex 5.10935 -7.95792 -5
      vertex 5.78104 -7.61568 5
      vertex 5.10935 -7.95792 5
    endloop
  endfacet
  facet normal 0.453987 -0.891008 0
    outer loop
      vertex 5.78104 -7.61568 5
      vertex 5.10935 -7.95792 -5
      vertex 5.78104 -7.61568 -5
    endloop
  endfacet
  facet normal -0.156435 -0.987688 0
    outer loop
      vertex -2.24858 -8.88745 -5
      vertex -1.504 -9.00538 5
      vertex -2.24858 -8.88745 5
    endloop
  endfacet
  facet normal -0.156435 -0.987688 -0
    outer loop
      vertex -1.504 -9.00538 5
      vertex -2.24858 -8.88745 -5
      vertex -1.504 -9.00538 -5
    endloop
  endfacet
  facet normal -0.397154 0.917752 0
    outer loop
      vertex -4.41749 14.0573 -5
      vertex -5.10935 13.7579 5
      vertex -4.41749 14.0573 5
    endloop
  endfacet
  facet normal -0.397154 0.917752 0
    outer loop
      vertex -5.10935 13.7579 5
      vertex -4.41749 14.0573 -5
      vertex -5.10935 13.7579 -5
    endloop
  endfacet
  facet normal -0.453987 -0.891008 0
    outer loop
      vertex -5.78104 -7.61568 -5
      vertex -5.10935 -7.95792 5
      vertex -5.78104 -7.61568 5
    endloop
  endfacet
  facet normal -0.453987 -0.891008 -0
    outer loop
      vertex -5.10935 -7.95792 5
      vertex -5.78104 -7.61568 -5
      vertex -5.10935 -7.95792 -5
    endloop
  endfacet
  facet normal 0.790166 0.612893 0
    outer loop
      vertex 9.7082 9.95342 5
      vertex 9.24616 10.5491 -5
      vertex 9.24616 10.5491 5
    endloop
  endfacet
  facet normal 0.790166 0.612893 0
    outer loop
      vertex 9.24616 10.5491 -5
      vertex 9.7082 9.95342 5
      vertex 9.7082 9.95342 -5
    endloop
  endfacet
  facet normal -0.987674 0.156525 0
    outer loop
      vertex -11.9054 4.404 -5
      vertex -11.7874 5.14858 5
      vertex -11.7874 5.14858 -5
    endloop
  endfacet
  facet normal -0.987674 0.156525 0
    outer loop
      vertex -11.7874 5.14858 5
      vertex -11.9054 4.404 -5
      vertex -11.9054 4.404 5
    endloop
  endfacet
  facet normal -0.97593 0.218082 0
    outer loop
      vertex -11.7874 5.14858 -5
      vertex -11.623 5.88428 5
      vertex -11.623 5.88428 -5
    endloop
  endfacet
  facet normal -0.97593 0.218082 0
    outer loop
      vertex -11.623 5.88428 5
      vertex -11.7874 5.14858 -5
      vertex -11.7874 5.14858 5
    endloop
  endfacet
  facet normal -0.612866 0.790186 0
    outer loop
      vertex -7.05342 12.6082 -5
      vertex -7.64909 12.1462 5
      vertex -7.05342 12.6082 5
    endloop
  endfacet
  facet normal -0.612866 0.790186 0
    outer loop
      vertex -7.64909 12.1462 5
      vertex -7.05342 12.6082 -5
      vertex -7.64909 12.1462 -5
    endloop
  endfacet
  facet normal 0.89103 -0.453945 0
    outer loop
      vertex 10.5157 -2.88104 5
      vertex 10.8579 -2.20935 -5
      vertex 10.8579 -2.20935 5
    endloop
  endfacet
  facet normal 0.89103 -0.453945 0
    outer loop
      vertex 10.8579 -2.20935 -5
      vertex 10.5157 -2.88104 5
      vertex 10.5157 -2.88104 -5
    endloop
  endfacet
  facet normal 0.397154 -0.917752 0
    outer loop
      vertex 4.41749 -8.25732 -5
      vertex 5.10935 -7.95792 5
      vertex 4.41749 -8.25732 5
    endloop
  endfacet
  facet normal 0.397154 -0.917752 0
    outer loop
      vertex 5.10935 -7.95792 5
      vertex 4.41749 -8.25732 -5
      vertex 5.10935 -7.95792 -5
    endloop
  endfacet
  facet normal -0.89103 0.453945 0
    outer loop
      vertex -10.8579 8.00935 -5
      vertex -10.5157 8.68104 5
      vertex -10.5157 8.68104 -5
    endloop
  endfacet
  facet normal -0.89103 0.453945 0
    outer loop
      vertex -10.5157 8.68104 5
      vertex -10.8579 8.00935 -5
      vertex -10.8579 8.00935 5
    endloop
  endfacet
  facet normal -0.453945 0.89103 0
    outer loop
      vertex -5.10935 13.7579 -5
      vertex -5.78104 13.4157 5
      vertex -5.10935 13.7579 5
    endloop
  endfacet
  facet normal -0.453945 0.89103 0
    outer loop
      vertex -5.78104 13.4157 5
      vertex -5.10935 13.7579 -5
      vertex -5.78104 13.4157 -5
    endloop
  endfacet
  facet normal -0.750121 0.6613 0
    outer loop
      vertex -9.24616 10.5491 -5
      vertex -8.74762 11.1146 5
      vertex -8.74762 11.1146 -5
    endloop
  endfacet
  facet normal -0.750121 0.6613 0
    outer loop
      vertex -8.74762 11.1146 5
      vertex -9.24616 10.5491 -5
      vertex -9.24616 10.5491 5
    endloop
  endfacet
  facet normal -0.218082 0.97593 0
    outer loop
      vertex -2.24858 14.6874 -5
      vertex -2.98428 14.523 5
      vertex -2.24858 14.6874 5
    endloop
  endfacet
  facet normal -0.218082 0.97593 0
    outer loop
      vertex -2.98428 14.523 5
      vertex -2.24858 14.6874 -5
      vertex -2.98428 14.523 -5
    endloop
  endfacet
  facet normal -0.995567 -0.0940504 0
    outer loop
      vertex -11.9054 1.396 -5
      vertex -11.9763 2.14651 5
      vertex -11.9763 2.14651 -5
    endloop
  endfacet
  facet normal -0.995567 -0.0940504 0
    outer loop
      vertex -11.9763 2.14651 5
      vertex -11.9054 1.396 -5
      vertex -11.9054 1.396 5
    endloop
  endfacet
  facet normal -0.707107 -0.707107 0
    outer loop
      vertex -8.21456 -5.84762 -5
      vertex -8.74762 -5.31456 5
      vertex -8.74762 -5.31456 -5
    endloop
  endfacet
  facet normal -0.707107 -0.707107 0
    outer loop
      vertex -8.74762 -5.31456 5
      vertex -8.21456 -5.84762 -5
      vertex -8.21456 -5.84762 5
    endloop
  endfacet
  facet normal -0.917752 0.397154 0
    outer loop
      vertex -11.1573 7.31749 -5
      vertex -10.8579 8.00935 5
      vertex -10.8579 8.00935 -5
    endloop
  endfacet
  facet normal -0.917752 0.397154 0
    outer loop
      vertex -10.8579 8.00935 5
      vertex -11.1573 7.31749 -5
      vertex -11.1573 7.31749 5
    endloop
  endfacet
  facet normal 0.750104 -0.66132 0
    outer loop
      vertex 8.74762 -5.31456 5
      vertex 9.24616 -4.74909 -5
      vertex 9.24616 -4.74909 5
    endloop
  endfacet
  facet normal 0.750104 -0.66132 0
    outer loop
      vertex 9.24616 -4.74909 -5
      vertex 8.74762 -5.31456 5
      vertex 8.74762 -5.31456 -5
    endloop
  endfacet
  facet normal 0.790161 -0.6129 0
    outer loop
      vertex 9.24616 -4.74909 5
      vertex 9.7082 -4.15342 -5
      vertex 9.7082 -4.15342 5
    endloop
  endfacet
  facet normal 0.790161 -0.6129 0
    outer loop
      vertex 9.7082 -4.15342 -5
      vertex 9.24616 -4.74909 5
      vertex 9.24616 -4.74909 -5
    endloop
  endfacet
  facet normal 0.917752 0.397154 0
    outer loop
      vertex 11.1573 7.31749 5
      vertex 10.8579 8.00935 -5
      vertex 10.8579 8.00935 5
    endloop
  endfacet
  facet normal 0.917752 0.397154 0
    outer loop
      vertex 10.8579 8.00935 -5
      vertex 11.1573 7.31749 5
      vertex 11.1573 7.31749 -5
    endloop
  endfacet
  facet normal 0.940864 0.338785 0
    outer loop
      vertex 11.4127 6.6082 5
      vertex 11.1573 7.31749 -5
      vertex 11.1573 7.31749 5
    endloop
  endfacet
  facet normal 0.940864 0.338785 0
    outer loop
      vertex 11.1573 7.31749 -5
      vertex 11.4127 6.6082 5
      vertex 11.4127 6.6082 -5
    endloop
  endfacet
  facet normal -0.707067 0.707147 0
    outer loop
      vertex -8.74762 11.1146 -5
      vertex -8.21456 11.6476 5
      vertex -8.21456 11.6476 -5
    endloop
  endfacet
  facet normal -0.707067 0.707147 0
    outer loop
      vertex -8.21456 11.6476 5
      vertex -8.74762 11.1146 -5
      vertex -8.74762 11.1146 5
    endloop
  endfacet
  facet normal 0.278969 0.9603 -0
    outer loop
      vertex 3.7082 14.3127 -5
      vertex 2.98428 14.523 5
      vertex 3.7082 14.3127 5
    endloop
  endfacet
  facet normal 0.278969 0.9603 0
    outer loop
      vertex 2.98428 14.523 5
      vertex 3.7082 14.3127 -5
      vertex 2.98428 14.523 -5
    endloop
  endfacet
  facet normal 0.0941024 -0.995563 0
    outer loop
      vertex 0.753486 -9.07632 -5
      vertex 1.504 -9.00538 5
      vertex 0.753486 -9.07632 5
    endloop
  endfacet
  facet normal 0.0941024 -0.995563 0
    outer loop
      vertex 1.504 -9.00538 5
      vertex 0.753486 -9.07632 -5
      vertex 1.504 -9.00538 -5
    endloop
  endfacet
  facet normal 0.66132 -0.750104 0
    outer loop
      vertex 7.64909 -6.34616 -5
      vertex 8.21456 -5.84762 5
      vertex 7.64909 -6.34616 5
    endloop
  endfacet
  facet normal 0.66132 -0.750104 0
    outer loop
      vertex 8.21456 -5.84762 5
      vertex 7.64909 -6.34616 -5
      vertex 8.21456 -5.84762 -5
    endloop
  endfacet
  facet normal -0.509094 0.860711 0
    outer loop
      vertex -5.78104 13.4157 -5
      vertex -6.42992 13.0319 5
      vertex -5.78104 13.4157 5
    endloop
  endfacet
  facet normal -0.509094 0.860711 0
    outer loop
      vertex -6.42992 13.0319 5
      vertex -5.78104 13.4157 -5
      vertex -6.42992 13.0319 -5
    endloop
  endfacet
  facet normal 0.827099 -0.562056 0
    outer loop
      vertex 9.7082 -4.15342 5
      vertex 10.1319 -3.52992 -5
      vertex 10.1319 -3.52992 5
    endloop
  endfacet
  facet normal 0.827099 -0.562056 0
    outer loop
      vertex 10.1319 -3.52992 -5
      vertex 9.7082 -4.15342 5
      vertex 9.7082 -4.15342 -5
    endloop
  endfacet
  facet normal 0.562083 -0.827081 0
    outer loop
      vertex 6.42992 -7.23193 -5
      vertex 7.05342 -6.8082 5
      vertex 6.42992 -7.23193 5
    endloop
  endfacet
  facet normal 0.562083 -0.827081 0
    outer loop
      vertex 7.05342 -6.8082 5
      vertex 6.42992 -7.23193 -5
      vertex 7.05342 -6.8082 -5
    endloop
  endfacet
  facet normal 0.860711 -0.509094 0
    outer loop
      vertex 10.1319 -3.52992 5
      vertex 10.5157 -2.88104 -5
      vertex 10.5157 -2.88104 5
    endloop
  endfacet
  facet normal 0.860711 -0.509094 0
    outer loop
      vertex 10.5157 -2.88104 -5
      vertex 10.1319 -3.52992 5
      vertex 10.1319 -3.52992 -5
    endloop
  endfacet
  facet normal 0.218082 0.97593 -0
    outer loop
      vertex 2.98428 14.523 -5
      vertex 2.24858 14.6874 5
      vertex 2.98428 14.523 5
    endloop
  endfacet
  facet normal 0.218082 0.97593 0
    outer loop
      vertex 2.24858 14.6874 5
      vertex 2.98428 14.523 -5
      vertex 2.24858 14.6874 -5
    endloop
  endfacet
  facet normal 0 0 1
    outer loop
      vertex 2.35255 1.00703 5
      vertex 12 2.9 5
      vertex 11.9763 3.65349 5
    endloop
  endfacet
  facet normal 0 0 1
    outer loop
      vertex 2.2784 1.15256 5
      vertex 11.9763 3.65349 5
      vertex 11.9054 4.404 5
    endloop
  endfacet
  facet normal 0 -0 1
    outer loop
      vertex 2.41742 0.857124 5
      vertex 12 2.9 5
      vertex 2.35255 1.00703 5
    endloop
  endfacet
  facet normal 0 0 1
    outer loop
      vertex 2.19525 1.29315 5
      vertex 11.9054 4.404 5
      vertex 11.7874 5.14858 5
    endloop
  endfacet
  facet normal 0 0 1
    outer loop
      vertex 12 2.9 5
      vertex 2.41742 0.857124 5
      vertex 11.9763 2.14651 5
    endloop
  endfacet
  facet normal 0 0 1
    outer loop
      vertex 2.19525 1.29315 5
      vertex 11.7874 5.14858 5
      vertex 11.623 5.88428 5
    endloop
  endfacet
  facet normal 0 -0 1
    outer loop
      vertex 2.47275 0.703444 5
      vertex 11.9763 2.14651 5
      vertex 2.41742 0.857124 5
    endloop
  endfacet
  facet normal 0 0 1
    outer loop
      vertex 2.10344 1.42824 5
      vertex 11.623 5.88428 5
      vertex 11.4127 6.6082 5
    endloop
  endfacet
  facet normal 0 0 1
    outer loop
      vertex 11.9763 2.14651 5
      vertex 2.47275 0.703444 5
      vertex 11.9054 1.396 5
    endloop
  endfacet
  facet normal 0 0 1
    outer loop
      vertex 2.04778 1.5 5
      vertex 11.4127 6.6082 5
      vertex 11.1573 7.31749 5
    endloop
  endfacet
  facet normal 0 0 1
    outer loop
      vertex 11.9054 1.396 5
      vertex 2.51832 0.546593 5
      vertex 11.7874 0.651425 5
    endloop
  endfacet
  facet normal 0 0 1
    outer loop
      vertex 2.04778 1.5 5
      vertex 11.1573 7.31749 5
      vertex 10.8579 8.00935 5
    endloop
  endfacet
  facet normal 0 -0 1
    outer loop
      vertex 2.55395 0.387191 5
      vertex 11.7874 0.651425 5
      vertex 2.51832 0.546593 5
    endloop
  endfacet
  facet normal 0 0 1
    outer loop
      vertex 2.04778 1.5 5
      vertex 10.8579 8.00935 5
      vertex 10.5157 8.68104 5
    endloop
  endfacet
  facet normal 0 0 1
    outer loop
      vertex 11.7874 0.651425 5
      vertex 2.55395 0.387191 5
      vertex 11.623 -0.0842777 5
    endloop
  endfacet
  facet normal 0 0 1
    outer loop
      vertex 2.04778 1.5 5
      vertex 10.5157 8.68104 5
      vertex 10.1319 9.32992 5
    endloop
  endfacet
  facet normal -0 -0 1
    outer loop
      vertex 2.5795 0.225866 5
      vertex 11.623 -0.0842777 5
      vertex 2.55395 0.387191 5
    endloop
  endfacet
  facet normal 0 0 1
    outer loop
      vertex 2.04778 1.5 5
      vertex 10.1319 9.32992 5
      vertex 9.7082 9.95342 5
    endloop
  endfacet
  facet normal 0 0 1
    outer loop
      vertex 11.623 -0.0842777 5
      vertex 2.5795 0.225866 5
      vertex 11.4127 -0.808203 5
    endloop
  endfacet
  facet normal 0 0 1
    outer loop
      vertex 2.04778 1.5 5
      vertex 9.7082 9.95342 5
      vertex 9.24616 10.5491 5
    endloop
  endfacet
  facet normal 0 0 1
    outer loop
      vertex 11.4127 -0.808203 5
      vertex 2.59487 0.0632547 5
      vertex 11.1573 -1.51749 5
    endloop
  endfacet
  facet normal 0 0 1
    outer loop
      vertex 2.04778 1.5 5
      vertex 9.24616 10.5491 5
      vertex 8.74762 11.1146 5
    endloop
  endfacet
  facet normal -0 -0 1
    outer loop
      vertex 2.6 -0.1 5
      vertex 11.1573 -1.51749 5
      vertex 2.59487 0.0632547 5
    endloop
  endfacet
  facet normal 0 0 1
    outer loop
      vertex 2.04778 1.5 5
      vertex 8.74762 11.1146 5
      vertex 8.21456 11.6476 5
    endloop
  endfacet
  facet normal 0 0 1
    outer loop
      vertex 11.1573 -1.51749 5
      vertex 2.6 -0.1 5
      vertex 10.8579 -2.20935 5
    endloop
  endfacet
  facet normal 0 0 1
    outer loop
      vertex 2.04778 1.5 5
      vertex 8.21456 11.6476 5
      vertex 7.64909 12.1462 5
    endloop
  endfacet
  facet normal 0 0 1
    outer loop
      vertex 10.8579 -2.20935 5
      vertex 2.59487 -0.263255 5
      vertex 10.5157 -2.88104 5
    endloop
  endfacet
  facet normal 0 0 1
    outer loop
      vertex 2.04778 1.5 5
      vertex 7.64909 12.1462 5
      vertex 7.05342 12.6082 5
    endloop
  endfacet
  facet normal -0 0 1
    outer loop
      vertex 2.5795 -0.425866 5
      vertex 10.5157 -2.88104 5
      vertex 2.59487 -0.263255 5
    endloop
  endfacet
  facet normal 0 0 1
    outer loop
      vertex 2.04778 1.5 5
      vertex 7.05342 12.6082 5
      vertex 6.42992 13.0319 5
    endloop
  endfacet
  facet normal -0 0 1
    outer loop
      vertex 2.55395 -0.587191 5
      vertex 10.1319 -3.52992 5
      vertex 2.5795 -0.425866 5
    endloop
  endfacet
  facet normal 0 0 1
    outer loop
      vertex 2.04778 1.5 5
      vertex 6.42992 13.0319 5
      vertex 5.78104 13.4157 5
    endloop
  endfacet
  facet normal 0 0 1
    outer loop
      vertex 10.1319 -3.52992 5
      vertex 2.55395 -0.587191 5
      vertex 9.7082 -4.15342 5
    endloop
  endfacet
  facet normal 0 0 1
    outer loop
      vertex 2.04778 1.5 5
      vertex 5.78104 13.4157 5
      vertex 5.10935 13.7579 5
    endloop
  endfacet
  facet normal -0 0 1
    outer loop
      vertex 2.51832 -0.746593 5
      vertex 9.7082 -4.15342 5
      vertex 2.55395 -0.587191 5
    endloop
  endfacet
  facet normal 0 0 1
    outer loop
      vertex 2.04778 1.5 5
      vertex 5.10935 13.7579 5
      vertex 4.41749 14.0573 5
    endloop
  endfacet
  facet normal 0 0 1
    outer loop
      vertex 9.7082 -4.15342 5
      vertex 2.47275 -0.903444 5
      vertex 9.24616 -4.74909 5
    endloop
  endfacet
  facet normal 0 0 1
    outer loop
      vertex 2.04778 1.5 5
      vertex 4.41749 14.0573 5
      vertex 3.7082 14.3127 5
    endloop
  endfacet
  facet normal -0 0 1
    outer loop
      vertex 2.41742 -1.05712 5
      vertex 9.24616 -4.74909 5
      vertex 2.47275 -0.903444 5
    endloop
  endfacet
  facet normal 0 0 1
    outer loop
      vertex 2.04778 1.5 5
      vertex 3.7082 14.3127 5
      vertex 2.98428 14.523 5
    endloop
  endfacet
  facet normal -0 0 1
    outer loop
      vertex 2.35255 -1.20703 5
      vertex 8.74762 -5.31456 5
      vertex 2.41742 -1.05712 5
    endloop
  endfacet
  facet normal -0 0 1
    outer loop
      vertex 2.2784 -1.35256 5
      vertex 8.21456 -5.84762 5
      vertex 2.35255 -1.20703 5
    endloop
  endfacet
  facet normal 0 0 1
    outer loop
      vertex 8.74762 -5.31456 5
      vertex 2.35255 -1.20703 5
      vertex 8.21456 -5.84762 5
    endloop
  endfacet
  facet normal 0 0 1
    outer loop
      vertex 9.24616 -4.74909 5
      vertex 2.41742 -1.05712 5
      vertex 8.74762 -5.31456 5
    endloop
  endfacet
  facet normal -0 0 1
    outer loop
      vertex 2.47275 -0.903444 5
      vertex 9.7082 -4.15342 5
      vertex 2.51832 -0.746593 5
    endloop
  endfacet
  facet normal 0 0 1
    outer loop
      vertex 10.5157 -2.88104 5
      vertex 2.5795 -0.425866 5
      vertex 10.1319 -3.52992 5
    endloop
  endfacet
  facet normal -0 0 1
    outer loop
      vertex 2.59487 -0.263255 5
      vertex 10.8579 -2.20935 5
      vertex 2.6 -0.1 5
    endloop
  endfacet
  facet normal -0 -0 1
    outer loop
      vertex 2.59487 0.0632547 5
      vertex 11.4127 -0.808203 5
      vertex 2.5795 0.225866 5
    endloop
  endfacet
  facet normal 0 -0 1
    outer loop
      vertex 2.51832 0.546593 5
      vertex 11.9054 1.396 5
      vertex 2.47275 0.703444 5
    endloop
  endfacet
  facet normal 0 0 1
    outer loop
      vertex 11.9763 3.65349 5
      vertex 2.2784 1.15256 5
      vertex 2.35255 1.00703 5
    endloop
  endfacet
  facet normal 0 0 1
    outer loop
      vertex 2.04778 1.5 5
      vertex 2.98428 14.523 5
      vertex 2.24858 14.6874 5
    endloop
  endfacet
  facet normal 0 0 1
    outer loop
      vertex 11.9054 4.404 5
      vertex 2.19525 1.29315 5
      vertex 2.2784 1.15256 5
    endloop
  endfacet
  facet normal 0 0 1
    outer loop
      vertex 11.623 5.88428 5
      vertex 2.10344 1.42824 5
      vertex 2.19525 1.29315 5
    endloop
  endfacet
  facet normal 0 0 1
    outer loop
      vertex 11.4127 6.6082 5
      vertex 2.04778 1.5 5
      vertex 2.10344 1.42824 5
    endloop
  endfacet
  facet normal 0 0 1
    outer loop
      vertex 1.504 14.8054 5
      vertex 2.04778 1.5 5
      vertex 2.24858 14.6874 5
    endloop
  endfacet
  facet normal 0 0 1
    outer loop
      vertex 0.753486 14.8763 5
      vertex 2.04778 1.5 5
      vertex 1.504 14.8054 5
    endloop
  endfacet
  facet normal 0 0 1
    outer loop
      vertex 0 14.9 5
      vertex 2.04778 1.5 5
      vertex 0.753486 14.8763 5
    endloop
  endfacet
  facet normal 0 0 1
    outer loop
      vertex -2.04778 1.5 5
      vertex 0 14.9 5
      vertex -0.753486 14.8763 5
    endloop
  endfacet
  facet normal 0 0 1
    outer loop
      vertex -2.04778 1.5 5
      vertex -0.753486 14.8763 5
      vertex -1.504 14.8054 5
    endloop
  endfacet
  facet normal 0 0 1
    outer loop
      vertex 0 14.9 5
      vertex -2.04778 1.5 5
      vertex 2.04778 1.5 5
    endloop
  endfacet
  facet normal -0 0 1
    outer loop
      vertex -2.24858 14.6874 5
      vertex -2.04778 1.5 5
      vertex -1.504 14.8054 5
    endloop
  endfacet
  facet normal -0 0 1
    outer loop
      vertex -2.98428 14.523 5
      vertex -2.04778 1.5 5
      vertex -2.24858 14.6874 5
    endloop
  endfacet
  facet normal -0 0 1
    outer loop
      vertex -3.7082 14.3127 5
      vertex -2.04778 1.5 5
      vertex -2.98428 14.523 5
    endloop
  endfacet
  facet normal -0 0 1
    outer loop
      vertex -4.41749 14.0573 5
      vertex -2.04778 1.5 5
      vertex -3.7082 14.3127 5
    endloop
  endfacet
  facet normal -0 0 1
    outer loop
      vertex -5.10935 13.7579 5
      vertex -2.04778 1.5 5
      vertex -4.41749 14.0573 5
    endloop
  endfacet
  facet normal -0 0 1
    outer loop
      vertex -5.78104 13.4157 5
      vertex -2.04778 1.5 5
      vertex -5.10935 13.7579 5
    endloop
  endfacet
  facet normal -0 0 1
    outer loop
      vertex -6.42992 13.0319 5
      vertex -2.04778 1.5 5
      vertex -5.78104 13.4157 5
    endloop
  endfacet
  facet normal -0 0 1
    outer loop
      vertex -7.05342 12.6082 5
      vertex -2.04778 1.5 5
      vertex -6.42992 13.0319 5
    endloop
  endfacet
  facet normal -0 0 1
    outer loop
      vertex -7.64909 12.1462 5
      vertex -2.04778 1.5 5
      vertex -7.05342 12.6082 5
    endloop
  endfacet
  facet normal -0 0 1
    outer loop
      vertex -8.21456 11.6476 5
      vertex -2.04778 1.5 5
      vertex -7.64909 12.1462 5
    endloop
  endfacet
  facet normal -0 0 1
    outer loop
      vertex -8.74762 11.1146 5
      vertex -2.04778 1.5 5
      vertex -8.21456 11.6476 5
    endloop
  endfacet
  facet normal -0 0 1
    outer loop
      vertex -9.24616 10.5491 5
      vertex -2.04778 1.5 5
      vertex -8.74762 11.1146 5
    endloop
  endfacet
  facet normal -0 0 1
    outer loop
      vertex -9.7082 9.95342 5
      vertex -2.04778 1.5 5
      vertex -9.24616 10.5491 5
    endloop
  endfacet
  facet normal 0 0 1
    outer loop
      vertex 8.21456 -5.84762 5
      vertex 2.2784 -1.35256 5
      vertex 7.64909 -6.34616 5
    endloop
  endfacet
  facet normal -0 0 1
    outer loop
      vertex 2.19525 -1.49315 5
      vertex 7.64909 -6.34616 5
      vertex 2.2784 -1.35256 5
    endloop
  endfacet
  facet normal -0 0 1
    outer loop
      vertex 2.10344 -1.62824 5
      vertex 7.64909 -6.34616 5
      vertex 2.19525 -1.49315 5
    endloop
  endfacet
  facet normal 0 0 1
    outer loop
      vertex 7.64909 -6.34616 5
      vertex 2.10344 -1.62824 5
      vertex 7.05342 -6.8082 5
    endloop
  endfacet
  facet normal -0 0 1
    outer loop
      vertex 2.04778 -1.7 5
      vertex 7.05342 -6.8082 5
      vertex 2.10344 -1.62824 5
    endloop
  endfacet
  facet normal 0 0 1
    outer loop
      vertex 7.05342 -6.8082 5
      vertex 2.04778 -1.7 5
      vertex 6.42992 -7.23193 5
    endloop
  endfacet
  facet normal 0 0 1
    outer loop
      vertex 6.42992 -7.23193 5
      vertex 2.04778 -1.7 5
      vertex 5.78104 -7.61568 5
    endloop
  endfacet
  facet normal 0 0 1
    outer loop
      vertex 5.78104 -7.61568 5
      vertex 2.04778 -1.7 5
      vertex 5.10935 -7.95792 5
    endloop
  endfacet
  facet normal 0 0 1
    outer loop
      vertex 5.10935 -7.95792 5
      vertex 2.04778 -1.7 5
      vertex 4.41749 -8.25732 5
    endloop
  endfacet
  facet normal 0 0 1
    outer loop
      vertex 4.41749 -8.25732 5
      vertex 2.04778 -1.7 5
      vertex 3.7082 -8.51268 5
    endloop
  endfacet
  facet normal 0 0 1
    outer loop
      vertex 3.7082 -8.51268 5
      vertex 2.04778 -1.7 5
      vertex 2.98428 -8.723 5
    endloop
  endfacet
  facet normal 0 0 1
    outer loop
      vertex 2.98428 -8.723 5
      vertex 2.04778 -1.7 5
      vertex 2.24858 -8.88745 5
    endloop
  endfacet
  facet normal 0 0 1
    outer loop
      vertex 2.04778 -1.7 5
      vertex 1.504 -9.00538 5
      vertex 2.24858 -8.88745 5
    endloop
  endfacet
  facet normal 0 0 1
    outer loop
      vertex 2.04778 -1.7 5
      vertex 0.753486 -9.07632 5
      vertex 1.504 -9.00538 5
    endloop
  endfacet
  facet normal 0 0 1
    outer loop
      vertex 2.04778 -1.7 5
      vertex 0 -9.1 5
      vertex 0.753486 -9.07632 5
    endloop
  endfacet
  facet normal -0 0 1
    outer loop
      vertex -2.04778 -1.7 5
      vertex 0 -9.1 5
      vertex 2.04778 -1.7 5
    endloop
  endfacet
  facet normal 0 0 1
    outer loop
      vertex 0 -9.1 5
      vertex -2.04778 -1.7 5
      vertex -0.753486 -9.07632 5
    endloop
  endfacet
  facet normal 0 0 1
    outer loop
      vertex -0.753486 -9.07632 5
      vertex -2.04778 -1.7 5
      vertex -1.504 -9.00538 5
    endloop
  endfacet
  facet normal 0 0 1
    outer loop
      vertex -7.05342 -6.8082 5
      vertex -2.04778 -1.7 5
      vertex -2.10344 -1.62824 5
    endloop
  endfacet
  facet normal 0 0 1
    outer loop
      vertex -7.64909 -6.34616 5
      vertex -2.10344 -1.62824 5
      vertex -2.19525 -1.49315 5
    endloop
  endfacet
  facet normal 0 0 1
    outer loop
      vertex -2.04778 -1.7 5
      vertex -2.24858 -8.88745 5
      vertex -1.504 -9.00538 5
    endloop
  endfacet
  facet normal 0 0 1
    outer loop
      vertex -7.64909 -6.34616 5
      vertex -2.19525 -1.49315 5
      vertex -2.2784 -1.35256 5
    endloop
  endfacet
  facet normal 0 0 1
    outer loop
      vertex -8.21456 -5.84762 5
      vertex -2.2784 -1.35256 5
      vertex -2.35255 -1.20703 5
    endloop
  endfacet
  facet normal 0 0 1
    outer loop
      vertex -8.74762 -5.31456 5
      vertex -2.35255 -1.20703 5
      vertex -2.41742 -1.05712 5
    endloop
  endfacet
  facet normal 0 0 1
    outer loop
      vertex -9.24616 -4.74909 5
      vertex -2.41742 -1.05712 5
      vertex -2.47275 -0.903444 5
    endloop
  endfacet
  facet normal 0 0 1
    outer loop
      vertex -9.7082 -4.15342 5
      vertex -2.47275 -0.903444 5
      vertex -2.51832 -0.746593 5
    endloop
  endfacet
  facet normal 0 0 1
    outer loop
      vertex -9.7082 -4.15342 5
      vertex -2.51832 -0.746593 5
      vertex -2.55395 -0.587191 5
    endloop
  endfacet
  facet normal 0 0 1
    outer loop
      vertex -10.1319 -3.52992 5
      vertex -2.55395 -0.587191 5
      vertex -2.5795 -0.425866 5
    endloop
  endfacet
  facet normal 0 0 1
    outer loop
      vertex -10.5157 -2.88104 5
      vertex -2.5795 -0.425866 5
      vertex -2.59487 -0.263255 5
    endloop
  endfacet
  facet normal 0 0 1
    outer loop
      vertex -2.04778 -1.7 5
      vertex -2.98428 -8.723 5
      vertex -2.24858 -8.88745 5
    endloop
  endfacet
  facet normal 0 0 1
    outer loop
      vertex -10.8579 -2.20935 5
      vertex -2.59487 -0.263255 5
      vertex -2.6 -0.1 5
    endloop
  endfacet
  facet normal -0 0 1
    outer loop
      vertex -10.1319 9.32992 5
      vertex -2.04778 1.5 5
      vertex -9.7082 9.95342 5
    endloop
  endfacet
  facet normal -0 0 1
    outer loop
      vertex -10.5157 8.68104 5
      vertex -2.04778 1.5 5
      vertex -10.1319 9.32992 5
    endloop
  endfacet
  facet normal 0 0 1
    outer loop
      vertex -2.04778 -1.7 5
      vertex -3.7082 -8.51268 5
      vertex -2.98428 -8.723 5
    endloop
  endfacet
  facet normal -0 0 1
    outer loop
      vertex -10.8579 8.00935 5
      vertex -2.04778 1.5 5
      vertex -10.5157 8.68104 5
    endloop
  endfacet
  facet normal 0 0 1
    outer loop
      vertex -2.04778 -1.7 5
      vertex -4.41749 -8.25732 5
      vertex -3.7082 -8.51268 5
    endloop
  endfacet
  facet normal -0 0 1
    outer loop
      vertex -11.1573 7.31749 5
      vertex -2.04778 1.5 5
      vertex -10.8579 8.00935 5
    endloop
  endfacet
  facet normal 0 0 1
    outer loop
      vertex -2.04778 -1.7 5
      vertex -5.10935 -7.95792 5
      vertex -4.41749 -8.25732 5
    endloop
  endfacet
  facet normal -0 0 1
    outer loop
      vertex -11.4127 6.6082 5
      vertex -2.04778 1.5 5
      vertex -11.1573 7.31749 5
    endloop
  endfacet
  facet normal 0 0 1
    outer loop
      vertex -2.04778 -1.7 5
      vertex -5.78104 -7.61568 5
      vertex -5.10935 -7.95792 5
    endloop
  endfacet
  facet normal 0 0 1
    outer loop
      vertex -2.04778 1.5 5
      vertex -11.4127 6.6082 5
      vertex -2.10344 1.42824 5
    endloop
  endfacet
  facet normal 0 0 1
    outer loop
      vertex -2.04778 -1.7 5
      vertex -6.42992 -7.23193 5
      vertex -5.78104 -7.61568 5
    endloop
  endfacet
  facet normal -0 0 1
    outer loop
      vertex -11.623 5.88428 5
      vertex -2.10344 1.42824 5
      vertex -11.4127 6.6082 5
    endloop
  endfacet
  facet normal 0 0 1
    outer loop
      vertex -2.04778 -1.7 5
      vertex -7.05342 -6.8082 5
      vertex -6.42992 -7.23193 5
    endloop
  endfacet
  facet normal 0 0 1
    outer loop
      vertex -2.10344 1.42824 5
      vertex -11.623 5.88428 5
      vertex -2.19525 1.29315 5
    endloop
  endfacet
  facet normal 0 0 1
    outer loop
      vertex -2.10344 -1.62824 5
      vertex -7.64909 -6.34616 5
      vertex -7.05342 -6.8082 5
    endloop
  endfacet
  facet normal -0 0 1
    outer loop
      vertex -11.7874 5.14858 5
      vertex -2.19525 1.29315 5
      vertex -11.623 5.88428 5
    endloop
  endfacet
  facet normal 0 0 1
    outer loop
      vertex -2.2784 -1.35256 5
      vertex -8.21456 -5.84762 5
      vertex -7.64909 -6.34616 5
    endloop
  endfacet
  facet normal -0 0 1
    outer loop
      vertex -11.9054 4.404 5
      vertex -2.19525 1.29315 5
      vertex -11.7874 5.14858 5
    endloop
  endfacet
  facet normal 0 0 1
    outer loop
      vertex -2.35255 -1.20703 5
      vertex -8.74762 -5.31456 5
      vertex -8.21456 -5.84762 5
    endloop
  endfacet
  facet normal 0 0 1
    outer loop
      vertex -2.19525 1.29315 5
      vertex -11.9054 4.404 5
      vertex -2.2784 1.15256 5
    endloop
  endfacet
  facet normal 0 0 1
    outer loop
      vertex -2.41742 -1.05712 5
      vertex -9.24616 -4.74909 5
      vertex -8.74762 -5.31456 5
    endloop
  endfacet
  facet normal -0 0 1
    outer loop
      vertex -11.9763 3.65349 5
      vertex -2.2784 1.15256 5
      vertex -11.9054 4.404 5
    endloop
  endfacet
  facet normal 0 0 1
    outer loop
      vertex -2.47275 -0.903444 5
      vertex -9.7082 -4.15342 5
      vertex -9.24616 -4.74909 5
    endloop
  endfacet
  facet normal 0 0 1
    outer loop
      vertex -2.2784 1.15256 5
      vertex -11.9763 3.65349 5
      vertex -2.35255 1.00703 5
    endloop
  endfacet
  facet normal 0 0 1
    outer loop
      vertex -2.55395 -0.587191 5
      vertex -10.1319 -3.52992 5
      vertex -9.7082 -4.15342 5
    endloop
  endfacet
  facet normal -0 0 1
    outer loop
      vertex -12 2.9 5
      vertex -2.35255 1.00703 5
      vertex -11.9763 3.65349 5
    endloop
  endfacet
  facet normal 0 0 1
    outer loop
      vertex -2.5795 -0.425866 5
      vertex -10.5157 -2.88104 5
      vertex -10.1319 -3.52992 5
    endloop
  endfacet
  facet normal 0 0 1
    outer loop
      vertex -2.35255 1.00703 5
      vertex -12 2.9 5
      vertex -2.41742 0.857124 5
    endloop
  endfacet
  facet normal 0 0 1
    outer loop
      vertex -2.59487 -0.263255 5
      vertex -10.8579 -2.20935 5
      vertex -10.5157 -2.88104 5
    endloop
  endfacet
  facet normal -0 -0 1
    outer loop
      vertex -11.9763 2.14651 5
      vertex -2.41742 0.857124 5
      vertex -12 2.9 5
    endloop
  endfacet
  facet normal 0 0 1
    outer loop
      vertex -2.6 -0.1 5
      vertex -11.1573 -1.51749 5
      vertex -10.8579 -2.20935 5
    endloop
  endfacet
  facet normal 0 0 1
    outer loop
      vertex -2.41742 0.857124 5
      vertex -11.9763 2.14651 5
      vertex -2.47275 0.703444 5
    endloop
  endfacet
  facet normal 0 0 1
    outer loop
      vertex -2.59487 0.0632547 5
      vertex -11.1573 -1.51749 5
      vertex -2.6 -0.1 5
    endloop
  endfacet
  facet normal -0 -0 1
    outer loop
      vertex -11.9054 1.396 5
      vertex -2.47275 0.703444 5
      vertex -11.9763 2.14651 5
    endloop
  endfacet
  facet normal 0 -0 1
    outer loop
      vertex -11.1573 -1.51749 5
      vertex -2.59487 0.0632547 5
      vertex -11.4127 -0.808203 5
    endloop
  endfacet
  facet normal 0 0 1
    outer loop
      vertex -2.47275 0.703444 5
      vertex -11.9054 1.396 5
      vertex -2.51832 0.546593 5
    endloop
  endfacet
  facet normal 0 0 1
    outer loop
      vertex -2.5795 0.225866 5
      vertex -11.4127 -0.808203 5
      vertex -2.59487 0.0632547 5
    endloop
  endfacet
  facet normal -0 -0 1
    outer loop
      vertex -11.7874 0.651425 5
      vertex -2.51832 0.546593 5
      vertex -11.9054 1.396 5
    endloop
  endfacet
  facet normal 0 -0 1
    outer loop
      vertex -11.4127 -0.808203 5
      vertex -2.5795 0.225866 5
      vertex -11.623 -0.0842777 5
    endloop
  endfacet
  facet normal 0 0 1
    outer loop
      vertex -2.51832 0.546593 5
      vertex -11.7874 0.651425 5
      vertex -2.55395 0.387191 5
    endloop
  endfacet
  facet normal 0 0 1
    outer loop
      vertex -2.55395 0.387191 5
      vertex -11.623 -0.0842777 5
      vertex -2.5795 0.225866 5
    endloop
  endfacet
  facet normal 0 -0 1
    outer loop
      vertex -11.623 -0.0842777 5
      vertex -2.55395 0.387191 5
      vertex -11.7874 0.651425 5
    endloop
  endfacet
  facet normal -0.397154 -0.917752 0
    outer loop
      vertex -5.10935 -7.95792 -5
      vertex -4.41749 -8.25732 5
      vertex -5.10935 -7.95792 5
    endloop
  endfacet
  facet normal -0.397154 -0.917752 -0
    outer loop
      vertex -4.41749 -8.25732 5
      vertex -5.10935 -7.95792 -5
      vertex -4.41749 -8.25732 -5
    endloop
  endfacet
  facet normal -0.995567 0.0940504 0
    outer loop
      vertex -11.9763 3.65349 -5
      vertex -11.9054 4.404 5
      vertex -11.9054 4.404 -5
    endloop
  endfacet
  facet normal -0.995567 0.0940504 0
    outer loop
      vertex -11.9054 4.404 5
      vertex -11.9763 3.65349 -5
      vertex -11.9763 3.65349 5
    endloop
  endfacet
  facet normal -0.89103 -0.453945 0
    outer loop
      vertex -10.5157 -2.88104 -5
      vertex -10.8579 -2.20935 5
      vertex -10.8579 -2.20935 -5
    endloop
  endfacet
  facet normal -0.89103 -0.453945 0
    outer loop
      vertex -10.8579 -2.20935 5
      vertex -10.5157 -2.88104 -5
      vertex -10.5157 -2.88104 5
    endloop
  endfacet
  facet normal -0.860711 -0.509094 0
    outer loop
      vertex -10.1319 -3.52992 -5
      vertex -10.5157 -2.88104 5
      vertex -10.5157 -2.88104 -5
    endloop
  endfacet
  facet normal -0.860711 -0.509094 0
    outer loop
      vertex -10.5157 -2.88104 5
      vertex -10.1319 -3.52992 -5
      vertex -10.1319 -3.52992 5
    endloop
  endfacet
  facet normal -0.509045 -0.86074 0
    outer loop
      vertex -6.42992 -7.23193 -5
      vertex -5.78104 -7.61568 5
      vertex -6.42992 -7.23193 5
    endloop
  endfacet
  facet normal -0.509045 -0.86074 -0
    outer loop
      vertex -5.78104 -7.61568 5
      vertex -6.42992 -7.23193 -5
      vertex -5.78104 -7.61568 -5
    endloop
  endfacet
  facet normal -0.562083 -0.827081 0
    outer loop
      vertex -7.05342 -6.8082 -5
      vertex -6.42992 -7.23193 5
      vertex -7.05342 -6.8082 5
    endloop
  endfacet
  facet normal -0.562083 -0.827081 -0
    outer loop
      vertex -6.42992 -7.23193 5
      vertex -7.05342 -6.8082 -5
      vertex -6.42992 -7.23193 -5
    endloop
  endfacet
  facet normal 0.338738 -0.940881 0
    outer loop
      vertex 3.7082 -8.51268 -5
      vertex 4.41749 -8.25732 5
      vertex 3.7082 -8.51268 5
    endloop
  endfacet
  facet normal 0.338738 -0.940881 0
    outer loop
      vertex 4.41749 -8.25732 5
      vertex 3.7082 -8.51268 -5
      vertex 4.41749 -8.25732 -5
    endloop
  endfacet
  facet normal -0.66132 -0.750104 0
    outer loop
      vertex -8.21456 -5.84762 -5
      vertex -7.64909 -6.34616 5
      vertex -8.21456 -5.84762 5
    endloop
  endfacet
  facet normal -0.66132 -0.750104 -0
    outer loop
      vertex -7.64909 -6.34616 5
      vertex -8.21456 -5.84762 -5
      vertex -7.64909 -6.34616 -5
    endloop
  endfacet
  facet normal -0.278993 -0.960293 0
    outer loop
      vertex -3.7082 -8.51268 -5
      vertex -2.98428 -8.723 5
      vertex -3.7082 -8.51268 5
    endloop
  endfacet
  facet normal -0.278993 -0.960293 -0
    outer loop
      vertex -2.98428 -8.723 5
      vertex -3.7082 -8.51268 -5
      vertex -2.98428 -8.723 -5
    endloop
  endfacet
endsolid OpenSCAD_Model
