solid OpenSCAD_Model
  facet normal 0 -1 0
    outer loop
      vertex -2.04778 1.5 -3
      vertex 2.04778 1.5 3
      vertex -2.04778 1.5 3
    endloop
  endfacet
  facet normal 0 -1 -0
    outer loop
      vertex 2.04778 1.5 3
      vertex -2.04778 1.5 -3
      vertex 2.04778 1.5 -3
    endloop
  endfacet
  facet normal 0 1 -0
    outer loop
      vertex 2.04778 -1.7 -3
      vertex -2.04778 -1.7 3
      vertex 2.04778 -1.7 3
    endloop
  endfacet
  facet normal 0 1 0
    outer loop
      vertex -2.04778 -1.7 3
      vertex 2.04778 -1.7 -3
      vertex -2.04778 -1.7 -3
    endloop
  endfacet
  facet normal -0.999507 -0.0314078 0
    outer loop
      vertex 2.6 -0.1 -3
      vertex 2.59487 0.0632547 3
      vertex 2.59487 0.0632547 -3
    endloop
  endfacet
  facet normal -0.999507 -0.0314078 0
    outer loop
      vertex 2.59487 0.0632547 3
      vertex 2.6 -0.1 -3
      vertex 2.6 -0.1 3
    endloop
  endfacet
  facet normal 0.860728 0.509065 0
    outer loop
      vertex -2.19525 -1.49315 3
      vertex -2.2784 -1.35256 -3
      vertex -2.2784 -1.35256 3
    endloop
  endfacet
  facet normal 0.860728 0.509065 0
    outer loop
      vertex -2.2784 -1.35256 -3
      vertex -2.19525 -1.49315 3
      vertex -2.19525 -1.49315 -3
    endloop
  endfacet
  facet normal -0.89101 0.453984 0
    outer loop
      vertex 2.2784 -1.35256 -3
      vertex 2.35255 -1.20703 3
      vertex 2.35255 -1.20703 -3
    endloop
  endfacet
  facet normal -0.89101 0.453984 0
    outer loop
      vertex 2.35255 -1.20703 3
      vertex 2.2784 -1.35256 -3
      vertex 2.2784 -1.35256 3
    endloop
  endfacet
  facet normal -0.975918 0.21814 0
    outer loop
      vertex 2.51832 -0.746593 -3
      vertex 2.55395 -0.587191 3
      vertex 2.55395 -0.587191 -3
    endloop
  endfacet
  facet normal -0.975918 0.21814 0
    outer loop
      vertex 2.55395 -0.587191 3
      vertex 2.51832 -0.746593 -3
      vertex 2.51832 -0.746593 3
    endloop
  endfacet
  facet normal -0.917759 0.397138 0
    outer loop
      vertex 2.35255 -1.20703 -3
      vertex 2.41742 -1.05712 3
      vertex 2.41742 -1.05712 -3
    endloop
  endfacet
  facet normal -0.917759 0.397138 0
    outer loop
      vertex 2.41742 -1.05712 3
      vertex 2.35255 -1.20703 -3
      vertex 2.35255 -1.20703 3
    endloop
  endfacet
  facet normal -0.995563 0.0941006 0
    outer loop
      vertex 2.5795 -0.425866 -3
      vertex 2.59487 -0.263255 3
      vertex 2.59487 -0.263255 -3
    endloop
  endfacet
  facet normal -0.995563 0.0941006 0
    outer loop
      vertex 2.59487 -0.263255 3
      vertex 2.5795 -0.425866 -3
      vertex 2.5795 -0.425866 3
    endloop
  endfacet
  facet normal -0.960293 0.278994 0
    outer loop
      vertex 2.47275 -0.903444 -3
      vertex 2.51832 -0.746593 3
      vertex 2.51832 -0.746593 -3
    endloop
  endfacet
  facet normal -0.960293 0.278994 0
    outer loop
      vertex 2.51832 -0.746593 3
      vertex 2.47275 -0.903444 -3
      vertex 2.47275 -0.903444 3
    endloop
  endfacet
  facet normal 0.917755 -0.397147 0
    outer loop
      vertex -2.41742 0.857124 3
      vertex -2.35255 1.00703 -3
      vertex -2.35255 1.00703 3
    endloop
  endfacet
  facet normal 0.917755 -0.397147 0
    outer loop
      vertex -2.35255 1.00703 -3
      vertex -2.41742 0.857124 3
      vertex -2.41742 0.857124 -3
    endloop
  endfacet
  facet normal -0.940877 -0.338748 0
    outer loop
      vertex 2.47275 0.703444 -3
      vertex 2.41742 0.857124 3
      vertex 2.41742 0.857124 -3
    endloop
  endfacet
  facet normal -0.940877 -0.338748 0
    outer loop
      vertex 2.41742 0.857124 3
      vertex 2.47275 0.703444 -3
      vertex 2.47275 0.703444 3
    endloop
  endfacet
  facet normal 0.827072 0.562096 0
    outer loop
      vertex -2.10344 -1.62824 3
      vertex -2.19525 -1.49315 -3
      vertex -2.19525 -1.49315 3
    endloop
  endfacet
  facet normal 0.827072 0.562096 0
    outer loop
      vertex -2.19525 -1.49315 -3
      vertex -2.10344 -1.62824 3
      vertex -2.10344 -1.62824 -3
    endloop
  endfacet
  facet normal 0.79017 0.612888 0
    outer loop
      vertex -2.04778 -1.7 3
      vertex -2.10344 -1.62824 -3
      vertex -2.10344 -1.62824 3
    endloop
  endfacet
  facet normal 0.79017 0.612888 0
    outer loop
      vertex -2.10344 -1.62824 -3
      vertex -2.04778 -1.7 3
      vertex -2.04778 -1.7 -3
    endloop
  endfacet
  facet normal 0.995563 0.0941006 0
    outer loop
      vertex -2.5795 -0.425866 3
      vertex -2.59487 -0.263255 -3
      vertex -2.59487 -0.263255 3
    endloop
  endfacet
  facet normal 0.995563 0.0941006 0
    outer loop
      vertex -2.59487 -0.263255 -3
      vertex -2.5795 -0.425866 3
      vertex -2.5795 -0.425866 -3
    endloop
  endfacet
  facet normal -0.79017 -0.612888 0
    outer loop
      vertex 2.10344 1.42824 -3
      vertex 2.04778 1.5 3
      vertex 2.04778 1.5 -3
    endloop
  endfacet
  facet normal -0.79017 -0.612888 0
    outer loop
      vertex 2.04778 1.5 3
      vertex 2.10344 1.42824 -3
      vertex 2.10344 1.42824 3
    endloop
  endfacet
  facet normal -0.860728 0.509065 0
    outer loop
      vertex 2.19525 -1.49315 -3
      vertex 2.2784 -1.35256 3
      vertex 2.2784 -1.35256 -3
    endloop
  endfacet
  facet normal -0.860728 0.509065 0
    outer loop
      vertex 2.2784 -1.35256 3
      vertex 2.19525 -1.49315 -3
      vertex 2.19525 -1.49315 3
    endloop
  endfacet
  facet normal -0.89101 -0.453984 0
    outer loop
      vertex 2.35255 1.00703 -3
      vertex 2.2784 1.15256 3
      vertex 2.2784 1.15256 -3
    endloop
  endfacet
  facet normal -0.89101 -0.453984 0
    outer loop
      vertex 2.2784 1.15256 3
      vertex 2.35255 1.00703 -3
      vertex 2.35255 1.00703 3
    endloop
  endfacet
  facet normal 0.827072 -0.562096 0
    outer loop
      vertex -2.19525 1.29315 3
      vertex -2.10344 1.42824 -3
      vertex -2.10344 1.42824 3
    endloop
  endfacet
  facet normal 0.827072 -0.562096 0
    outer loop
      vertex -2.10344 1.42824 -3
      vertex -2.19525 1.29315 3
      vertex -2.19525 1.29315 -3
    endloop
  endfacet
  facet normal -0.975918 -0.21814 0
    outer loop
      vertex 2.55395 0.387191 -3
      vertex 2.51832 0.546593 3
      vertex 2.51832 0.546593 -3
    endloop
  endfacet
  facet normal -0.975918 -0.21814 0
    outer loop
      vertex 2.51832 0.546593 3
      vertex 2.55395 0.387191 -3
      vertex 2.55395 0.387191 3
    endloop
  endfacet
  facet normal -0.860728 -0.509065 0
    outer loop
      vertex 2.2784 1.15256 -3
      vertex 2.19525 1.29315 3
      vertex 2.19525 1.29315 -3
    endloop
  endfacet
  facet normal -0.860728 -0.509065 0
    outer loop
      vertex 2.19525 1.29315 3
      vertex 2.2784 1.15256 -3
      vertex 2.2784 1.15256 3
    endloop
  endfacet
  facet normal -0.999507 0.0314077 0
    outer loop
      vertex 2.59487 -0.263255 -3
      vertex 2.6 -0.1 3
      vertex 2.6 -0.1 -3
    endloop
  endfacet
  facet normal -0.999507 0.0314077 0
    outer loop
      vertex 2.6 -0.1 3
      vertex 2.59487 -0.263255 -3
      vertex 2.59487 -0.263255 3
    endloop
  endfacet
  facet normal 0.995563 -0.0941005 0
    outer loop
      vertex -2.59487 0.0632547 3
      vertex -2.5795 0.225866 -3
      vertex -2.5795 0.225866 3
    endloop
  endfacet
  facet normal 0.995563 -0.0941005 0
    outer loop
      vertex -2.5795 0.225866 -3
      vertex -2.59487 0.0632547 3
      vertex -2.59487 0.0632547 -3
    endloop
  endfacet
  facet normal -0.960293 -0.278994 0
    outer loop
      vertex 2.51832 0.546593 -3
      vertex 2.47275 0.703444 3
      vertex 2.47275 0.703444 -3
    endloop
  endfacet
  facet normal -0.960293 -0.278994 0
    outer loop
      vertex 2.47275 0.703444 3
      vertex 2.51832 0.546593 -3
      vertex 2.51832 0.546593 3
    endloop
  endfacet
  facet normal 0.98769 -0.156426 0
    outer loop
      vertex -2.5795 0.225866 3
      vertex -2.55395 0.387191 -3
      vertex -2.55395 0.387191 3
    endloop
  endfacet
  facet normal 0.98769 -0.156426 0
    outer loop
      vertex -2.55395 0.387191 -3
      vertex -2.5795 0.225866 3
      vertex -2.5795 0.225866 -3
    endloop
  endfacet
  facet normal -0.917755 -0.397147 0
    outer loop
      vertex 2.41742 0.857124 -3
      vertex 2.35255 1.00703 3
      vertex 2.35255 1.00703 -3
    endloop
  endfacet
  facet normal -0.917755 -0.397147 0
    outer loop
      vertex 2.35255 1.00703 3
      vertex 2.41742 0.857124 -3
      vertex 2.41742 0.857124 3
    endloop
  endfacet
  facet normal 0.940874 0.338755 0
    outer loop
      vertex -2.41742 -1.05712 3
      vertex -2.47275 -0.903444 -3
      vertex -2.47275 -0.903444 3
    endloop
  endfacet
  facet normal 0.940874 0.338755 0
    outer loop
      vertex -2.47275 -0.903444 -3
      vertex -2.41742 -1.05712 3
      vertex -2.41742 -1.05712 -3
    endloop
  endfacet
  facet normal 0.79017 -0.612888 0
    outer loop
      vertex -2.10344 1.42824 3
      vertex -2.04778 1.5 -3
      vertex -2.04778 1.5 3
    endloop
  endfacet
  facet normal 0.79017 -0.612888 0
    outer loop
      vertex -2.04778 1.5 -3
      vertex -2.10344 1.42824 3
      vertex -2.10344 1.42824 -3
    endloop
  endfacet
  facet normal 0.960293 0.278994 0
    outer loop
      vertex -2.47275 -0.903444 3
      vertex -2.51832 -0.746593 -3
      vertex -2.51832 -0.746593 3
    endloop
  endfacet
  facet normal 0.960293 0.278994 0
    outer loop
      vertex -2.51832 -0.746593 -3
      vertex -2.47275 -0.903444 3
      vertex -2.47275 -0.903444 -3
    endloop
  endfacet
  facet normal 0.999507 0.0314077 0
    outer loop
      vertex -2.59487 -0.263255 3
      vertex -2.6 -0.1 -3
      vertex -2.6 -0.1 3
    endloop
  endfacet
  facet normal 0.999507 0.0314077 0
    outer loop
      vertex -2.6 -0.1 -3
      vertex -2.59487 -0.263255 3
      vertex -2.59487 -0.263255 -3
    endloop
  endfacet
  facet normal 0.940877 -0.338748 0
    outer loop
      vertex -2.47275 0.703444 3
      vertex -2.41742 0.857124 -3
      vertex -2.41742 0.857124 3
    endloop
  endfacet
  facet normal 0.940877 -0.338748 0
    outer loop
      vertex -2.41742 0.857124 -3
      vertex -2.47275 0.703444 3
      vertex -2.47275 0.703444 -3
    endloop
  endfacet
  facet normal 0.960293 -0.278994 0
    outer loop
      vertex -2.51832 0.546593 3
      vertex -2.47275 0.703444 -3
      vertex -2.47275 0.703444 3
    endloop
  endfacet
  facet normal 0.960293 -0.278994 0
    outer loop
      vertex -2.47275 0.703444 -3
      vertex -2.51832 0.546593 3
      vertex -2.51832 0.546593 -3
    endloop
  endfacet
  facet normal 0.917759 0.397138 0
    outer loop
      vertex -2.35255 -1.20703 3
      vertex -2.41742 -1.05712 -3
      vertex -2.41742 -1.05712 3
    endloop
  endfacet
  facet normal 0.917759 0.397138 0
    outer loop
      vertex -2.41742 -1.05712 -3
      vertex -2.35255 -1.20703 3
      vertex -2.35255 -1.20703 -3
    endloop
  endfacet
  facet normal 0.999507 -0.0314078 0
    outer loop
      vertex -2.6 -0.1 3
      vertex -2.59487 0.0632547 -3
      vertex -2.59487 0.0632547 3
    endloop
  endfacet
  facet normal 0.999507 -0.0314078 0
    outer loop
      vertex -2.59487 0.0632547 -3
      vertex -2.6 -0.1 3
      vertex -2.6 -0.1 -3
    endloop
  endfacet
  facet normal -0.98769 0.156426 0
    outer loop
      vertex 2.55395 -0.587191 -3
      vertex 2.5795 -0.425866 3
      vertex 2.5795 -0.425866 -3
    endloop
  endfacet
  facet normal -0.98769 0.156426 0
    outer loop
      vertex 2.5795 -0.425866 3
      vertex 2.55395 -0.587191 -3
      vertex 2.55395 -0.587191 3
    endloop
  endfacet
  facet normal 0.89101 0.453984 0
    outer loop
      vertex -2.2784 -1.35256 3
      vertex -2.35255 -1.20703 -3
      vertex -2.35255 -1.20703 3
    endloop
  endfacet
  facet normal 0.89101 0.453984 0
    outer loop
      vertex -2.35255 -1.20703 -3
      vertex -2.2784 -1.35256 3
      vertex -2.2784 -1.35256 -3
    endloop
  endfacet
  facet normal -0.995563 -0.0941005 0
    outer loop
      vertex 2.59487 0.0632547 -3
      vertex 2.5795 0.225866 3
      vertex 2.5795 0.225866 -3
    endloop
  endfacet
  facet normal -0.995563 -0.0941005 0
    outer loop
      vertex 2.5795 0.225866 3
      vertex 2.59487 0.0632547 -3
      vertex 2.59487 0.0632547 3
    endloop
  endfacet
  facet normal 0.89101 -0.453984 0
    outer loop
      vertex -2.35255 1.00703 3
      vertex -2.2784 1.15256 -3
      vertex -2.2784 1.15256 3
    endloop
  endfacet
  facet normal 0.89101 -0.453984 0
    outer loop
      vertex -2.2784 1.15256 -3
      vertex -2.35255 1.00703 3
      vertex -2.35255 1.00703 -3
    endloop
  endfacet
  facet normal 0.975918 -0.21814 0
    outer loop
      vertex -2.55395 0.387191 3
      vertex -2.51832 0.546593 -3
      vertex -2.51832 0.546593 3
    endloop
  endfacet
  facet normal 0.975918 -0.21814 0
    outer loop
      vertex -2.51832 0.546593 -3
      vertex -2.55395 0.387191 3
      vertex -2.55395 0.387191 -3
    endloop
  endfacet
  facet normal -0.98769 -0.156426 0
    outer loop
      vertex 2.5795 0.225866 -3
      vertex 2.55395 0.387191 3
      vertex 2.55395 0.387191 -3
    endloop
  endfacet
  facet normal -0.98769 -0.156426 0
    outer loop
      vertex 2.55395 0.387191 3
      vertex 2.5795 0.225866 -3
      vertex 2.5795 0.225866 3
    endloop
  endfacet
  facet normal 0.98769 0.156426 0
    outer loop
      vertex -2.55395 -0.587191 3
      vertex -2.5795 -0.425866 -3
      vertex -2.5795 -0.425866 3
    endloop
  endfacet
  facet normal 0.98769 0.156426 0
    outer loop
      vertex -2.5795 -0.425866 -3
      vertex -2.55395 -0.587191 3
      vertex -2.55395 -0.587191 -3
    endloop
  endfacet
  facet normal 0.860728 -0.509065 0
    outer loop
      vertex -2.2784 1.15256 3
      vertex -2.19525 1.29315 -3
      vertex -2.19525 1.29315 3
    endloop
  endfacet
  facet normal 0.860728 -0.509065 0
    outer loop
      vertex -2.19525 1.29315 -3
      vertex -2.2784 1.15256 3
      vertex -2.2784 1.15256 -3
    endloop
  endfacet
  facet normal -0.940874 0.338755 0
    outer loop
      vertex 2.41742 -1.05712 -3
      vertex 2.47275 -0.903444 3
      vertex 2.47275 -0.903444 -3
    endloop
  endfacet
  facet normal -0.940874 0.338755 0
    outer loop
      vertex 2.47275 -0.903444 3
      vertex 2.41742 -1.05712 -3
      vertex 2.41742 -1.05712 3
    endloop
  endfacet
  facet normal -0.827072 0.562096 0
    outer loop
      vertex 2.10344 -1.62824 -3
      vertex 2.19525 -1.49315 3
      vertex 2.19525 -1.49315 -3
    endloop
  endfacet
  facet normal -0.827072 0.562096 0
    outer loop
      vertex 2.19525 -1.49315 3
      vertex 2.10344 -1.62824 -3
      vertex 2.10344 -1.62824 3
    endloop
  endfacet
  facet normal -0.827072 -0.562096 0
    outer loop
      vertex 2.19525 1.29315 -3
      vertex 2.10344 1.42824 3
      vertex 2.10344 1.42824 -3
    endloop
  endfacet
  facet normal -0.827072 -0.562096 0
    outer loop
      vertex 2.10344 1.42824 3
      vertex 2.19525 1.29315 -3
      vertex 2.19525 1.29315 3
    endloop
  endfacet
  facet normal -0.79017 0.612888 0
    outer loop
      vertex 2.04778 -1.7 -3
      vertex 2.10344 -1.62824 3
      vertex 2.10344 -1.62824 -3
    endloop
  endfacet
  facet normal -0.79017 0.612888 0
    outer loop
      vertex 2.10344 -1.62824 3
      vertex 2.04778 -1.7 -3
      vertex 2.04778 -1.7 3
    endloop
  endfacet
  facet normal 0.975918 0.21814 0
    outer loop
      vertex -2.51832 -0.746593 3
      vertex -2.55395 -0.587191 -3
      vertex -2.55395 -0.587191 3
    endloop
  endfacet
  facet normal 0.975918 0.21814 0
    outer loop
      vertex -2.55395 -0.587191 -3
      vertex -2.51832 -0.746593 3
      vertex -2.51832 -0.746593 -3
    endloop
  endfacet
  facet normal -0.750104 -0.66132 0
    outer loop
      vertex -8.74762 -5.31456 -3
      vertex -9.24616 -4.74909 3
      vertex -9.24616 -4.74909 -3
    endloop
  endfacet
  facet normal -0.750104 -0.66132 0
    outer loop
      vertex -9.24616 -4.74909 3
      vertex -8.74762 -5.31456 -3
      vertex -8.74762 -5.31456 3
    endloop
  endfacet
  facet normal 0.975931 -0.218081 0
    outer loop
      vertex 11.623 -0.0842777 3
      vertex 11.7874 0.651425 -3
      vertex 11.7874 0.651425 3
    endloop
  endfacet
  facet normal 0.975931 -0.218081 0
    outer loop
      vertex 11.7874 0.651425 -3
      vertex 11.623 -0.0842777 3
      vertex 11.623 -0.0842777 -3
    endloop
  endfacet
  facet normal 0.917752 -0.397154 0
    outer loop
      vertex 10.8579 -2.20935 3
      vertex 11.1573 -1.51749 -3
      vertex 11.1573 -1.51749 3
    endloop
  endfacet
  facet normal 0.917752 -0.397154 0
    outer loop
      vertex 11.1573 -1.51749 -3
      vertex 10.8579 -2.20935 3
      vertex 10.8579 -2.20935 -3
    endloop
  endfacet
  facet normal -0.156525 0.987674 0
    outer loop
      vertex -1.504 14.8054 -3
      vertex -2.24858 14.6874 3
      vertex -1.504 14.8054 3
    endloop
  endfacet
  facet normal -0.156525 0.987674 0
    outer loop
      vertex -2.24858 14.6874 3
      vertex -1.504 14.8054 -3
      vertex -2.24858 14.6874 -3
    endloop
  endfacet
  facet normal 0.790161 -0.6129 0
    outer loop
      vertex 9.24616 -4.74909 3
      vertex 9.7082 -4.15342 -3
      vertex 9.7082 -4.15342 3
    endloop
  endfacet
  facet normal 0.790161 -0.6129 0
    outer loop
      vertex 9.7082 -4.15342 -3
      vertex 9.24616 -4.74909 3
      vertex 9.24616 -4.74909 -3
    endloop
  endfacet
  facet normal 0.66132 -0.750104 0
    outer loop
      vertex 7.64909 -6.34616 -3
      vertex 8.21456 -5.84762 3
      vertex 7.64909 -6.34616 3
    endloop
  endfacet
  facet normal 0.66132 -0.750104 0
    outer loop
      vertex 8.21456 -5.84762 3
      vertex 7.64909 -6.34616 -3
      vertex 8.21456 -5.84762 -3
    endloop
  endfacet
  facet normal -0.827099 0.562056 0
    outer loop
      vertex -10.1319 9.32992 -3
      vertex -9.7082 9.95342 3
      vertex -9.7082 9.95342 -3
    endloop
  endfacet
  facet normal -0.827099 0.562056 0
    outer loop
      vertex -9.7082 9.95342 3
      vertex -10.1319 9.32992 -3
      vertex -10.1319 9.32992 3
    endloop
  endfacet
  facet normal -0.156435 -0.987688 0
    outer loop
      vertex -2.24858 -8.88745 -3
      vertex -1.504 -9.00538 3
      vertex -2.24858 -8.88745 3
    endloop
  endfacet
  facet normal -0.156435 -0.987688 -0
    outer loop
      vertex -1.504 -9.00538 3
      vertex -2.24858 -8.88745 -3
      vertex -1.504 -9.00538 -3
    endloop
  endfacet
  facet normal -0.750121 0.6613 0
    outer loop
      vertex -9.24616 10.5491 -3
      vertex -8.74762 11.1146 3
      vertex -8.74762 11.1146 -3
    endloop
  endfacet
  facet normal -0.750121 0.6613 0
    outer loop
      vertex -8.74762 11.1146 3
      vertex -9.24616 10.5491 -3
      vertex -9.24616 10.5491 3
    endloop
  endfacet
  facet normal 0.707067 0.707147 0
    outer loop
      vertex 8.74762 11.1146 3
      vertex 8.21456 11.6476 -3
      vertex 8.21456 11.6476 3
    endloop
  endfacet
  facet normal 0.707067 0.707147 0
    outer loop
      vertex 8.21456 11.6476 -3
      vertex 8.74762 11.1146 3
      vertex 8.74762 11.1146 -3
    endloop
  endfacet
  facet normal 0.0314383 0.999506 -0
    outer loop
      vertex 0.753486 14.8763 -3
      vertex 0 14.9 3
      vertex 0.753486 14.8763 3
    endloop
  endfacet
  facet normal 0.0314383 0.999506 0
    outer loop
      vertex 0 14.9 3
      vertex 0.753486 14.8763 -3
      vertex 0 14.9 -3
    endloop
  endfacet
  facet normal -0.338785 0.940864 0
    outer loop
      vertex -3.7082 14.3127 -3
      vertex -4.41749 14.0573 3
      vertex -3.7082 14.3127 3
    endloop
  endfacet
  facet normal -0.338785 0.940864 0
    outer loop
      vertex -4.41749 14.0573 3
      vertex -3.7082 14.3127 -3
      vertex -4.41749 14.0573 -3
    endloop
  endfacet
  facet normal -0.612866 0.790186 0
    outer loop
      vertex -7.05342 12.6082 -3
      vertex -7.64909 12.1462 3
      vertex -7.05342 12.6082 3
    endloop
  endfacet
  facet normal -0.612866 0.790186 0
    outer loop
      vertex -7.64909 12.1462 3
      vertex -7.05342 12.6082 -3
      vertex -7.64909 12.1462 -3
    endloop
  endfacet
  facet normal -0.397154 0.917752 0
    outer loop
      vertex -4.41749 14.0573 -3
      vertex -5.10935 13.7579 3
      vertex -4.41749 14.0573 3
    endloop
  endfacet
  facet normal -0.397154 0.917752 0
    outer loop
      vertex -5.10935 13.7579 3
      vertex -4.41749 14.0573 -3
      vertex -5.10935 13.7579 -3
    endloop
  endfacet
  facet normal 0.940863 -0.338786 0
    outer loop
      vertex 11.1573 -1.51749 3
      vertex 11.4127 -0.808203 -3
      vertex 11.4127 -0.808203 3
    endloop
  endfacet
  facet normal 0.940863 -0.338786 0
    outer loop
      vertex 11.4127 -0.808203 -3
      vertex 11.1573 -1.51749 3
      vertex 11.1573 -1.51749 -3
    endloop
  endfacet
  facet normal 0.397154 0.917752 -0
    outer loop
      vertex 5.10935 13.7579 -3
      vertex 4.41749 14.0573 3
      vertex 5.10935 13.7579 3
    endloop
  endfacet
  facet normal 0.397154 0.917752 0
    outer loop
      vertex 4.41749 14.0573 3
      vertex 5.10935 13.7579 -3
      vertex 4.41749 14.0573 -3
    endloop
  endfacet
  facet normal 0.0940499 0.995567 -0
    outer loop
      vertex 1.504 14.8054 -3
      vertex 0.753486 14.8763 3
      vertex 1.504 14.8054 3
    endloop
  endfacet
  facet normal 0.0940499 0.995567 0
    outer loop
      vertex 0.753486 14.8763 3
      vertex 1.504 14.8054 -3
      vertex 0.753486 14.8763 -3
    endloop
  endfacet
  facet normal 0.156435 -0.987688 0
    outer loop
      vertex 1.504 -9.00538 -3
      vertex 2.24858 -8.88745 3
      vertex 1.504 -9.00538 3
    endloop
  endfacet
  facet normal 0.156435 -0.987688 0
    outer loop
      vertex 2.24858 -8.88745 3
      vertex 1.504 -9.00538 -3
      vertex 2.24858 -8.88745 -3
    endloop
  endfacet
  facet normal 0.999506 0.0314381 0
    outer loop
      vertex 12 2.9 3
      vertex 11.9763 3.65349 -3
      vertex 11.9763 3.65349 3
    endloop
  endfacet
  facet normal 0.999506 0.0314381 0
    outer loop
      vertex 11.9763 3.65349 -3
      vertex 12 2.9 3
      vertex 12 2.9 -3
    endloop
  endfacet
  facet normal -0.218145 -0.975916 0
    outer loop
      vertex -2.98428 -8.723 -3
      vertex -2.24858 -8.88745 3
      vertex -2.98428 -8.723 3
    endloop
  endfacet
  facet normal -0.218145 -0.975916 -0
    outer loop
      vertex -2.24858 -8.88745 3
      vertex -2.98428 -8.723 -3
      vertex -2.24858 -8.88745 -3
    endloop
  endfacet
  facet normal -0.940863 -0.338786 0
    outer loop
      vertex -11.1573 -1.51749 -3
      vertex -11.4127 -0.808203 3
      vertex -11.4127 -0.808203 -3
    endloop
  endfacet
  facet normal -0.940863 -0.338786 0
    outer loop
      vertex -11.4127 -0.808203 3
      vertex -11.1573 -1.51749 -3
      vertex -11.1573 -1.51749 3
    endloop
  endfacet
  facet normal 0.97593 0.218082 0
    outer loop
      vertex 11.7874 5.14858 3
      vertex 11.623 5.88428 -3
      vertex 11.623 5.88428 3
    endloop
  endfacet
  facet normal 0.97593 0.218082 0
    outer loop
      vertex 11.623 5.88428 -3
      vertex 11.7874 5.14858 3
      vertex 11.7874 5.14858 -3
    endloop
  endfacet
  facet normal 0.453945 0.89103 -0
    outer loop
      vertex 5.78104 13.4157 -3
      vertex 5.10935 13.7579 3
      vertex 5.78104 13.4157 3
    endloop
  endfacet
  facet normal 0.453945 0.89103 0
    outer loop
      vertex 5.10935 13.7579 3
      vertex 5.78104 13.4157 -3
      vertex 5.10935 13.7579 -3
    endloop
  endfacet
  facet normal -0.860711 -0.509094 0
    outer loop
      vertex -10.1319 -3.52992 -3
      vertex -10.5157 -2.88104 3
      vertex -10.5157 -2.88104 -3
    endloop
  endfacet
  facet normal -0.860711 -0.509094 0
    outer loop
      vertex -10.5157 -2.88104 3
      vertex -10.1319 -3.52992 -3
      vertex -10.1319 -3.52992 3
    endloop
  endfacet
  facet normal -0.0314383 0.999506 0
    outer loop
      vertex 0 14.9 -3
      vertex -0.753486 14.8763 3
      vertex 0 14.9 3
    endloop
  endfacet
  facet normal -0.0314383 0.999506 0
    outer loop
      vertex -0.753486 14.8763 3
      vertex 0 14.9 -3
      vertex -0.753486 14.8763 -3
    endloop
  endfacet
  facet normal -0.0940499 0.995567 0
    outer loop
      vertex -0.753486 14.8763 -3
      vertex -1.504 14.8054 3
      vertex -0.753486 14.8763 3
    endloop
  endfacet
  facet normal -0.0940499 0.995567 0
    outer loop
      vertex -1.504 14.8054 3
      vertex -0.753486 14.8763 -3
      vertex -1.504 14.8054 -3
    endloop
  endfacet
  facet normal -0.987674 -0.156526 0
    outer loop
      vertex -11.7874 0.651425 -3
      vertex -11.9054 1.396 3
      vertex -11.9054 1.396 -3
    endloop
  endfacet
  facet normal -0.987674 -0.156526 0
    outer loop
      vertex -11.9054 1.396 3
      vertex -11.7874 0.651425 -3
      vertex -11.7874 0.651425 3
    endloop
  endfacet
  facet normal -0.940864 0.338785 0
    outer loop
      vertex -11.4127 6.6082 -3
      vertex -11.1573 7.31749 3
      vertex -11.1573 7.31749 -3
    endloop
  endfacet
  facet normal -0.940864 0.338785 0
    outer loop
      vertex -11.1573 7.31749 3
      vertex -11.4127 6.6082 -3
      vertex -11.4127 6.6082 3
    endloop
  endfacet
  facet normal -0.97593 0.218082 0
    outer loop
      vertex -11.7874 5.14858 -3
      vertex -11.623 5.88428 3
      vertex -11.623 5.88428 -3
    endloop
  endfacet
  facet normal -0.97593 0.218082 0
    outer loop
      vertex -11.623 5.88428 3
      vertex -11.7874 5.14858 -3
      vertex -11.7874 5.14858 3
    endloop
  endfacet
  facet normal -0.999506 0.0314381 0
    outer loop
      vertex -12 2.9 -3
      vertex -11.9763 3.65349 3
      vertex -11.9763 3.65349 -3
    endloop
  endfacet
  facet normal -0.999506 0.0314381 0
    outer loop
      vertex -11.9763 3.65349 3
      vertex -12 2.9 -3
      vertex -12 2.9 3
    endloop
  endfacet
  facet normal 0.750121 0.6613 0
    outer loop
      vertex 9.24616 10.5491 3
      vertex 8.74762 11.1146 -3
      vertex 8.74762 11.1146 3
    endloop
  endfacet
  facet normal 0.750121 0.6613 0
    outer loop
      vertex 8.74762 11.1146 -3
      vertex 9.24616 10.5491 3
      vertex 9.24616 10.5491 -3
    endloop
  endfacet
  facet normal 0.999506 -0.0314381 0
    outer loop
      vertex 11.9763 2.14651 3
      vertex 12 2.9 -3
      vertex 12 2.9 3
    endloop
  endfacet
  facet normal 0.999506 -0.0314381 0
    outer loop
      vertex 12 2.9 -3
      vertex 11.9763 2.14651 3
      vertex 11.9763 2.14651 -3
    endloop
  endfacet
  facet normal -0.397154 -0.917752 0
    outer loop
      vertex -5.10935 -7.95792 -3
      vertex -4.41749 -8.25732 3
      vertex -5.10935 -7.95792 3
    endloop
  endfacet
  facet normal -0.397154 -0.917752 -0
    outer loop
      vertex -4.41749 -8.25732 3
      vertex -5.10935 -7.95792 -3
      vertex -4.41749 -8.25732 -3
    endloop
  endfacet
  facet normal 0.860711 0.509094 0
    outer loop
      vertex 10.5157 8.68104 3
      vertex 10.1319 9.32992 -3
      vertex 10.1319 9.32992 3
    endloop
  endfacet
  facet normal 0.860711 0.509094 0
    outer loop
      vertex 10.1319 9.32992 -3
      vertex 10.5157 8.68104 3
      vertex 10.5157 8.68104 -3
    endloop
  endfacet
  facet normal 0.278993 -0.960293 0
    outer loop
      vertex 2.98428 -8.723 -3
      vertex 3.7082 -8.51268 3
      vertex 2.98428 -8.723 3
    endloop
  endfacet
  facet normal 0.278993 -0.960293 0
    outer loop
      vertex 3.7082 -8.51268 3
      vertex 2.98428 -8.723 -3
      vertex 3.7082 -8.51268 -3
    endloop
  endfacet
  facet normal 0.218082 0.97593 -0
    outer loop
      vertex 2.98428 14.523 -3
      vertex 2.24858 14.6874 3
      vertex 2.98428 14.523 3
    endloop
  endfacet
  facet normal 0.218082 0.97593 0
    outer loop
      vertex 2.24858 14.6874 3
      vertex 2.98428 14.523 -3
      vertex 2.24858 14.6874 -3
    endloop
  endfacet
  facet normal 0.89103 -0.453945 0
    outer loop
      vertex 10.5157 -2.88104 3
      vertex 10.8579 -2.20935 -3
      vertex 10.8579 -2.20935 3
    endloop
  endfacet
  facet normal 0.89103 -0.453945 0
    outer loop
      vertex 10.8579 -2.20935 -3
      vertex 10.5157 -2.88104 3
      vertex 10.5157 -2.88104 -3
    endloop
  endfacet
  facet normal -0.89103 -0.453945 0
    outer loop
      vertex -10.5157 -2.88104 -3
      vertex -10.8579 -2.20935 3
      vertex -10.8579 -2.20935 -3
    endloop
  endfacet
  facet normal -0.89103 -0.453945 0
    outer loop
      vertex -10.8579 -2.20935 3
      vertex -10.5157 -2.88104 -3
      vertex -10.5157 -2.88104 3
    endloop
  endfacet
  facet normal 0.0314118 -0.999507 0
    outer loop
      vertex 0 -9.1 -3
      vertex 0.753486 -9.07632 3
      vertex 0 -9.1 3
    endloop
  endfacet
  facet normal 0.0314118 -0.999507 0
    outer loop
      vertex 0.753486 -9.07632 3
      vertex 0 -9.1 -3
      vertex 0.753486 -9.07632 -3
    endloop
  endfacet
  facet normal 0.987674 0.156525 0
    outer loop
      vertex 11.9054 4.404 3
      vertex 11.7874 5.14858 -3
      vertex 11.7874 5.14858 3
    endloop
  endfacet
  facet normal 0.987674 0.156525 0
    outer loop
      vertex 11.7874 5.14858 -3
      vertex 11.9054 4.404 3
      vertex 11.9054 4.404 -3
    endloop
  endfacet
  facet normal -0.0314118 -0.999507 0
    outer loop
      vertex -0.753486 -9.07632 -3
      vertex 0 -9.1 3
      vertex -0.753486 -9.07632 3
    endloop
  endfacet
  facet normal -0.0314118 -0.999507 -0
    outer loop
      vertex 0 -9.1 3
      vertex -0.753486 -9.07632 -3
      vertex 0 -9.1 -3
    endloop
  endfacet
  facet normal 0.790166 0.612893 0
    outer loop
      vertex 9.7082 9.95342 3
      vertex 9.24616 10.5491 -3
      vertex 9.24616 10.5491 3
    endloop
  endfacet
  facet normal 0.790166 0.612893 0
    outer loop
      vertex 9.24616 10.5491 -3
      vertex 9.7082 9.95342 3
      vertex 9.7082 9.95342 -3
    endloop
  endfacet
  facet normal 0.9603 0.278969 0
    outer loop
      vertex 11.623 5.88428 3
      vertex 11.4127 6.6082 -3
      vertex 11.4127 6.6082 3
    endloop
  endfacet
  facet normal 0.9603 0.278969 0
    outer loop
      vertex 11.4127 6.6082 -3
      vertex 11.623 5.88428 3
      vertex 11.623 5.88428 -3
    endloop
  endfacet
  facet normal 0.995567 0.0940504 0
    outer loop
      vertex 11.9763 3.65349 3
      vertex 11.9054 4.404 -3
      vertex 11.9054 4.404 3
    endloop
  endfacet
  facet normal 0.995567 0.0940504 0
    outer loop
      vertex 11.9054 4.404 -3
      vertex 11.9763 3.65349 3
      vertex 11.9763 3.65349 -3
    endloop
  endfacet
  facet normal 0.612866 0.790186 -0
    outer loop
      vertex 7.64909 12.1462 -3
      vertex 7.05342 12.6082 3
      vertex 7.64909 12.1462 3
    endloop
  endfacet
  facet normal 0.612866 0.790186 0
    outer loop
      vertex 7.05342 12.6082 3
      vertex 7.64909 12.1462 -3
      vertex 7.05342 12.6082 -3
    endloop
  endfacet
  facet normal -0.338738 -0.940881 0
    outer loop
      vertex -4.41749 -8.25732 -3
      vertex -3.7082 -8.51268 3
      vertex -4.41749 -8.25732 3
    endloop
  endfacet
  facet normal -0.338738 -0.940881 -0
    outer loop
      vertex -3.7082 -8.51268 3
      vertex -4.41749 -8.25732 -3
      vertex -3.7082 -8.51268 -3
    endloop
  endfacet
  facet normal 0.89103 0.453945 0
    outer loop
      vertex 10.8579 8.00935 3
      vertex 10.5157 8.68104 -3
      vertex 10.5157 8.68104 3
    endloop
  endfacet
  facet normal 0.89103 0.453945 0
    outer loop
      vertex 10.5157 8.68104 -3
      vertex 10.8579 8.00935 3
      vertex 10.8579 8.00935 -3
    endloop
  endfacet
  facet normal -0.707107 -0.707107 0
    outer loop
      vertex -8.21456 -5.84762 -3
      vertex -8.74762 -5.31456 3
      vertex -8.74762 -5.31456 -3
    endloop
  endfacet
  facet normal -0.707107 -0.707107 0
    outer loop
      vertex -8.74762 -5.31456 3
      vertex -8.21456 -5.84762 -3
      vertex -8.21456 -5.84762 3
    endloop
  endfacet
  facet normal -0.917752 0.397154 0
    outer loop
      vertex -11.1573 7.31749 -3
      vertex -10.8579 8.00935 3
      vertex -10.8579 8.00935 -3
    endloop
  endfacet
  facet normal -0.917752 0.397154 0
    outer loop
      vertex -10.8579 8.00935 3
      vertex -11.1573 7.31749 -3
      vertex -11.1573 7.31749 3
    endloop
  endfacet
  facet normal 0.338785 0.940864 -0
    outer loop
      vertex 4.41749 14.0573 -3
      vertex 3.7082 14.3127 3
      vertex 4.41749 14.0573 3
    endloop
  endfacet
  facet normal 0.338785 0.940864 0
    outer loop
      vertex 3.7082 14.3127 3
      vertex 4.41749 14.0573 -3
      vertex 3.7082 14.3127 -3
    endloop
  endfacet
  facet normal -0.218082 0.97593 0
    outer loop
      vertex -2.24858 14.6874 -3
      vertex -2.98428 14.523 3
      vertex -2.24858 14.6874 3
    endloop
  endfacet
  facet normal -0.218082 0.97593 0
    outer loop
      vertex -2.98428 14.523 3
      vertex -2.24858 14.6874 -3
      vertex -2.98428 14.523 -3
    endloop
  endfacet
  facet normal -0.453987 -0.891008 0
    outer loop
      vertex -5.78104 -7.61568 -3
      vertex -5.10935 -7.95792 3
      vertex -5.78104 -7.61568 3
    endloop
  endfacet
  facet normal -0.453987 -0.891008 -0
    outer loop
      vertex -5.10935 -7.95792 3
      vertex -5.78104 -7.61568 -3
      vertex -5.10935 -7.95792 -3
    endloop
  endfacet
  facet normal -0.562056 0.827099 0
    outer loop
      vertex -6.42992 13.0319 -3
      vertex -7.05342 12.6082 3
      vertex -6.42992 13.0319 3
    endloop
  endfacet
  facet normal -0.562056 0.827099 0
    outer loop
      vertex -7.05342 12.6082 3
      vertex -6.42992 13.0319 -3
      vertex -7.05342 12.6082 -3
    endloop
  endfacet
  facet normal -0.995567 0.0940504 0
    outer loop
      vertex -11.9763 3.65349 -3
      vertex -11.9054 4.404 3
      vertex -11.9054 4.404 -3
    endloop
  endfacet
  facet normal -0.995567 0.0940504 0
    outer loop
      vertex -11.9054 4.404 3
      vertex -11.9763 3.65349 -3
      vertex -11.9763 3.65349 3
    endloop
  endfacet
  facet normal 0.562056 0.827099 -0
    outer loop
      vertex 7.05342 12.6082 -3
      vertex 6.42992 13.0319 3
      vertex 7.05342 12.6082 3
    endloop
  endfacet
  facet normal 0.562056 0.827099 0
    outer loop
      vertex 6.42992 13.0319 3
      vertex 7.05342 12.6082 -3
      vertex 6.42992 13.0319 -3
    endloop
  endfacet
  facet normal 0.987674 -0.156526 0
    outer loop
      vertex 11.7874 0.651425 3
      vertex 11.9054 1.396 -3
      vertex 11.9054 1.396 3
    endloop
  endfacet
  facet normal 0.987674 -0.156526 0
    outer loop
      vertex 11.9054 1.396 -3
      vertex 11.7874 0.651425 3
      vertex 11.7874 0.651425 -3
    endloop
  endfacet
  facet normal -0.987674 0.156525 0
    outer loop
      vertex -11.9054 4.404 -3
      vertex -11.7874 5.14858 3
      vertex -11.7874 5.14858 -3
    endloop
  endfacet
  facet normal -0.987674 0.156525 0
    outer loop
      vertex -11.7874 5.14858 3
      vertex -11.9054 4.404 -3
      vertex -11.9054 4.404 3
    endloop
  endfacet
  facet normal -0.66132 -0.750104 0
    outer loop
      vertex -8.21456 -5.84762 -3
      vertex -7.64909 -6.34616 3
      vertex -8.21456 -5.84762 3
    endloop
  endfacet
  facet normal -0.66132 -0.750104 -0
    outer loop
      vertex -7.64909 -6.34616 3
      vertex -8.21456 -5.84762 -3
      vertex -7.64909 -6.34616 -3
    endloop
  endfacet
  facet normal -0.827099 -0.562056 0
    outer loop
      vertex -9.7082 -4.15342 -3
      vertex -10.1319 -3.52992 3
      vertex -10.1319 -3.52992 -3
    endloop
  endfacet
  facet normal -0.827099 -0.562056 0
    outer loop
      vertex -10.1319 -3.52992 3
      vertex -9.7082 -4.15342 -3
      vertex -9.7082 -4.15342 3
    endloop
  endfacet
  facet normal 0.661365 0.750064 -0
    outer loop
      vertex 8.21456 11.6476 -3
      vertex 7.64909 12.1462 3
      vertex 8.21456 11.6476 3
    endloop
  endfacet
  facet normal 0.661365 0.750064 0
    outer loop
      vertex 7.64909 12.1462 3
      vertex 8.21456 11.6476 -3
      vertex 7.64909 12.1462 -3
    endloop
  endfacet
  facet normal -0.790166 0.612893 0
    outer loop
      vertex -9.7082 9.95342 -3
      vertex -9.24616 10.5491 3
      vertex -9.24616 10.5491 -3
    endloop
  endfacet
  facet normal -0.790166 0.612893 0
    outer loop
      vertex -9.24616 10.5491 3
      vertex -9.7082 9.95342 -3
      vertex -9.7082 9.95342 3
    endloop
  endfacet
  facet normal 0 0 -1
    outer loop
      vertex 2.41742 0.857124 -3
      vertex 12 2.9 -3
      vertex 11.9763 2.14651 -3
    endloop
  endfacet
  facet normal 0 0 -1
    outer loop
      vertex 2.47275 0.703444 -3
      vertex 11.9763 2.14651 -3
      vertex 11.9054 1.396 -3
    endloop
  endfacet
  facet normal 0 0 -1
    outer loop
      vertex 2.35255 1.00703 -3
      vertex 12 2.9 -3
      vertex 2.41742 0.857124 -3
    endloop
  endfacet
  facet normal 0 0 -1
    outer loop
      vertex 2.51832 0.546593 -3
      vertex 11.9054 1.396 -3
      vertex 11.7874 0.651425 -3
    endloop
  endfacet
  facet normal -0 0 -1
    outer loop
      vertex 12 2.9 -3
      vertex 2.35255 1.00703 -3
      vertex 11.9763 3.65349 -3
    endloop
  endfacet
  facet normal 0 0 -1
    outer loop
      vertex 2.55395 0.387191 -3
      vertex 11.7874 0.651425 -3
      vertex 11.623 -0.0842777 -3
    endloop
  endfacet
  facet normal 0 0 -1
    outer loop
      vertex 2.2784 1.15256 -3
      vertex 11.9763 3.65349 -3
      vertex 2.35255 1.00703 -3
    endloop
  endfacet
  facet normal 0 0 -1
    outer loop
      vertex 2.5795 0.225866 -3
      vertex 11.623 -0.0842777 -3
      vertex 11.4127 -0.808203 -3
    endloop
  endfacet
  facet normal -0 0 -1
    outer loop
      vertex 11.9763 3.65349 -3
      vertex 2.2784 1.15256 -3
      vertex 11.9054 4.404 -3
    endloop
  endfacet
  facet normal 0 0 -1
    outer loop
      vertex 2.59487 0.0632547 -3
      vertex 11.4127 -0.808203 -3
      vertex 11.1573 -1.51749 -3
    endloop
  endfacet
  facet normal 0 0 -1
    outer loop
      vertex 2.19525 1.29315 -3
      vertex 11.9054 4.404 -3
      vertex 2.2784 1.15256 -3
    endloop
  endfacet
  facet normal 0 0 -1
    outer loop
      vertex 2.6 -0.1 -3
      vertex 11.1573 -1.51749 -3
      vertex 10.8579 -2.20935 -3
    endloop
  endfacet
  facet normal 0 0 -1
    outer loop
      vertex 11.9763 2.14651 -3
      vertex 2.47275 0.703444 -3
      vertex 2.41742 0.857124 -3
    endloop
  endfacet
  facet normal 0 0 -1
    outer loop
      vertex 2.59487 -0.263255 -3
      vertex 10.8579 -2.20935 -3
      vertex 10.5157 -2.88104 -3
    endloop
  endfacet
  facet normal -0 0 -1
    outer loop
      vertex 11.9054 4.404 -3
      vertex 2.19525 1.29315 -3
      vertex 11.7874 5.14858 -3
    endloop
  endfacet
  facet normal 0 0 -1
    outer loop
      vertex 2.5795 -0.425866 -3
      vertex 10.5157 -2.88104 -3
      vertex 10.1319 -3.52992 -3
    endloop
  endfacet
  facet normal -0 0 -1
    outer loop
      vertex 11.7874 5.14858 -3
      vertex 2.19525 1.29315 -3
      vertex 11.623 5.88428 -3
    endloop
  endfacet
  facet normal 0 0 -1
    outer loop
      vertex 2.55395 -0.587191 -3
      vertex 10.1319 -3.52992 -3
      vertex 9.7082 -4.15342 -3
    endloop
  endfacet
  facet normal 0 0 -1
    outer loop
      vertex 2.10344 1.42824 -3
      vertex 11.623 5.88428 -3
      vertex 2.19525 1.29315 -3
    endloop
  endfacet
  facet normal 0 0 -1
    outer loop
      vertex 2.47275 -0.903444 -3
      vertex 9.7082 -4.15342 -3
      vertex 9.24616 -4.74909 -3
    endloop
  endfacet
  facet normal 0 0 -1
    outer loop
      vertex 11.9054 1.396 -3
      vertex 2.51832 0.546593 -3
      vertex 2.47275 0.703444 -3
    endloop
  endfacet
  facet normal 0 0 -1
    outer loop
      vertex 2.41742 -1.05712 -3
      vertex 9.24616 -4.74909 -3
      vertex 8.74762 -5.31456 -3
    endloop
  endfacet
  facet normal -0 0 -1
    outer loop
      vertex 11.623 5.88428 -3
      vertex 2.10344 1.42824 -3
      vertex 11.4127 6.6082 -3
    endloop
  endfacet
  facet normal 0 0 -1
    outer loop
      vertex 2.35255 -1.20703 -3
      vertex 8.74762 -5.31456 -3
      vertex 8.21456 -5.84762 -3
    endloop
  endfacet
  facet normal 0 0 -1
    outer loop
      vertex 2.04778 1.5 -3
      vertex 11.4127 6.6082 -3
      vertex 2.10344 1.42824 -3
    endloop
  endfacet
  facet normal 0 0 -1
    outer loop
      vertex 2.2784 -1.35256 -3
      vertex 8.21456 -5.84762 -3
      vertex 7.64909 -6.34616 -3
    endloop
  endfacet
  facet normal 0 0 -1
    outer loop
      vertex 11.7874 0.651425 -3
      vertex 2.55395 0.387191 -3
      vertex 2.51832 0.546593 -3
    endloop
  endfacet
  facet normal 0 0 -1
    outer loop
      vertex 2.10344 -1.62824 -3
      vertex 7.64909 -6.34616 -3
      vertex 7.05342 -6.8082 -3
    endloop
  endfacet
  facet normal -0 0 -1
    outer loop
      vertex 11.4127 6.6082 -3
      vertex 2.04778 1.5 -3
      vertex 11.1573 7.31749 -3
    endloop
  endfacet
  facet normal 0 0 -1
    outer loop
      vertex 2.04778 -1.7 -3
      vertex 7.05342 -6.8082 -3
      vertex 6.42992 -7.23193 -3
    endloop
  endfacet
  facet normal -0 0 -1
    outer loop
      vertex 11.1573 7.31749 -3
      vertex 2.04778 1.5 -3
      vertex 10.8579 8.00935 -3
    endloop
  endfacet
  facet normal 0 0 -1
    outer loop
      vertex 2.04778 -1.7 -3
      vertex 6.42992 -7.23193 -3
      vertex 5.78104 -7.61568 -3
    endloop
  endfacet
  facet normal 0 0 -1
    outer loop
      vertex 11.623 -0.0842777 -3
      vertex 2.5795 0.225866 -3
      vertex 2.55395 0.387191 -3
    endloop
  endfacet
  facet normal 0 0 -1
    outer loop
      vertex 2.04778 -1.7 -3
      vertex 5.78104 -7.61568 -3
      vertex 5.10935 -7.95792 -3
    endloop
  endfacet
  facet normal -0 0 -1
    outer loop
      vertex 10.8579 8.00935 -3
      vertex 2.04778 1.5 -3
      vertex 10.5157 8.68104 -3
    endloop
  endfacet
  facet normal 0 0 -1
    outer loop
      vertex 2.04778 -1.7 -3
      vertex 5.10935 -7.95792 -3
      vertex 4.41749 -8.25732 -3
    endloop
  endfacet
  facet normal 0 0 -1
    outer loop
      vertex 11.4127 -0.808203 -3
      vertex 2.59487 0.0632547 -3
      vertex 2.5795 0.225866 -3
    endloop
  endfacet
  facet normal 0 0 -1
    outer loop
      vertex 2.04778 -1.7 -3
      vertex 4.41749 -8.25732 -3
      vertex 3.7082 -8.51268 -3
    endloop
  endfacet
  facet normal -0 0 -1
    outer loop
      vertex 10.5157 8.68104 -3
      vertex 2.04778 1.5 -3
      vertex 10.1319 9.32992 -3
    endloop
  endfacet
  facet normal 0 0 -1
    outer loop
      vertex 2.04778 -1.7 -3
      vertex 3.7082 -8.51268 -3
      vertex 2.98428 -8.723 -3
    endloop
  endfacet
  facet normal 0 0 -1
    outer loop
      vertex 11.1573 -1.51749 -3
      vertex 2.6 -0.1 -3
      vertex 2.59487 0.0632547 -3
    endloop
  endfacet
  facet normal -0 0 -1
    outer loop
      vertex 10.1319 9.32992 -3
      vertex 2.04778 1.5 -3
      vertex 9.7082 9.95342 -3
    endloop
  endfacet
  facet normal 0 0 -1
    outer loop
      vertex 10.8579 -2.20935 -3
      vertex 2.59487 -0.263255 -3
      vertex 2.6 -0.1 -3
    endloop
  endfacet
  facet normal 0 0 -1
    outer loop
      vertex 10.5157 -2.88104 -3
      vertex 2.5795 -0.425866 -3
      vertex 2.59487 -0.263255 -3
    endloop
  endfacet
  facet normal 0 0 -1
    outer loop
      vertex 10.1319 -3.52992 -3
      vertex 2.55395 -0.587191 -3
      vertex 2.5795 -0.425866 -3
    endloop
  endfacet
  facet normal 0 0 -1
    outer loop
      vertex 9.7082 -4.15342 -3
      vertex 2.51832 -0.746593 -3
      vertex 2.55395 -0.587191 -3
    endloop
  endfacet
  facet normal 0 0 -1
    outer loop
      vertex 9.7082 -4.15342 -3
      vertex 2.47275 -0.903444 -3
      vertex 2.51832 -0.746593 -3
    endloop
  endfacet
  facet normal 0 0 -1
    outer loop
      vertex 9.24616 -4.74909 -3
      vertex 2.41742 -1.05712 -3
      vertex 2.47275 -0.903444 -3
    endloop
  endfacet
  facet normal 0 0 -1
    outer loop
      vertex 8.74762 -5.31456 -3
      vertex 2.35255 -1.20703 -3
      vertex 2.41742 -1.05712 -3
    endloop
  endfacet
  facet normal 0 0 -1
    outer loop
      vertex 8.21456 -5.84762 -3
      vertex 2.2784 -1.35256 -3
      vertex 2.35255 -1.20703 -3
    endloop
  endfacet
  facet normal 0 0 -1
    outer loop
      vertex 2.04778 -1.7 -3
      vertex 2.98428 -8.723 -3
      vertex 2.24858 -8.88745 -3
    endloop
  endfacet
  facet normal 0 0 -1
    outer loop
      vertex 7.64909 -6.34616 -3
      vertex 2.19525 -1.49315 -3
      vertex 2.2784 -1.35256 -3
    endloop
  endfacet
  facet normal 0 0 -1
    outer loop
      vertex 7.64909 -6.34616 -3
      vertex 2.10344 -1.62824 -3
      vertex 2.19525 -1.49315 -3
    endloop
  endfacet
  facet normal 0 0 -1
    outer loop
      vertex 7.05342 -6.8082 -3
      vertex 2.04778 -1.7 -3
      vertex 2.10344 -1.62824 -3
    endloop
  endfacet
  facet normal 0 0 -1
    outer loop
      vertex 1.504 -9.00538 -3
      vertex 2.04778 -1.7 -3
      vertex 2.24858 -8.88745 -3
    endloop
  endfacet
  facet normal 0 0 -1
    outer loop
      vertex 0.753486 -9.07632 -3
      vertex 2.04778 -1.7 -3
      vertex 1.504 -9.00538 -3
    endloop
  endfacet
  facet normal 0 0 -1
    outer loop
      vertex 0 -9.1 -3
      vertex 2.04778 -1.7 -3
      vertex 0.753486 -9.07632 -3
    endloop
  endfacet
  facet normal 0 0 -1
    outer loop
      vertex -2.04778 -1.7 -3
      vertex 0 -9.1 -3
      vertex -0.753486 -9.07632 -3
    endloop
  endfacet
  facet normal 0 0 -1
    outer loop
      vertex -2.04778 -1.7 -3
      vertex -0.753486 -9.07632 -3
      vertex -1.504 -9.00538 -3
    endloop
  endfacet
  facet normal 0 0 -1
    outer loop
      vertex 0 -9.1 -3
      vertex -2.04778 -1.7 -3
      vertex 2.04778 -1.7 -3
    endloop
  endfacet
  facet normal 0 0 -1
    outer loop
      vertex -2.24858 -8.88745 -3
      vertex -2.04778 -1.7 -3
      vertex -1.504 -9.00538 -3
    endloop
  endfacet
  facet normal 0 0 -1
    outer loop
      vertex -2.98428 -8.723 -3
      vertex -2.04778 -1.7 -3
      vertex -2.24858 -8.88745 -3
    endloop
  endfacet
  facet normal 0 0 -1
    outer loop
      vertex -3.7082 -8.51268 -3
      vertex -2.04778 -1.7 -3
      vertex -2.98428 -8.723 -3
    endloop
  endfacet
  facet normal 0 0 -1
    outer loop
      vertex -4.41749 -8.25732 -3
      vertex -2.04778 -1.7 -3
      vertex -3.7082 -8.51268 -3
    endloop
  endfacet
  facet normal 0 0 -1
    outer loop
      vertex -5.10935 -7.95792 -3
      vertex -2.04778 -1.7 -3
      vertex -4.41749 -8.25732 -3
    endloop
  endfacet
  facet normal 0 0 -1
    outer loop
      vertex -5.78104 -7.61568 -3
      vertex -2.04778 -1.7 -3
      vertex -5.10935 -7.95792 -3
    endloop
  endfacet
  facet normal 0 0 -1
    outer loop
      vertex -6.42992 -7.23193 -3
      vertex -2.04778 -1.7 -3
      vertex -5.78104 -7.61568 -3
    endloop
  endfacet
  facet normal 0 0 -1
    outer loop
      vertex -7.05342 -6.8082 -3
      vertex -2.04778 -1.7 -3
      vertex -6.42992 -7.23193 -3
    endloop
  endfacet
  facet normal -0 0 -1
    outer loop
      vertex -2.04778 -1.7 -3
      vertex -7.05342 -6.8082 -3
      vertex -2.10344 -1.62824 -3
    endloop
  endfacet
  facet normal 0 0 -1
    outer loop
      vertex -7.64909 -6.34616 -3
      vertex -2.10344 -1.62824 -3
      vertex -7.05342 -6.8082 -3
    endloop
  endfacet
  facet normal -0 0 -1
    outer loop
      vertex -2.10344 -1.62824 -3
      vertex -7.64909 -6.34616 -3
      vertex -2.19525 -1.49315 -3
    endloop
  endfacet
  facet normal 0 0 -1
    outer loop
      vertex -8.21456 -5.84762 -3
      vertex -2.2784 -1.35256 -3
      vertex -7.64909 -6.34616 -3
    endloop
  endfacet
  facet normal -0 0 -1
    outer loop
      vertex -2.19525 -1.49315 -3
      vertex -7.64909 -6.34616 -3
      vertex -2.2784 -1.35256 -3
    endloop
  endfacet
  facet normal -0 0 -1
    outer loop
      vertex 9.7082 9.95342 -3
      vertex 2.04778 1.5 -3
      vertex 9.24616 10.5491 -3
    endloop
  endfacet
  facet normal -0 0 -1
    outer loop
      vertex 9.24616 10.5491 -3
      vertex 2.04778 1.5 -3
      vertex 8.74762 11.1146 -3
    endloop
  endfacet
  facet normal -0 0 -1
    outer loop
      vertex 8.74762 11.1146 -3
      vertex 2.04778 1.5 -3
      vertex 8.21456 11.6476 -3
    endloop
  endfacet
  facet normal -0 0 -1
    outer loop
      vertex 8.21456 11.6476 -3
      vertex 2.04778 1.5 -3
      vertex 7.64909 12.1462 -3
    endloop
  endfacet
  facet normal -0 0 -1
    outer loop
      vertex 7.64909 12.1462 -3
      vertex 2.04778 1.5 -3
      vertex 7.05342 12.6082 -3
    endloop
  endfacet
  facet normal -0 0 -1
    outer loop
      vertex 7.05342 12.6082 -3
      vertex 2.04778 1.5 -3
      vertex 6.42992 13.0319 -3
    endloop
  endfacet
  facet normal -0 0 -1
    outer loop
      vertex 6.42992 13.0319 -3
      vertex 2.04778 1.5 -3
      vertex 5.78104 13.4157 -3
    endloop
  endfacet
  facet normal -0 0 -1
    outer loop
      vertex 5.78104 13.4157 -3
      vertex 2.04778 1.5 -3
      vertex 5.10935 13.7579 -3
    endloop
  endfacet
  facet normal -0 0 -1
    outer loop
      vertex 5.10935 13.7579 -3
      vertex 2.04778 1.5 -3
      vertex 4.41749 14.0573 -3
    endloop
  endfacet
  facet normal -0 0 -1
    outer loop
      vertex 4.41749 14.0573 -3
      vertex 2.04778 1.5 -3
      vertex 3.7082 14.3127 -3
    endloop
  endfacet
  facet normal -0 0 -1
    outer loop
      vertex 3.7082 14.3127 -3
      vertex 2.04778 1.5 -3
      vertex 2.98428 14.523 -3
    endloop
  endfacet
  facet normal -0 0 -1
    outer loop
      vertex 2.98428 14.523 -3
      vertex 2.04778 1.5 -3
      vertex 2.24858 14.6874 -3
    endloop
  endfacet
  facet normal 0 0 -1
    outer loop
      vertex 2.04778 1.5 -3
      vertex 1.504 14.8054 -3
      vertex 2.24858 14.6874 -3
    endloop
  endfacet
  facet normal 0 0 -1
    outer loop
      vertex 2.04778 1.5 -3
      vertex 0.753486 14.8763 -3
      vertex 1.504 14.8054 -3
    endloop
  endfacet
  facet normal 0 0 -1
    outer loop
      vertex 2.04778 1.5 -3
      vertex 0 14.9 -3
      vertex 0.753486 14.8763 -3
    endloop
  endfacet
  facet normal 0 0 -1
    outer loop
      vertex -2.04778 1.5 -3
      vertex 0 14.9 -3
      vertex 2.04778 1.5 -3
    endloop
  endfacet
  facet normal 0 0 -1
    outer loop
      vertex 0 14.9 -3
      vertex -2.04778 1.5 -3
      vertex -0.753486 14.8763 -3
    endloop
  endfacet
  facet normal 0 0 -1
    outer loop
      vertex -0.753486 14.8763 -3
      vertex -2.04778 1.5 -3
      vertex -1.504 14.8054 -3
    endloop
  endfacet
  facet normal 0 0 -1
    outer loop
      vertex -11.4127 6.6082 -3
      vertex -2.04778 1.5 -3
      vertex -2.10344 1.42824 -3
    endloop
  endfacet
  facet normal 0 0 -1
    outer loop
      vertex -11.623 5.88428 -3
      vertex -2.10344 1.42824 -3
      vertex -2.19525 1.29315 -3
    endloop
  endfacet
  facet normal 0 0 -1
    outer loop
      vertex -2.04778 1.5 -3
      vertex -2.24858 14.6874 -3
      vertex -1.504 14.8054 -3
    endloop
  endfacet
  facet normal 0 0 -1
    outer loop
      vertex -11.9054 4.404 -3
      vertex -2.19525 1.29315 -3
      vertex -2.2784 1.15256 -3
    endloop
  endfacet
  facet normal 0 0 -1
    outer loop
      vertex -11.9763 3.65349 -3
      vertex -2.2784 1.15256 -3
      vertex -2.35255 1.00703 -3
    endloop
  endfacet
  facet normal 0 0 -1
    outer loop
      vertex -12 2.9 -3
      vertex -2.35255 1.00703 -3
      vertex -2.41742 0.857124 -3
    endloop
  endfacet
  facet normal 0 0 -1
    outer loop
      vertex -11.9763 2.14651 -3
      vertex -2.41742 0.857124 -3
      vertex -2.47275 0.703444 -3
    endloop
  endfacet
  facet normal 0 0 -1
    outer loop
      vertex -11.9054 1.396 -3
      vertex -2.47275 0.703444 -3
      vertex -2.51832 0.546593 -3
    endloop
  endfacet
  facet normal 0 0 -1
    outer loop
      vertex -11.7874 0.651425 -3
      vertex -2.51832 0.546593 -3
      vertex -2.55395 0.387191 -3
    endloop
  endfacet
  facet normal 0 0 -1
    outer loop
      vertex -11.623 -0.0842777 -3
      vertex -2.55395 0.387191 -3
      vertex -2.5795 0.225866 -3
    endloop
  endfacet
  facet normal 0 0 -1
    outer loop
      vertex -11.4127 -0.808203 -3
      vertex -2.5795 0.225866 -3
      vertex -2.59487 0.0632547 -3
    endloop
  endfacet
  facet normal 0 0 -1
    outer loop
      vertex -11.1573 -1.51749 -3
      vertex -2.59487 0.0632547 -3
      vertex -2.6 -0.1 -3
    endloop
  endfacet
  facet normal -0 0 -1
    outer loop
      vertex -2.2784 -1.35256 -3
      vertex -8.21456 -5.84762 -3
      vertex -2.35255 -1.20703 -3
    endloop
  endfacet
  facet normal 0 0 -1
    outer loop
      vertex -2.04778 1.5 -3
      vertex -2.98428 14.523 -3
      vertex -2.24858 14.6874 -3
    endloop
  endfacet
  facet normal 0 0 -1
    outer loop
      vertex -8.74762 -5.31456 -3
      vertex -2.35255 -1.20703 -3
      vertex -8.21456 -5.84762 -3
    endloop
  endfacet
  facet normal 0 0 -1
    outer loop
      vertex -2.04778 1.5 -3
      vertex -3.7082 14.3127 -3
      vertex -2.98428 14.523 -3
    endloop
  endfacet
  facet normal -0 0 -1
    outer loop
      vertex -2.35255 -1.20703 -3
      vertex -8.74762 -5.31456 -3
      vertex -2.41742 -1.05712 -3
    endloop
  endfacet
  facet normal 0 0 -1
    outer loop
      vertex -2.04778 1.5 -3
      vertex -4.41749 14.0573 -3
      vertex -3.7082 14.3127 -3
    endloop
  endfacet
  facet normal 0 0 -1
    outer loop
      vertex -9.24616 -4.74909 -3
      vertex -2.41742 -1.05712 -3
      vertex -8.74762 -5.31456 -3
    endloop
  endfacet
  facet normal 0 0 -1
    outer loop
      vertex -2.04778 1.5 -3
      vertex -5.10935 13.7579 -3
      vertex -4.41749 14.0573 -3
    endloop
  endfacet
  facet normal -0 0 -1
    outer loop
      vertex -2.41742 -1.05712 -3
      vertex -9.24616 -4.74909 -3
      vertex -2.47275 -0.903444 -3
    endloop
  endfacet
  facet normal 0 0 -1
    outer loop
      vertex -2.04778 1.5 -3
      vertex -5.78104 13.4157 -3
      vertex -5.10935 13.7579 -3
    endloop
  endfacet
  facet normal 0 0 -1
    outer loop
      vertex -9.7082 -4.15342 -3
      vertex -2.47275 -0.903444 -3
      vertex -9.24616 -4.74909 -3
    endloop
  endfacet
  facet normal 0 0 -1
    outer loop
      vertex -2.04778 1.5 -3
      vertex -6.42992 13.0319 -3
      vertex -5.78104 13.4157 -3
    endloop
  endfacet
  facet normal -0 0 -1
    outer loop
      vertex -2.47275 -0.903444 -3
      vertex -9.7082 -4.15342 -3
      vertex -2.51832 -0.746593 -3
    endloop
  endfacet
  facet normal 0 0 -1
    outer loop
      vertex -2.04778 1.5 -3
      vertex -7.05342 12.6082 -3
      vertex -6.42992 13.0319 -3
    endloop
  endfacet
  facet normal -0 0 -1
    outer loop
      vertex -2.51832 -0.746593 -3
      vertex -9.7082 -4.15342 -3
      vertex -2.55395 -0.587191 -3
    endloop
  endfacet
  facet normal 0 0 -1
    outer loop
      vertex -2.04778 1.5 -3
      vertex -7.64909 12.1462 -3
      vertex -7.05342 12.6082 -3
    endloop
  endfacet
  facet normal 0 0 -1
    outer loop
      vertex -10.1319 -3.52992 -3
      vertex -2.55395 -0.587191 -3
      vertex -9.7082 -4.15342 -3
    endloop
  endfacet
  facet normal 0 0 -1
    outer loop
      vertex -2.04778 1.5 -3
      vertex -8.21456 11.6476 -3
      vertex -7.64909 12.1462 -3
    endloop
  endfacet
  facet normal -0 0 -1
    outer loop
      vertex -2.55395 -0.587191 -3
      vertex -10.1319 -3.52992 -3
      vertex -2.5795 -0.425866 -3
    endloop
  endfacet
  facet normal 0 0 -1
    outer loop
      vertex -2.04778 1.5 -3
      vertex -8.74762 11.1146 -3
      vertex -8.21456 11.6476 -3
    endloop
  endfacet
  facet normal 0 0 -1
    outer loop
      vertex -10.5157 -2.88104 -3
      vertex -2.5795 -0.425866 -3
      vertex -10.1319 -3.52992 -3
    endloop
  endfacet
  facet normal 0 0 -1
    outer loop
      vertex -2.04778 1.5 -3
      vertex -9.24616 10.5491 -3
      vertex -8.74762 11.1146 -3
    endloop
  endfacet
  facet normal -0 0 -1
    outer loop
      vertex -2.5795 -0.425866 -3
      vertex -10.5157 -2.88104 -3
      vertex -2.59487 -0.263255 -3
    endloop
  endfacet
  facet normal 0 0 -1
    outer loop
      vertex -2.04778 1.5 -3
      vertex -9.7082 9.95342 -3
      vertex -9.24616 10.5491 -3
    endloop
  endfacet
  facet normal 0 0 -1
    outer loop
      vertex -10.8579 -2.20935 -3
      vertex -2.59487 -0.263255 -3
      vertex -10.5157 -2.88104 -3
    endloop
  endfacet
  facet normal 0 0 -1
    outer loop
      vertex -2.04778 1.5 -3
      vertex -10.1319 9.32992 -3
      vertex -9.7082 9.95342 -3
    endloop
  endfacet
  facet normal -0 0 -1
    outer loop
      vertex -2.59487 -0.263255 -3
      vertex -10.8579 -2.20935 -3
      vertex -2.6 -0.1 -3
    endloop
  endfacet
  facet normal 0 0 -1
    outer loop
      vertex -2.04778 1.5 -3
      vertex -10.5157 8.68104 -3
      vertex -10.1319 9.32992 -3
    endloop
  endfacet
  facet normal 0 0 -1
    outer loop
      vertex -11.1573 -1.51749 -3
      vertex -2.6 -0.1 -3
      vertex -10.8579 -2.20935 -3
    endloop
  endfacet
  facet normal 0 0 -1
    outer loop
      vertex -2.04778 1.5 -3
      vertex -10.8579 8.00935 -3
      vertex -10.5157 8.68104 -3
    endloop
  endfacet
  facet normal 0 0 -1
    outer loop
      vertex -2.59487 0.0632547 -3
      vertex -11.1573 -1.51749 -3
      vertex -11.4127 -0.808203 -3
    endloop
  endfacet
  facet normal 0 0 -1
    outer loop
      vertex -2.04778 1.5 -3
      vertex -11.1573 7.31749 -3
      vertex -10.8579 8.00935 -3
    endloop
  endfacet
  facet normal 0 0 -1
    outer loop
      vertex -2.5795 0.225866 -3
      vertex -11.4127 -0.808203 -3
      vertex -11.623 -0.0842777 -3
    endloop
  endfacet
  facet normal 0 0 -1
    outer loop
      vertex -2.04778 1.5 -3
      vertex -11.4127 6.6082 -3
      vertex -11.1573 7.31749 -3
    endloop
  endfacet
  facet normal -0 0 -1
    outer loop
      vertex -2.55395 0.387191 -3
      vertex -11.623 -0.0842777 -3
      vertex -11.7874 0.651425 -3
    endloop
  endfacet
  facet normal 0 0 -1
    outer loop
      vertex -2.10344 1.42824 -3
      vertex -11.623 5.88428 -3
      vertex -11.4127 6.6082 -3
    endloop
  endfacet
  facet normal 0 0 -1
    outer loop
      vertex -2.51832 0.546593 -3
      vertex -11.7874 0.651425 -3
      vertex -11.9054 1.396 -3
    endloop
  endfacet
  facet normal 0 0 -1
    outer loop
      vertex -2.19525 1.29315 -3
      vertex -11.7874 5.14858 -3
      vertex -11.623 5.88428 -3
    endloop
  endfacet
  facet normal 0 0 -1
    outer loop
      vertex -2.47275 0.703444 -3
      vertex -11.9054 1.396 -3
      vertex -11.9763 2.14651 -3
    endloop
  endfacet
  facet normal 0 0 -1
    outer loop
      vertex -2.19525 1.29315 -3
      vertex -11.9054 4.404 -3
      vertex -11.7874 5.14858 -3
    endloop
  endfacet
  facet normal 0 0 -1
    outer loop
      vertex -2.41742 0.857124 -3
      vertex -11.9763 2.14651 -3
      vertex -12 2.9 -3
    endloop
  endfacet
  facet normal 0 0 -1
    outer loop
      vertex -2.2784 1.15256 -3
      vertex -11.9763 3.65349 -3
      vertex -11.9054 4.404 -3
    endloop
  endfacet
  facet normal 0 0 -1
    outer loop
      vertex -2.35255 1.00703 -3
      vertex -12 2.9 -3
      vertex -11.9763 3.65349 -3
    endloop
  endfacet
  facet normal -0.917752 -0.397154 0
    outer loop
      vertex -10.8579 -2.20935 -3
      vertex -11.1573 -1.51749 3
      vertex -11.1573 -1.51749 -3
    endloop
  endfacet
  facet normal -0.917752 -0.397154 0
    outer loop
      vertex -11.1573 -1.51749 3
      vertex -10.8579 -2.20935 -3
      vertex -10.8579 -2.20935 3
    endloop
  endfacet
  facet normal 0.6129 -0.790161 0
    outer loop
      vertex 7.05342 -6.8082 -3
      vertex 7.64909 -6.34616 3
      vertex 7.05342 -6.8082 3
    endloop
  endfacet
  facet normal 0.6129 -0.790161 0
    outer loop
      vertex 7.64909 -6.34616 3
      vertex 7.05342 -6.8082 -3
      vertex 7.64909 -6.34616 -3
    endloop
  endfacet
  facet normal -0.278969 0.9603 0
    outer loop
      vertex -2.98428 14.523 -3
      vertex -3.7082 14.3127 3
      vertex -2.98428 14.523 3
    endloop
  endfacet
  facet normal -0.278969 0.9603 0
    outer loop
      vertex -3.7082 14.3127 3
      vertex -2.98428 14.523 -3
      vertex -3.7082 14.3127 -3
    endloop
  endfacet
  facet normal 0.827099 0.562056 0
    outer loop
      vertex 10.1319 9.32992 3
      vertex 9.7082 9.95342 -3
      vertex 9.7082 9.95342 3
    endloop
  endfacet
  facet normal 0.827099 0.562056 0
    outer loop
      vertex 9.7082 9.95342 -3
      vertex 10.1319 9.32992 3
      vertex 10.1319 9.32992 -3
    endloop
  endfacet
  facet normal -0.999506 -0.0314381 0
    outer loop
      vertex -11.9763 2.14651 -3
      vertex -12 2.9 3
      vertex -12 2.9 -3
    endloop
  endfacet
  facet normal -0.999506 -0.0314381 0
    outer loop
      vertex -12 2.9 3
      vertex -11.9763 2.14651 -3
      vertex -11.9763 2.14651 3
    endloop
  endfacet
  facet normal -0.860711 0.509094 0
    outer loop
      vertex -10.5157 8.68104 -3
      vertex -10.1319 9.32992 3
      vertex -10.1319 9.32992 -3
    endloop
  endfacet
  facet normal -0.860711 0.509094 0
    outer loop
      vertex -10.1319 9.32992 3
      vertex -10.5157 8.68104 -3
      vertex -10.5157 8.68104 3
    endloop
  endfacet
  facet normal 0.860711 -0.509094 0
    outer loop
      vertex 10.1319 -3.52992 3
      vertex 10.5157 -2.88104 -3
      vertex 10.5157 -2.88104 3
    endloop
  endfacet
  facet normal 0.860711 -0.509094 0
    outer loop
      vertex 10.5157 -2.88104 -3
      vertex 10.1319 -3.52992 3
      vertex 10.1319 -3.52992 -3
    endloop
  endfacet
  facet normal 0.397154 -0.917752 0
    outer loop
      vertex 4.41749 -8.25732 -3
      vertex 5.10935 -7.95792 3
      vertex 4.41749 -8.25732 3
    endloop
  endfacet
  facet normal 0.397154 -0.917752 0
    outer loop
      vertex 5.10935 -7.95792 3
      vertex 4.41749 -8.25732 -3
      vertex 5.10935 -7.95792 -3
    endloop
  endfacet
  facet normal 0.509045 -0.86074 0
    outer loop
      vertex 5.78104 -7.61568 -3
      vertex 6.42992 -7.23193 3
      vertex 5.78104 -7.61568 3
    endloop
  endfacet
  facet normal 0.509045 -0.86074 0
    outer loop
      vertex 6.42992 -7.23193 3
      vertex 5.78104 -7.61568 -3
      vertex 6.42992 -7.23193 -3
    endloop
  endfacet
  facet normal 0.707107 -0.707107 0
    outer loop
      vertex 8.21456 -5.84762 3
      vertex 8.74762 -5.31456 -3
      vertex 8.74762 -5.31456 3
    endloop
  endfacet
  facet normal 0.707107 -0.707107 0
    outer loop
      vertex 8.74762 -5.31456 -3
      vertex 8.21456 -5.84762 3
      vertex 8.21456 -5.84762 -3
    endloop
  endfacet
  facet normal 0.453987 -0.891008 0
    outer loop
      vertex 5.10935 -7.95792 -3
      vertex 5.78104 -7.61568 3
      vertex 5.10935 -7.95792 3
    endloop
  endfacet
  facet normal 0.453987 -0.891008 0
    outer loop
      vertex 5.78104 -7.61568 3
      vertex 5.10935 -7.95792 -3
      vertex 5.78104 -7.61568 -3
    endloop
  endfacet
  facet normal 0.509094 0.860711 -0
    outer loop
      vertex 6.42992 13.0319 -3
      vertex 5.78104 13.4157 3
      vertex 6.42992 13.0319 3
    endloop
  endfacet
  facet normal 0.509094 0.860711 0
    outer loop
      vertex 5.78104 13.4157 3
      vertex 6.42992 13.0319 -3
      vertex 5.78104 13.4157 -3
    endloop
  endfacet
  facet normal -0.661365 0.750064 0
    outer loop
      vertex -7.64909 12.1462 -3
      vertex -8.21456 11.6476 3
      vertex -7.64909 12.1462 3
    endloop
  endfacet
  facet normal -0.661365 0.750064 0
    outer loop
      vertex -8.21456 11.6476 3
      vertex -7.64909 12.1462 -3
      vertex -8.21456 11.6476 -3
    endloop
  endfacet
  facet normal -0.960301 -0.278967 0
    outer loop
      vertex -11.4127 -0.808203 -3
      vertex -11.623 -0.0842777 3
      vertex -11.623 -0.0842777 -3
    endloop
  endfacet
  facet normal -0.960301 -0.278967 0
    outer loop
      vertex -11.623 -0.0842777 3
      vertex -11.4127 -0.808203 -3
      vertex -11.4127 -0.808203 3
    endloop
  endfacet
  facet normal 0.827099 -0.562056 0
    outer loop
      vertex 9.7082 -4.15342 3
      vertex 10.1319 -3.52992 -3
      vertex 10.1319 -3.52992 3
    endloop
  endfacet
  facet normal 0.827099 -0.562056 0
    outer loop
      vertex 10.1319 -3.52992 -3
      vertex 9.7082 -4.15342 3
      vertex 9.7082 -4.15342 -3
    endloop
  endfacet
  facet normal 0.278969 0.9603 -0
    outer loop
      vertex 3.7082 14.3127 -3
      vertex 2.98428 14.523 3
      vertex 3.7082 14.3127 3
    endloop
  endfacet
  facet normal 0.278969 0.9603 0
    outer loop
      vertex 2.98428 14.523 3
      vertex 3.7082 14.3127 -3
      vertex 2.98428 14.523 -3
    endloop
  endfacet
  facet normal 0.995567 -0.0940504 0
    outer loop
      vertex 11.9054 1.396 3
      vertex 11.9763 2.14651 -3
      vertex 11.9763 2.14651 3
    endloop
  endfacet
  facet normal 0.995567 -0.0940504 0
    outer loop
      vertex 11.9763 2.14651 -3
      vertex 11.9054 1.396 3
      vertex 11.9054 1.396 -3
    endloop
  endfacet
  facet normal -0.707067 0.707147 0
    outer loop
      vertex -8.74762 11.1146 -3
      vertex -8.21456 11.6476 3
      vertex -8.21456 11.6476 -3
    endloop
  endfacet
  facet normal -0.707067 0.707147 0
    outer loop
      vertex -8.21456 11.6476 3
      vertex -8.74762 11.1146 -3
      vertex -8.74762 11.1146 3
    endloop
  endfacet
  facet normal 0.218145 -0.975916 0
    outer loop
      vertex 2.24858 -8.88745 -3
      vertex 2.98428 -8.723 3
      vertex 2.24858 -8.88745 3
    endloop
  endfacet
  facet normal 0.218145 -0.975916 0
    outer loop
      vertex 2.98428 -8.723 3
      vertex 2.24858 -8.88745 -3
      vertex 2.98428 -8.723 -3
    endloop
  endfacet
  facet normal -0.0941024 -0.995563 0
    outer loop
      vertex -1.504 -9.00538 -3
      vertex -0.753486 -9.07632 3
      vertex -1.504 -9.00538 3
    endloop
  endfacet
  facet normal -0.0941024 -0.995563 -0
    outer loop
      vertex -0.753486 -9.07632 3
      vertex -1.504 -9.00538 -3
      vertex -0.753486 -9.07632 -3
    endloop
  endfacet
  facet normal -0.995567 -0.0940504 0
    outer loop
      vertex -11.9054 1.396 -3
      vertex -11.9763 2.14651 3
      vertex -11.9763 2.14651 -3
    endloop
  endfacet
  facet normal -0.995567 -0.0940504 0
    outer loop
      vertex -11.9763 2.14651 3
      vertex -11.9054 1.396 -3
      vertex -11.9054 1.396 3
    endloop
  endfacet
  facet normal 0.0941024 -0.995563 0
    outer loop
      vertex 0.753486 -9.07632 -3
      vertex 1.504 -9.00538 3
      vertex 0.753486 -9.07632 3
    endloop
  endfacet
  facet normal 0.0941024 -0.995563 0
    outer loop
      vertex 1.504 -9.00538 3
      vertex 0.753486 -9.07632 -3
      vertex 1.504 -9.00538 -3
    endloop
  endfacet
  facet normal 0.940864 0.338785 0
    outer loop
      vertex 11.4127 6.6082 3
      vertex 11.1573 7.31749 -3
      vertex 11.1573 7.31749 3
    endloop
  endfacet
  facet normal 0.940864 0.338785 0
    outer loop
      vertex 11.1573 7.31749 -3
      vertex 11.4127 6.6082 3
      vertex 11.4127 6.6082 -3
    endloop
  endfacet
  facet normal -0.6129 -0.790161 0
    outer loop
      vertex -7.64909 -6.34616 -3
      vertex -7.05342 -6.8082 3
      vertex -7.64909 -6.34616 3
    endloop
  endfacet
  facet normal -0.6129 -0.790161 -0
    outer loop
      vertex -7.05342 -6.8082 3
      vertex -7.64909 -6.34616 -3
      vertex -7.05342 -6.8082 -3
    endloop
  endfacet
  facet normal -0.790161 -0.6129 0
    outer loop
      vertex -9.24616 -4.74909 -3
      vertex -9.7082 -4.15342 3
      vertex -9.7082 -4.15342 -3
    endloop
  endfacet
  facet normal -0.790161 -0.6129 0
    outer loop
      vertex -9.7082 -4.15342 3
      vertex -9.24616 -4.74909 -3
      vertex -9.24616 -4.74909 3
    endloop
  endfacet
  facet normal 0.156525 0.987674 -0
    outer loop
      vertex 2.24858 14.6874 -3
      vertex 1.504 14.8054 3
      vertex 2.24858 14.6874 3
    endloop
  endfacet
  facet normal 0.156525 0.987674 0
    outer loop
      vertex 1.504 14.8054 3
      vertex 2.24858 14.6874 -3
      vertex 1.504 14.8054 -3
    endloop
  endfacet
  facet normal -0.89103 0.453945 0
    outer loop
      vertex -10.8579 8.00935 -3
      vertex -10.5157 8.68104 3
      vertex -10.5157 8.68104 -3
    endloop
  endfacet
  facet normal -0.89103 0.453945 0
    outer loop
      vertex -10.5157 8.68104 3
      vertex -10.8579 8.00935 -3
      vertex -10.8579 8.00935 3
    endloop
  endfacet
  facet normal -0.278993 -0.960293 0
    outer loop
      vertex -3.7082 -8.51268 -3
      vertex -2.98428 -8.723 3
      vertex -3.7082 -8.51268 3
    endloop
  endfacet
  facet normal -0.278993 -0.960293 -0
    outer loop
      vertex -2.98428 -8.723 3
      vertex -3.7082 -8.51268 -3
      vertex -2.98428 -8.723 -3
    endloop
  endfacet
  facet normal -0.562083 -0.827081 0
    outer loop
      vertex -7.05342 -6.8082 -3
      vertex -6.42992 -7.23193 3
      vertex -7.05342 -6.8082 3
    endloop
  endfacet
  facet normal -0.562083 -0.827081 -0
    outer loop
      vertex -6.42992 -7.23193 3
      vertex -7.05342 -6.8082 -3
      vertex -6.42992 -7.23193 -3
    endloop
  endfacet
  facet normal -0.509094 0.860711 0
    outer loop
      vertex -5.78104 13.4157 -3
      vertex -6.42992 13.0319 3
      vertex -5.78104 13.4157 3
    endloop
  endfacet
  facet normal -0.509094 0.860711 0
    outer loop
      vertex -6.42992 13.0319 3
      vertex -5.78104 13.4157 -3
      vertex -6.42992 13.0319 -3
    endloop
  endfacet
  facet normal 0.917752 0.397154 0
    outer loop
      vertex 11.1573 7.31749 3
      vertex 10.8579 8.00935 -3
      vertex 10.8579 8.00935 3
    endloop
  endfacet
  facet normal 0.917752 0.397154 0
    outer loop
      vertex 10.8579 8.00935 -3
      vertex 11.1573 7.31749 3
      vertex 11.1573 7.31749 -3
    endloop
  endfacet
  facet normal -0.9603 0.278969 0
    outer loop
      vertex -11.623 5.88428 -3
      vertex -11.4127 6.6082 3
      vertex -11.4127 6.6082 -3
    endloop
  endfacet
  facet normal -0.9603 0.278969 0
    outer loop
      vertex -11.4127 6.6082 3
      vertex -11.623 5.88428 -3
      vertex -11.623 5.88428 3
    endloop
  endfacet
  facet normal 0.750104 -0.66132 0
    outer loop
      vertex 8.74762 -5.31456 3
      vertex 9.24616 -4.74909 -3
      vertex 9.24616 -4.74909 3
    endloop
  endfacet
  facet normal 0.750104 -0.66132 0
    outer loop
      vertex 9.24616 -4.74909 -3
      vertex 8.74762 -5.31456 3
      vertex 8.74762 -5.31456 -3
    endloop
  endfacet
  facet normal 0.960301 -0.278967 0
    outer loop
      vertex 11.4127 -0.808203 3
      vertex 11.623 -0.0842777 -3
      vertex 11.623 -0.0842777 3
    endloop
  endfacet
  facet normal 0.960301 -0.278967 0
    outer loop
      vertex 11.623 -0.0842777 -3
      vertex 11.4127 -0.808203 3
      vertex 11.4127 -0.808203 -3
    endloop
  endfacet
  facet normal 0.562083 -0.827081 0
    outer loop
      vertex 6.42992 -7.23193 -3
      vertex 7.05342 -6.8082 3
      vertex 6.42992 -7.23193 3
    endloop
  endfacet
  facet normal 0.562083 -0.827081 0
    outer loop
      vertex 7.05342 -6.8082 3
      vertex 6.42992 -7.23193 -3
      vertex 7.05342 -6.8082 -3
    endloop
  endfacet
  facet normal -0.975931 -0.218081 0
    outer loop
      vertex -11.623 -0.0842777 -3
      vertex -11.7874 0.651425 3
      vertex -11.7874 0.651425 -3
    endloop
  endfacet
  facet normal -0.975931 -0.218081 0
    outer loop
      vertex -11.7874 0.651425 3
      vertex -11.623 -0.0842777 -3
      vertex -11.623 -0.0842777 3
    endloop
  endfacet
  facet normal 0.338738 -0.940881 0
    outer loop
      vertex 3.7082 -8.51268 -3
      vertex 4.41749 -8.25732 3
      vertex 3.7082 -8.51268 3
    endloop
  endfacet
  facet normal 0.338738 -0.940881 0
    outer loop
      vertex 4.41749 -8.25732 3
      vertex 3.7082 -8.51268 -3
      vertex 4.41749 -8.25732 -3
    endloop
  endfacet
  facet normal -0.509045 -0.86074 0
    outer loop
      vertex -6.42992 -7.23193 -3
      vertex -5.78104 -7.61568 3
      vertex -6.42992 -7.23193 3
    endloop
  endfacet
  facet normal -0.509045 -0.86074 -0
    outer loop
      vertex -5.78104 -7.61568 3
      vertex -6.42992 -7.23193 -3
      vertex -5.78104 -7.61568 -3
    endloop
  endfacet
  facet normal -0.453945 0.89103 0
    outer loop
      vertex -5.10935 13.7579 -3
      vertex -5.78104 13.4157 3
      vertex -5.10935 13.7579 3
    endloop
  endfacet
  facet normal -0.453945 0.89103 0
    outer loop
      vertex -5.78104 13.4157 3
      vertex -5.10935 13.7579 -3
      vertex -5.78104 13.4157 -3
    endloop
  endfacet
  facet normal 0 0 1
    outer loop
      vertex 2.35255 1.00703 3
      vertex 12 2.9 3
      vertex 11.9763 3.65349 3
    endloop
  endfacet
  facet normal 0 0 1
    outer loop
      vertex 2.2784 1.15256 3
      vertex 11.9763 3.65349 3
      vertex 11.9054 4.404 3
    endloop
  endfacet
  facet normal 0 -0 1
    outer loop
      vertex 2.41742 0.857124 3
      vertex 12 2.9 3
      vertex 2.35255 1.00703 3
    endloop
  endfacet
  facet normal 0 0 1
    outer loop
      vertex 2.19525 1.29315 3
      vertex 11.9054 4.404 3
      vertex 11.7874 5.14858 3
    endloop
  endfacet
  facet normal 0 0 1
    outer loop
      vertex 12 2.9 3
      vertex 2.41742 0.857124 3
      vertex 11.9763 2.14651 3
    endloop
  endfacet
  facet normal 0 0 1
    outer loop
      vertex 2.19525 1.29315 3
      vertex 11.7874 5.14858 3
      vertex 11.623 5.88428 3
    endloop
  endfacet
  facet normal 0 -0 1
    outer loop
      vertex 2.47275 0.703444 3
      vertex 11.9763 2.14651 3
      vertex 2.41742 0.857124 3
    endloop
  endfacet
  facet normal 0 0 1
    outer loop
      vertex 2.10344 1.42824 3
      vertex 11.623 5.88428 3
      vertex 11.4127 6.6082 3
    endloop
  endfacet
  facet normal 0 0 1
    outer loop
      vertex 11.9763 2.14651 3
      vertex 2.47275 0.703444 3
      vertex 11.9054 1.396 3
    endloop
  endfacet
  facet normal 0 0 1
    outer loop
      vertex 2.04778 1.5 3
      vertex 11.4127 6.6082 3
      vertex 11.1573 7.31749 3
    endloop
  endfacet
  facet normal 0 0 1
    outer loop
      vertex 11.9054 1.396 3
      vertex 2.51832 0.546593 3
      vertex 11.7874 0.651425 3
    endloop
  endfacet
  facet normal 0 0 1
    outer loop
      vertex 2.04778 1.5 3
      vertex 11.1573 7.31749 3
      vertex 10.8579 8.00935 3
    endloop
  endfacet
  facet normal 0 -0 1
    outer loop
      vertex 2.55395 0.387191 3
      vertex 11.7874 0.651425 3
      vertex 2.51832 0.546593 3
    endloop
  endfacet
  facet normal 0 0 1
    outer loop
      vertex 2.04778 1.5 3
      vertex 10.8579 8.00935 3
      vertex 10.5157 8.68104 3
    endloop
  endfacet
  facet normal 0 0 1
    outer loop
      vertex 11.7874 0.651425 3
      vertex 2.55395 0.387191 3
      vertex 11.623 -0.0842777 3
    endloop
  endfacet
  facet normal 0 0 1
    outer loop
      vertex 2.04778 1.5 3
      vertex 10.5157 8.68104 3
      vertex 10.1319 9.32992 3
    endloop
  endfacet
  facet normal -0 -0 1
    outer loop
      vertex 2.5795 0.225866 3
      vertex 11.623 -0.0842777 3
      vertex 2.55395 0.387191 3
    endloop
  endfacet
  facet normal 0 0 1
    outer loop
      vertex 2.04778 1.5 3
      vertex 10.1319 9.32992 3
      vertex 9.7082 9.95342 3
    endloop
  endfacet
  facet normal 0 0 1
    outer loop
      vertex 11.623 -0.0842777 3
      vertex 2.5795 0.225866 3
      vertex 11.4127 -0.808203 3
    endloop
  endfacet
  facet normal 0 0 1
    outer loop
      vertex 2.04778 1.5 3
      vertex 9.7082 9.95342 3
      vertex 9.24616 10.5491 3
    endloop
  endfacet
  facet normal 0 0 1
    outer loop
      vertex 11.4127 -0.808203 3
      vertex 2.59487 0.0632547 3
      vertex 11.1573 -1.51749 3
    endloop
  endfacet
  facet normal 0 0 1
    outer loop
      vertex 2.04778 1.5 3
      vertex 9.24616 10.5491 3
      vertex 8.74762 11.1146 3
    endloop
  endfacet
  facet normal -0 -0 1
    outer loop
      vertex 2.6 -0.1 3
      vertex 11.1573 -1.51749 3
      vertex 2.59487 0.0632547 3
    endloop
  endfacet
  facet normal 0 0 1
    outer loop
      vertex 2.04778 1.5 3
      vertex 8.74762 11.1146 3
      vertex 8.21456 11.6476 3
    endloop
  endfacet
  facet normal 0 0 1
    outer loop
      vertex 11.1573 -1.51749 3
      vertex 2.6 -0.1 3
      vertex 10.8579 -2.20935 3
    endloop
  endfacet
  facet normal 0 0 1
    outer loop
      vertex 2.04778 1.5 3
      vertex 8.21456 11.6476 3
      vertex 7.64909 12.1462 3
    endloop
  endfacet
  facet normal 0 0 1
    outer loop
      vertex 10.8579 -2.20935 3
      vertex 2.59487 -0.263255 3
      vertex 10.5157 -2.88104 3
    endloop
  endfacet
  facet normal 0 0 1
    outer loop
      vertex 2.04778 1.5 3
      vertex 7.64909 12.1462 3
      vertex 7.05342 12.6082 3
    endloop
  endfacet
  facet normal -0 0 1
    outer loop
      vertex 2.5795 -0.425866 3
      vertex 10.5157 -2.88104 3
      vertex 2.59487 -0.263255 3
    endloop
  endfacet
  facet normal 0 0 1
    outer loop
      vertex 2.04778 1.5 3
      vertex 7.05342 12.6082 3
      vertex 6.42992 13.0319 3
    endloop
  endfacet
  facet normal -0 0 1
    outer loop
      vertex 2.55395 -0.587191 3
      vertex 10.1319 -3.52992 3
      vertex 2.5795 -0.425866 3
    endloop
  endfacet
  facet normal 0 0 1
    outer loop
      vertex 2.04778 1.5 3
      vertex 6.42992 13.0319 3
      vertex 5.78104 13.4157 3
    endloop
  endfacet
  facet normal 0 0 1
    outer loop
      vertex 10.1319 -3.52992 3
      vertex 2.55395 -0.587191 3
      vertex 9.7082 -4.15342 3
    endloop
  endfacet
  facet normal 0 0 1
    outer loop
      vertex 2.04778 1.5 3
      vertex 5.78104 13.4157 3
      vertex 5.10935 13.7579 3
    endloop
  endfacet
  facet normal -0 0 1
    outer loop
      vertex 2.51832 -0.746593 3
      vertex 9.7082 -4.15342 3
      vertex 2.55395 -0.587191 3
    endloop
  endfacet
  facet normal 0 0 1
    outer loop
      vertex 2.04778 1.5 3
      vertex 5.10935 13.7579 3
      vertex 4.41749 14.0573 3
    endloop
  endfacet
  facet normal 0 0 1
    outer loop
      vertex 9.7082 -4.15342 3
      vertex 2.47275 -0.903444 3
      vertex 9.24616 -4.74909 3
    endloop
  endfacet
  facet normal 0 0 1
    outer loop
      vertex 2.04778 1.5 3
      vertex 4.41749 14.0573 3
      vertex 3.7082 14.3127 3
    endloop
  endfacet
  facet normal -0 0 1
    outer loop
      vertex 2.41742 -1.05712 3
      vertex 9.24616 -4.74909 3
      vertex 2.47275 -0.903444 3
    endloop
  endfacet
  facet normal 0 0 1
    outer loop
      vertex 2.04778 1.5 3
      vertex 3.7082 14.3127 3
      vertex 2.98428 14.523 3
    endloop
  endfacet
  facet normal -0 0 1
    outer loop
      vertex 2.35255 -1.20703 3
      vertex 8.74762 -5.31456 3
      vertex 2.41742 -1.05712 3
    endloop
  endfacet
  facet normal -0 0 1
    outer loop
      vertex 2.2784 -1.35256 3
      vertex 8.21456 -5.84762 3
      vertex 2.35255 -1.20703 3
    endloop
  endfacet
  facet normal 0 0 1
    outer loop
      vertex 8.74762 -5.31456 3
      vertex 2.35255 -1.20703 3
      vertex 8.21456 -5.84762 3
    endloop
  endfacet
  facet normal 0 0 1
    outer loop
      vertex 9.24616 -4.74909 3
      vertex 2.41742 -1.05712 3
      vertex 8.74762 -5.31456 3
    endloop
  endfacet
  facet normal -0 0 1
    outer loop
      vertex 2.47275 -0.903444 3
      vertex 9.7082 -4.15342 3
      vertex 2.51832 -0.746593 3
    endloop
  endfacet
  facet normal 0 0 1
    outer loop
      vertex 10.5157 -2.88104 3
      vertex 2.5795 -0.425866 3
      vertex 10.1319 -3.52992 3
    endloop
  endfacet
  facet normal -0 0 1
    outer loop
      vertex 2.59487 -0.263255 3
      vertex 10.8579 -2.20935 3
      vertex 2.6 -0.1 3
    endloop
  endfacet
  facet normal -0 -0 1
    outer loop
      vertex 2.59487 0.0632547 3
      vertex 11.4127 -0.808203 3
      vertex 2.5795 0.225866 3
    endloop
  endfacet
  facet normal 0 -0 1
    outer loop
      vertex 2.51832 0.546593 3
      vertex 11.9054 1.396 3
      vertex 2.47275 0.703444 3
    endloop
  endfacet
  facet normal 0 0 1
    outer loop
      vertex 11.9763 3.65349 3
      vertex 2.2784 1.15256 3
      vertex 2.35255 1.00703 3
    endloop
  endfacet
  facet normal 0 0 1
    outer loop
      vertex 2.04778 1.5 3
      vertex 2.98428 14.523 3
      vertex 2.24858 14.6874 3
    endloop
  endfacet
  facet normal 0 0 1
    outer loop
      vertex 11.9054 4.404 3
      vertex 2.19525 1.29315 3
      vertex 2.2784 1.15256 3
    endloop
  endfacet
  facet normal 0 0 1
    outer loop
      vertex 11.623 5.88428 3
      vertex 2.10344 1.42824 3
      vertex 2.19525 1.29315 3
    endloop
  endfacet
  facet normal 0 0 1
    outer loop
      vertex 11.4127 6.6082 3
      vertex 2.04778 1.5 3
      vertex 2.10344 1.42824 3
    endloop
  endfacet
  facet normal 0 0 1
    outer loop
      vertex 1.504 14.8054 3
      vertex 2.04778 1.5 3
      vertex 2.24858 14.6874 3
    endloop
  endfacet
  facet normal 0 0 1
    outer loop
      vertex 0.753486 14.8763 3
      vertex 2.04778 1.5 3
      vertex 1.504 14.8054 3
    endloop
  endfacet
  facet normal 0 0 1
    outer loop
      vertex 0 14.9 3
      vertex 2.04778 1.5 3
      vertex 0.753486 14.8763 3
    endloop
  endfacet
  facet normal 0 0 1
    outer loop
      vertex -2.04778 1.5 3
      vertex 0 14.9 3
      vertex -0.753486 14.8763 3
    endloop
  endfacet
  facet normal 0 0 1
    outer loop
      vertex -2.04778 1.5 3
      vertex -0.753486 14.8763 3
      vertex -1.504 14.8054 3
    endloop
  endfacet
  facet normal 0 0 1
    outer loop
      vertex 0 14.9 3
      vertex -2.04778 1.5 3
      vertex 2.04778 1.5 3
    endloop
  endfacet
  facet normal -0 0 1
    outer loop
      vertex -2.24858 14.6874 3
      vertex -2.04778 1.5 3
      vertex -1.504 14.8054 3
    endloop
  endfacet
  facet normal -0 0 1
    outer loop
      vertex -2.98428 14.523 3
      vertex -2.04778 1.5 3
      vertex -2.24858 14.6874 3
    endloop
  endfacet
  facet normal -0 0 1
    outer loop
      vertex -3.7082 14.3127 3
      vertex -2.04778 1.5 3
      vertex -2.98428 14.523 3
    endloop
  endfacet
  facet normal -0 0 1
    outer loop
      vertex -4.41749 14.0573 3
      vertex -2.04778 1.5 3
      vertex -3.7082 14.3127 3
    endloop
  endfacet
  facet normal -0 0 1
    outer loop
      vertex -5.10935 13.7579 3
      vertex -2.04778 1.5 3
      vertex -4.41749 14.0573 3
    endloop
  endfacet
  facet normal -0 0 1
    outer loop
      vertex -5.78104 13.4157 3
      vertex -2.04778 1.5 3
      vertex -5.10935 13.7579 3
    endloop
  endfacet
  facet normal -0 0 1
    outer loop
      vertex -6.42992 13.0319 3
      vertex -2.04778 1.5 3
      vertex -5.78104 13.4157 3
    endloop
  endfacet
  facet normal -0 0 1
    outer loop
      vertex -7.05342 12.6082 3
      vertex -2.04778 1.5 3
      vertex -6.42992 13.0319 3
    endloop
  endfacet
  facet normal -0 0 1
    outer loop
      vertex -7.64909 12.1462 3
      vertex -2.04778 1.5 3
      vertex -7.05342 12.6082 3
    endloop
  endfacet
  facet normal -0 0 1
    outer loop
      vertex -8.21456 11.6476 3
      vertex -2.04778 1.5 3
      vertex -7.64909 12.1462 3
    endloop
  endfacet
  facet normal -0 0 1
    outer loop
      vertex -8.74762 11.1146 3
      vertex -2.04778 1.5 3
      vertex -8.21456 11.6476 3
    endloop
  endfacet
  facet normal -0 0 1
    outer loop
      vertex -9.24616 10.5491 3
      vertex -2.04778 1.5 3
      vertex -8.74762 11.1146 3
    endloop
  endfacet
  facet normal -0 0 1
    outer loop
      vertex -9.7082 9.95342 3
      vertex -2.04778 1.5 3
      vertex -9.24616 10.5491 3
    endloop
  endfacet
  facet normal 0 0 1
    outer loop
      vertex 8.21456 -5.84762 3
      vertex 2.2784 -1.35256 3
      vertex 7.64909 -6.34616 3
    endloop
  endfacet
  facet normal -0 0 1
    outer loop
      vertex 2.19525 -1.49315 3
      vertex 7.64909 -6.34616 3
      vertex 2.2784 -1.35256 3
    endloop
  endfacet
  facet normal -0 0 1
    outer loop
      vertex 2.10344 -1.62824 3
      vertex 7.64909 -6.34616 3
      vertex 2.19525 -1.49315 3
    endloop
  endfacet
  facet normal 0 0 1
    outer loop
      vertex 7.64909 -6.34616 3
      vertex 2.10344 -1.62824 3
      vertex 7.05342 -6.8082 3
    endloop
  endfacet
  facet normal -0 0 1
    outer loop
      vertex 2.04778 -1.7 3
      vertex 7.05342 -6.8082 3
      vertex 2.10344 -1.62824 3
    endloop
  endfacet
  facet normal 0 0 1
    outer loop
      vertex 7.05342 -6.8082 3
      vertex 2.04778 -1.7 3
      vertex 6.42992 -7.23193 3
    endloop
  endfacet
  facet normal 0 0 1
    outer loop
      vertex 6.42992 -7.23193 3
      vertex 2.04778 -1.7 3
      vertex 5.78104 -7.61568 3
    endloop
  endfacet
  facet normal 0 0 1
    outer loop
      vertex 5.78104 -7.61568 3
      vertex 2.04778 -1.7 3
      vertex 5.10935 -7.95792 3
    endloop
  endfacet
  facet normal 0 0 1
    outer loop
      vertex 5.10935 -7.95792 3
      vertex 2.04778 -1.7 3
      vertex 4.41749 -8.25732 3
    endloop
  endfacet
  facet normal 0 0 1
    outer loop
      vertex 4.41749 -8.25732 3
      vertex 2.04778 -1.7 3
      vertex 3.7082 -8.51268 3
    endloop
  endfacet
  facet normal 0 0 1
    outer loop
      vertex 3.7082 -8.51268 3
      vertex 2.04778 -1.7 3
      vertex 2.98428 -8.723 3
    endloop
  endfacet
  facet normal 0 0 1
    outer loop
      vertex 2.98428 -8.723 3
      vertex 2.04778 -1.7 3
      vertex 2.24858 -8.88745 3
    endloop
  endfacet
  facet normal 0 0 1
    outer loop
      vertex 2.04778 -1.7 3
      vertex 1.504 -9.00538 3
      vertex 2.24858 -8.88745 3
    endloop
  endfacet
  facet normal 0 0 1
    outer loop
      vertex 2.04778 -1.7 3
      vertex 0.753486 -9.07632 3
      vertex 1.504 -9.00538 3
    endloop
  endfacet
  facet normal 0 0 1
    outer loop
      vertex 2.04778 -1.7 3
      vertex 0 -9.1 3
      vertex 0.753486 -9.07632 3
    endloop
  endfacet
  facet normal -0 0 1
    outer loop
      vertex -2.04778 -1.7 3
      vertex 0 -9.1 3
      vertex 2.04778 -1.7 3
    endloop
  endfacet
  facet normal 0 0 1
    outer loop
      vertex 0 -9.1 3
      vertex -2.04778 -1.7 3
      vertex -0.753486 -9.07632 3
    endloop
  endfacet
  facet normal 0 0 1
    outer loop
      vertex -0.753486 -9.07632 3
      vertex -2.04778 -1.7 3
      vertex -1.504 -9.00538 3
    endloop
  endfacet
  facet normal 0 0 1
    outer loop
      vertex -7.05342 -6.8082 3
      vertex -2.04778 -1.7 3
      vertex -2.10344 -1.62824 3
    endloop
  endfacet
  facet normal 0 0 1
    outer loop
      vertex -7.64909 -6.34616 3
      vertex -2.10344 -1.62824 3
      vertex -2.19525 -1.49315 3
    endloop
  endfacet
  facet normal 0 0 1
    outer loop
      vertex -2.04778 -1.7 3
      vertex -2.24858 -8.88745 3
      vertex -1.504 -9.00538 3
    endloop
  endfacet
  facet normal 0 0 1
    outer loop
      vertex -7.64909 -6.34616 3
      vertex -2.19525 -1.49315 3
      vertex -2.2784 -1.35256 3
    endloop
  endfacet
  facet normal 0 0 1
    outer loop
      vertex -8.21456 -5.84762 3
      vertex -2.2784 -1.35256 3
      vertex -2.35255 -1.20703 3
    endloop
  endfacet
  facet normal 0 0 1
    outer loop
      vertex -8.74762 -5.31456 3
      vertex -2.35255 -1.20703 3
      vertex -2.41742 -1.05712 3
    endloop
  endfacet
  facet normal 0 0 1
    outer loop
      vertex -9.24616 -4.74909 3
      vertex -2.41742 -1.05712 3
      vertex -2.47275 -0.903444 3
    endloop
  endfacet
  facet normal 0 0 1
    outer loop
      vertex -9.7082 -4.15342 3
      vertex -2.47275 -0.903444 3
      vertex -2.51832 -0.746593 3
    endloop
  endfacet
  facet normal 0 0 1
    outer loop
      vertex -9.7082 -4.15342 3
      vertex -2.51832 -0.746593 3
      vertex -2.55395 -0.587191 3
    endloop
  endfacet
  facet normal 0 0 1
    outer loop
      vertex -10.1319 -3.52992 3
      vertex -2.55395 -0.587191 3
      vertex -2.5795 -0.425866 3
    endloop
  endfacet
  facet normal 0 0 1
    outer loop
      vertex -10.5157 -2.88104 3
      vertex -2.5795 -0.425866 3
      vertex -2.59487 -0.263255 3
    endloop
  endfacet
  facet normal 0 0 1
    outer loop
      vertex -2.04778 -1.7 3
      vertex -2.98428 -8.723 3
      vertex -2.24858 -8.88745 3
    endloop
  endfacet
  facet normal 0 0 1
    outer loop
      vertex -10.8579 -2.20935 3
      vertex -2.59487 -0.263255 3
      vertex -2.6 -0.1 3
    endloop
  endfacet
  facet normal -0 0 1
    outer loop
      vertex -10.1319 9.32992 3
      vertex -2.04778 1.5 3
      vertex -9.7082 9.95342 3
    endloop
  endfacet
  facet normal -0 0 1
    outer loop
      vertex -10.5157 8.68104 3
      vertex -2.04778 1.5 3
      vertex -10.1319 9.32992 3
    endloop
  endfacet
  facet normal 0 0 1
    outer loop
      vertex -2.04778 -1.7 3
      vertex -3.7082 -8.51268 3
      vertex -2.98428 -8.723 3
    endloop
  endfacet
  facet normal -0 0 1
    outer loop
      vertex -10.8579 8.00935 3
      vertex -2.04778 1.5 3
      vertex -10.5157 8.68104 3
    endloop
  endfacet
  facet normal 0 0 1
    outer loop
      vertex -2.04778 -1.7 3
      vertex -4.41749 -8.25732 3
      vertex -3.7082 -8.51268 3
    endloop
  endfacet
  facet normal -0 0 1
    outer loop
      vertex -11.1573 7.31749 3
      vertex -2.04778 1.5 3
      vertex -10.8579 8.00935 3
    endloop
  endfacet
  facet normal 0 0 1
    outer loop
      vertex -2.04778 -1.7 3
      vertex -5.10935 -7.95792 3
      vertex -4.41749 -8.25732 3
    endloop
  endfacet
  facet normal -0 0 1
    outer loop
      vertex -11.4127 6.6082 3
      vertex -2.04778 1.5 3
      vertex -11.1573 7.31749 3
    endloop
  endfacet
  facet normal 0 0 1
    outer loop
      vertex -2.04778 -1.7 3
      vertex -5.78104 -7.61568 3
      vertex -5.10935 -7.95792 3
    endloop
  endfacet
  facet normal 0 0 1
    outer loop
      vertex -2.04778 1.5 3
      vertex -11.4127 6.6082 3
      vertex -2.10344 1.42824 3
    endloop
  endfacet
  facet normal 0 0 1
    outer loop
      vertex -2.04778 -1.7 3
      vertex -6.42992 -7.23193 3
      vertex -5.78104 -7.61568 3
    endloop
  endfacet
  facet normal -0 0 1
    outer loop
      vertex -11.623 5.88428 3
      vertex -2.10344 1.42824 3
      vertex -11.4127 6.6082 3
    endloop
  endfacet
  facet normal 0 0 1
    outer loop
      vertex -2.04778 -1.7 3
      vertex -7.05342 -6.8082 3
      vertex -6.42992 -7.23193 3
    endloop
  endfacet
  facet normal 0 0 1
    outer loop
      vertex -2.10344 1.42824 3
      vertex -11.623 5.88428 3
      vertex -2.19525 1.29315 3
    endloop
  endfacet
  facet normal 0 0 1
    outer loop
      vertex -2.10344 -1.62824 3
      vertex -7.64909 -6.34616 3
      vertex -7.05342 -6.8082 3
    endloop
  endfacet
  facet normal -0 0 1
    outer loop
      vertex -11.7874 5.14858 3
      vertex -2.19525 1.29315 3
      vertex -11.623 5.88428 3
    endloop
  endfacet
  facet normal 0 0 1
    outer loop
      vertex -2.2784 -1.35256 3
      vertex -8.21456 -5.84762 3
      vertex -7.64909 -6.34616 3
    endloop
  endfacet
  facet normal -0 0 1
    outer loop
      vertex -11.9054 4.404 3
      vertex -2.19525 1.29315 3
      vertex -11.7874 5.14858 3
    endloop
  endfacet
  facet normal 0 0 1
    outer loop
      vertex -2.35255 -1.20703 3
      vertex -8.74762 -5.31456 3
      vertex -8.21456 -5.84762 3
    endloop
  endfacet
  facet normal 0 0 1
    outer loop
      vertex -2.19525 1.29315 3
      vertex -11.9054 4.404 3
      vertex -2.2784 1.15256 3
    endloop
  endfacet
  facet normal 0 0 1
    outer loop
      vertex -2.41742 -1.05712 3
      vertex -9.24616 -4.74909 3
      vertex -8.74762 -5.31456 3
    endloop
  endfacet
  facet normal -0 0 1
    outer loop
      vertex -11.9763 3.65349 3
      vertex -2.2784 1.15256 3
      vertex -11.9054 4.404 3
    endloop
  endfacet
  facet normal 0 0 1
    outer loop
      vertex -2.47275 -0.903444 3
      vertex -9.7082 -4.15342 3
      vertex -9.24616 -4.74909 3
    endloop
  endfacet
  facet normal 0 0 1
    outer loop
      vertex -2.2784 1.15256 3
      vertex -11.9763 3.65349 3
      vertex -2.35255 1.00703 3
    endloop
  endfacet
  facet normal 0 0 1
    outer loop
      vertex -2.55395 -0.587191 3
      vertex -10.1319 -3.52992 3
      vertex -9.7082 -4.15342 3
    endloop
  endfacet
  facet normal -0 0 1
    outer loop
      vertex -12 2.9 3
      vertex -2.35255 1.00703 3
      vertex -11.9763 3.65349 3
    endloop
  endfacet
  facet normal 0 0 1
    outer loop
      vertex -2.5795 -0.425866 3
      vertex -10.5157 -2.88104 3
      vertex -10.1319 -3.52992 3
    endloop
  endfacet
  facet normal 0 0 1
    outer loop
      vertex -2.35255 1.00703 3
      vertex -12 2.9 3
      vertex -2.41742 0.857124 3
    endloop
  endfacet
  facet normal 0 0 1
    outer loop
      vertex -2.59487 -0.263255 3
      vertex -10.8579 -2.20935 3
      vertex -10.5157 -2.88104 3
    endloop
  endfacet
  facet normal -0 -0 1
    outer loop
      vertex -11.9763 2.14651 3
      vertex -2.41742 0.857124 3
      vertex -12 2.9 3
    endloop
  endfacet
  facet normal 0 0 1
    outer loop
      vertex -2.6 -0.1 3
      vertex -11.1573 -1.51749 3
      vertex -10.8579 -2.20935 3
    endloop
  endfacet
  facet normal 0 0 1
    outer loop
      vertex -2.41742 0.857124 3
      vertex -11.9763 2.14651 3
      vertex -2.47275 0.703444 3
    endloop
  endfacet
  facet normal 0 0 1
    outer loop
      vertex -2.59487 0.0632547 3
      vertex -11.1573 -1.51749 3
      vertex -2.6 -0.1 3
    endloop
  endfacet
  facet normal -0 -0 1
    outer loop
      vertex -11.9054 1.396 3
      vertex -2.47275 0.703444 3
      vertex -11.9763 2.14651 3
    endloop
  endfacet
  facet normal 0 -0 1
    outer loop
      vertex -11.1573 -1.51749 3
      vertex -2.59487 0.0632547 3
      vertex -11.4127 -0.808203 3
    endloop
  endfacet
  facet normal 0 0 1
    outer loop
      vertex -2.47275 0.703444 3
      vertex -11.9054 1.396 3
      vertex -2.51832 0.546593 3
    endloop
  endfacet
  facet normal 0 0 1
    outer loop
      vertex -2.5795 0.225866 3
      vertex -11.4127 -0.808203 3
      vertex -2.59487 0.0632547 3
    endloop
  endfacet
  facet normal -0 -0 1
    outer loop
      vertex -11.7874 0.651425 3
      vertex -2.51832 0.546593 3
      vertex -11.9054 1.396 3
    endloop
  endfacet
  facet normal 0 -0 1
    outer loop
      vertex -11.4127 -0.808203 3
      vertex -2.5795 0.225866 3
      vertex -11.623 -0.0842777 3
    endloop
  endfacet
  facet normal 0 0 1
    outer loop
      vertex -2.51832 0.546593 3
      vertex -11.7874 0.651425 3
      vertex -2.55395 0.387191 3
    endloop
  endfacet
  facet normal 0 0 1
    outer loop
      vertex -2.55395 0.387191 3
      vertex -11.623 -0.0842777 3
      vertex -2.5795 0.225866 3
    endloop
  endfacet
  facet normal 0 -0 1
    outer loop
      vertex -11.623 -0.0842777 3
      vertex -2.55395 0.387191 3
      vertex -11.7874 0.651425 3
    endloop
  endfacet
endsolid OpenSCAD_Model
