solid OpenSCAD_Model
  facet normal 1 0 0
    outer loop
      vertex 10 4 14
      vertex 10 0 14
      vertex 10 4 4
    endloop
  endfacet
  facet normal 1 0 0
    outer loop
      vertex 10 48 24
      vertex 10 44 24
      vertex 10 48 4
    endloop
  endfacet
  facet normal 1 -0 0
    outer loop
      vertex 10 48 4
      vertex 10 100 0
      vertex 10 100 4
    endloop
  endfacet
  facet normal 1 0 0
    outer loop
      vertex 10 44 4
      vertex 10 48 4
      vertex 10 44 24
    endloop
  endfacet
  facet normal 1 0 0
    outer loop
      vertex 10 0 0
      vertex 10 48 4
      vertex 10 44 4
    endloop
  endfacet
  facet normal 1 0 0
    outer loop
      vertex 10 0 0
      vertex 10 44 4
      vertex 10 4 4
    endloop
  endfacet
  facet normal 1 0 0
    outer loop
      vertex 10 48 4
      vertex 10 0 0
      vertex 10 100 0
    endloop
  endfacet
  facet normal 1 0 0
    outer loop
      vertex 10 0 0
      vertex 10 4 4
      vertex 10 0 14
    endloop
  endfacet
  facet normal -0 0 1
    outer loop
      vertex 0 100 4
      vertex 10 48 4
      vertex 10 100 4
    endloop
  endfacet
  facet normal 0 0 1
    outer loop
      vertex 10 48 4
      vertex 0 100 4
      vertex 0 48 4
    endloop
  endfacet
  facet normal -0 0 1
    outer loop
      vertex 0 44 4
      vertex 10 4 4
      vertex 10 44 4
    endloop
  endfacet
  facet normal 0 0 1
    outer loop
      vertex 10 4 4
      vertex 0 44 4
      vertex 0 4 4
    endloop
  endfacet
  facet normal 0 0 -1
    outer loop
      vertex 0 0 0
      vertex 10 100 0
      vertex 10 0 0
    endloop
  endfacet
  facet normal -0 0 -1
    outer loop
      vertex 10 100 0
      vertex 0 0 0
      vertex 0 100 0
    endloop
  endfacet
  facet normal -1 0 0
    outer loop
      vertex 0 100 0
      vertex 0 48 4
      vertex 0 100 4
    endloop
  endfacet
  facet normal -1 0 0
    outer loop
      vertex 0 48 4
      vertex 0 44 4
      vertex 0 48 24
    endloop
  endfacet
  facet normal -1 0 0
    outer loop
      vertex 0 0 0
      vertex 0 48 4
      vertex 0 100 0
    endloop
  endfacet
  facet normal -1 -0 0
    outer loop
      vertex 0 48 4
      vertex 0 0 0
      vertex 0 44 4
    endloop
  endfacet
  facet normal -1 -0 0
    outer loop
      vertex 0 44 4
      vertex 0 0 0
      vertex 0 4 4
    endloop
  endfacet
  facet normal -1 0 0
    outer loop
      vertex 0 0 14
      vertex 0 4 4
      vertex 0 0 0
    endloop
  endfacet
  facet normal -1 0 0
    outer loop
      vertex 0 4 4
      vertex 0 0 14
      vertex 0 4 14
    endloop
  endfacet
  facet normal -1 -0 0
    outer loop
      vertex 0 48 24
      vertex 0 44 4
      vertex 0 44 24
    endloop
  endfacet
  facet normal 0 1 -0
    outer loop
      vertex 10 100 0
      vertex 0 100 4
      vertex 10 100 4
    endloop
  endfacet
  facet normal 0 1 0
    outer loop
      vertex 0 100 4
      vertex 10 100 0
      vertex 0 100 0
    endloop
  endfacet
  facet normal 0 -1 0
    outer loop
      vertex 0 0 0
      vertex 10 0 14
      vertex 0 0 14
    endloop
  endfacet
  facet normal 0 -1 -0
    outer loop
      vertex 10 0 14
      vertex 0 0 0
      vertex 10 0 0
    endloop
  endfacet
  facet normal -0 0 1
    outer loop
      vertex 0 4 14
      vertex 10 0 14
      vertex 10 4 14
    endloop
  endfacet
  facet normal 0 0 1
    outer loop
      vertex 10 0 14
      vertex 0 4 14
      vertex 0 0 14
    endloop
  endfacet
  facet normal 0 1 -0
    outer loop
      vertex 10 4 4
      vertex 0 4 14
      vertex 10 4 14
    endloop
  endfacet
  facet normal 0 1 0
    outer loop
      vertex 0 4 14
      vertex 10 4 4
      vertex 0 4 4
    endloop
  endfacet
  facet normal -0 0 1
    outer loop
      vertex 0 48 24
      vertex 10 44 24
      vertex 10 48 24
    endloop
  endfacet
  facet normal 0 0 1
    outer loop
      vertex 10 44 24
      vertex 0 48 24
      vertex 0 44 24
    endloop
  endfacet
  facet normal 0 1 -0
    outer loop
      vertex 10 48 4
      vertex 0 48 24
      vertex 10 48 24
    endloop
  endfacet
  facet normal 0 1 0
    outer loop
      vertex 0 48 24
      vertex 10 48 4
      vertex 0 48 4
    endloop
  endfacet
  facet normal 0 -1 0
    outer loop
      vertex 0 44 4
      vertex 10 44 24
      vertex 0 44 24
    endloop
  endfacet
  facet normal 0 -1 -0
    outer loop
      vertex 10 44 24
      vertex 0 44 4
      vertex 10 44 4
    endloop
  endfacet
endsolid OpenSCAD_Model
