solid OpenSCAD_Model
  facet normal 1 0 0
    outer loop
      vertex 7.5 50 5
      vertex 7.5 -6 4
      vertex 7.5 50 4
    endloop
  endfacet
  facet normal 1 0 0
    outer loop
      vertex 7.5 -6 4
      vertex 7.5 -8 4
      vertex 7.5 -6 -5
    endloop
  endfacet
  facet normal 1 0 0
    outer loop
      vertex 7.5 50 5
      vertex 7.5 -8 4
      vertex 7.5 -6 4
    endloop
  endfacet
  facet normal 1 -0 0
    outer loop
      vertex 7.5 -50 5
      vertex 7.5 -8 4
      vertex 7.5 50 5
    endloop
  endfacet
  facet normal 1 0 0
    outer loop
      vertex 7.5 -8 4
      vertex 7.5 -50 5
      vertex 7.5 -48 4
    endloop
  endfacet
  facet normal 1 0 0
    outer loop
      vertex 7.5 -50 -5
      vertex 7.5 -48 4
      vertex 7.5 -50 5
    endloop
  endfacet
  facet normal 1 0 0
    outer loop
      vertex 7.5 -48 4
      vertex 7.5 -50 -5
      vertex 7.5 -48 -5
    endloop
  endfacet
  facet normal 1 0 0
    outer loop
      vertex 7.5 -6 -5
      vertex 7.5 -8 4
      vertex 7.5 -8 -5
    endloop
  endfacet
  facet normal -0 0 1
    outer loop
      vertex -7.5 50 5
      vertex 7.5 -50 5
      vertex 7.5 50 5
    endloop
  endfacet
  facet normal 0 0 1
    outer loop
      vertex 7.5 -50 5
      vertex -7.5 50 5
      vertex -7.5 -50 5
    endloop
  endfacet
  facet normal 0 0 -1
    outer loop
      vertex -7.5 -50 -5
      vertex 7.5 -48 -5
      vertex 7.5 -50 -5
    endloop
  endfacet
  facet normal -0 0 -1
    outer loop
      vertex 7.5 -48 -5
      vertex -7.5 -50 -5
      vertex -7.5 -48 -5
    endloop
  endfacet
  facet normal 0 0 -1
    outer loop
      vertex -7.5 -8 -5
      vertex 7.5 -6 -5
      vertex 7.5 -8 -5
    endloop
  endfacet
  facet normal -0 0 -1
    outer loop
      vertex 7.5 -6 -5
      vertex -7.5 -8 -5
      vertex -7.5 -6 -5
    endloop
  endfacet
  facet normal -1 0 0
    outer loop
      vertex -7.5 -48 -5
      vertex -7.5 -50 -5
      vertex -7.5 -48 4
    endloop
  endfacet
  facet normal -1 0 0
    outer loop
      vertex -7.5 -6 -5
      vertex -7.5 -8 -5
      vertex -7.5 -6 4
    endloop
  endfacet
  facet normal -1 0 0
    outer loop
      vertex -7.5 -6 4
      vertex -7.5 50 5
      vertex -7.5 50 4
    endloop
  endfacet
  facet normal -1 0 0
    outer loop
      vertex -7.5 -8 4
      vertex -7.5 -6 4
      vertex -7.5 -8 -5
    endloop
  endfacet
  facet normal -1 0 0
    outer loop
      vertex -7.5 -8 4
      vertex -7.5 50 5
      vertex -7.5 -6 4
    endloop
  endfacet
  facet normal -1 0 0
    outer loop
      vertex -7.5 -50 5
      vertex -7.5 -8 4
      vertex -7.5 -48 4
    endloop
  endfacet
  facet normal -1 0 0
    outer loop
      vertex -7.5 -8 4
      vertex -7.5 -50 5
      vertex -7.5 50 5
    endloop
  endfacet
  facet normal -1 0 0
    outer loop
      vertex -7.5 -50 5
      vertex -7.5 -48 4
      vertex -7.5 -50 -5
    endloop
  endfacet
  facet normal 0 1 -0
    outer loop
      vertex 7.5 50 4
      vertex -7.5 50 5
      vertex 7.5 50 5
    endloop
  endfacet
  facet normal 0 1 0
    outer loop
      vertex -7.5 50 5
      vertex 7.5 50 4
      vertex -7.5 50 4
    endloop
  endfacet
  facet normal 0 -1 0
    outer loop
      vertex -7.5 -50 -5
      vertex 7.5 -50 5
      vertex -7.5 -50 5
    endloop
  endfacet
  facet normal 0 -1 -0
    outer loop
      vertex 7.5 -50 5
      vertex -7.5 -50 -5
      vertex 7.5 -50 -5
    endloop
  endfacet
  facet normal 0 0 -1
    outer loop
      vertex -7.5 -48 4
      vertex 7.5 -8 4
      vertex 7.5 -48 4
    endloop
  endfacet
  facet normal -0 0 -1
    outer loop
      vertex 7.5 -8 4
      vertex -7.5 -48 4
      vertex -7.5 -8 4
    endloop
  endfacet
  facet normal 0 -1 0
    outer loop
      vertex -7.5 -8 -5
      vertex 7.5 -8 4
      vertex -7.5 -8 4
    endloop
  endfacet
  facet normal 0 -1 -0
    outer loop
      vertex 7.5 -8 4
      vertex -7.5 -8 -5
      vertex 7.5 -8 -5
    endloop
  endfacet
  facet normal 0 1 -0
    outer loop
      vertex 7.5 -48 -5
      vertex -7.5 -48 4
      vertex 7.5 -48 4
    endloop
  endfacet
  facet normal 0 1 0
    outer loop
      vertex -7.5 -48 4
      vertex 7.5 -48 -5
      vertex -7.5 -48 -5
    endloop
  endfacet
  facet normal 0 0 -1
    outer loop
      vertex -7.5 -6 4
      vertex 7.5 50 4
      vertex 7.5 -6 4
    endloop
  endfacet
  facet normal -0 0 -1
    outer loop
      vertex 7.5 50 4
      vertex -7.5 -6 4
      vertex -7.5 50 4
    endloop
  endfacet
  facet normal 0 1 -0
    outer loop
      vertex 7.5 -6 -5
      vertex -7.5 -6 4
      vertex 7.5 -6 4
    endloop
  endfacet
  facet normal 0 1 0
    outer loop
      vertex -7.5 -6 4
      vertex 7.5 -6 -5
      vertex -7.5 -6 -5
    endloop
  endfacet
endsolid OpenSCAD_Model
