solid OpenSCAD_Model
  facet normal 1 -0 0
    outer loop
      vertex 3 -4.5 4.5
      vertex 3 4.5 -2.5
      vertex 3 4.5 4.5
    endloop
  endfacet
  facet normal 1 0 0
    outer loop
      vertex 3 4.5 -2.5
      vertex 3 -4.5 4.5
      vertex 3 -4.5 -2.5
    endloop
  endfacet
  facet normal 0 -1 0
    outer loop
      vertex -3 -4.5 4.5
      vertex -0.0941849 -4.5 1.49704
      vertex 3 -4.5 4.5
    endloop
  endfacet
  facet normal 0 -1 0
    outer loop
      vertex -3 -4.5 4.5
      vertex -0.281072 -4.5 1.47343
      vertex -0.0941849 -4.5 1.49704
    endloop
  endfacet
  facet normal 0 -1 0
    outer loop
      vertex -3 -4.5 4.5
      vertex -0.463525 -4.5 1.42658
      vertex -0.281072 -4.5 1.47343
    endloop
  endfacet
  facet normal 0 -1 0
    outer loop
      vertex -3 -4.5 4.5
      vertex -0.638668 -4.5 1.35724
      vertex -0.463525 -4.5 1.42658
    endloop
  endfacet
  facet normal 0 -1 0
    outer loop
      vertex -3 -4.5 4.5
      vertex -0.80374 -4.5 1.26649
      vertex -0.638668 -4.5 1.35724
    endloop
  endfacet
  facet normal 0 -1 0
    outer loop
      vertex -3 -4.5 4.5
      vertex -0.956136 -4.5 1.15577
      vertex -0.80374 -4.5 1.26649
    endloop
  endfacet
  facet normal 0 -1 0
    outer loop
      vertex -3 -4.5 4.5
      vertex -1.09345 -4.5 1.02682
      vertex -0.956136 -4.5 1.15577
    endloop
  endfacet
  facet normal 0 -1 0
    outer loop
      vertex -3 -4.5 4.5
      vertex -1.21352 -4.5 0.881678
      vertex -1.09345 -4.5 1.02682
    endloop
  endfacet
  facet normal 0 -1 0
    outer loop
      vertex -3 -4.5 4.5
      vertex -1.31446 -4.5 0.722631
      vertex -1.21352 -4.5 0.881678
    endloop
  endfacet
  facet normal 0 -1 0
    outer loop
      vertex -3 -4.5 4.5
      vertex -1.39466 -4.5 0.552186
      vertex -1.31446 -4.5 0.722631
    endloop
  endfacet
  facet normal 0 -1 0
    outer loop
      vertex -3 -4.5 4.5
      vertex -1.45287 -4.5 0.373034
      vertex -1.39466 -4.5 0.552186
    endloop
  endfacet
  facet normal 0 -1 0
    outer loop
      vertex -3 -4.5 4.5
      vertex -1.48817 -4.5 0.188
      vertex -1.45287 -4.5 0.373034
    endloop
  endfacet
  facet normal 0 -1 0
    outer loop
      vertex -3 -4.5 -2.5
      vertex -1.48817 -4.5 0.188
      vertex -3 -4.5 4.5
    endloop
  endfacet
  facet normal 0 -1 0
    outer loop
      vertex -1.48817 -4.5 0.188
      vertex -3 -4.5 -2.5
      vertex -1.5 -4.5 0
    endloop
  endfacet
  facet normal 0 -1 -0
    outer loop
      vertex -1.5 -4.5 0
      vertex -3 -4.5 -2.5
      vertex -1.48817 -4.5 -0.188
    endloop
  endfacet
  facet normal 0 -1 -0
    outer loop
      vertex -0.0941849 -4.5 -1.49704
      vertex -3 -4.5 -2.5
      vertex 0.0941849 -4.5 -1.49704
    endloop
  endfacet
  facet normal 0 -1 -0
    outer loop
      vertex -0.281072 -4.5 -1.47343
      vertex -3 -4.5 -2.5
      vertex -0.0941849 -4.5 -1.49704
    endloop
  endfacet
  facet normal 0 -1 -0
    outer loop
      vertex -0.463525 -4.5 -1.42658
      vertex -3 -4.5 -2.5
      vertex -0.281072 -4.5 -1.47343
    endloop
  endfacet
  facet normal 0 -1 -0
    outer loop
      vertex -0.638668 -4.5 -1.35724
      vertex -3 -4.5 -2.5
      vertex -0.463525 -4.5 -1.42658
    endloop
  endfacet
  facet normal 0 -1 -0
    outer loop
      vertex -0.80374 -4.5 -1.26649
      vertex -3 -4.5 -2.5
      vertex -0.638668 -4.5 -1.35724
    endloop
  endfacet
  facet normal 0 -1 -0
    outer loop
      vertex -0.956136 -4.5 -1.15577
      vertex -3 -4.5 -2.5
      vertex -0.80374 -4.5 -1.26649
    endloop
  endfacet
  facet normal 0 -1 -0
    outer loop
      vertex -1.09345 -4.5 -1.02682
      vertex -3 -4.5 -2.5
      vertex -0.956136 -4.5 -1.15577
    endloop
  endfacet
  facet normal 0 -1 -0
    outer loop
      vertex -1.21352 -4.5 -0.881678
      vertex -3 -4.5 -2.5
      vertex -1.09345 -4.5 -1.02682
    endloop
  endfacet
  facet normal 0 -1 -0
    outer loop
      vertex -1.31446 -4.5 -0.722631
      vertex -3 -4.5 -2.5
      vertex -1.21352 -4.5 -0.881678
    endloop
  endfacet
  facet normal 0 -1 -0
    outer loop
      vertex -1.39466 -4.5 -0.552186
      vertex -3 -4.5 -2.5
      vertex -1.31446 -4.5 -0.722631
    endloop
  endfacet
  facet normal 0 -1 -0
    outer loop
      vertex -1.45287 -4.5 -0.373034
      vertex -3 -4.5 -2.5
      vertex -1.39466 -4.5 -0.552186
    endloop
  endfacet
  facet normal 0 -1 -0
    outer loop
      vertex -1.48817 -4.5 -0.188
      vertex -3 -4.5 -2.5
      vertex -1.45287 -4.5 -0.373034
    endloop
  endfacet
  facet normal 0 -1 0
    outer loop
      vertex 0.0941849 -4.5 1.49704
      vertex 3 -4.5 4.5
      vertex -0.0941849 -4.5 1.49704
    endloop
  endfacet
  facet normal 0 -1 0
    outer loop
      vertex 0.281072 -4.5 1.47343
      vertex 3 -4.5 4.5
      vertex 0.0941849 -4.5 1.49704
    endloop
  endfacet
  facet normal 0 -1 0
    outer loop
      vertex 0.463525 -4.5 1.42658
      vertex 3 -4.5 4.5
      vertex 0.281072 -4.5 1.47343
    endloop
  endfacet
  facet normal 0 -1 0
    outer loop
      vertex 0.638668 -4.5 1.35724
      vertex 3 -4.5 4.5
      vertex 0.463525 -4.5 1.42658
    endloop
  endfacet
  facet normal 0 -1 0
    outer loop
      vertex 0.80374 -4.5 1.26649
      vertex 3 -4.5 4.5
      vertex 0.638668 -4.5 1.35724
    endloop
  endfacet
  facet normal 0 -1 0
    outer loop
      vertex 0.956136 -4.5 1.15577
      vertex 3 -4.5 4.5
      vertex 0.80374 -4.5 1.26649
    endloop
  endfacet
  facet normal 0 -1 0
    outer loop
      vertex 1.09345 -4.5 1.02682
      vertex 3 -4.5 4.5
      vertex 0.956136 -4.5 1.15577
    endloop
  endfacet
  facet normal 0 -1 0
    outer loop
      vertex 1.21352 -4.5 0.881678
      vertex 3 -4.5 4.5
      vertex 1.09345 -4.5 1.02682
    endloop
  endfacet
  facet normal 0 -1 0
    outer loop
      vertex 1.31446 -4.5 0.722631
      vertex 3 -4.5 4.5
      vertex 1.21352 -4.5 0.881678
    endloop
  endfacet
  facet normal 0 -1 0
    outer loop
      vertex 1.39466 -4.5 0.552186
      vertex 3 -4.5 4.5
      vertex 1.31446 -4.5 0.722631
    endloop
  endfacet
  facet normal 0 -1 0
    outer loop
      vertex 1.45287 -4.5 0.373034
      vertex 3 -4.5 4.5
      vertex 1.39466 -4.5 0.552186
    endloop
  endfacet
  facet normal 0 -1 0
    outer loop
      vertex 1.48817 -4.5 0.188
      vertex 3 -4.5 4.5
      vertex 1.45287 -4.5 0.373034
    endloop
  endfacet
  facet normal 0 -1 0
    outer loop
      vertex 3 -4.5 -2.5
      vertex 1.48817 -4.5 0.188
      vertex 1.5 -4.5 0
    endloop
  endfacet
  facet normal 0 -1 0
    outer loop
      vertex 3 -4.5 -2.5
      vertex 1.5 -4.5 0
      vertex 1.48817 -4.5 -0.188
    endloop
  endfacet
  facet normal 0 -1 0
    outer loop
      vertex 3 -4.5 -2.5
      vertex 1.48817 -4.5 -0.188
      vertex 1.45287 -4.5 -0.373034
    endloop
  endfacet
  facet normal 0 -1 0
    outer loop
      vertex 3 -4.5 -2.5
      vertex 0.0941849 -4.5 -1.49704
      vertex -3 -4.5 -2.5
    endloop
  endfacet
  facet normal 0 -1 0
    outer loop
      vertex 0.0941849 -4.5 -1.49704
      vertex 3 -4.5 -2.5
      vertex 0.281072 -4.5 -1.47343
    endloop
  endfacet
  facet normal 0 -1 0
    outer loop
      vertex 1.48817 -4.5 0.188
      vertex 3 -4.5 -2.5
      vertex 3 -4.5 4.5
    endloop
  endfacet
  facet normal 0 -1 0
    outer loop
      vertex 1.39466 -4.5 -0.552186
      vertex 3 -4.5 -2.5
      vertex 1.45287 -4.5 -0.373034
    endloop
  endfacet
  facet normal 0 -1 0
    outer loop
      vertex 1.31446 -4.5 -0.722631
      vertex 3 -4.5 -2.5
      vertex 1.39466 -4.5 -0.552186
    endloop
  endfacet
  facet normal 0 -1 0
    outer loop
      vertex 1.21352 -4.5 -0.881678
      vertex 3 -4.5 -2.5
      vertex 1.31446 -4.5 -0.722631
    endloop
  endfacet
  facet normal 0 -1 0
    outer loop
      vertex 1.09345 -4.5 -1.02682
      vertex 3 -4.5 -2.5
      vertex 1.21352 -4.5 -0.881678
    endloop
  endfacet
  facet normal 0 -1 0
    outer loop
      vertex 0.956136 -4.5 -1.15577
      vertex 3 -4.5 -2.5
      vertex 1.09345 -4.5 -1.02682
    endloop
  endfacet
  facet normal 0 -1 0
    outer loop
      vertex 0.80374 -4.5 -1.26649
      vertex 3 -4.5 -2.5
      vertex 0.956136 -4.5 -1.15577
    endloop
  endfacet
  facet normal 0 -1 0
    outer loop
      vertex 0.638668 -4.5 -1.35724
      vertex 3 -4.5 -2.5
      vertex 0.80374 -4.5 -1.26649
    endloop
  endfacet
  facet normal 0 -1 0
    outer loop
      vertex 0.463525 -4.5 -1.42658
      vertex 3 -4.5 -2.5
      vertex 0.638668 -4.5 -1.35724
    endloop
  endfacet
  facet normal 0 -1 0
    outer loop
      vertex 0.281072 -4.5 -1.47343
      vertex 3 -4.5 -2.5
      vertex 0.463525 -4.5 -1.42658
    endloop
  endfacet
  facet normal 0 1 0
    outer loop
      vertex 3 4.5 4.5
      vertex 0.0941849 4.5 1.49704
      vertex -3 4.5 4.5
    endloop
  endfacet
  facet normal 0 1 0
    outer loop
      vertex 3 4.5 4.5
      vertex 0.281072 4.5 1.47343
      vertex 0.0941849 4.5 1.49704
    endloop
  endfacet
  facet normal 0 1 0
    outer loop
      vertex 3 4.5 4.5
      vertex 0.463525 4.5 1.42658
      vertex 0.281072 4.5 1.47343
    endloop
  endfacet
  facet normal 0 1 0
    outer loop
      vertex 3 4.5 4.5
      vertex 0.638668 4.5 1.35724
      vertex 0.463525 4.5 1.42658
    endloop
  endfacet
  facet normal 0 1 0
    outer loop
      vertex 3 4.5 4.5
      vertex 0.80374 4.5 1.26649
      vertex 0.638668 4.5 1.35724
    endloop
  endfacet
  facet normal 0 1 0
    outer loop
      vertex 3 4.5 4.5
      vertex 0.956136 4.5 1.15577
      vertex 0.80374 4.5 1.26649
    endloop
  endfacet
  facet normal 0 1 0
    outer loop
      vertex 3 4.5 4.5
      vertex 1.09345 4.5 1.02682
      vertex 0.956136 4.5 1.15577
    endloop
  endfacet
  facet normal 0 1 0
    outer loop
      vertex 3 4.5 4.5
      vertex 1.21352 4.5 0.881678
      vertex 1.09345 4.5 1.02682
    endloop
  endfacet
  facet normal 0 1 0
    outer loop
      vertex 3 4.5 4.5
      vertex 1.31446 4.5 0.722631
      vertex 1.21352 4.5 0.881678
    endloop
  endfacet
  facet normal 0 1 0
    outer loop
      vertex 3 4.5 4.5
      vertex 1.39466 4.5 0.552186
      vertex 1.31446 4.5 0.722631
    endloop
  endfacet
  facet normal 0 1 0
    outer loop
      vertex 3 4.5 4.5
      vertex 1.45287 4.5 0.373034
      vertex 1.39466 4.5 0.552186
    endloop
  endfacet
  facet normal 0 1 0
    outer loop
      vertex 3 4.5 4.5
      vertex 1.48817 4.5 0.188
      vertex 1.45287 4.5 0.373034
    endloop
  endfacet
  facet normal 0 1 -0
    outer loop
      vertex 3 4.5 -2.5
      vertex 1.48817 4.5 0.188
      vertex 3 4.5 4.5
    endloop
  endfacet
  facet normal 0 1 0
    outer loop
      vertex 1.48817 4.5 0.188
      vertex 3 4.5 -2.5
      vertex 1.5 4.5 0
    endloop
  endfacet
  facet normal 0 1 0
    outer loop
      vertex 1.5 4.5 0
      vertex 3 4.5 -2.5
      vertex 1.48817 4.5 -0.188
    endloop
  endfacet
  facet normal 0 1 0
    outer loop
      vertex 0.0941849 4.5 -1.49704
      vertex 3 4.5 -2.5
      vertex -0.0941849 4.5 -1.49704
    endloop
  endfacet
  facet normal 0 1 0
    outer loop
      vertex 0.281072 4.5 -1.47343
      vertex 3 4.5 -2.5
      vertex 0.0941849 4.5 -1.49704
    endloop
  endfacet
  facet normal 0 1 0
    outer loop
      vertex 0.463525 4.5 -1.42658
      vertex 3 4.5 -2.5
      vertex 0.281072 4.5 -1.47343
    endloop
  endfacet
  facet normal 0 1 0
    outer loop
      vertex 0.638668 4.5 -1.35724
      vertex 3 4.5 -2.5
      vertex 0.463525 4.5 -1.42658
    endloop
  endfacet
  facet normal 0 1 0
    outer loop
      vertex 0.80374 4.5 -1.26649
      vertex 3 4.5 -2.5
      vertex 0.638668 4.5 -1.35724
    endloop
  endfacet
  facet normal 0 1 0
    outer loop
      vertex 0.956136 4.5 -1.15577
      vertex 3 4.5 -2.5
      vertex 0.80374 4.5 -1.26649
    endloop
  endfacet
  facet normal 0 1 0
    outer loop
      vertex 1.09345 4.5 -1.02682
      vertex 3 4.5 -2.5
      vertex 0.956136 4.5 -1.15577
    endloop
  endfacet
  facet normal 0 1 0
    outer loop
      vertex 1.21352 4.5 -0.881678
      vertex 3 4.5 -2.5
      vertex 1.09345 4.5 -1.02682
    endloop
  endfacet
  facet normal 0 1 0
    outer loop
      vertex 1.31446 4.5 -0.722631
      vertex 3 4.5 -2.5
      vertex 1.21352 4.5 -0.881678
    endloop
  endfacet
  facet normal 0 1 0
    outer loop
      vertex 1.39466 4.5 -0.552186
      vertex 3 4.5 -2.5
      vertex 1.31446 4.5 -0.722631
    endloop
  endfacet
  facet normal 0 1 0
    outer loop
      vertex 1.45287 4.5 -0.373034
      vertex 3 4.5 -2.5
      vertex 1.39466 4.5 -0.552186
    endloop
  endfacet
  facet normal 0 1 0
    outer loop
      vertex 1.48817 4.5 -0.188
      vertex 3 4.5 -2.5
      vertex 1.45287 4.5 -0.373034
    endloop
  endfacet
  facet normal 0 1 -0
    outer loop
      vertex -0.0941849 4.5 1.49704
      vertex -3 4.5 4.5
      vertex 0.0941849 4.5 1.49704
    endloop
  endfacet
  facet normal 0 1 -0
    outer loop
      vertex -0.281072 4.5 1.47343
      vertex -3 4.5 4.5
      vertex -0.0941849 4.5 1.49704
    endloop
  endfacet
  facet normal 0 1 -0
    outer loop
      vertex -0.463525 4.5 1.42658
      vertex -3 4.5 4.5
      vertex -0.281072 4.5 1.47343
    endloop
  endfacet
  facet normal 0 1 -0
    outer loop
      vertex -0.638668 4.5 1.35724
      vertex -3 4.5 4.5
      vertex -0.463525 4.5 1.42658
    endloop
  endfacet
  facet normal 0 1 -0
    outer loop
      vertex -0.80374 4.5 1.26649
      vertex -3 4.5 4.5
      vertex -0.638668 4.5 1.35724
    endloop
  endfacet
  facet normal 0 1 -0
    outer loop
      vertex -0.956136 4.5 1.15577
      vertex -3 4.5 4.5
      vertex -0.80374 4.5 1.26649
    endloop
  endfacet
  facet normal 0 1 -0
    outer loop
      vertex -1.09345 4.5 1.02682
      vertex -3 4.5 4.5
      vertex -0.956136 4.5 1.15577
    endloop
  endfacet
  facet normal 0 1 -0
    outer loop
      vertex -1.21352 4.5 0.881678
      vertex -3 4.5 4.5
      vertex -1.09345 4.5 1.02682
    endloop
  endfacet
  facet normal 0 1 -0
    outer loop
      vertex -1.31446 4.5 0.722631
      vertex -3 4.5 4.5
      vertex -1.21352 4.5 0.881678
    endloop
  endfacet
  facet normal 0 1 -0
    outer loop
      vertex -1.39466 4.5 0.552186
      vertex -3 4.5 4.5
      vertex -1.31446 4.5 0.722631
    endloop
  endfacet
  facet normal 0 1 -0
    outer loop
      vertex -1.45287 4.5 0.373034
      vertex -3 4.5 4.5
      vertex -1.39466 4.5 0.552186
    endloop
  endfacet
  facet normal 0 1 -0
    outer loop
      vertex -1.48817 4.5 0.188
      vertex -3 4.5 4.5
      vertex -1.45287 4.5 0.373034
    endloop
  endfacet
  facet normal 0 1 0
    outer loop
      vertex -3 4.5 -2.5
      vertex -1.48817 4.5 0.188
      vertex -1.5 4.5 0
    endloop
  endfacet
  facet normal 0 1 0
    outer loop
      vertex -3 4.5 -2.5
      vertex -1.5 4.5 0
      vertex -1.48817 4.5 -0.188
    endloop
  endfacet
  facet normal 0 1 0
    outer loop
      vertex -3 4.5 -2.5
      vertex -1.48817 4.5 -0.188
      vertex -1.45287 4.5 -0.373034
    endloop
  endfacet
  facet normal 0 1 0
    outer loop
      vertex -3 4.5 -2.5
      vertex -0.0941849 4.5 -1.49704
      vertex 3 4.5 -2.5
    endloop
  endfacet
  facet normal 0 1 0
    outer loop
      vertex -0.0941849 4.5 -1.49704
      vertex -3 4.5 -2.5
      vertex -0.281072 4.5 -1.47343
    endloop
  endfacet
  facet normal 0 1 0
    outer loop
      vertex -1.48817 4.5 0.188
      vertex -3 4.5 -2.5
      vertex -3 4.5 4.5
    endloop
  endfacet
  facet normal 0 1 0
    outer loop
      vertex -1.39466 4.5 -0.552186
      vertex -3 4.5 -2.5
      vertex -1.45287 4.5 -0.373034
    endloop
  endfacet
  facet normal 0 1 0
    outer loop
      vertex -1.31446 4.5 -0.722631
      vertex -3 4.5 -2.5
      vertex -1.39466 4.5 -0.552186
    endloop
  endfacet
  facet normal 0 1 0
    outer loop
      vertex -1.21352 4.5 -0.881678
      vertex -3 4.5 -2.5
      vertex -1.31446 4.5 -0.722631
    endloop
  endfacet
  facet normal 0 1 0
    outer loop
      vertex -1.09345 4.5 -1.02682
      vertex -3 4.5 -2.5
      vertex -1.21352 4.5 -0.881678
    endloop
  endfacet
  facet normal 0 1 0
    outer loop
      vertex -0.956136 4.5 -1.15577
      vertex -3 4.5 -2.5
      vertex -1.09345 4.5 -1.02682
    endloop
  endfacet
  facet normal 0 1 0
    outer loop
      vertex -0.80374 4.5 -1.26649
      vertex -3 4.5 -2.5
      vertex -0.956136 4.5 -1.15577
    endloop
  endfacet
  facet normal 0 1 0
    outer loop
      vertex -0.638668 4.5 -1.35724
      vertex -3 4.5 -2.5
      vertex -0.80374 4.5 -1.26649
    endloop
  endfacet
  facet normal 0 1 0
    outer loop
      vertex -0.463525 4.5 -1.42658
      vertex -3 4.5 -2.5
      vertex -0.638668 4.5 -1.35724
    endloop
  endfacet
  facet normal 0 1 0
    outer loop
      vertex -0.281072 4.5 -1.47343
      vertex -3 4.5 -2.5
      vertex -0.463525 4.5 -1.42658
    endloop
  endfacet
  facet normal -1 0 0
    outer loop
      vertex -3 -4.5 -2.5
      vertex -3 4.5 4.5
      vertex -3 4.5 -2.5
    endloop
  endfacet
  facet normal -1 -0 0
    outer loop
      vertex -3 4.5 4.5
      vertex -3 -4.5 -2.5
      vertex -3 -4.5 4.5
    endloop
  endfacet
  facet normal 0 0 1
    outer loop
      vertex 3 4.5 4.5
      vertex 1.5 0 4.5
      vertex 3 -4.5 4.5
    endloop
  endfacet
  facet normal 0 0 1
    outer loop
      vertex 3 4.5 4.5
      vertex 1.48817 0.188 4.5
      vertex 1.5 0 4.5
    endloop
  endfacet
  facet normal 0 0 1
    outer loop
      vertex 3 4.5 4.5
      vertex 1.45287 0.373034 4.5
      vertex 1.48817 0.188 4.5
    endloop
  endfacet
  facet normal 0 0 1
    outer loop
      vertex 3 4.5 4.5
      vertex 1.39466 0.552186 4.5
      vertex 1.45287 0.373034 4.5
    endloop
  endfacet
  facet normal 0 0 1
    outer loop
      vertex 3 4.5 4.5
      vertex 1.31446 0.722631 4.5
      vertex 1.39466 0.552186 4.5
    endloop
  endfacet
  facet normal 0 0 1
    outer loop
      vertex 3 4.5 4.5
      vertex 1.21352 0.881678 4.5
      vertex 1.31446 0.722631 4.5
    endloop
  endfacet
  facet normal 0 0 1
    outer loop
      vertex 3 4.5 4.5
      vertex 1.09345 1.02682 4.5
      vertex 1.21352 0.881678 4.5
    endloop
  endfacet
  facet normal 0 0 1
    outer loop
      vertex 3 4.5 4.5
      vertex 0.956136 1.15577 4.5
      vertex 1.09345 1.02682 4.5
    endloop
  endfacet
  facet normal 0 0 1
    outer loop
      vertex 3 4.5 4.5
      vertex 0.80374 1.26649 4.5
      vertex 0.956136 1.15577 4.5
    endloop
  endfacet
  facet normal 0 0 1
    outer loop
      vertex 3 4.5 4.5
      vertex 0.638668 1.35724 4.5
      vertex 0.80374 1.26649 4.5
    endloop
  endfacet
  facet normal 0 0 1
    outer loop
      vertex 3 4.5 4.5
      vertex 0.463525 1.42658 4.5
      vertex 0.638668 1.35724 4.5
    endloop
  endfacet
  facet normal 0 0 1
    outer loop
      vertex 3 4.5 4.5
      vertex 0.281072 1.47343 4.5
      vertex 0.463525 1.42658 4.5
    endloop
  endfacet
  facet normal 0 0 1
    outer loop
      vertex 3 4.5 4.5
      vertex 0.0941849 1.49704 4.5
      vertex 0.281072 1.47343 4.5
    endloop
  endfacet
  facet normal 0 0 1
    outer loop
      vertex 3 4.5 4.5
      vertex -0.0941849 1.49704 4.5
      vertex 0.0941849 1.49704 4.5
    endloop
  endfacet
  facet normal -0 0 1
    outer loop
      vertex -3 4.5 4.5
      vertex -0.0941849 1.49704 4.5
      vertex 3 4.5 4.5
    endloop
  endfacet
  facet normal 0 0 1
    outer loop
      vertex -0.0941849 1.49704 4.5
      vertex -3 4.5 4.5
      vertex -0.281072 1.47343 4.5
    endloop
  endfacet
  facet normal 0 0 1
    outer loop
      vertex -0.281072 1.47343 4.5
      vertex -3 4.5 4.5
      vertex -0.463525 1.42658 4.5
    endloop
  endfacet
  facet normal 0 0 1
    outer loop
      vertex -0.463525 1.42658 4.5
      vertex -3 4.5 4.5
      vertex -0.638668 1.35724 4.5
    endloop
  endfacet
  facet normal 0 0 1
    outer loop
      vertex -0.638668 1.35724 4.5
      vertex -3 4.5 4.5
      vertex -0.80374 1.26649 4.5
    endloop
  endfacet
  facet normal 0 0 1
    outer loop
      vertex -1.48817 0.188 4.5
      vertex -3 4.5 4.5
      vertex -1.5 0 4.5
    endloop
  endfacet
  facet normal 0 0 1
    outer loop
      vertex -1.45287 0.373034 4.5
      vertex -3 4.5 4.5
      vertex -1.48817 0.188 4.5
    endloop
  endfacet
  facet normal 0 0 1
    outer loop
      vertex -1.39466 0.552186 4.5
      vertex -3 4.5 4.5
      vertex -1.45287 0.373034 4.5
    endloop
  endfacet
  facet normal 0 0 1
    outer loop
      vertex -1.31446 0.722631 4.5
      vertex -3 4.5 4.5
      vertex -1.39466 0.552186 4.5
    endloop
  endfacet
  facet normal 0 0 1
    outer loop
      vertex -1.21352 0.881678 4.5
      vertex -3 4.5 4.5
      vertex -1.31446 0.722631 4.5
    endloop
  endfacet
  facet normal 0 0 1
    outer loop
      vertex -1.09345 1.02682 4.5
      vertex -3 4.5 4.5
      vertex -1.21352 0.881678 4.5
    endloop
  endfacet
  facet normal 0 0 1
    outer loop
      vertex -0.956136 1.15577 4.5
      vertex -3 4.5 4.5
      vertex -1.09345 1.02682 4.5
    endloop
  endfacet
  facet normal 0 0 1
    outer loop
      vertex -0.80374 1.26649 4.5
      vertex -3 4.5 4.5
      vertex -0.956136 1.15577 4.5
    endloop
  endfacet
  facet normal -0 0 1
    outer loop
      vertex 1.48817 -0.188 4.5
      vertex 3 -4.5 4.5
      vertex 1.5 0 4.5
    endloop
  endfacet
  facet normal -0 0 1
    outer loop
      vertex 1.45287 -0.373034 4.5
      vertex 3 -4.5 4.5
      vertex 1.48817 -0.188 4.5
    endloop
  endfacet
  facet normal -0 0 1
    outer loop
      vertex 1.39466 -0.552186 4.5
      vertex 3 -4.5 4.5
      vertex 1.45287 -0.373034 4.5
    endloop
  endfacet
  facet normal -0 0 1
    outer loop
      vertex 1.31446 -0.722631 4.5
      vertex 3 -4.5 4.5
      vertex 1.39466 -0.552186 4.5
    endloop
  endfacet
  facet normal -0 0 1
    outer loop
      vertex 1.21352 -0.881678 4.5
      vertex 3 -4.5 4.5
      vertex 1.31446 -0.722631 4.5
    endloop
  endfacet
  facet normal -0 0 1
    outer loop
      vertex 1.09345 -1.02682 4.5
      vertex 3 -4.5 4.5
      vertex 1.21352 -0.881678 4.5
    endloop
  endfacet
  facet normal -0 0 1
    outer loop
      vertex 0.956136 -1.15577 4.5
      vertex 3 -4.5 4.5
      vertex 1.09345 -1.02682 4.5
    endloop
  endfacet
  facet normal -0 0 1
    outer loop
      vertex 0.80374 -1.26649 4.5
      vertex 3 -4.5 4.5
      vertex 0.956136 -1.15577 4.5
    endloop
  endfacet
  facet normal -0 0 1
    outer loop
      vertex 0.638668 -1.35724 4.5
      vertex 3 -4.5 4.5
      vertex 0.80374 -1.26649 4.5
    endloop
  endfacet
  facet normal -0 0 1
    outer loop
      vertex 0.463525 -1.42658 4.5
      vertex 3 -4.5 4.5
      vertex 0.638668 -1.35724 4.5
    endloop
  endfacet
  facet normal -0 0 1
    outer loop
      vertex 0.281072 -1.47343 4.5
      vertex 3 -4.5 4.5
      vertex 0.463525 -1.42658 4.5
    endloop
  endfacet
  facet normal -0 0 1
    outer loop
      vertex 0.0941849 -1.49704 4.5
      vertex 3 -4.5 4.5
      vertex 0.281072 -1.47343 4.5
    endloop
  endfacet
  facet normal -0 0 1
    outer loop
      vertex -0.0941849 -1.49704 4.5
      vertex 3 -4.5 4.5
      vertex 0.0941849 -1.49704 4.5
    endloop
  endfacet
  facet normal 0 0 1
    outer loop
      vertex -3 -4.5 4.5
      vertex -0.0941849 -1.49704 4.5
      vertex -0.281072 -1.47343 4.5
    endloop
  endfacet
  facet normal 0 0 1
    outer loop
      vertex -3 -4.5 4.5
      vertex -0.281072 -1.47343 4.5
      vertex -0.463525 -1.42658 4.5
    endloop
  endfacet
  facet normal 0 0 1
    outer loop
      vertex -3 -4.5 4.5
      vertex -0.463525 -1.42658 4.5
      vertex -0.638668 -1.35724 4.5
    endloop
  endfacet
  facet normal 0 0 1
    outer loop
      vertex -3 -4.5 4.5
      vertex -0.638668 -1.35724 4.5
      vertex -0.80374 -1.26649 4.5
    endloop
  endfacet
  facet normal 0 0 1
    outer loop
      vertex -3 -4.5 4.5
      vertex -0.80374 -1.26649 4.5
      vertex -0.956136 -1.15577 4.5
    endloop
  endfacet
  facet normal 0 0 1
    outer loop
      vertex -3 -4.5 4.5
      vertex -1.5 0 4.5
      vertex -3 4.5 4.5
    endloop
  endfacet
  facet normal 0 0 1
    outer loop
      vertex -1.5 0 4.5
      vertex -3 -4.5 4.5
      vertex -1.48817 -0.188 4.5
    endloop
  endfacet
  facet normal 0 0 1
    outer loop
      vertex -0.0941849 -1.49704 4.5
      vertex -3 -4.5 4.5
      vertex 3 -4.5 4.5
    endloop
  endfacet
  facet normal 0 0 1
    outer loop
      vertex -1.09345 -1.02682 4.5
      vertex -3 -4.5 4.5
      vertex -0.956136 -1.15577 4.5
    endloop
  endfacet
  facet normal 0 0 1
    outer loop
      vertex -1.21352 -0.881678 4.5
      vertex -3 -4.5 4.5
      vertex -1.09345 -1.02682 4.5
    endloop
  endfacet
  facet normal 0 0 1
    outer loop
      vertex -1.31446 -0.722631 4.5
      vertex -3 -4.5 4.5
      vertex -1.21352 -0.881678 4.5
    endloop
  endfacet
  facet normal 0 0 1
    outer loop
      vertex -1.39466 -0.552186 4.5
      vertex -3 -4.5 4.5
      vertex -1.31446 -0.722631 4.5
    endloop
  endfacet
  facet normal 0 0 1
    outer loop
      vertex -1.45287 -0.373034 4.5
      vertex -3 -4.5 4.5
      vertex -1.39466 -0.552186 4.5
    endloop
  endfacet
  facet normal 0 0 1
    outer loop
      vertex -1.48817 -0.188 4.5
      vertex -3 -4.5 4.5
      vertex -1.45287 -0.373034 4.5
    endloop
  endfacet
  facet normal 0 0 -1
    outer loop
      vertex -3 -4.5 -2.5
      vertex 3 4.5 -2.5
      vertex 3 -4.5 -2.5
    endloop
  endfacet
  facet normal -0 0 -1
    outer loop
      vertex 3 4.5 -2.5
      vertex -3 -4.5 -2.5
      vertex -3 4.5 -2.5
    endloop
  endfacet
  facet normal -0.982284 0 -0.187396
    outer loop
      vertex 1.48817 -4.5 0.188
      vertex 1.45287 -0.373034 0.373034
      vertex 1.48817 -0.188 0.188
    endloop
  endfacet
  facet normal -0.982284 -0 -0.187396
    outer loop
      vertex 1.45287 -0.373034 0.373034
      vertex 1.48817 -4.5 0.188
      vertex 1.45287 -4.5 0.373034
    endloop
  endfacet
  facet normal -0.982284 0 -0.187396
    outer loop
      vertex 1.48817 4.5 0.188
      vertex 1.45287 0.373034 0.373034
      vertex 1.45287 4.5 0.373034
    endloop
  endfacet
  facet normal -0.982284 0 -0.187396
    outer loop
      vertex 1.45287 0.373034 0.373034
      vertex 1.48817 4.5 0.188
      vertex 1.48817 0.188 0.188
    endloop
  endfacet
  facet normal -0.998026 0 -0.0628013
    outer loop
      vertex 1.5 -4.5 0
      vertex 1.48817 -0.188 0.188
      vertex 1.5 0 0
    endloop
  endfacet
  facet normal -0.998026 -0 -0.0628013
    outer loop
      vertex 1.48817 -0.188 0.188
      vertex 1.5 -4.5 0
      vertex 1.48817 -4.5 0.188
    endloop
  endfacet
  facet normal -0.998026 0 -0.0628013
    outer loop
      vertex 1.5 4.5 0
      vertex 1.48817 0.188 0.188
      vertex 1.48817 4.5 0.188
    endloop
  endfacet
  facet normal -0.998026 0 -0.0628013
    outer loop
      vertex 1.48817 0.188 0.188
      vertex 1.5 4.5 0
      vertex 1.5 0 0
    endloop
  endfacet
  facet normal -0.904838 0 -0.425756
    outer loop
      vertex 1.39466 -4.5 0.552186
      vertex 1.31446 -0.722631 0.722631
      vertex 1.39466 -0.552186 0.552186
    endloop
  endfacet
  facet normal -0.904838 -0 -0.425756
    outer loop
      vertex 1.31446 -0.722631 0.722631
      vertex 1.39466 -4.5 0.552186
      vertex 1.31446 -4.5 0.722631
    endloop
  endfacet
  facet normal -0.904838 0 -0.425756
    outer loop
      vertex 1.39466 4.5 0.552186
      vertex 1.31446 0.722631 0.722631
      vertex 1.31446 4.5 0.722631
    endloop
  endfacet
  facet normal -0.904838 0 -0.425756
    outer loop
      vertex 1.31446 0.722631 0.722631
      vertex 1.39466 4.5 0.552186
      vertex 1.39466 0.552186 0.552186
    endloop
  endfacet
  facet normal -0.684557 -0 -0.728959
    outer loop
      vertex 0.956136 -1.15577 1.15577
      vertex 1.09345 -4.5 1.02682
      vertex 0.956136 -4.5 1.15577
    endloop
  endfacet
  facet normal -0.684557 0 -0.728959
    outer loop
      vertex 1.09345 -4.5 1.02682
      vertex 0.956136 -1.15577 1.15577
      vertex 1.09345 -1.02682 1.02682
    endloop
  endfacet
  facet normal -0.684557 0 -0.728959
    outer loop
      vertex 0.956136 1.15577 1.15577
      vertex 1.09345 4.5 1.02682
      vertex 1.09345 1.02682 1.02682
    endloop
  endfacet
  facet normal -0.684557 0 -0.728959
    outer loop
      vertex 1.09345 4.5 1.02682
      vertex 0.956136 1.15577 1.15577
      vertex 0.956136 4.5 1.15577
    endloop
  endfacet
  facet normal -0.24871 -0 -0.968578
    outer loop
      vertex 0.281072 -1.47343 1.47343
      vertex 0.463525 -4.5 1.42658
      vertex 0.281072 -4.5 1.47343
    endloop
  endfacet
  facet normal -0.24871 0 -0.968578
    outer loop
      vertex 0.463525 -4.5 1.42658
      vertex 0.281072 -1.47343 1.47343
      vertex 0.463525 -1.42658 1.42658
    endloop
  endfacet
  facet normal -0.24871 0 -0.968578
    outer loop
      vertex 0.281072 1.47343 1.47343
      vertex 0.463525 4.5 1.42658
      vertex 0.463525 1.42658 1.42658
    endloop
  endfacet
  facet normal -0.24871 0 -0.968578
    outer loop
      vertex 0.463525 4.5 1.42658
      vertex 0.281072 1.47343 1.47343
      vertex 0.281072 4.5 1.47343
    endloop
  endfacet
  facet normal -0.998026 0 0.0628013
    outer loop
      vertex 1.48817 4.5 -0.188
      vertex 1.5 0 0
      vertex 1.5 4.5 0
    endloop
  endfacet
  facet normal -0.998026 0 0.0628013
    outer loop
      vertex 1.48817 -4.5 -0.188
      vertex 1.5 0 0
      vertex 1.48817 4.5 -0.188
    endloop
  endfacet
  facet normal -0.998026 0 0.0628013
    outer loop
      vertex 1.5 0 0
      vertex 1.48817 -4.5 -0.188
      vertex 1.5 -4.5 0
    endloop
  endfacet
  facet normal -0.904838 0 0.425756
    outer loop
      vertex 1.31446 -4.5 -0.722631
      vertex 1.39466 4.5 -0.552186
      vertex 1.31446 4.5 -0.722631
    endloop
  endfacet
  facet normal -0.904838 0 0.425756
    outer loop
      vertex 1.39466 4.5 -0.552186
      vertex 1.31446 -4.5 -0.722631
      vertex 1.39466 -4.5 -0.552186
    endloop
  endfacet
  facet normal 0.587778 0 0.809022
    outer loop
      vertex -0.956136 4.5 -1.15577
      vertex -0.80374 -4.5 -1.26649
      vertex -0.80374 4.5 -1.26649
    endloop
  endfacet
  facet normal 0.587778 0 0.809022
    outer loop
      vertex -0.80374 -4.5 -1.26649
      vertex -0.956136 4.5 -1.15577
      vertex -0.956136 -4.5 -1.15577
    endloop
  endfacet
  facet normal -0.368106 0 0.929784
    outer loop
      vertex 0.463525 4.5 -1.42658
      vertex 0.638668 -4.5 -1.35724
      vertex 0.638668 4.5 -1.35724
    endloop
  endfacet
  facet normal -0.368106 0 0.929784
    outer loop
      vertex 0.638668 -4.5 -1.35724
      vertex 0.463525 4.5 -1.42658
      vertex 0.463525 -4.5 -1.42658
    endloop
  endfacet
  facet normal 0.844314 -0 0.535848
    outer loop
      vertex -1.31446 -4.5 -0.722631
      vertex -1.21352 4.5 -0.881678
      vertex -1.31446 4.5 -0.722631
    endloop
  endfacet
  facet normal 0.844314 0 0.535848
    outer loop
      vertex -1.21352 4.5 -0.881678
      vertex -1.31446 -4.5 -0.722631
      vertex -1.21352 -4.5 -0.881678
    endloop
  endfacet
  facet normal -0.368106 -0 -0.929784
    outer loop
      vertex 0.463525 -1.42658 1.42658
      vertex 0.638668 -4.5 1.35724
      vertex 0.463525 -4.5 1.42658
    endloop
  endfacet
  facet normal -0.368106 0 -0.929784
    outer loop
      vertex 0.638668 -4.5 1.35724
      vertex 0.463525 -1.42658 1.42658
      vertex 0.638668 -1.35724 1.35724
    endloop
  endfacet
  facet normal -0.368106 0 -0.929784
    outer loop
      vertex 0.463525 1.42658 1.42658
      vertex 0.638668 4.5 1.35724
      vertex 0.638668 1.35724 1.35724
    endloop
  endfacet
  facet normal -0.368106 0 -0.929784
    outer loop
      vertex 0.638668 4.5 1.35724
      vertex 0.463525 1.42658 1.42658
      vertex 0.463525 4.5 1.42658
    endloop
  endfacet
  facet normal 0.481757 0 -0.876305
    outer loop
      vertex -0.80374 -4.5 1.26649
      vertex -0.638668 -1.35724 1.35724
      vertex -0.638668 -4.5 1.35724
    endloop
  endfacet
  facet normal 0.481757 0 -0.876305
    outer loop
      vertex -0.638668 -1.35724 1.35724
      vertex -0.80374 -4.5 1.26649
      vertex -0.80374 -1.26649 1.26649
    endloop
  endfacet
  facet normal 0.481757 0 -0.876305
    outer loop
      vertex -0.80374 4.5 1.26649
      vertex -0.638668 1.35724 1.35724
      vertex -0.80374 1.26649 1.26649
    endloop
  endfacet
  facet normal 0.481757 0 -0.876305
    outer loop
      vertex -0.638668 1.35724 1.35724
      vertex -0.80374 4.5 1.26649
      vertex -0.638668 4.5 1.35724
    endloop
  endfacet
  facet normal -0.951057 0 -0.309017
    outer loop
      vertex 1.45287 -4.5 0.373034
      vertex 1.39466 -0.552186 0.552186
      vertex 1.45287 -0.373034 0.373034
    endloop
  endfacet
  facet normal -0.951057 -0 -0.309017
    outer loop
      vertex 1.39466 -0.552186 0.552186
      vertex 1.45287 -4.5 0.373034
      vertex 1.39466 -4.5 0.552186
    endloop
  endfacet
  facet normal -0.951057 0 -0.309017
    outer loop
      vertex 1.45287 4.5 0.373034
      vertex 1.39466 0.552186 0.552186
      vertex 1.39466 4.5 0.552186
    endloop
  endfacet
  facet normal -0.951057 0 -0.309017
    outer loop
      vertex 1.39466 0.552186 0.552186
      vertex 1.45287 4.5 0.373034
      vertex 1.45287 0.373034 0.373034
    endloop
  endfacet
  facet normal -0.982284 0 0.187396
    outer loop
      vertex 1.45287 -4.5 -0.373034
      vertex 1.48817 4.5 -0.188
      vertex 1.45287 4.5 -0.373034
    endloop
  endfacet
  facet normal -0.982284 0 0.187396
    outer loop
      vertex 1.48817 4.5 -0.188
      vertex 1.45287 -4.5 -0.373034
      vertex 1.48817 -4.5 -0.188
    endloop
  endfacet
  facet normal 0.684557 0 0.728959
    outer loop
      vertex -1.09345 4.5 -1.02682
      vertex -0.956136 -4.5 -1.15577
      vertex -0.956136 4.5 -1.15577
    endloop
  endfacet
  facet normal 0.684557 0 0.728959
    outer loop
      vertex -0.956136 -4.5 -1.15577
      vertex -1.09345 4.5 -1.02682
      vertex -1.09345 -4.5 -1.02682
    endloop
  endfacet
  facet normal -0.481757 -0 -0.876305
    outer loop
      vertex 0.638668 -1.35724 1.35724
      vertex 0.80374 -4.5 1.26649
      vertex 0.638668 -4.5 1.35724
    endloop
  endfacet
  facet normal -0.481757 0 -0.876305
    outer loop
      vertex 0.80374 -4.5 1.26649
      vertex 0.638668 -1.35724 1.35724
      vertex 0.80374 -1.26649 1.26649
    endloop
  endfacet
  facet normal -0.481757 0 -0.876305
    outer loop
      vertex 0.638668 1.35724 1.35724
      vertex 0.80374 4.5 1.26649
      vertex 0.80374 1.26649 1.26649
    endloop
  endfacet
  facet normal -0.481757 0 -0.876305
    outer loop
      vertex 0.80374 4.5 1.26649
      vertex 0.638668 1.35724 1.35724
      vertex 0.638668 4.5 1.35724
    endloop
  endfacet
  facet normal -0.125337 0 0.992114
    outer loop
      vertex 0.0941849 4.5 -1.49704
      vertex 0.281072 -4.5 -1.47343
      vertex 0.281072 4.5 -1.47343
    endloop
  endfacet
  facet normal -0.125337 0 0.992114
    outer loop
      vertex 0.281072 -4.5 -1.47343
      vertex 0.0941849 4.5 -1.49704
      vertex 0.0941849 -4.5 -1.49704
    endloop
  endfacet
  facet normal 0.951057 0 -0.309017
    outer loop
      vertex -1.45287 -4.5 0.373034
      vertex -1.39466 -0.552186 0.552186
      vertex -1.39466 -4.5 0.552186
    endloop
  endfacet
  facet normal 0.951057 0 -0.309017
    outer loop
      vertex -1.39466 -0.552186 0.552186
      vertex -1.45287 -4.5 0.373034
      vertex -1.45287 -0.373034 0.373034
    endloop
  endfacet
  facet normal 0.951057 0 -0.309017
    outer loop
      vertex -1.39466 0.552186 0.552186
      vertex -1.45287 4.5 0.373034
      vertex -1.39466 4.5 0.552186
    endloop
  endfacet
  facet normal 0.951057 0 -0.309017
    outer loop
      vertex -1.45287 4.5 0.373034
      vertex -1.39466 0.552186 0.552186
      vertex -1.45287 0.373034 0.373034
    endloop
  endfacet
  facet normal -0.844314 0 -0.535848
    outer loop
      vertex 1.31446 -4.5 0.722631
      vertex 1.21352 -0.881678 0.881678
      vertex 1.31446 -0.722631 0.722631
    endloop
  endfacet
  facet normal -0.844314 -0 -0.535848
    outer loop
      vertex 1.21352 -0.881678 0.881678
      vertex 1.31446 -4.5 0.722631
      vertex 1.21352 -4.5 0.881678
    endloop
  endfacet
  facet normal -0.844314 0 -0.535848
    outer loop
      vertex 1.31446 4.5 0.722631
      vertex 1.21352 0.881678 0.881678
      vertex 1.21352 4.5 0.881678
    endloop
  endfacet
  facet normal -0.844314 0 -0.535848
    outer loop
      vertex 1.21352 0.881678 0.881678
      vertex 1.31446 4.5 0.722631
      vertex 1.31446 0.722631 0.722631
    endloop
  endfacet
  facet normal -0.951057 0 0.309017
    outer loop
      vertex 1.39466 -4.5 -0.552186
      vertex 1.45287 4.5 -0.373034
      vertex 1.39466 4.5 -0.552186
    endloop
  endfacet
  facet normal -0.951057 0 0.309017
    outer loop
      vertex 1.45287 4.5 -0.373034
      vertex 1.39466 -4.5 -0.552186
      vertex 1.45287 -4.5 -0.373034
    endloop
  endfacet
  facet normal 0.684557 0 -0.728959
    outer loop
      vertex -1.09345 -4.5 1.02682
      vertex -0.956136 -1.15577 1.15577
      vertex -0.956136 -4.5 1.15577
    endloop
  endfacet
  facet normal 0.684557 0 -0.728959
    outer loop
      vertex -0.956136 -1.15577 1.15577
      vertex -1.09345 -4.5 1.02682
      vertex -1.09345 -1.02682 1.02682
    endloop
  endfacet
  facet normal 0.684557 0 -0.728959
    outer loop
      vertex -1.09345 4.5 1.02682
      vertex -0.956136 1.15577 1.15577
      vertex -1.09345 1.02682 1.02682
    endloop
  endfacet
  facet normal 0.684557 0 -0.728959
    outer loop
      vertex -0.956136 1.15577 1.15577
      vertex -1.09345 4.5 1.02682
      vertex -0.956136 4.5 1.15577
    endloop
  endfacet
  facet normal -0.24871 0 0.968578
    outer loop
      vertex 0.281072 4.5 -1.47343
      vertex 0.463525 -4.5 -1.42658
      vertex 0.463525 4.5 -1.42658
    endloop
  endfacet
  facet normal -0.24871 0 0.968578
    outer loop
      vertex 0.463525 -4.5 -1.42658
      vertex 0.281072 4.5 -1.47343
      vertex 0.281072 -4.5 -1.47343
    endloop
  endfacet
  facet normal 0.368106 0 -0.929784
    outer loop
      vertex -0.638668 -4.5 1.35724
      vertex -0.463525 -1.42658 1.42658
      vertex -0.463525 -4.5 1.42658
    endloop
  endfacet
  facet normal 0.368106 0 -0.929784
    outer loop
      vertex -0.463525 -1.42658 1.42658
      vertex -0.638668 -4.5 1.35724
      vertex -0.638668 -1.35724 1.35724
    endloop
  endfacet
  facet normal 0.368106 0 -0.929784
    outer loop
      vertex -0.638668 4.5 1.35724
      vertex -0.463525 1.42658 1.42658
      vertex -0.638668 1.35724 1.35724
    endloop
  endfacet
  facet normal 0.368106 0 -0.929784
    outer loop
      vertex -0.463525 1.42658 1.42658
      vertex -0.638668 4.5 1.35724
      vertex -0.463525 4.5 1.42658
    endloop
  endfacet
  facet normal -0.125337 -0 -0.992114
    outer loop
      vertex 0.0941849 -1.49704 1.49704
      vertex 0.281072 -4.5 1.47343
      vertex 0.0941849 -4.5 1.49704
    endloop
  endfacet
  facet normal -0.125337 0 -0.992114
    outer loop
      vertex 0.281072 -4.5 1.47343
      vertex 0.0941849 -1.49704 1.49704
      vertex 0.281072 -1.47343 1.47343
    endloop
  endfacet
  facet normal -0.125337 0 -0.992114
    outer loop
      vertex 0.0941849 1.49704 1.49704
      vertex 0.281072 4.5 1.47343
      vertex 0.281072 1.47343 1.47343
    endloop
  endfacet
  facet normal -0.125337 0 -0.992114
    outer loop
      vertex 0.281072 4.5 1.47343
      vertex 0.0941849 1.49704 1.49704
      vertex 0.0941849 4.5 1.49704
    endloop
  endfacet
  facet normal 0.24871 0 -0.968578
    outer loop
      vertex -0.463525 -4.5 1.42658
      vertex -0.281072 -1.47343 1.47343
      vertex -0.281072 -4.5 1.47343
    endloop
  endfacet
  facet normal 0.24871 0 -0.968578
    outer loop
      vertex -0.281072 -1.47343 1.47343
      vertex -0.463525 -4.5 1.42658
      vertex -0.463525 -1.42658 1.42658
    endloop
  endfacet
  facet normal 0.24871 0 -0.968578
    outer loop
      vertex -0.463525 4.5 1.42658
      vertex -0.281072 1.47343 1.47343
      vertex -0.463525 1.42658 1.42658
    endloop
  endfacet
  facet normal 0.24871 0 -0.968578
    outer loop
      vertex -0.281072 1.47343 1.47343
      vertex -0.463525 4.5 1.42658
      vertex -0.281072 4.5 1.47343
    endloop
  endfacet
  facet normal 0.982284 -0 0.187396
    outer loop
      vertex -1.48817 -4.5 -0.188
      vertex -1.45287 4.5 -0.373034
      vertex -1.48817 4.5 -0.188
    endloop
  endfacet
  facet normal 0.982284 0 0.187396
    outer loop
      vertex -1.45287 4.5 -0.373034
      vertex -1.48817 -4.5 -0.188
      vertex -1.45287 -4.5 -0.373034
    endloop
  endfacet
  facet normal -0 0 1
    outer loop
      vertex -0.0941849 4.5 -1.49704
      vertex 0.0941849 -4.5 -1.49704
      vertex 0.0941849 4.5 -1.49704
    endloop
  endfacet
  facet normal 0 0 1
    outer loop
      vertex 0.0941849 -4.5 -1.49704
      vertex -0.0941849 4.5 -1.49704
      vertex -0.0941849 -4.5 -1.49704
    endloop
  endfacet
  facet normal -0.587778 -0 -0.809022
    outer loop
      vertex 0.80374 -1.26649 1.26649
      vertex 0.956136 -4.5 1.15577
      vertex 0.80374 -4.5 1.26649
    endloop
  endfacet
  facet normal -0.587778 0 -0.809022
    outer loop
      vertex 0.956136 -4.5 1.15577
      vertex 0.80374 -1.26649 1.26649
      vertex 0.956136 -1.15577 1.15577
    endloop
  endfacet
  facet normal -0.587778 0 -0.809022
    outer loop
      vertex 0.80374 1.26649 1.26649
      vertex 0.956136 4.5 1.15577
      vertex 0.956136 1.15577 1.15577
    endloop
  endfacet
  facet normal -0.587778 0 -0.809022
    outer loop
      vertex 0.956136 4.5 1.15577
      vertex 0.80374 1.26649 1.26649
      vertex 0.80374 4.5 1.26649
    endloop
  endfacet
  facet normal 0.998026 -0 0.0628013
    outer loop
      vertex -1.5 0 0
      vertex -1.48817 4.5 -0.188
      vertex -1.5 4.5 0
    endloop
  endfacet
  facet normal 0.998026 0 0.0628013
    outer loop
      vertex -1.48817 -4.5 -0.188
      vertex -1.5 0 0
      vertex -1.5 -4.5 0
    endloop
  endfacet
  facet normal 0.998026 0 0.0628013
    outer loop
      vertex -1.5 0 0
      vertex -1.48817 -4.5 -0.188
      vertex -1.48817 4.5 -0.188
    endloop
  endfacet
  facet normal -0.481757 0 0.876305
    outer loop
      vertex 0.638668 4.5 -1.35724
      vertex 0.80374 -4.5 -1.26649
      vertex 0.80374 4.5 -1.26649
    endloop
  endfacet
  facet normal -0.481757 0 0.876305
    outer loop
      vertex 0.80374 -4.5 -1.26649
      vertex 0.638668 4.5 -1.35724
      vertex 0.638668 -4.5 -1.35724
    endloop
  endfacet
  facet normal 0.125337 0 0.992114
    outer loop
      vertex -0.281072 4.5 -1.47343
      vertex -0.0941849 -4.5 -1.49704
      vertex -0.0941849 4.5 -1.49704
    endloop
  endfacet
  facet normal 0.125337 0 0.992114
    outer loop
      vertex -0.0941849 -4.5 -1.49704
      vertex -0.281072 4.5 -1.47343
      vertex -0.281072 -4.5 -1.47343
    endloop
  endfacet
  facet normal 0.904838 0 -0.425756
    outer loop
      vertex -1.39466 -4.5 0.552186
      vertex -1.31446 -0.722631 0.722631
      vertex -1.31446 -4.5 0.722631
    endloop
  endfacet
  facet normal 0.904838 0 -0.425756
    outer loop
      vertex -1.31446 -0.722631 0.722631
      vertex -1.39466 -4.5 0.552186
      vertex -1.39466 -0.552186 0.552186
    endloop
  endfacet
  facet normal 0.904838 0 -0.425756
    outer loop
      vertex -1.31446 0.722631 0.722631
      vertex -1.39466 4.5 0.552186
      vertex -1.31446 4.5 0.722631
    endloop
  endfacet
  facet normal 0.904838 0 -0.425756
    outer loop
      vertex -1.39466 4.5 0.552186
      vertex -1.31446 0.722631 0.722631
      vertex -1.39466 0.552186 0.552186
    endloop
  endfacet
  facet normal 0.770518 -0 0.637418
    outer loop
      vertex -1.21352 -4.5 -0.881678
      vertex -1.09345 4.5 -1.02682
      vertex -1.21352 4.5 -0.881678
    endloop
  endfacet
  facet normal 0.770518 0 0.637418
    outer loop
      vertex -1.09345 4.5 -1.02682
      vertex -1.21352 -4.5 -0.881678
      vertex -1.09345 -4.5 -1.02682
    endloop
  endfacet
  facet normal 0.125337 0 -0.992114
    outer loop
      vertex -0.281072 -4.5 1.47343
      vertex -0.0941849 -1.49704 1.49704
      vertex -0.0941849 -4.5 1.49704
    endloop
  endfacet
  facet normal 0.125337 0 -0.992114
    outer loop
      vertex -0.0941849 -1.49704 1.49704
      vertex -0.281072 -4.5 1.47343
      vertex -0.281072 -1.47343 1.47343
    endloop
  endfacet
  facet normal 0.125337 0 -0.992114
    outer loop
      vertex -0.281072 4.5 1.47343
      vertex -0.0941849 1.49704 1.49704
      vertex -0.281072 1.47343 1.47343
    endloop
  endfacet
  facet normal 0.125337 0 -0.992114
    outer loop
      vertex -0.0941849 1.49704 1.49704
      vertex -0.281072 4.5 1.47343
      vertex -0.0941849 4.5 1.49704
    endloop
  endfacet
  facet normal -0.684557 0 0.728959
    outer loop
      vertex 0.956136 4.5 -1.15577
      vertex 1.09345 -4.5 -1.02682
      vertex 1.09345 4.5 -1.02682
    endloop
  endfacet
  facet normal -0.684557 0 0.728959
    outer loop
      vertex 1.09345 -4.5 -1.02682
      vertex 0.956136 4.5 -1.15577
      vertex 0.956136 -4.5 -1.15577
    endloop
  endfacet
  facet normal 0.904838 -0 0.425756
    outer loop
      vertex -1.39466 -4.5 -0.552186
      vertex -1.31446 4.5 -0.722631
      vertex -1.39466 4.5 -0.552186
    endloop
  endfacet
  facet normal 0.904838 0 0.425756
    outer loop
      vertex -1.31446 4.5 -0.722631
      vertex -1.39466 -4.5 -0.552186
      vertex -1.31446 -4.5 -0.722631
    endloop
  endfacet
  facet normal 0.368106 0 0.929784
    outer loop
      vertex -0.638668 4.5 -1.35724
      vertex -0.463525 -4.5 -1.42658
      vertex -0.463525 4.5 -1.42658
    endloop
  endfacet
  facet normal 0.368106 0 0.929784
    outer loop
      vertex -0.463525 -4.5 -1.42658
      vertex -0.638668 4.5 -1.35724
      vertex -0.638668 -4.5 -1.35724
    endloop
  endfacet
  facet normal 0.587778 0 -0.809022
    outer loop
      vertex -0.956136 -4.5 1.15577
      vertex -0.80374 -1.26649 1.26649
      vertex -0.80374 -4.5 1.26649
    endloop
  endfacet
  facet normal 0.587778 0 -0.809022
    outer loop
      vertex -0.80374 -1.26649 1.26649
      vertex -0.956136 -4.5 1.15577
      vertex -0.956136 -1.15577 1.15577
    endloop
  endfacet
  facet normal 0.587778 0 -0.809022
    outer loop
      vertex -0.956136 4.5 1.15577
      vertex -0.80374 1.26649 1.26649
      vertex -0.956136 1.15577 1.15577
    endloop
  endfacet
  facet normal 0.587778 0 -0.809022
    outer loop
      vertex -0.80374 1.26649 1.26649
      vertex -0.956136 4.5 1.15577
      vertex -0.80374 4.5 1.26649
    endloop
  endfacet
  facet normal 0.844314 0 -0.535848
    outer loop
      vertex -1.31446 -4.5 0.722631
      vertex -1.21352 -0.881678 0.881678
      vertex -1.21352 -4.5 0.881678
    endloop
  endfacet
  facet normal 0.844314 0 -0.535848
    outer loop
      vertex -1.21352 -0.881678 0.881678
      vertex -1.31446 -4.5 0.722631
      vertex -1.31446 -0.722631 0.722631
    endloop
  endfacet
  facet normal 0.844314 0 -0.535848
    outer loop
      vertex -1.21352 0.881678 0.881678
      vertex -1.31446 4.5 0.722631
      vertex -1.21352 4.5 0.881678
    endloop
  endfacet
  facet normal 0.844314 0 -0.535848
    outer loop
      vertex -1.31446 4.5 0.722631
      vertex -1.21352 0.881678 0.881678
      vertex -1.31446 0.722631 0.722631
    endloop
  endfacet
  facet normal -0.844314 0 0.535848
    outer loop
      vertex 1.21352 -4.5 -0.881678
      vertex 1.31446 4.5 -0.722631
      vertex 1.21352 4.5 -0.881678
    endloop
  endfacet
  facet normal -0.844314 0 0.535848
    outer loop
      vertex 1.31446 4.5 -0.722631
      vertex 1.21352 -4.5 -0.881678
      vertex 1.31446 -4.5 -0.722631
    endloop
  endfacet
  facet normal 0 0 -1
    outer loop
      vertex -0.0941849 -4.5 1.49704
      vertex 0.0941849 -1.49704 1.49704
      vertex 0.0941849 -4.5 1.49704
    endloop
  endfacet
  facet normal -0 0 -1
    outer loop
      vertex 0.0941849 -1.49704 1.49704
      vertex -0.0941849 -4.5 1.49704
      vertex -0.0941849 -1.49704 1.49704
    endloop
  endfacet
  facet normal 0 0 -1
    outer loop
      vertex -0.0941849 1.49704 1.49704
      vertex 0.0941849 4.5 1.49704
      vertex 0.0941849 1.49704 1.49704
    endloop
  endfacet
  facet normal -0 0 -1
    outer loop
      vertex 0.0941849 4.5 1.49704
      vertex -0.0941849 1.49704 1.49704
      vertex -0.0941849 4.5 1.49704
    endloop
  endfacet
  facet normal -0.770518 0 -0.637418
    outer loop
      vertex 1.21352 -4.5 0.881678
      vertex 1.09345 -1.02682 1.02682
      vertex 1.21352 -0.881678 0.881678
    endloop
  endfacet
  facet normal -0.770518 -0 -0.637418
    outer loop
      vertex 1.09345 -1.02682 1.02682
      vertex 1.21352 -4.5 0.881678
      vertex 1.09345 -4.5 1.02682
    endloop
  endfacet
  facet normal -0.770518 0 -0.637418
    outer loop
      vertex 1.21352 4.5 0.881678
      vertex 1.09345 1.02682 1.02682
      vertex 1.09345 4.5 1.02682
    endloop
  endfacet
  facet normal -0.770518 0 -0.637418
    outer loop
      vertex 1.09345 1.02682 1.02682
      vertex 1.21352 4.5 0.881678
      vertex 1.21352 0.881678 0.881678
    endloop
  endfacet
  facet normal -0.587778 0 0.809022
    outer loop
      vertex 0.80374 4.5 -1.26649
      vertex 0.956136 -4.5 -1.15577
      vertex 0.956136 4.5 -1.15577
    endloop
  endfacet
  facet normal -0.587778 0 0.809022
    outer loop
      vertex 0.956136 -4.5 -1.15577
      vertex 0.80374 4.5 -1.26649
      vertex 0.80374 -4.5 -1.26649
    endloop
  endfacet
  facet normal 0.24871 0 0.968578
    outer loop
      vertex -0.463525 4.5 -1.42658
      vertex -0.281072 -4.5 -1.47343
      vertex -0.281072 4.5 -1.47343
    endloop
  endfacet
  facet normal 0.24871 0 0.968578
    outer loop
      vertex -0.281072 -4.5 -1.47343
      vertex -0.463525 4.5 -1.42658
      vertex -0.463525 -4.5 -1.42658
    endloop
  endfacet
  facet normal 0.770518 0 -0.637418
    outer loop
      vertex -1.21352 -4.5 0.881678
      vertex -1.09345 -1.02682 1.02682
      vertex -1.09345 -4.5 1.02682
    endloop
  endfacet
  facet normal 0.770518 0 -0.637418
    outer loop
      vertex -1.09345 -1.02682 1.02682
      vertex -1.21352 -4.5 0.881678
      vertex -1.21352 -0.881678 0.881678
    endloop
  endfacet
  facet normal 0.770518 0 -0.637418
    outer loop
      vertex -1.09345 1.02682 1.02682
      vertex -1.21352 4.5 0.881678
      vertex -1.09345 4.5 1.02682
    endloop
  endfacet
  facet normal 0.770518 0 -0.637418
    outer loop
      vertex -1.21352 4.5 0.881678
      vertex -1.09345 1.02682 1.02682
      vertex -1.21352 0.881678 0.881678
    endloop
  endfacet
  facet normal 0.481757 0 0.876305
    outer loop
      vertex -0.80374 4.5 -1.26649
      vertex -0.638668 -4.5 -1.35724
      vertex -0.638668 4.5 -1.35724
    endloop
  endfacet
  facet normal 0.481757 0 0.876305
    outer loop
      vertex -0.638668 -4.5 -1.35724
      vertex -0.80374 4.5 -1.26649
      vertex -0.80374 -4.5 -1.26649
    endloop
  endfacet
  facet normal 0.951057 -0 0.309017
    outer loop
      vertex -1.45287 -4.5 -0.373034
      vertex -1.39466 4.5 -0.552186
      vertex -1.45287 4.5 -0.373034
    endloop
  endfacet
  facet normal 0.951057 0 0.309017
    outer loop
      vertex -1.39466 4.5 -0.552186
      vertex -1.45287 -4.5 -0.373034
      vertex -1.39466 -4.5 -0.552186
    endloop
  endfacet
  facet normal -0.770518 0 0.637418
    outer loop
      vertex 1.09345 -4.5 -1.02682
      vertex 1.21352 4.5 -0.881678
      vertex 1.09345 4.5 -1.02682
    endloop
  endfacet
  facet normal -0.770518 0 0.637418
    outer loop
      vertex 1.21352 4.5 -0.881678
      vertex 1.09345 -4.5 -1.02682
      vertex 1.21352 -4.5 -0.881678
    endloop
  endfacet
  facet normal 0.998026 0 -0.0628013
    outer loop
      vertex -1.5 -4.5 0
      vertex -1.48817 -0.188 0.188
      vertex -1.48817 -4.5 0.188
    endloop
  endfacet
  facet normal 0.998026 0 -0.0628013
    outer loop
      vertex -1.48817 -0.188 0.188
      vertex -1.5 -4.5 0
      vertex -1.5 0 0
    endloop
  endfacet
  facet normal 0.998026 0 -0.0628013
    outer loop
      vertex -1.48817 0.188 0.188
      vertex -1.5 4.5 0
      vertex -1.48817 4.5 0.188
    endloop
  endfacet
  facet normal 0.998026 0 -0.0628013
    outer loop
      vertex -1.5 4.5 0
      vertex -1.48817 0.188 0.188
      vertex -1.5 0 0
    endloop
  endfacet
  facet normal 0.982284 0 -0.187396
    outer loop
      vertex -1.48817 -4.5 0.188
      vertex -1.45287 -0.373034 0.373034
      vertex -1.45287 -4.5 0.373034
    endloop
  endfacet
  facet normal 0.982284 0 -0.187396
    outer loop
      vertex -1.45287 -0.373034 0.373034
      vertex -1.48817 -4.5 0.188
      vertex -1.48817 -0.188 0.188
    endloop
  endfacet
  facet normal 0.982284 0 -0.187396
    outer loop
      vertex -1.45287 0.373034 0.373034
      vertex -1.48817 4.5 0.188
      vertex -1.45287 4.5 0.373034
    endloop
  endfacet
  facet normal 0.982284 0 -0.187396
    outer loop
      vertex -1.48817 4.5 0.188
      vertex -1.45287 0.373034 0.373034
      vertex -1.48817 0.188 0.188
    endloop
  endfacet
  facet normal 0.125337 0.992114 -0
    outer loop
      vertex -0.0941849 -1.49704 1.49704
      vertex -0.281072 -1.47343 4.5
      vertex -0.0941849 -1.49704 4.5
    endloop
  endfacet
  facet normal 0.125337 0.992114 0
    outer loop
      vertex -0.281072 -1.47343 4.5
      vertex -0.0941849 -1.49704 1.49704
      vertex -0.281072 -1.47343 1.47343
    endloop
  endfacet
  facet normal -0.982284 0.187396 0
    outer loop
      vertex 1.45287 -0.373034 0.373034
      vertex 1.48817 -0.188 4.5
      vertex 1.48817 -0.188 0.188
    endloop
  endfacet
  facet normal -0.982284 0.187396 0
    outer loop
      vertex 1.48817 -0.188 4.5
      vertex 1.45287 -0.373034 0.373034
      vertex 1.45287 -0.373034 4.5
    endloop
  endfacet
  facet normal -0.998026 0.0628013 0
    outer loop
      vertex 1.48817 -0.188 0.188
      vertex 1.5 0 4.5
      vertex 1.5 0 0
    endloop
  endfacet
  facet normal -0.998026 0.0628013 0
    outer loop
      vertex 1.5 0 4.5
      vertex 1.48817 -0.188 0.188
      vertex 1.48817 -0.188 4.5
    endloop
  endfacet
  facet normal -0.904838 0.425756 0
    outer loop
      vertex 1.31446 -0.722631 0.722631
      vertex 1.39466 -0.552186 4.5
      vertex 1.39466 -0.552186 0.552186
    endloop
  endfacet
  facet normal -0.904838 0.425756 0
    outer loop
      vertex 1.39466 -0.552186 4.5
      vertex 1.31446 -0.722631 0.722631
      vertex 1.31446 -0.722631 4.5
    endloop
  endfacet
  facet normal -0.684557 0.728959 0
    outer loop
      vertex 1.09345 -1.02682 4.5
      vertex 0.956136 -1.15577 1.15577
      vertex 0.956136 -1.15577 4.5
    endloop
  endfacet
  facet normal -0.684557 0.728959 0
    outer loop
      vertex 0.956136 -1.15577 1.15577
      vertex 1.09345 -1.02682 4.5
      vertex 1.09345 -1.02682 1.02682
    endloop
  endfacet
  facet normal -0.24871 0.968578 0
    outer loop
      vertex 0.463525 -1.42658 4.5
      vertex 0.281072 -1.47343 1.47343
      vertex 0.281072 -1.47343 4.5
    endloop
  endfacet
  facet normal -0.24871 0.968578 0
    outer loop
      vertex 0.281072 -1.47343 1.47343
      vertex 0.463525 -1.42658 4.5
      vertex 0.463525 -1.42658 1.42658
    endloop
  endfacet
  facet normal 0.998026 -0.0628013 0
    outer loop
      vertex -1.5 0 4.5
      vertex -1.48817 0.188 0.188
      vertex -1.48817 0.188 4.5
    endloop
  endfacet
  facet normal 0.998026 -0.0628013 0
    outer loop
      vertex -1.48817 0.188 0.188
      vertex -1.5 0 4.5
      vertex -1.5 0 0
    endloop
  endfacet
  facet normal 0.24871 0.968578 -0
    outer loop
      vertex -0.281072 -1.47343 1.47343
      vertex -0.463525 -1.42658 4.5
      vertex -0.281072 -1.47343 4.5
    endloop
  endfacet
  facet normal 0.24871 0.968578 0
    outer loop
      vertex -0.463525 -1.42658 4.5
      vertex -0.281072 -1.47343 1.47343
      vertex -0.463525 -1.42658 1.42658
    endloop
  endfacet
  facet normal 0.587778 -0.809022 0
    outer loop
      vertex -0.956136 1.15577 4.5
      vertex -0.80374 1.26649 1.26649
      vertex -0.80374 1.26649 4.5
    endloop
  endfacet
  facet normal 0.587778 -0.809022 0
    outer loop
      vertex -0.80374 1.26649 1.26649
      vertex -0.956136 1.15577 4.5
      vertex -0.956136 1.15577 1.15577
    endloop
  endfacet
  facet normal -0.368106 0.929784 0
    outer loop
      vertex 0.638668 -1.35724 4.5
      vertex 0.463525 -1.42658 1.42658
      vertex 0.463525 -1.42658 4.5
    endloop
  endfacet
  facet normal -0.368106 0.929784 0
    outer loop
      vertex 0.463525 -1.42658 1.42658
      vertex 0.638668 -1.35724 4.5
      vertex 0.638668 -1.35724 1.35724
    endloop
  endfacet
  facet normal 0.481757 0.876305 -0
    outer loop
      vertex -0.638668 -1.35724 1.35724
      vertex -0.80374 -1.26649 4.5
      vertex -0.638668 -1.35724 4.5
    endloop
  endfacet
  facet normal 0.481757 0.876305 0
    outer loop
      vertex -0.80374 -1.26649 4.5
      vertex -0.638668 -1.35724 1.35724
      vertex -0.80374 -1.26649 1.26649
    endloop
  endfacet
  facet normal -0.951057 0.309017 0
    outer loop
      vertex 1.39466 -0.552186 0.552186
      vertex 1.45287 -0.373034 4.5
      vertex 1.45287 -0.373034 0.373034
    endloop
  endfacet
  facet normal -0.951057 0.309017 0
    outer loop
      vertex 1.45287 -0.373034 4.5
      vertex 1.39466 -0.552186 0.552186
      vertex 1.39466 -0.552186 4.5
    endloop
  endfacet
  facet normal -0.481757 -0.876305 0
    outer loop
      vertex 0.638668 1.35724 1.35724
      vertex 0.80374 1.26649 4.5
      vertex 0.638668 1.35724 4.5
    endloop
  endfacet
  facet normal -0.481757 -0.876305 -0
    outer loop
      vertex 0.80374 1.26649 4.5
      vertex 0.638668 1.35724 1.35724
      vertex 0.80374 1.26649 1.26649
    endloop
  endfacet
  facet normal -0.587778 0.809022 0
    outer loop
      vertex 0.956136 -1.15577 4.5
      vertex 0.80374 -1.26649 1.26649
      vertex 0.80374 -1.26649 4.5
    endloop
  endfacet
  facet normal -0.587778 0.809022 0
    outer loop
      vertex 0.80374 -1.26649 1.26649
      vertex 0.956136 -1.15577 4.5
      vertex 0.956136 -1.15577 1.15577
    endloop
  endfacet
  facet normal -0.982284 -0.187396 -0
    outer loop
      vertex 1.48817 0.188 4.5
      vertex 1.45287 0.373034 0.373034
      vertex 1.48817 0.188 0.188
    endloop
  endfacet
  facet normal -0.982284 -0.187396 0
    outer loop
      vertex 1.45287 0.373034 0.373034
      vertex 1.48817 0.188 4.5
      vertex 1.45287 0.373034 4.5
    endloop
  endfacet
  facet normal 0.684557 -0.728959 0
    outer loop
      vertex -1.09345 1.02682 4.5
      vertex -0.956136 1.15577 1.15577
      vertex -0.956136 1.15577 4.5
    endloop
  endfacet
  facet normal 0.684557 -0.728959 0
    outer loop
      vertex -0.956136 1.15577 1.15577
      vertex -1.09345 1.02682 4.5
      vertex -1.09345 1.02682 1.02682
    endloop
  endfacet
  facet normal -0.481757 0.876305 0
    outer loop
      vertex 0.80374 -1.26649 4.5
      vertex 0.638668 -1.35724 1.35724
      vertex 0.638668 -1.35724 4.5
    endloop
  endfacet
  facet normal -0.481757 0.876305 0
    outer loop
      vertex 0.638668 -1.35724 1.35724
      vertex 0.80374 -1.26649 4.5
      vertex 0.80374 -1.26649 1.26649
    endloop
  endfacet
  facet normal -0.125337 -0.992114 0
    outer loop
      vertex 0.0941849 1.49704 1.49704
      vertex 0.281072 1.47343 4.5
      vertex 0.0941849 1.49704 4.5
    endloop
  endfacet
  facet normal -0.125337 -0.992114 -0
    outer loop
      vertex 0.281072 1.47343 4.5
      vertex 0.0941849 1.49704 1.49704
      vertex 0.281072 1.47343 1.47343
    endloop
  endfacet
  facet normal -0.904838 -0.425756 -0
    outer loop
      vertex 1.39466 0.552186 4.5
      vertex 1.31446 0.722631 0.722631
      vertex 1.39466 0.552186 0.552186
    endloop
  endfacet
  facet normal -0.904838 -0.425756 0
    outer loop
      vertex 1.31446 0.722631 0.722631
      vertex 1.39466 0.552186 4.5
      vertex 1.31446 0.722631 4.5
    endloop
  endfacet
  facet normal 0.951057 0.309017 -0
    outer loop
      vertex -1.39466 -0.552186 0.552186
      vertex -1.45287 -0.373034 4.5
      vertex -1.39466 -0.552186 4.5
    endloop
  endfacet
  facet normal 0.951057 0.309017 0
    outer loop
      vertex -1.45287 -0.373034 4.5
      vertex -1.39466 -0.552186 0.552186
      vertex -1.45287 -0.373034 0.373034
    endloop
  endfacet
  facet normal -0.951057 -0.309017 -0
    outer loop
      vertex 1.45287 0.373034 4.5
      vertex 1.39466 0.552186 0.552186
      vertex 1.45287 0.373034 0.373034
    endloop
  endfacet
  facet normal -0.951057 -0.309017 0
    outer loop
      vertex 1.39466 0.552186 0.552186
      vertex 1.45287 0.373034 4.5
      vertex 1.39466 0.552186 4.5
    endloop
  endfacet
  facet normal 0 1 -0
    outer loop
      vertex 0.0941849 -1.49704 1.49704
      vertex -0.0941849 -1.49704 4.5
      vertex 0.0941849 -1.49704 4.5
    endloop
  endfacet
  facet normal 0 1 0
    outer loop
      vertex -0.0941849 -1.49704 4.5
      vertex 0.0941849 -1.49704 1.49704
      vertex -0.0941849 -1.49704 1.49704
    endloop
  endfacet
  facet normal 0.684557 0.728959 -0
    outer loop
      vertex -0.956136 -1.15577 1.15577
      vertex -1.09345 -1.02682 4.5
      vertex -0.956136 -1.15577 4.5
    endloop
  endfacet
  facet normal 0.684557 0.728959 0
    outer loop
      vertex -1.09345 -1.02682 4.5
      vertex -0.956136 -1.15577 1.15577
      vertex -1.09345 -1.02682 1.02682
    endloop
  endfacet
  facet normal -0.844314 0.535848 0
    outer loop
      vertex 1.21352 -0.881678 0.881678
      vertex 1.31446 -0.722631 4.5
      vertex 1.31446 -0.722631 0.722631
    endloop
  endfacet
  facet normal -0.844314 0.535848 0
    outer loop
      vertex 1.31446 -0.722631 4.5
      vertex 1.21352 -0.881678 0.881678
      vertex 1.21352 -0.881678 4.5
    endloop
  endfacet
  facet normal -0.24871 -0.968578 0
    outer loop
      vertex 0.281072 1.47343 1.47343
      vertex 0.463525 1.42658 4.5
      vertex 0.281072 1.47343 4.5
    endloop
  endfacet
  facet normal -0.24871 -0.968578 -0
    outer loop
      vertex 0.463525 1.42658 4.5
      vertex 0.281072 1.47343 1.47343
      vertex 0.463525 1.42658 1.42658
    endloop
  endfacet
  facet normal 0.368106 0.929784 -0
    outer loop
      vertex -0.463525 -1.42658 1.42658
      vertex -0.638668 -1.35724 4.5
      vertex -0.463525 -1.42658 4.5
    endloop
  endfacet
  facet normal 0.368106 0.929784 0
    outer loop
      vertex -0.638668 -1.35724 4.5
      vertex -0.463525 -1.42658 1.42658
      vertex -0.638668 -1.35724 1.35724
    endloop
  endfacet
  facet normal -0.125337 0.992114 0
    outer loop
      vertex 0.281072 -1.47343 4.5
      vertex 0.0941849 -1.49704 1.49704
      vertex 0.0941849 -1.49704 4.5
    endloop
  endfacet
  facet normal -0.125337 0.992114 0
    outer loop
      vertex 0.0941849 -1.49704 1.49704
      vertex 0.281072 -1.47343 4.5
      vertex 0.281072 -1.47343 1.47343
    endloop
  endfacet
  facet normal 0.770518 -0.637418 0
    outer loop
      vertex -1.21352 0.881678 4.5
      vertex -1.09345 1.02682 1.02682
      vertex -1.09345 1.02682 4.5
    endloop
  endfacet
  facet normal 0.770518 -0.637418 0
    outer loop
      vertex -1.09345 1.02682 1.02682
      vertex -1.21352 0.881678 4.5
      vertex -1.21352 0.881678 0.881678
    endloop
  endfacet
  facet normal -0.684557 -0.728959 0
    outer loop
      vertex 0.956136 1.15577 1.15577
      vertex 1.09345 1.02682 4.5
      vertex 0.956136 1.15577 4.5
    endloop
  endfacet
  facet normal -0.684557 -0.728959 -0
    outer loop
      vertex 1.09345 1.02682 4.5
      vertex 0.956136 1.15577 1.15577
      vertex 1.09345 1.02682 1.02682
    endloop
  endfacet
  facet normal 0.844314 -0.535848 0
    outer loop
      vertex -1.31446 0.722631 4.5
      vertex -1.21352 0.881678 0.881678
      vertex -1.21352 0.881678 4.5
    endloop
  endfacet
  facet normal 0.844314 -0.535848 0
    outer loop
      vertex -1.21352 0.881678 0.881678
      vertex -1.31446 0.722631 4.5
      vertex -1.31446 0.722631 0.722631
    endloop
  endfacet
  facet normal 0.904838 -0.425756 0
    outer loop
      vertex -1.39466 0.552186 4.5
      vertex -1.31446 0.722631 0.722631
      vertex -1.31446 0.722631 4.5
    endloop
  endfacet
  facet normal 0.904838 -0.425756 0
    outer loop
      vertex -1.31446 0.722631 0.722631
      vertex -1.39466 0.552186 4.5
      vertex -1.39466 0.552186 0.552186
    endloop
  endfacet
  facet normal 0.368106 -0.929784 0
    outer loop
      vertex -0.638668 1.35724 4.5
      vertex -0.463525 1.42658 1.42658
      vertex -0.463525 1.42658 4.5
    endloop
  endfacet
  facet normal 0.368106 -0.929784 0
    outer loop
      vertex -0.463525 1.42658 1.42658
      vertex -0.638668 1.35724 4.5
      vertex -0.638668 1.35724 1.35724
    endloop
  endfacet
  facet normal -0.368106 -0.929784 0
    outer loop
      vertex 0.463525 1.42658 1.42658
      vertex 0.638668 1.35724 4.5
      vertex 0.463525 1.42658 4.5
    endloop
  endfacet
  facet normal -0.368106 -0.929784 -0
    outer loop
      vertex 0.638668 1.35724 4.5
      vertex 0.463525 1.42658 1.42658
      vertex 0.638668 1.35724 1.35724
    endloop
  endfacet
  facet normal -0.998026 -0.0628013 -0
    outer loop
      vertex 1.5 0 4.5
      vertex 1.48817 0.188 0.188
      vertex 1.5 0 0
    endloop
  endfacet
  facet normal -0.998026 -0.0628013 0
    outer loop
      vertex 1.48817 0.188 0.188
      vertex 1.5 0 4.5
      vertex 1.48817 0.188 4.5
    endloop
  endfacet
  facet normal 0.982284 -0.187396 0
    outer loop
      vertex -1.48817 0.188 4.5
      vertex -1.45287 0.373034 0.373034
      vertex -1.45287 0.373034 4.5
    endloop
  endfacet
  facet normal 0.982284 -0.187396 0
    outer loop
      vertex -1.45287 0.373034 0.373034
      vertex -1.48817 0.188 4.5
      vertex -1.48817 0.188 0.188
    endloop
  endfacet
  facet normal 0.844314 0.535848 -0
    outer loop
      vertex -1.21352 -0.881678 0.881678
      vertex -1.31446 -0.722631 4.5
      vertex -1.21352 -0.881678 4.5
    endloop
  endfacet
  facet normal 0.844314 0.535848 0
    outer loop
      vertex -1.31446 -0.722631 4.5
      vertex -1.21352 -0.881678 0.881678
      vertex -1.31446 -0.722631 0.722631
    endloop
  endfacet
  facet normal -0.844314 -0.535848 -0
    outer loop
      vertex 1.31446 0.722631 4.5
      vertex 1.21352 0.881678 0.881678
      vertex 1.31446 0.722631 0.722631
    endloop
  endfacet
  facet normal -0.844314 -0.535848 0
    outer loop
      vertex 1.21352 0.881678 0.881678
      vertex 1.31446 0.722631 4.5
      vertex 1.21352 0.881678 4.5
    endloop
  endfacet
  facet normal 0.125337 -0.992114 0
    outer loop
      vertex -0.281072 1.47343 4.5
      vertex -0.0941849 1.49704 1.49704
      vertex -0.0941849 1.49704 4.5
    endloop
  endfacet
  facet normal 0.125337 -0.992114 0
    outer loop
      vertex -0.0941849 1.49704 1.49704
      vertex -0.281072 1.47343 4.5
      vertex -0.281072 1.47343 1.47343
    endloop
  endfacet
  facet normal 0.770518 0.637418 -0
    outer loop
      vertex -1.09345 -1.02682 1.02682
      vertex -1.21352 -0.881678 4.5
      vertex -1.09345 -1.02682 4.5
    endloop
  endfacet
  facet normal 0.770518 0.637418 0
    outer loop
      vertex -1.21352 -0.881678 4.5
      vertex -1.09345 -1.02682 1.02682
      vertex -1.21352 -0.881678 0.881678
    endloop
  endfacet
  facet normal -0.770518 0.637418 0
    outer loop
      vertex 1.09345 -1.02682 1.02682
      vertex 1.21352 -0.881678 4.5
      vertex 1.21352 -0.881678 0.881678
    endloop
  endfacet
  facet normal -0.770518 0.637418 0
    outer loop
      vertex 1.21352 -0.881678 4.5
      vertex 1.09345 -1.02682 1.02682
      vertex 1.09345 -1.02682 4.5
    endloop
  endfacet
  facet normal -0.587778 -0.809022 0
    outer loop
      vertex 0.80374 1.26649 1.26649
      vertex 0.956136 1.15577 4.5
      vertex 0.80374 1.26649 4.5
    endloop
  endfacet
  facet normal -0.587778 -0.809022 -0
    outer loop
      vertex 0.956136 1.15577 4.5
      vertex 0.80374 1.26649 1.26649
      vertex 0.956136 1.15577 1.15577
    endloop
  endfacet
  facet normal 0.24871 -0.968578 0
    outer loop
      vertex -0.463525 1.42658 4.5
      vertex -0.281072 1.47343 1.47343
      vertex -0.281072 1.47343 4.5
    endloop
  endfacet
  facet normal 0.24871 -0.968578 0
    outer loop
      vertex -0.281072 1.47343 1.47343
      vertex -0.463525 1.42658 4.5
      vertex -0.463525 1.42658 1.42658
    endloop
  endfacet
  facet normal 0 -1 0
    outer loop
      vertex -0.0941849 1.49704 1.49704
      vertex 0.0941849 1.49704 4.5
      vertex -0.0941849 1.49704 4.5
    endloop
  endfacet
  facet normal 0 -1 -0
    outer loop
      vertex 0.0941849 1.49704 4.5
      vertex -0.0941849 1.49704 1.49704
      vertex 0.0941849 1.49704 1.49704
    endloop
  endfacet
  facet normal 0.587778 0.809022 -0
    outer loop
      vertex -0.80374 -1.26649 1.26649
      vertex -0.956136 -1.15577 4.5
      vertex -0.80374 -1.26649 4.5
    endloop
  endfacet
  facet normal 0.587778 0.809022 0
    outer loop
      vertex -0.956136 -1.15577 4.5
      vertex -0.80374 -1.26649 1.26649
      vertex -0.956136 -1.15577 1.15577
    endloop
  endfacet
  facet normal 0.904838 0.425756 -0
    outer loop
      vertex -1.31446 -0.722631 0.722631
      vertex -1.39466 -0.552186 4.5
      vertex -1.31446 -0.722631 4.5
    endloop
  endfacet
  facet normal 0.904838 0.425756 0
    outer loop
      vertex -1.39466 -0.552186 4.5
      vertex -1.31446 -0.722631 0.722631
      vertex -1.39466 -0.552186 0.552186
    endloop
  endfacet
  facet normal -0.770518 -0.637418 -0
    outer loop
      vertex 1.21352 0.881678 4.5
      vertex 1.09345 1.02682 1.02682
      vertex 1.21352 0.881678 0.881678
    endloop
  endfacet
  facet normal -0.770518 -0.637418 0
    outer loop
      vertex 1.09345 1.02682 1.02682
      vertex 1.21352 0.881678 4.5
      vertex 1.09345 1.02682 4.5
    endloop
  endfacet
  facet normal 0.481757 -0.876305 0
    outer loop
      vertex -0.80374 1.26649 4.5
      vertex -0.638668 1.35724 1.35724
      vertex -0.638668 1.35724 4.5
    endloop
  endfacet
  facet normal 0.481757 -0.876305 0
    outer loop
      vertex -0.638668 1.35724 1.35724
      vertex -0.80374 1.26649 4.5
      vertex -0.80374 1.26649 1.26649
    endloop
  endfacet
  facet normal 0.951057 -0.309017 0
    outer loop
      vertex -1.45287 0.373034 4.5
      vertex -1.39466 0.552186 0.552186
      vertex -1.39466 0.552186 4.5
    endloop
  endfacet
  facet normal 0.951057 -0.309017 0
    outer loop
      vertex -1.39466 0.552186 0.552186
      vertex -1.45287 0.373034 4.5
      vertex -1.45287 0.373034 0.373034
    endloop
  endfacet
  facet normal 0.998026 0.0628013 -0
    outer loop
      vertex -1.48817 -0.188 0.188
      vertex -1.5 0 4.5
      vertex -1.48817 -0.188 4.5
    endloop
  endfacet
  facet normal 0.998026 0.0628013 0
    outer loop
      vertex -1.5 0 4.5
      vertex -1.48817 -0.188 0.188
      vertex -1.5 0 0
    endloop
  endfacet
  facet normal 0.982284 0.187396 -0
    outer loop
      vertex -1.45287 -0.373034 0.373034
      vertex -1.48817 -0.188 4.5
      vertex -1.45287 -0.373034 4.5
    endloop
  endfacet
  facet normal 0.982284 0.187396 0
    outer loop
      vertex -1.48817 -0.188 4.5
      vertex -1.45287 -0.373034 0.373034
      vertex -1.48817 -0.188 0.188
    endloop
  endfacet
endsolid OpenSCAD_Model
